<?xml version='1.0' encoding='utf-8'?>
<svg xmlns="http://www.w3.org/2000/svg" width="100%" height="100%" viewBox="0 0 4000 4000" version="1.1" style="fill-rule:evenodd;clip-rule:evenodd;stroke-linejoin:round;stroke-miterlimit:2;stroke-width:4.22578;stroke:#C0EAFF;stroke-opacity:1;fill:#6EBFFF;fill-opacity:0.35"><path d="M2000,3166.67c644.333,0 1166.67,-522.335 1166.67,-1166.67c0,-643.902 -522.766,-1166.67 -1166.67,-1166.67c-644.333,-0 -1166.67,522.335 -1166.67,1166.67l46.782,0c0,-618.496 501.39,-1119.89 1119.89,-1119.89c618.082,0 1119.89,501.804 1119.89,1119.89c-0,618.496 -501.39,1119.89 -1119.89,1119.89l0,46.782Z"></path>
  <path d="M3016.67,2000c0,-561.491 -455.178,-1016.67 -1016.67,-1016.67c-561.115,-0 -1016.67,455.553 -1016.67,1016.67c-0,561.491 455.178,1016.67 1016.67,1016.67l0,-40.767c-538.975,-0 -975.901,-436.926 -975.901,-975.901c0,-538.614 437.287,-975.901 975.901,-975.901c538.975,0 975.901,436.926 975.901,975.901l40.767,-0Z"></path>
  <path d="M2000,1153.33c-467.602,-0 -846.668,379.066 -846.668,846.668c-0,467.289 379.379,846.668 846.668,846.668c467.602,0 846.669,-379.066 846.668,-846.668l-33.95,-0c-0,448.851 -363.866,812.718 -812.718,812.718c-448.551,-0 -812.718,-364.167 -812.718,-812.718c0,-448.851 363.866,-812.717 812.718,-812.718l-0,-33.95Z"></path>
  <path d="M2000,2676.67c373.714,0 676.668,-302.954 676.668,-676.668c0,-373.463 -303.205,-676.668 -676.668,-676.668c-373.714,-0 -676.669,302.954 -676.668,676.668l27.134,0c-0.001,-358.728 290.806,-649.534 649.534,-649.534c358.488,-0 649.534,291.046 649.534,649.534c0,358.728 -290.806,649.534 -649.534,649.534l0,27.134Z"></path>
  <path d="M668.332,2000c-0,735.46 596.208,1331.67 1331.67,1331.67c734.968,0 1331.67,-596.7 1331.67,-1331.67c0,-735.46 -596.208,-1331.67 -1331.67,-1331.67l-0,53.399c705.969,-0 1278.27,572.3 1278.27,1278.27c0,705.496 -572.773,1278.27 -1278.27,1278.27c-705.969,0 -1278.27,-572.3 -1278.27,-1278.27l-53.399,0Z"></path>
  <path d="M2150.06,455.669c-99.806,-9.698 -200.318,-9.698 -300.124,0l-0,63.25c-159.14,16.124 -314.64,57.79 -460.52,123.396l-31.626,-54.776c-91.284,41.504 -178.329,91.76 -259.915,150.062l31.625,54.777c-129.757,93.533 -243.591,207.367 -337.124,337.124l-54.777,-31.625c-58.302,81.586 -108.558,168.631 -150.062,259.915l54.776,31.626c-65.606,145.88 -107.272,301.38 -123.396,460.52l-63.25,-0c-9.698,99.806 -9.698,200.318 0,300.124l63.25,0c16.124,159.14 57.79,314.64 123.396,460.52l-54.776,31.626c41.504,91.284 91.76,178.329 150.062,259.915l54.777,-31.625c93.533,129.757 207.367,243.591 337.124,337.124l-31.625,54.777c81.586,58.302 168.631,108.558 259.915,150.062l31.626,-54.776c145.88,65.606 301.38,107.272 460.52,123.396l-0,63.25c99.806,9.698 200.318,9.698 300.124,-0l0,-63.25c159.14,-16.124 314.64,-57.79 460.52,-123.396l31.626,54.776c91.284,-41.504 178.329,-91.76 259.915,-150.062l-31.625,-54.777c129.757,-93.533 243.591,-207.367 337.124,-337.124l54.777,31.625c58.302,-81.586 108.558,-168.631 150.062,-259.915l-54.776,-31.626c65.606,-145.88 107.272,-301.38 123.396,-460.52l63.25,0c9.698,-99.806 9.698,-200.318 -0,-300.124l-63.25,-0c-16.124,-159.14 -57.79,-314.64 -123.396,-460.52l54.776,-31.626c-41.504,-91.284 -91.76,-178.329 -150.062,-259.915l-54.777,31.625c-93.533,-129.757 -207.367,-243.591 -337.124,-337.124l31.625,-54.777c-81.586,-58.302 -168.631,-108.558 -259.915,-150.062l-31.626,54.776c-145.88,-65.606 -301.38,-107.272 -460.52,-123.396l0,-63.25Zm-150.062,85.478c805.163,-0 1458.85,653.69 1458.85,1458.85c0,805.163 -653.69,1458.85 -1458.85,1458.85c-805.163,0 -1458.85,-653.69 -1458.85,-1458.85c-0,-805.163 653.69,-1458.85 1458.85,-1458.85Z"></path>
  <path d="M3220.54,838.221l-10.439,-10.773l-1210.1,1172.55l10.438,10.772l1210.1,-1172.55Z"></path>
  <path d="M3554.94,3726.08l11.794,-10.772l-1566.73,-1715.31l-11.794,10.772l1566.73,1715.31Z"></path>
  <path d="M1377.07,2256.91l-5.503,-14.251l628.438,-242.657l5.503,14.251l-628.438,242.657Z"></path>
  <circle cx="3377.5" cy="777.5" r="50" style="" transform="matrix(1, 0, 0, 0.999999, -127.499992, 18.414764)"></circle>
  <circle cx="3566.73" cy="3726.08" r="50" style="" transform="matrix(1, 0, 0, 1.000002, 22.051258, 23.91227)"></circle>
  <circle cx="1371.56" cy="2238.33" r="77.5" style="" transform="matrix(0.632363, 0, 0, 0.645163, 483.668091, 816.91217)"></circle>
</svg>