<?xml version='1.0' encoding='utf-8'?>
<svg xmlns="http://www.w3.org/2000/svg" width="100%" height="100%" viewBox="0 0 4000 4000" version="1.1" style="fill-rule:evenodd;clip-rule:evenodd;stroke-linecap:round;stroke-linejoin:round;stroke-miterlimit:1.5;fill:#C0EAFF">
<path d="M2529.93,3562.59c671.354,-227.681 1122.24,-858.75 1120.06,-1567.66c-1.345,-437.606 -176.473,-856.753 -486.858,-1165.24l-17.011,17.115c305.845,303.971 478.412,716.989 479.738,1148.19c2.147,698.539 -442.145,1320.38 -1103.68,1544.73l7.75,22.853Z" style="stroke:#C0EAFF;stroke-width:8.33px;"/>
<path d="M3419.56,1524.76c-204.186,-609.904 -775.134,-1021.22 -1418.31,-1021.75c-397.029,-0.332 -777.928,157.069 -1058.9,437.576l15.468,15.494c276.868,-276.405 652.196,-431.504 1043.42,-431.177c633.768,0.53 1196.37,405.827 1397.57,1006.81l20.761,-6.95Z" style="stroke:#C0EAFF;stroke-width:8.33px;"/>
<path d="M850.696,1040.78c-412.124,493.791 -462.772,1195.64 -125.818,1743.49c208,338.183 541.824,579.888 928.034,671.941l5.077,-21.297c-380.562,-90.707 -709.504,-328.877 -914.462,-662.114c-332.026,-539.835 -282.119,-1231.42 123.977,-1717.99l-16.808,-14.029Z" style="stroke:#C0EAFF;stroke-width:8.33px;"/>
<path d="M1761.88,3477.94c614.339,98.98 1225.85,-192.402 1535.97,-731.882c197.867,-344.21 250.892,-752.925 147.412,-1136.23l-21.137,5.706c101.967,377.701 49.717,780.438 -145.256,1119.61c-305.581,531.59 -908.148,818.711 -1513.5,721.178l-3.482,21.615Z" style="stroke:#C0EAFF;stroke-width:8.33px;"/>
<path d="M1573.86,710.396c-554.069,183.087 -929.265,699.63 -932.034,1283.16c-1.709,360.209 139.744,706.345 393.242,962.26l14.112,-13.979c-249.79,-252.172 -389.175,-593.246 -387.491,-948.187c2.729,-574.995 372.437,-1083.98 918.403,-1264.39l-6.232,-18.86Z" style="stroke:#C0EAFF;stroke-width:8.33px;"/>
<path d="M828.475,2382.05c164.143,503.337 631.454,845.572 1160.86,850.154c326.799,2.829 641.338,-124.279 874.42,-353.361l-12.632,-12.854c-229.674,225.732 -539.612,350.981 -861.632,348.194c-521.664,-4.515 -982.14,-341.744 -1143.88,-837.721l-17.133,5.588Z" style="stroke:#C0EAFF;stroke-width:8.33px;"/>
<path d="M2342.46,3064.24c457.243,-147.136 769.399,-569.897 775.434,-1050.19c3.726,-296.484 -110.479,-582.305 -317.491,-794.585l-11.706,11.415c203.984,209.176 316.519,490.817 312.848,782.965c-5.947,473.271 -313.537,889.849 -764.093,1034.83l5.008,15.565Z" style="stroke:#C0EAFF;stroke-width:8.33px;"/>
<path d="M2966.76,1693.07c-131.869,-415.363 -514.319,-700.071 -950.053,-707.25c-268.977,-4.432 -528.697,98.168 -722.026,285.23l10.315,10.661c190.502,-184.326 446.424,-285.426 711.467,-281.059c429.361,7.075 806.217,287.618 936.158,696.907l14.139,-4.489Z" style="stroke:#C0EAFF;stroke-width:8.33px;"/>
<path d="M1724.96,1121.8c-377.312,118.167 -636.974,464.14 -645.034,859.442c-4.975,244.017 87.19,480.017 256.218,656.082l9.709,-9.321c-166.556,-173.49 -257.373,-406.038 -252.471,-646.487c7.942,-389.52 263.806,-730.433 635.6,-846.872l-4.022,-12.844Z" style="stroke:#C0EAFF;stroke-width:8.33px;"/>
<path d="M1242.08,2234.12c100.586,325.633 397.933,550.622 738.647,558.901c210.321,5.111 414.059,-73.537 566.392,-218.643l-8.002,-8.4c-150.105,142.983 -350.863,220.482 -558.108,215.446c-335.731,-8.159 -628.729,-229.857 -727.844,-550.728l-11.085,3.424Z" style="stroke:#C0EAFF;stroke-width:8.33px;"/>
<path d="M1477.96,434.76c-388.13,129.45 -714.322,398.487 -915.263,754.893l21.021,11.851c198.002,-351.193 519.423,-616.296 901.877,-743.852l-7.635,-22.892Z" style="stroke:#C0EAFF;stroke-width:8.33px;"/>
<path d="M888.071,3219.06c302.289,275.724 696.238,429.302 1105.38,430.925l0.096,-24.131c-403.161,-1.6 -791.349,-152.931 -1089.22,-424.622l-16.262,17.828Z" style="stroke:#C0EAFF;stroke-width:8.33px;"/><path d="M350.009,2005.3c0.563,175.162 29.014,349.117 84.284,515.331l22.898,-7.615c-54.462,-163.783 -82.496,-335.193 -83.051,-507.793l-24.131,0.077Z" style="stroke:#C0EAFF;stroke-width:8.33px;"/><path d="M487.038,2658.37c69.891,160.614 164.912,309.076 281.493,439.807l18.011,-16.06c-114.877,-128.82 -208.508,-275.11 -277.377,-433.376l-22.127,9.629Z" style="stroke:#C0EAFF;stroke-width:8.33px;"/><path d="M488.718,1337.79c-70.3,160.437 -114.605,331.044 -131.251,505.414l24.022,2.293c16.403,-171.82 60.06,-339.932 129.332,-498.022l-22.103,-9.685Z" style="stroke:#C0EAFF;stroke-width:8.33px;"/>
<path d="M2099.08,352.978c-174.847,-10.519 -350.253,6.871 -519.63,51.516l6.15,23.334c166.9,-43.992 339.741,-61.127 512.03,-50.762l1.45,-24.088Z" style="stroke:#C0EAFF;stroke-width:8.33px;"/>
<path d="M3099.25,769.492c-249.047,-222.481 -559.741,-364.156 -891.021,-406.3l-3.045,23.938c326.435,41.528 632.585,181.131 877.989,400.358l16.077,-17.996Z" style="stroke:#C0EAFF;stroke-width:8.33px;"/>
<path d="M663.312,3106.45c475.376,574.298 1264.46,780.759 1960.19,512.875c71.968,-27.711 142.009,-60.189 209.657,-97.218l-12.185,-22.26c-66.658,36.487 -135.675,68.49 -206.591,95.795c-685.554,263.966 -1463.1,60.525 -1931.52,-505.374l-19.55,16.182Z" style="stroke:#C0EAFF;stroke-width:8.33px;"/>
<path d="M3735.21,1999.97c-0.013,-745.52 -476.234,-1407.71 -1183,-1644.97c-73.11,-24.543 -147.774,-44.184 -223.497,-58.793l-4.808,24.918c74.616,14.395 148.188,33.75 220.229,57.933c696.424,233.785 1165.68,886.291 1165.69,1620.91l25.378,-0Z" style="stroke:#C0EAFF;stroke-width:8.33px;"/>
<path d="M1992.26,2731.46c2.577,0.027 5.158,0.04 7.742,0.04c0.606,0 1.211,-0.001 1.766,-0.002l-0.251,61.527l-9.508,-0.039l0.251,-61.526Zm34.866,-0.455l1.882,61.49l-9.504,0.291l-1.882,-61.495c3.165,-0.075 6.325,-0.17 9.504,-0.286Zm-60.219,-0.242c3.159,0.141 6.327,0.262 9.501,0.363l-2.383,61.475l-9.501,-0.368l2.383,-61.47Zm85.545,-1.118l4.012,61.368l-9.488,0.62l-4.012,-61.376c3.185,-0.185 6.365,-0.39 9.488,-0.612Zm-110.86,-0.448c3.156,0.25 6.318,0.48 9.483,0.689l-4.511,61.338l-9.483,-0.697l4.511,-61.33Zm136.125,-1.785l6.134,61.168l-9.46,0.949l-6.135,-61.178c3.16,-0.293 6.314,-0.606 9.461,-0.939Zm-161.371,-0.653c3.146,0.359 6.298,0.698 9.453,1.016l-6.632,61.122l-9.453,-1.026l6.632,-61.112Zm186.545,-2.452l8.247,60.892l-9.422,1.276l-8.248,-60.902c3.165,-0.404 6.323,-0.829 9.423,-1.266Zm-211.693,-0.859c3.13,0.468 6.265,0.915 9.413,1.343l-8.744,60.829l-9.411,-1.352l8.742,-60.82Zm236.745,-3.12l10.349,60.546l-9.372,1.602l-10.351,-60.554c3.127,-0.511 6.247,-1.041 9.374,-1.594Zm-261.763,-1.064c3.111,0.577 6.229,1.133 9.36,1.67l-10.843,60.466l-9.358,-1.678l10.841,-60.458Zm286.661,-3.784l12.438,60.13l-9.311,1.926l-12.439,-60.137c3.117,-0.622 6.226,-1.263 9.312,-1.919Zm-311.519,-1.269c3.094,0.685 6.195,1.351 9.296,1.996l-12.928,60.033l-9.295,-2.002l12.927,-60.027Zm336.234,-4.446l14.511,59.649l-9.238,2.248l-14.513,-59.654c3.099,-0.731 6.189,-1.482 9.24,-2.243Zm-360.901,-1.472c3.066,0.792 6.138,1.565 9.221,2.319l-14.998,59.535l-9.22,-2.323l14.997,-59.531Zm385.401,-5.104l16.569,59.104l-9.155,2.567l-16.569,-59.106c3.071,-0.838 6.134,-1.696 9.155,-2.565Zm-409.846,-1.673c3.036,0.899 6.08,1.779 9.134,2.64l-17.051,58.972l-9.134,-2.641l17.051,-58.971Zm434.102,-5.755l18.608,58.495l-9.061,2.882l-18.607,-58.493c3.037,-0.945 6.065,-1.909 9.06,-2.884Zm-458.295,-1.873c3.004,1.005 6.016,1.991 9.036,2.958l-19.085,58.346l-9.037,-2.956l19.086,-58.348Zm482.276,-6.398l20.627,57.822l-8.955,3.194l-20.626,-57.818c2.995,-1.048 5.982,-2.114 8.954,-3.198Zm-506.188,-2.07c2.965,1.108 5.938,2.198 8.927,3.272l-21.099,57.655l-8.928,-3.267l21.1,-57.66Zm529.865,-7.034l22.624,57.085l-8.839,3.504l-22.622,-57.08c2.947,-1.148 5.884,-2.315 8.837,-3.509Zm-553.466,-2.265c2.929,1.214 5.868,2.409 8.808,3.582l-23.091,56.903l-8.81,-3.575l23.093,-56.91Zm576.81,-7.66l24.598,56.286l-8.712,3.808l-24.595,-56.279c2.917,-1.254 5.823,-2.528 8.709,-3.815Zm-600.072,-2.456c2.879,1.313 5.769,2.607 8.678,3.887l-25.058,56.087l-8.681,-3.878l25.061,-56.096Zm623.056,-8.276l26.545,55.423l-8.575,4.107l-26.541,-55.413c2.877,-1.359 5.744,-2.736 8.571,-4.117Zm-645.95,-2.644c2.835,1.414 5.681,2.809 8.537,4.187l-26.998,55.208l-8.542,-4.177l27.003,-55.218Zm668.545,-8.881l28.465,54.495l-8.428,4.402l-28.459,-54.485c2.828,-1.458 5.645,-2.934 8.422,-4.412Zm-691.045,-2.828c2.786,1.512 5.582,3.006 8.386,4.481l-28.909,54.264l-8.391,-4.47l28.914,-54.275Zm713.225,-9.474l30.352,53.502l-8.27,4.691l-30.346,-53.491c2.771,-1.553 5.532,-3.123 8.264,-4.702Zm-735.303,-3.009c2.727,1.605 5.465,3.192 8.225,4.769l-30.789,53.257l-8.231,-4.759l30.795,-53.267Zm757.043,-10.055l32.204,52.444l-8.102,4.976l-32.198,-52.435c2.706,-1.642 5.401,-3.302 8.096,-4.985Zm-778.675,-3.186c2.674,1.701 5.359,3.385 8.055,5.052l-32.633,52.184l-8.061,-5.041l32.639,-52.195Zm799.948,-10.622l34.02,51.321l-7.925,5.254l-34.014,-51.312c2.653,-1.739 5.294,-3.493 7.919,-5.263Zm-821.107,-3.358c2.609,1.79 5.23,3.563 7.875,5.327l-34.44,51.047l-7.882,-5.318l34.447,-51.056Zm841.889,-11.176l35.795,50.133l-7.738,5.525l-35.789,-50.126c2.59,-1.827 5.168,-3.672 7.732,-5.532Zm-862.552,-3.527c2.548,1.881 5.11,3.746 7.687,5.596l-36.206,49.845l-7.693,-5.587l36.212,-49.854Zm882.82,-11.716l37.526,48.881l-7.542,5.79l-37.521,-48.875c2.519,-1.911 5.024,-3.838 7.537,-5.796Zm-902.963,-3.69c2.483,1.967 4.978,3.919 7.489,5.857l-37.927,48.58l-7.494,-5.851l37.932,-48.586Zm922.692,-12.242l39.21,47.566l-7.337,6.047l-39.205,-47.56c2.454,-2 4.895,-4.014 7.332,-6.053Zm-942.291,-3.849c2.412,2.05 4.837,4.086 7.283,6.112l-39.601,47.251l-7.287,-6.107l39.605,-47.256Zm961.46,-12.752l40.844,46.187l-7.123,6.299l-40.841,-46.185c2.38,-2.078 4.745,-4.172 7.12,-6.301Zm-980.493,-4.004c2.341,2.133 4.695,4.251 7.069,6.359l-41.226,45.861l-7.071,-6.356l41.228,-45.864Zm999.078,-13.248l42.425,44.749l-6.899,6.542l-42.424,-44.748c2.31,-2.163 4.606,-4.34 6.898,-6.543Zm-1017.52,-4.153c2.269,2.215 4.551,4.415 6.846,6.598l-42.796,44.411l-6.847,-6.598l42.797,-44.411Zm1035.5,-13.727l43.951,43.252l-6.669,6.777l-43.951,-43.252c2.243,-2.251 4.472,-4.515 6.669,-6.777Zm-1053.34,-4.298c2.185,2.285 4.384,4.556 6.615,6.83l-44.312,42.901l-6.613,-6.831l44.31,-42.9Zm1070.69,-14.19l45.42,41.697l-6.43,7.004l-45.422,-41.699c2.164,-2.326 4.313,-4.666 6.432,-7.002Zm-1087.9,-4.438c2.104,2.358 4.223,4.703 6.375,7.053l-45.768,41.336l-6.373,-7.056l45.766,-41.333Zm1104.61,-14.637l46.828,40.09l-6.184,7.222l-46.832,-40.093c2.074,-2.388 4.133,-4.79 6.188,-7.219Zm-1121.16,-4.573c2.026,2.436 4.069,4.858 6.129,7.269l-47.165,39.717l-6.125,-7.273l47.161,-39.713Zm1137.2,-15.067l48.175,38.431l-5.929,7.433l-48.181,-38.436c1.994,-2.463 3.973,-4.94 5.935,-7.428Zm-1153.08,-4.702c1.941,2.504 3.898,4.994 5.874,7.476l-48.499,38.048l-5.869,-7.481l48.494,-38.043Zm1168.44,-15.479l49.46,36.724l-5.668,7.633l-49.468,-36.729c1.912,-2.534 3.807,-5.082 5.676,-7.628Zm-1183.63,-4.826c1.86,2.579 3.737,5.144 5.613,7.674l-49.771,36.33l-5.606,-7.679l49.764,-36.325Zm1198.28,-15.874l50.68,34.971l-5.4,7.826l-50.689,-34.977c1.816,-2.589 3.615,-5.19 5.409,-7.82Zm-1212.77,-4.944c1.759,2.625 3.535,5.238 5.345,7.864l-50.979,34.567l-5.336,-7.869l50.97,-34.562Zm1226.69,-16.25l51.836,33.177l-5.125,8.008l-51.847,-33.184c1.731,-2.659 3.446,-5.33 5.136,-8.001Zm-1240.45,-5.057c1.678,2.702 3.374,5.391 5.069,8.044l-52.121,32.764l-5.06,-8.05l52.112,-32.758Zm1253.63,-16.608l52.928,31.344l-4.845,8.181l-52.939,-31.35c1.633,-2.708 3.248,-5.428 4.856,-8.175Zm-1266.64,-5.163c1.578,2.748 3.173,5.484 4.788,8.214l-53.199,30.922l-4.778,-8.221l53.189,-30.915Zm1279.07,-16.947l53.956,29.475l-4.559,8.344l-53.965,-29.481c1.538,-2.764 3.058,-5.539 4.568,-8.338Zm-1291.32,-5.264c1.485,2.807 2.988,5.604 4.5,8.376l-54.211,29.044l-4.49,-8.381l54.201,-29.039Zm1302.97,-17.266l54.918,27.574l-4.266,8.497l-54.928,-27.579c1.445,-2.823 2.872,-5.657 4.276,-8.492Zm-1314.44,-5.357c1.386,2.857 2.79,5.705 4.206,8.527l-55.159,27.133l-4.197,-8.531l55.15,-27.129Zm1325.3,-17.565l55.817,25.642l-3.97,8.64l-55.825,-25.646c1.345,-2.87 2.671,-5.75 3.978,-8.636Zm-1335.97,-5.445c1.284,2.9 2.586,5.789 3.907,8.668l-56.042,25.194l-3.899,-8.672l56.034,-25.19Zm1346.03,-17.842l56.652,23.683l-3.668,8.772l-56.658,-23.686c1.243,-2.912 2.467,-5.834 3.674,-8.769Zm-1355.89,-5.527c1.178,2.933 2.375,5.856 3.602,8.799l-56.86,23.228l-3.596,-8.802l56.854,-23.225Zm1365.13,-18.098l57.423,21.699l-3.361,8.894l-57.428,-21.701c1.141,-2.956 2.263,-5.922 3.366,-8.892Zm-1374.18,-5.601c1.079,2.984 2.178,5.959 3.293,8.919l-57.616,21.237l-3.288,-8.921l57.611,-21.235Zm1382.59,-18.332l58.132,19.692l-3.051,9.005l-58.135,-19.693c1.036,-2.991 2.054,-5.991 3.054,-9.004Zm-1390.8,-5.67c0.977,3.028 1.974,6.048 2.979,9.029l-58.307,19.224l-2.977,-9.03l58.305,-19.223Zm1398.36,-18.543l58.777,17.664l-2.736,9.106l-58.778,-17.665c0.932,-3.027 1.844,-6.064 2.737,-9.105Zm-1405.73,-5.731c0.872,3.065 1.763,6.122 2.661,9.128l-58.936,17.19l-2.662,-9.128l58.937,-17.19Zm1412.44,-18.732l59.36,15.618l-2.42,9.195l-59.357,-15.617c0.824,-3.055 1.629,-6.117 2.417,-9.196Zm-1418.96,-5.784c0.765,3.094 1.549,6.18 2.341,9.215l-59.501,15.138l-2.344,-9.215l59.504,-15.138Zm1424.81,-18.898l59.878,13.553l-2.099,9.273l-59.872,-13.552c0.717,-3.082 1.414,-6.172 2.093,-9.274Zm-1430.46,-5.831c0.654,3.114 1.329,6.222 2.017,9.291l-60.001,13.069l-2.024,-9.291l60.008,-13.069Zm1435.46,-19.041l60.33,11.473l-1.776,9.341l-60.323,-11.472c0.61,-3.108 1.2,-6.223 1.769,-9.342Zm-1440.24,-5.87c0.545,3.128 1.109,6.249 1.693,9.356l-60.436,10.984l-1.701,-9.355l60.444,-10.985Zm1444.36,-19.159l60.715,9.378l-1.451,9.397l-60.706,-9.377c0.501,-3.127 0.982,-6.26 1.442,-9.398Zm-1448.28,-5.902c0.433,3.132 0.887,6.258 1.365,9.409l-60.803,8.885l-1.375,-9.407l60.813,-8.887Zm1451.53,-19.254l61.029,7.27l-1.124,9.441l-61.02,-7.269c0.391,-3.141 0.763,-6.287 1.115,-9.442Zm-1454.57,-5.928c0.327,3.166 0.675,6.326 1.039,9.452l-61.101,6.774l-1.048,-9.45l61.11,-6.776Zm1456.94,-19.326l61.269,5.153l-0.796,9.475l-61.261,-5.152c0.282,-3.155 0.545,-6.314 0.788,-9.476Zm-1459.11,-5.944c0.216,3.155 0.452,6.304 0.711,9.481l-61.324,4.655l-0.719,-9.481l61.332,-4.655Zm1460.62,-19.375l61.432,3.027l-0.468,9.496l-61.425,-3.026c0.174,-3.158 0.328,-6.324 0.461,-9.497Zm-1461.91,-5.955c0.109,3.176 0.237,6.346 0.385,9.5l-61.47,2.527l-0.39,-9.5l61.475,-2.527Zm1462.55,-19.4l61.51,0.896l-0.139,9.506l-61.507,-0.895c0.065,-3.181 0.111,-6.346 0.136,-9.507Zm-1462.96,-11.267c-0.014,1.821 -0.02,3.596 -0.02,5.372c-0,1.373 0.004,2.744 0.012,4.136l-61.535,-0.052l0.008,-9.508l61.535,0.052Zm1462.73,-14.095l61.5,-1.237l0.192,9.506l-61.504,1.237c-0.042,-3.193 -0.105,-6.381 -0.188,-9.506Zm-1462.11,-11.259c-0.131,3.161 -0.242,6.329 -0.332,9.502l-61.491,-2.185l0.338,-9.502l61.485,2.185Zm1461.01,-14.08l61.404,-3.368l0.521,9.494l-61.411,3.368c-0.151,-3.176 -0.323,-6.347 -0.514,-9.494Zm-1459.53,-11.24c-0.239,3.157 -0.459,6.319 -0.658,9.485l-61.361,-4.314l0.667,-9.484l61.352,4.313Zm1457.56,-14.047l61.226,-5.493l0.85,9.47l-61.236,5.493c-0.26,-3.153 -0.539,-6.301 -0.84,-9.47Zm-1455.2,-11.207c-0.349,3.147 -0.678,6.3 -0.986,9.457l-61.15,-6.436l0.995,-9.456l61.141,6.435Zm1452.36,-13.998l60.973,-7.609l1.178,9.435l-60.984,7.61c-0.37,-3.161 -0.76,-6.316 -1.167,-9.436Zm-1449.13,-11.16c-0.457,3.132 -0.895,6.271 -1.312,9.417l-60.865,-8.548l1.322,-9.416l60.855,8.547Zm1445.42,-13.932l60.648,-9.714l1.504,9.388l-60.658,9.715c-0.476,-3.125 -0.973,-6.244 -1.494,-9.389Zm-1441.31,-11.099c-0.567,3.117 -1.114,6.241 -1.64,9.366l-60.507,-10.65l1.648,-9.364l60.499,10.648Zm1436.73,-13.85l60.255,-11.806l1.828,9.331l-60.262,11.807c-0.587,-3.117 -1.194,-6.227 -1.821,-9.332Zm-1431.76,-11.024c-0.675,3.094 -1.33,6.196 -1.966,9.303l-60.08,-12.736l1.971,-9.302l60.075,12.735Zm1426.3,-13.749l59.794,-13.885l2.15,9.262l-59.798,13.885c-0.697,-3.101 -1.414,-6.195 -2.146,-9.262Zm-1420.46,-10.937c-0.782,3.068 -1.545,6.143 -2.289,9.228l-59.588,-14.807l2.293,-9.227l59.584,14.806Zm1414.15,-13.632l59.267,-15.946l2.471,9.181l-59.27,15.947c-0.806,-3.077 -1.631,-6.146 -2.468,-9.182Zm-1407.45,-10.835c-0.889,3.039 -1.759,6.086 -2.61,9.143l-59.031,-16.862l2.612,-9.142l59.029,16.861Zm1400.28,-13.498l58.678,-17.991l2.787,9.09l-58.677,17.991c-0.912,-3.045 -1.844,-6.083 -2.788,-9.09Zm-1392.73,-10.72c-0.995,3.007 -1.972,6.023 -2.929,9.046l-58.409,-18.898l2.926,-9.046l58.412,18.898Zm1384.71,-13.347l58.024,-20.016l3.101,8.988l-58.022,20.015c-1.016,-3.006 -2.051,-6.003 -3.103,-8.987Zm-1376.32,-10.592c-1.1,2.971 -2.182,5.951 -3.243,8.938l-57.725,-20.914l3.238,-8.939l57.73,20.915Zm1367.47,-13.18l57.308,-22.021l3.41,8.876l-57.303,22.018c-1.117,-2.96 -2.253,-5.91 -3.415,-8.873Zm-1358.25,-10.451c-1.204,2.932 -2.39,5.875 -3.553,8.819l-56.978,-22.907l3.547,-8.822l56.984,22.91Zm1348.57,-12.997l56.528,-24.002l3.716,8.752l-56.52,23.998c-1.226,-2.932 -2.47,-5.854 -3.724,-8.748Zm-1338.53,-10.298c-1.305,2.889 -2.593,5.789 -3.858,8.69l-56.168,-24.877l3.85,-8.693l56.176,24.88Zm1328.04,-12.798l55.685,-25.957l4.017,8.618l-55.676,25.953c-1.319,-2.87 -2.656,-5.73 -4.026,-8.614Zm-1317.19,-10.132c-1.405,2.84 -2.791,5.69 -4.159,8.55l-55.294,-26.819l4.149,-8.555l55.304,26.824Zm1305.91,-12.583l54.777,-27.885l4.313,8.473l-54.767,27.88c-1.419,-2.825 -2.856,-5.64 -4.323,-8.468Zm-1294.27,-9.954c-1.504,2.792 -2.991,5.596 -4.454,8.4l-54.356,-28.733l4.444,-8.406l54.366,28.739Zm1282.2,-12.355l53.804,-29.782l4.604,8.319l-53.794,29.776c-1.515,-2.772 -3.048,-5.533 -4.614,-8.313Zm-1269.79,-9.764c-1.599,2.737 -3.18,5.485 -4.742,8.24l-53.354,-30.615l4.732,-8.247l53.364,30.622Zm1256.95,-12.111l52.766,-31.646l4.89,8.154l-52.756,31.64c-1.618,-2.732 -3.254,-5.451 -4.9,-8.148Zm-1243.78,-9.564c-1.689,2.675 -3.362,5.361 -5.025,8.072l-52.287,-32.464l5.015,-8.078l52.297,32.47Zm1230.2,-11.853l51.663,-33.473l5.17,7.98l-51.654,33.466c-1.703,-2.66 -3.423,-5.308 -5.179,-7.973Zm-1216.29,-9.352c-1.787,2.625 -3.558,5.261 -5.301,7.893l-51.156,-34.274l5.293,-7.898l51.164,34.279Zm1201.97,-11.581l50.496,-35.26l5.443,7.795l-50.487,35.254c-1.795,-2.6 -3.606,-5.189 -5.452,-7.789Zm-1187.33,-9.129c-1.871,2.553 -3.727,5.12 -5.57,7.705l-49.96,-36.043l5.563,-7.711l49.967,36.049Zm1172.3,-11.297l49.264,-37.004l5.71,7.602l-49.256,36.999c-1.893,-2.55 -3.802,-5.087 -5.718,-7.597Zm-1156.96,-8.895c-1.96,2.489 -3.904,4.991 -5.833,7.508l-48.7,-37.769l5.827,-7.513l48.706,37.774Zm1141.23,-10.999l47.968,-38.703l5.97,7.399l-47.961,38.699c-1.971,-2.471 -3.958,-4.93 -5.977,-7.395Zm-1125.21,-8.652c-2.045,2.421 -4.074,4.855 -6.089,7.302l-47.377,-39.447l6.084,-7.306l47.382,39.451Zm1108.81,-10.688l46.608,-40.353l6.224,7.188l-46.605,40.349c-2.066,-2.415 -4.148,-4.817 -6.227,-7.184Zm-1092.11,-8.399c-2.127,2.35 -4.24,4.713 -6.336,7.089l-45.992,-41.076l6.334,-7.091l45.994,41.078Zm1075.05,-10.365l45.188,-41.951l6.469,6.968l-45.186,41.949c-2.141,-2.334 -4.296,-4.654 -6.471,-6.966Zm-1057.71,-8.136c-2.211,2.279 -4.407,4.572 -6.577,6.867l-44.546,-42.651l6.576,-6.868l44.547,42.652Zm1040.02,-10.03l43.709,-43.494l6.706,6.74l-43.708,43.494c-2.218,-2.257 -4.45,-4.5 -6.707,-6.74Zm-1022.05,-7.863c-2.283,2.197 -4.552,4.409 -6.808,6.636l-43.042,-44.171l6.809,-6.635l43.041,44.17Zm1003.75,-9.683l42.172,-44.98l6.936,6.503l-42.174,44.982c-2.295,-2.182 -4.605,-4.349 -6.934,-6.505Zm-985.172,-7.581c-2.357,2.116 -4.7,4.248 -7.033,6.398l-41.482,-45.633l7.036,-6.396l41.479,45.631Zm966.272,-9.325l40.58,-46.407l7.157,6.258l-40.583,46.411c-2.376,-2.107 -4.766,-4.198 -7.154,-6.262Zm-947.116,-7.29c-2.435,2.04 -4.858,4.095 -7.249,6.152l-39.867,-47.035l7.252,-6.148l39.864,47.031Zm927.644,-8.955l38.937,-47.774l7.37,6.007l-38.941,47.779c-2.443,-2.02 -4.899,-4.025 -7.366,-6.012Zm-907.926,-6.991c-2.505,1.955 -4.997,3.927 -7.457,5.899l-38.202,-48.376l7.461,-5.892l38.198,48.369Zm887.906,-8.575l37.244,-49.077l7.574,5.748l-37.249,49.084c-2.507,-1.931 -5.026,-3.847 -7.569,-5.755Zm-867.65,-6.682c-2.563,1.861 -5.113,3.739 -7.656,5.638l-36.489,-49.652l7.661,-5.631l36.484,49.645Zm847.104,-8.183l35.505,-50.318l7.769,5.482l-35.511,50.326c-2.578,-1.849 -5.168,-3.681 -7.763,-5.49Zm-826.333,-6.367c-2.63,1.775 -5.247,3.566 -7.846,5.371l-34.731,-50.865l7.852,-5.362l34.725,50.856Zm805.285,-7.781l33.724,-51.494l7.954,5.209l-33.73,51.503c-2.642,-1.76 -5.297,-3.503 -7.948,-5.218Zm-784.023,-6.042c-2.686,1.682 -5.362,3.381 -8.027,5.096l-32.93,-52.013l8.033,-5.086l32.924,52.003Zm762.498,-7.37l31.902,-52.605l8.13,4.93l-31.909,52.615c-2.698,-1.665 -5.407,-3.312 -8.123,-4.94Zm-740.768,-5.709c-2.734,1.581 -5.456,3.18 -8.199,4.815l-31.092,-53.097l8.205,-4.804l31.086,53.086Zm718.789,-6.949l30.044,-53.653l8.296,4.646l-30.05,53.663c-2.752,-1.57 -5.516,-3.122 -8.29,-4.656Zm-696.618,-5.37c-2.794,1.49 -5.576,2.996 -8.361,4.528l-29.217,-54.115l8.366,-4.517l29.212,54.104Zm674.213,-6.518l28.152,-54.635l8.452,4.355l-28.157,54.645c-2.801,-1.47 -5.612,-2.923 -8.447,-4.365Zm-651.627,-5.023c-2.845,1.392 -5.679,2.801 -8.513,4.234l-27.31,-55.067l8.517,-4.225l27.306,55.058Zm628.821,-6.08l26.229,-55.553l8.598,4.059l-26.234,55.563c-2.855,-1.375 -5.721,-2.732 -8.593,-4.069Zm-605.846,-4.669c-2.887,1.29 -5.764,2.598 -8.655,3.935l-25.374,-55.956l8.66,-3.926l25.369,55.947Zm582.666,-5.632l24.279,-56.408l8.733,3.759l-24.282,56.415c-2.903,-1.275 -5.815,-2.531 -8.73,-3.766Zm-559.329,-4.309c-2.947,1.195 -5.885,2.409 -8.788,3.63l-23.409,-56.78l8.79,-3.624l23.407,56.774Zm535.803,-5.178l22.302,-57.199l8.859,3.454l-22.305,57.204c-2.944,-1.172 -5.897,-2.325 -8.856,-3.459Zm-512.133,-3.944c-2.972,1.086 -5.935,2.191 -8.909,3.322l-21.421,-57.541l8.911,-3.317l21.419,57.536Zm488.29,-4.716l20.302,-57.927l8.973,3.144l-20.304,57.931c-2.979,-1.068 -5.968,-2.116 -8.971,-3.148Zm-464.316,-3.573c-3.016,0.984 -6.024,1.988 -9.019,3.008l-19.41,-58.238l9.021,-3.006l19.408,58.236Zm440.184,-4.248l18.281,-58.593l9.076,2.832l-18.281,58.593c-3.015,-0.963 -6.04,-1.907 -9.076,-2.832Zm-415.934,-3.198c-3.053,0.879 -6.098,1.777 -9.119,2.691l-17.378,-58.872l9.119,-2.692l17.378,58.873Zm391.543,-3.775l16.24,-59.194l9.169,2.515l-16.239,59.192c-3.049,-0.857 -6.106,-1.695 -9.17,-2.513Zm-367.047,-2.819c-3.083,0.772 -6.157,1.564 -9.208,2.371l-15.327,-59.442l9.207,-2.374l15.328,59.445Zm342.428,-3.297l14.18,-59.732l9.251,2.196l-14.179,59.728c-3.074,-0.75 -6.155,-1.479 -9.252,-2.192Zm-317.718,-2.436c-3.104,0.663 -6.2,1.346 -9.285,2.048l-13.259,-59.949l9.283,-2.053l13.261,59.954Zm292.901,-2.816l12.104,-60.205l9.322,1.874l-12.103,60.198c-3.102,-0.642 -6.21,-1.264 -9.323,-1.867Zm-268.006,-2.051c-3.117,0.553 -6.228,1.126 -9.35,1.722l-11.177,-60.389l9.349,-1.731l11.178,60.398Zm243.021,-2.332l10.014,-60.611l9.381,1.549l-10.012,60.603c-3.12,-0.534 -6.246,-1.047 -9.383,-1.541Zm-217.972,-1.665c-3.157,0.447 -6.309,0.915 -9.404,1.396l-9.08,-60.763l9.403,-1.405l9.081,60.772Zm192.851,-1.847l7.91,-60.947l9.429,1.223l-7.909,60.938c-3.136,-0.424 -6.278,-0.828 -9.43,-1.214Zm-167.679,-1.278c-3.156,0.337 -6.306,0.693 -9.447,1.069l-6.971,-61.066l9.447,-1.078l6.971,61.075Zm142.452,-1.36l5.795,-61.211l9.465,0.896l-5.793,61.202c-3.149,-0.316 -6.303,-0.611 -9.467,-0.887Zm-117.188,-0.89c-3.183,0.228 -6.362,0.476 -9.479,0.741l-4.851,-61.296l9.478,-0.75l4.852,61.305Zm91.886,-0.875l3.67,-61.398l9.491,0.567l-3.67,61.39c-3.158,-0.206 -6.322,-0.393 -9.491,-0.559Zm-66.56,-0.504c-3.166,0.117 -6.328,0.255 -9.499,0.415l-2.724,-61.45l9.498,-0.421l2.725,61.456Zm41.213,-0.391l1.54,-61.503l9.505,0.238l-1.54,61.498c-3.165,-0.098 -6.333,-0.176 -9.505,-0.233Zm-15.855,-0.12c-3.181,0.009 -6.358,0.04 -9.508,0.09l-0.593,-61.52l9.508,-0.091l0.593,61.521Z"/>
<path d="M1988.17,3118.85c3.943,0.042 7.89,0.062 11.843,0.062c0.926,0 1.852,-0.001 2.701,-0.003l-0.384,94.113l-14.543,-0.059l0.383,-94.113Zm53.331,-0.694l2.88,94.056l-14.537,0.445l-2.879,-94.064c4.841,-0.115 9.674,-0.26 14.536,-0.437Zm-92.111,-0.371c4.833,0.216 9.678,0.401 14.533,0.555l-3.646,94.034l-14.532,-0.564l3.645,-94.025Zm130.851,-1.711l6.136,93.871l-14.512,0.948l-6.137,-93.883c4.872,-0.282 9.736,-0.596 14.513,-0.936Zm-169.573,-0.684c4.827,0.382 9.664,0.734 14.505,1.054l-6.901,93.824l-14.504,-1.067l6.9,-93.811Zm208.219,-2.731l9.383,93.564l-14.471,1.451l-9.384,-93.578c4.834,-0.448 9.659,-0.927 14.472,-1.437Zm-246.836,-0.998c4.812,0.549 9.634,1.067 14.46,1.554l-10.146,93.492l-14.458,-1.569l10.144,-93.477Zm285.343,-3.752l12.615,93.142l-14.412,1.952l-12.617,-93.157c4.841,-0.618 9.672,-1.267 14.414,-1.937Zm-323.81,-1.313c4.787,0.715 9.584,1.4 14.398,2.054l-13.375,93.046l-14.395,-2.069l13.372,-93.031Zm362.129,-4.772l15.83,92.612l-14.335,2.45l-15.833,-92.625c4.783,-0.781 9.556,-1.592 14.338,-2.437Zm-400.397,-1.628c4.759,0.882 9.528,1.733 14.317,2.555l-16.585,92.489l-14.316,-2.567l16.584,-92.477Zm438.482,-5.789l19.025,91.977l-14.242,2.946l-19.027,-91.987c4.768,-0.951 9.524,-1.931 14.244,-2.936Zm-476.505,-1.94c4.732,1.048 9.475,2.066 14.219,3.052l-19.775,91.828l-14.218,-3.062l19.774,-91.818Zm514.309,-6.802l22.198,91.242l-14.132,3.437l-22.198,-91.247c4.739,-1.119 9.466,-2.267 14.132,-3.432Zm-552.04,-2.251c4.688,1.212 9.389,2.394 14.104,3.547l-22.941,91.066l-14.103,-3.553l22.94,-91.06Zm589.517,-7.806l25.343,90.406l-14.003,3.926l-25.345,-90.409c4.698,-1.283 9.384,-2.595 14.005,-3.923Zm-626.909,-2.56c4.643,1.375 9.299,2.721 13.972,4.038l-26.082,90.205l-13.971,-4.04l26.081,-90.203Zm664.01,-8.803l28.463,89.475l-13.859,4.409l-28.462,-89.473c4.646,-1.445 9.278,-2.919 13.858,-4.411Zm-701.017,-2.865c4.595,1.538 9.203,3.046 13.822,4.525l-29.193,89.246l-13.823,-4.521l29.194,-89.25Zm737.699,-9.786l31.552,88.445l-13.698,4.886l-31.55,-88.44c4.582,-1.602 9.151,-3.234 13.696,-4.891Zm-774.275,-3.167c4.535,1.695 9.083,3.362 13.656,5.005l-32.274,88.191l-13.657,-4.998l32.275,-88.198Zm810.492,-10.759l34.607,87.319l-13.52,5.359l-34.604,-87.311c4.508,-1.756 9.001,-3.54 13.517,-5.367Zm-846.592,-3.464c4.48,1.856 8.976,3.684 13.472,5.478l-35.32,87.041l-13.476,-5.469l35.324,-87.05Zm882.3,-11.717l37.626,86.096l-13.326,5.824l-37.621,-86.084c4.461,-1.92 8.907,-3.868 13.321,-5.836Zm-917.882,-3.757c4.404,2.007 8.823,3.987 13.273,5.945l-38.328,85.793l-13.279,-5.933l38.334,-85.805Zm953.038,-12.659l40.605,84.775l-13.116,6.283l-40.599,-84.762c4.401,-2.078 8.786,-4.184 13.11,-6.296Zm-988.057,-4.044c4.337,2.162 8.69,4.296 13.058,6.404l-41.297,84.447l-13.065,-6.39l41.304,-84.461Zm1022.62,-13.585l43.54,83.356l-12.89,6.734l-43.533,-83.341c4.327,-2.23 8.636,-4.488 12.883,-6.749Zm-1057.04,-4.326c4.26,2.312 8.538,4.598 12.827,6.854l-44.22,83.004l-12.836,-6.838l44.229,-83.02Zm1090.96,-14.492l46.427,81.838l-12.65,7.176l-46.418,-81.822c4.239,-2.375 8.461,-4.777 12.641,-7.192Zm-1124.74,-4.602c4.171,2.454 8.359,4.882 12.582,7.295l-47.096,81.462l-12.59,-7.279l47.104,-81.478Zm1157.99,-15.38l49.261,80.219l-12.393,7.611l-49.252,-80.205c4.14,-2.512 8.262,-5.051 12.384,-7.625Zm-1191.08,-4.873c4.089,2.601 8.197,5.177 12.321,7.726l-49.917,79.822l-12.33,-7.711l49.926,-79.837Zm1223.62,-16.248l52.038,78.502l-12.122,8.035l-52.029,-78.488c4.058,-2.659 8.098,-5.343 12.113,-8.049Zm-1255.98,-5.137c3.991,2.737 8.001,5.45 12.046,8.148l-52.68,78.083l-12.056,-8.134l52.69,-78.097Zm1287.77,-17.096l54.752,76.686l-11.836,8.45l-54.743,-76.673c3.961,-2.796 7.904,-5.617 11.827,-8.463Zm-1319.38,-5.394c3.899,2.877 7.817,5.729 11.758,8.56l-55.381,76.244l-11.767,-8.547l55.39,-76.257Zm1350.38,-17.921l57.4,74.77l-11.536,8.856l-57.393,-74.76c3.853,-2.924 7.685,-5.872 11.529,-8.866Zm-1381.19,-5.645c3.797,3.01 7.615,5.995 11.456,8.96l-58.015,74.309l-11.463,-8.95l58.022,-74.319Zm1411.37,-18.725l59.976,72.758l-11.222,9.25l-59.97,-72.75c3.754,-3.058 7.488,-6.14 11.216,-9.258Zm-1441.35,-5.888c3.689,3.137 7.398,6.25 11.14,9.349l-60.575,72.277l-11.147,-9.342l60.582,-72.284Zm1470.67,-19.506l62.475,70.65l-10.894,9.634l-62.472,-70.645c3.64,-3.179 7.259,-6.382 10.891,-9.639Zm-1499.78,-6.124c3.581,3.262 7.182,6.502 10.812,9.727l-63.059,70.15l-10.816,-9.723l63.063,-70.154Zm1528.21,-20.264l64.895,68.449l-10.554,10.006l-64.893,-68.447c3.534,-3.308 7.046,-6.639 10.552,-10.008Zm-1556.42,-6.353c3.47,3.388 6.961,6.754 10.471,10.093l-65.462,67.931l-10.472,-10.092l65.463,-67.932Zm1583.93,-20.997l67.229,66.159l-10.201,10.366l-67.229,-66.159c3.431,-3.442 6.84,-6.906 10.201,-10.366Zm-1611.21,-6.575c3.341,3.496 6.705,6.97 10.118,10.448l-67.78,65.622l-10.116,-10.448l67.778,-65.622Zm1637.76,-21.705l69.474,63.782l-9.835,10.713l-69.478,-63.785c3.31,-3.558 6.598,-7.137 9.839,-10.71Zm-1664.07,-6.789c3.219,3.608 6.46,7.194 9.752,10.79l-70.008,63.228l-9.748,-10.793l70.004,-63.225Zm1689.63,-22.388l71.629,61.322l-9.458,11.048l-71.636,-61.328c3.172,-3.653 6.321,-7.326 9.465,-11.042Zm-1714.95,-6.995c3.1,3.726 6.224,7.431 9.375,11.119l-72.145,60.752l-9.368,-11.125l72.138,-60.746Zm1739.49,-23.046l73.69,58.784l-9.07,11.369l-73.698,-58.791c3.05,-3.769 6.077,-7.557 9.078,-11.362Zm-1763.78,-7.192c2.97,3.829 5.963,7.638 8.986,11.435l-74.186,58.198l-8.976,-11.443l74.176,-58.19Zm1787.27,-23.678l75.655,56.173l-8.67,11.677l-75.666,-56.182c2.923,-3.877 5.823,-7.773 8.681,-11.668Zm-1810.51,-7.381c2.845,3.943 5.715,7.867 8.586,11.738l-76.131,55.571l-8.575,-11.747l76.12,-55.562Zm1832.92,-24.282l77.521,53.493l-8.26,11.97l-77.535,-53.502c2.777,-3.959 5.53,-7.938 8.274,-11.961Zm-1855.07,-7.562c2.691,4.015 5.407,8.011 8.175,12.028l-77.978,52.875l-8.162,-12.037l77.965,-52.866Zm1876.37,-24.857l79.29,50.748l-7.84,12.249l-79.306,-50.758c2.648,-4.067 5.271,-8.153 7.856,-12.239Zm-1897.41,-7.735c2.568,4.132 5.161,8.247 7.755,12.304l-79.726,50.116l-7.74,-12.313l79.711,-50.107Zm1917.58,-25.405l80.96,47.945l-7.41,12.513l-80.976,-47.953c2.496,-4.142 4.967,-8.302 7.426,-12.505Zm-1937.48,-7.897c2.414,4.203 4.854,8.389 7.324,12.565l-81.374,47.298l-7.308,-12.574l81.358,-47.289Zm1956.49,-25.923l82.531,45.086l-6.972,12.763l-82.548,-45.094c2.353,-4.228 4.679,-8.473 6.989,-12.755Zm-1975.22,-8.051c2.271,4.294 4.57,8.572 6.883,12.812l-82.922,44.426l-6.868,-12.82l82.907,-44.418Zm1993.05,-26.41l84.003,42.177l-6.525,12.997l-84.019,-42.184c2.21,-4.319 4.393,-8.654 6.541,-12.99Zm-2010.59,-8.195c2.12,4.371 4.269,8.727 6.434,13.043l-84.372,41.504l-6.42,-13.05l84.358,-41.497Zm2027.2,-26.867l85.378,39.223l-6.071,13.215l-85.392,-39.228c2.057,-4.39 4.086,-8.796 6.085,-13.21Zm-2043.53,-8.329c1.964,4.435 3.956,8.855 5.976,13.259l-85.723,38.537l-5.963,-13.264l85.71,-38.532Zm2058.91,-27.292l86.656,36.226l-5.61,13.419l-86.666,-36.231c1.901,-4.455 3.774,-8.924 5.62,-13.414Zm-2074,-8.454c1.802,4.486 3.633,8.958 5.51,13.46l-86.975,35.529l-5.5,-13.463l86.965,-35.526Zm2088.14,-27.682l87.836,33.191l-5.141,13.604l-87.844,-33.194c1.746,-4.522 3.463,-9.059 5.149,-13.601Zm-2101.97,-8.569c1.651,4.565 3.331,9.115 5.037,13.644l-88.13,32.484l-5.03,-13.646l88.123,-32.482Zm2114.83,-28.041l88.92,30.122l-4.667,13.775l-88.924,-30.123c1.585,-4.576 3.141,-9.165 4.671,-13.774Zm-2127.39,-8.672c1.494,4.632 3.018,9.251 4.556,13.811l-89.187,29.405l-4.554,-13.812l89.185,-29.404Zm2138.96,-28.364l89.908,27.02l-4.186,13.928l-89.908,-27.02c1.425,-4.632 2.821,-9.276 4.186,-13.928Zm-2150.23,-8.766c1.333,4.688 2.697,9.364 4.071,13.962l-90.15,26.294l-4.072,-13.961l90.151,-26.295Zm2160.5,-28.653l90.798,23.889l-3.7,14.065l-90.794,-23.888c1.26,-4.673 2.491,-9.357 3.696,-14.066Zm-2170.47,-8.848c1.169,4.733 2.368,9.453 3.58,14.096l-91.013,23.155l-3.586,-14.095l91.019,-23.156Zm2179.42,-28.907l91.591,20.732l-3.211,14.184l-91.582,-20.729c1.097,-4.715 2.163,-9.441 3.202,-14.187Zm-2188.07,-8.919c1.001,4.764 2.033,9.517 3.086,14.213l-91.779,19.989l-3.095,-14.21l91.788,-19.992Zm2195.7,-29.124l92.282,17.549l-2.717,14.287l-92.271,-17.547c0.933,-4.754 1.835,-9.519 2.706,-14.289Zm-2203.02,-8.979c0.833,4.784 1.696,9.557 2.588,14.311l-92.444,16.801l-2.6,-14.309l92.456,-16.803Zm2209.33,-29.307l92.871,14.345l-2.221,14.373l-92.857,-14.342c0.766,-4.783 1.502,-9.575 2.207,-14.376Zm-2215.32,-9.028c0.663,4.792 1.356,9.573 2.089,14.393l-93.006,13.591l-2.103,-14.391l93.02,-13.593Zm2220.28,-29.452l93.352,11.122l-1.72,14.441l-93.337,-11.119c0.598,-4.804 1.167,-9.617 1.705,-14.444Zm-2224.94,-9.066c0.5,4.843 1.031,9.677 1.588,14.457l-93.46,10.363l-1.603,-14.455l93.475,-10.365Zm2228.57,-29.561l93.719,7.882l-1.219,14.492l-93.706,-7.881c0.433,-4.825 0.835,-9.657 1.206,-14.493Zm-2231.89,-9.093c0.33,4.826 0.691,9.643 1.087,14.502l-93.802,7.12l-1.101,-14.502l93.816,-7.12Zm2234.19,-29.636l93.967,4.63l-0.716,14.526l-93.957,-4.63c0.266,-4.83 0.502,-9.672 0.706,-14.526Zm-2236.17,-9.109c0.165,4.857 0.362,9.707 0.588,14.531l-94.025,3.866l-0.598,-14.532l94.035,-3.865Zm2237.14,-29.675l94.087,1.37l-0.212,14.542l-94.083,-1.37c0.1,-4.866 0.17,-9.707 0.208,-14.542Zm-2237.77,-17.233c-0.02,2.784 -0.03,5.499 -0.03,8.216c0,2.1 0.006,4.198 0.018,6.327l-94.124,-0.08l0.012,-14.543l94.124,0.08Zm2237.41,-21.561l94.072,-1.892l0.292,14.54l-94.076,1.893c-0.066,-4.884 -0.162,-9.76 -0.288,-14.541Zm-2236.47,-17.223c-0.201,4.836 -0.37,9.681 -0.509,14.535l-94.056,-3.342l0.516,-14.535l94.049,3.342Zm2234.79,-21.536l93.924,-5.152l0.797,14.522l-93.936,5.152c-0.231,-4.858 -0.493,-9.709 -0.785,-14.522Zm-2232.52,-17.193c-0.366,4.829 -0.702,9.666 -1.007,14.509l-93.858,-6.599l1.02,-14.508l93.845,6.598Zm2229.51,-21.487l93.654,-8.401l1.299,14.485l-93.668,8.403c-0.397,-4.824 -0.824,-9.64 -1.285,-14.487Zm-2225.91,-17.141c-0.534,4.812 -1.037,9.635 -1.508,14.465l-93.537,-9.845l1.523,-14.464l93.522,9.844Zm2221.56,-21.413l93.267,-11.638l1.801,14.432l-93.282,11.639c-0.566,-4.834 -1.163,-9.66 -1.786,-14.433Zm-2216.62,-17.07c-0.7,4.791 -1.37,9.592 -2.008,14.405l-93.1,-13.077l2.023,-14.402l93.085,13.074Zm2210.94,-21.311l92.769,-14.858l2.3,14.36l-92.783,14.86c-0.729,-4.78 -1.489,-9.551 -2.286,-14.362Zm-2204.66,-16.977c-0.868,4.768 -1.704,9.546 -2.508,14.326l-92.553,-16.29l2.52,-14.323l92.541,16.287Zm2197.65,-21.185l92.167,-18.059l2.796,14.273l-92.177,18.061c-0.898,-4.769 -1.827,-9.526 -2.786,-14.275Zm-2190.04,-16.863c-1.032,4.733 -2.034,9.477 -3.006,14.23l-91.901,-19.482l3.016,-14.227l91.891,19.479Zm2181.7,-21.031l91.461,-21.238l3.289,14.167l-91.468,21.239c-1.067,-4.744 -2.164,-9.477 -3.282,-14.168Zm-2172.77,-16.729c-1.196,4.692 -2.363,9.396 -3.501,14.116l-91.147,-22.65l3.507,-14.114l91.141,22.648Zm2163.11,-20.852l90.657,-24.392l3.779,14.044l-90.661,24.393c-1.232,-4.707 -2.494,-9.402 -3.775,-14.045Zm-2152.87,-16.573c-1.36,4.648 -2.691,9.309 -3.992,13.985l-90.295,-25.793l3.994,-13.984l90.293,25.792Zm2141.89,-20.647l89.755,-27.519l4.263,13.904l-89.754,27.52c-1.395,-4.659 -2.82,-9.305 -4.264,-13.905Zm-2130.35,-16.398c-1.522,4.601 -3.015,9.214 -4.479,13.837l-89.345,-28.907l4.477,-13.837l89.347,28.907Zm2118.09,-20.416l88.755,-30.617l4.743,13.748l-88.751,30.616c-1.554,-4.598 -3.137,-9.183 -4.747,-13.747Zm-2105.25,-16.202c-1.683,4.545 -3.337,9.103 -4.96,13.672l-88.298,-31.99l4.954,-13.674l88.304,31.992Zm2091.71,-20.16l87.659,-33.683l5.217,13.576l-87.652,33.68c-1.709,-4.527 -3.446,-9.04 -5.224,-13.573Zm-2077.6,-15.986c-1.842,4.485 -3.655,8.986 -5.434,13.49l-87.155,-35.04l5.424,-13.493l87.165,35.043Zm2062.8,-19.88l86.467,-36.714l5.684,13.387l-86.455,36.709c-1.874,-4.485 -3.777,-8.955 -5.696,-13.382Zm-2047.44,-15.752c-1.997,4.42 -3.966,8.855 -5.902,13.292l-85.916,-38.052l5.89,-13.297l85.928,38.057Zm2031.39,-19.576l85.176,-39.705l6.145,13.182l-85.163,39.698c-2.017,-4.39 -4.062,-8.764 -6.158,-13.175Zm-2014.81,-15.498c-2.148,4.344 -4.268,8.704 -6.361,13.079l-84.579,-41.024l6.347,-13.085l84.593,41.03Zm1997.54,-19.248l83.787,-42.653l6.598,12.96l-83.772,42.646c-2.171,-4.321 -4.369,-8.627 -6.613,-12.953Zm-1979.74,-15.226c-2.301,4.272 -4.574,8.56 -6.812,12.849l-83.145,-43.951l6.797,-12.858l83.16,43.96Zm1961.28,-18.898l82.3,-45.555l7.043,12.724l-82.284,45.547c-2.318,-4.24 -4.662,-8.463 -7.059,-12.716Zm-1942.3,-14.936c-2.445,4.187 -4.864,8.39 -7.254,12.605l-81.611,-46.83l7.239,-12.614l81.626,46.839Zm1922.66,-18.525l80.713,-48.406l7.48,12.473l-80.697,48.396c-2.476,-4.177 -4.978,-8.338 -7.496,-12.463Zm-1902.52,-14.629c-2.585,4.092 -5.143,8.201 -7.687,12.347l-79.979,-49.657l7.671,-12.356l79.995,49.666Zm1881.74,-18.13l79.025,-51.201l7.908,12.206l-79.01,51.191c-2.606,-4.069 -5.236,-8.119 -7.923,-12.196Zm-1860.46,-14.305c-2.734,4.014 -5.443,8.047 -8.109,12.073l-78.249,-52.425l8.095,-12.083l78.263,52.435Zm1838.56,-17.715l77.239,-53.935l8.327,11.924l-77.226,53.926c-2.746,-3.978 -5.517,-7.937 -8.34,-11.915Zm-1816.17,-13.964c-2.863,3.906 -5.702,7.831 -8.522,11.786l-76.419,-55.132l8.509,-11.795l76.432,55.141Zm1793.18,-17.279l75.355,-56.604l8.734,11.629l-75.343,56.595c-2.895,-3.9 -5.816,-7.781 -8.746,-11.62Zm-1769.71,-13.607c-2.997,3.807 -5.971,7.634 -8.922,11.484l-74.493,-57.771l8.913,-11.493l74.502,57.78Zm1745.66,-16.824l73.371,-59.202l9.133,11.319l-73.363,59.194c-3.015,-3.78 -6.054,-7.54 -9.141,-11.311Zm-1721.14,-13.235c-3.128,3.703 -6.232,7.427 -9.313,11.171l-72.469,-60.339l9.306,-11.177l72.476,60.345Zm1696.05,-16.348l71.294,-61.725l9.519,10.995l-71.287,61.719c-3.161,-3.695 -6.345,-7.369 -9.526,-10.989Zm-1670.51,-12.847c-3.254,3.594 -6.486,7.209 -9.692,10.843l-70.35,-62.83l9.688,-10.847l70.354,62.834Zm1644.42,-15.855l69.121,-64.169l9.895,10.659l-69.118,64.166c-3.273,-3.571 -6.57,-7.12 -9.898,-10.656Zm-1617.9,-12.445c-3.382,3.486 -6.741,6.994 -10.059,10.504l-68.139,-65.24l10.058,-10.505l68.14,65.241Zm1590.83,-15.342l66.858,-66.529l10.258,10.309l-66.857,66.529c-3.392,-3.452 -6.806,-6.883 -10.259,-10.309Zm-1563.35,-12.027c-3.493,3.361 -6.963,6.744 -10.415,10.151l-65.838,-67.565l10.416,-10.15l65.837,67.564Zm1535.35,-14.812l64.507,-68.802l10.61,9.947l-64.509,68.805c-3.512,-3.337 -7.045,-6.651 -10.608,-9.95Zm-1506.94,-11.596c-3.606,3.238 -7.19,6.499 -10.758,9.787l-63.451,-69.801l10.761,-9.783l63.448,69.797Zm1478.03,-14.263l62.073,-70.986l10.948,9.574l-62.077,70.991c-3.635,-3.223 -7.29,-6.423 -10.944,-9.579Zm-1448.73,-11.152c-3.726,3.121 -7.431,6.265 -11.089,9.411l-60.982,-71.946l11.094,-9.403l60.977,71.938Zm1418.94,-13.698l59.559,-73.075l11.273,9.188l-59.565,73.084c-3.737,-3.09 -7.493,-6.156 -11.267,-9.197Zm-1388.78,-10.693c-3.832,2.991 -7.643,6.007 -11.406,9.023l-58.436,-73.995l11.414,-9.014l58.428,73.986Zm1358.16,-13.116l56.969,-75.069l11.585,8.792l-56.977,75.08c-3.834,-2.954 -7.687,-5.884 -11.577,-8.803Zm-1327.17,-10.221c-3.92,2.847 -7.821,5.72 -11.711,8.624l-55.814,-75.949l11.719,-8.613l55.806,75.938Zm1295.75,-12.518l54.309,-76.967l11.883,8.385l-54.318,76.98c-3.943,-2.827 -7.905,-5.63 -11.874,-8.398Zm-1263.98,-9.737c-4.022,2.714 -8.026,5.454 -12.002,8.214l-53.124,-77.804l12.01,-8.201l53.116,77.791Zm1231.78,-11.903l51.585,-78.766l12.166,7.968l-51.593,78.78c-4.042,-2.692 -8.103,-5.358 -12.158,-7.982Zm-1199.26,-9.241c-4.11,2.572 -8.202,5.17 -12.278,7.794l-50.371,-79.561l12.288,-7.779l50.361,79.546Zm1166.33,-11.274l48.799,-80.467l12.435,7.542l-48.807,80.482c-4.127,-2.547 -8.272,-5.068 -12.427,-7.557Zm-1133.09,-8.733c-4.182,2.419 -8.346,4.865 -12.541,7.365l-47.558,-81.218l12.55,-7.349l47.549,81.202Zm1099.48,-10.629l45.956,-82.068l12.689,7.105l-45.964,82.084c-4.211,-2.4 -8.438,-4.774 -12.681,-7.121Zm-1065.56,-8.213c-4.273,2.277 -8.529,4.582 -12.789,6.925l-44.691,-82.775l12.797,-6.91l44.683,82.76Zm1031.29,-9.972l43.062,-83.571l12.928,6.662l-43.07,83.586c-4.283,-2.249 -8.582,-4.47 -12.92,-6.677Zm-996.742,-7.682c-4.351,2.128 -8.686,4.284 -13.022,6.476l-41.774,-84.232l13.029,-6.462l41.767,84.218Zm961.857,-9.3l40.122,-84.976l13.151,6.21l-40.128,84.989c-4.368,-2.103 -8.751,-4.178 -13.145,-6.223Zm-926.714,-7.142c-4.415,1.973 -8.816,3.973 -13.239,6.019l-38.811,-85.591l13.245,-6.006l38.805,85.578Zm891.258,-8.615l37.137,-86.283l13.359,5.749l-37.143,86.295c-4.439,-1.95 -8.894,-3.873 -13.353,-5.761Zm-855.561,-6.592c-4.508,1.828 -9.001,3.685 -13.442,5.554l-35.807,-86.853l13.446,-5.543l35.803,86.842Zm819.575,-7.92l34.114,-87.493l13.55,5.283l-34.117,87.502c-4.503,-1.793 -9.02,-3.557 -13.547,-5.292Zm-783.369,-6.032c-4.546,1.661 -9.078,3.351 -13.627,5.081l-32.766,-88.016l13.63,-5.074l32.763,88.009Zm746.898,-7.214l31.055,-88.607l13.725,4.81l-31.057,88.612c-4.558,-1.633 -9.129,-3.237 -13.723,-4.815Zm-710.226,-5.466c-4.614,1.506 -9.215,3.041 -13.796,4.602l-29.689,-89.082l13.797,-4.598l29.688,89.078Zm673.314,-6.498l27.962,-89.624l13.884,4.332l-27.963,89.625c-4.613,-1.473 -9.239,-2.917 -13.883,-4.333Zm-636.221,-4.891c-4.67,1.344 -9.327,2.719 -13.949,4.116l-26.581,-90.052l13.949,-4.117l26.581,90.053Zm598.912,-5.774l24.841,-90.545l14.025,3.847l-24.839,90.542c-4.664,-1.311 -9.34,-2.593 -14.027,-3.844Zm-561.443,-4.312c-4.715,1.181 -9.418,2.392 -14.084,3.627l-23.445,-90.925l14.083,-3.631l23.446,90.929Zm523.786,-5.043l21.69,-91.368l14.15,3.359l-21.688,91.361c-4.702,-1.146 -9.415,-2.262 -14.152,-3.352Zm-485.988,-3.727c-4.748,1.015 -9.485,2.06 -14.203,3.132l-20.282,-91.698l14.201,-3.141l20.284,91.707Zm448.027,-4.307l18.515,-92.091l14.258,2.866l-18.513,92.081c-4.744,-0.982 -9.499,-1.935 -14.26,-2.856Zm-409.947,-3.138c-4.769,0.847 -9.527,1.723 -14.303,2.635l-17.096,-92.373l14.301,-2.647l17.098,92.385Zm371.73,-3.567l15.317,-92.712l14.349,2.371l-15.315,92.698c-4.772,-0.815 -9.553,-1.601 -14.351,-2.357Zm-333.415,-2.547c-4.83,0.684 -9.65,1.4 -14.386,2.136l-13.888,-92.944l14.384,-2.15l13.89,92.958Zm294.989,-2.824l12.099,-93.227l14.422,1.872l-12.097,93.212c-4.797,-0.649 -9.603,-1.268 -14.424,-1.857Zm-256.485,-1.955c-4.828,0.515 -9.647,1.06 -14.452,1.635l-10.662,-93.408l14.45,-1.649l10.664,93.422Zm217.897,-2.08l8.864,-93.63l14.478,1.371l-8.862,93.615c-4.815,-0.483 -9.64,-0.935 -14.48,-1.356Zm-179.253,-1.362c-4.87,0.349 -9.731,0.729 -14.499,1.134l-7.421,-93.76l14.498,-1.148l7.422,93.774Zm140.55,-1.339l5.615,-93.915l14.517,0.868l-5.614,93.903c-4.83,-0.316 -9.671,-0.602 -14.518,-0.856Zm-101.811,-0.771c-4.843,0.18 -9.679,0.391 -14.53,0.635l-4.167,-93.994l14.529,-0.644l4.168,94.003Zm63.04,-0.598l2.356,-94.076l14.539,0.365l-2.356,94.069c-4.841,-0.151 -9.687,-0.27 -14.539,-0.358Zm-24.253,-0.184c-4.866,0.015 -9.724,0.062 -14.543,0.138l-0.906,-94.101l14.543,-0.14l0.906,94.103Z"/><path d="M1981.91,3711.42c6.03,0.063 12.069,0.094 18.114,0.094c1.417,0 2.834,-0.001 4.132,-0.005l-0.586,143.957l-22.246,-0.09l0.586,-143.956Zm81.576,-1.063l4.404,143.87l-22.235,0.681l-4.405,-143.882c7.405,-0.175 14.799,-0.398 22.236,-0.669Zm-140.895,-0.567c7.392,0.33 14.803,0.613 22.229,0.849l-5.575,143.836l-22.23,-0.862l5.576,-143.823Zm200.153,-2.617l9.385,143.587l-22.198,1.451l-9.387,-143.606c7.452,-0.432 14.892,-0.912 22.2,-1.432Zm-259.383,-1.047c7.384,0.585 14.781,1.123 22.187,1.612l-10.555,143.516l-22.186,-1.632l10.554,-143.496Zm318.497,-4.176l14.352,143.117l-22.135,2.219l-14.355,-143.139c7.394,-0.685 14.774,-1.418 22.138,-2.197Zm-377.567,-1.528c7.361,0.84 14.736,1.633 22.119,2.377l-15.519,143.008l-22.116,-2.4l15.516,-142.985Zm436.467,-5.738l19.296,142.472l-22.045,2.986l-19.299,-142.495c7.405,-0.946 14.795,-1.939 22.048,-2.963Zm-495.306,-2.009c7.322,1.094 14.659,2.141 22.023,3.143l-20.458,142.324l-22.02,-3.165l20.455,-142.302Zm553.92,-7.299l24.214,141.661l-21.928,3.748l-24.218,-141.681c7.316,-1.195 14.617,-2.436 21.932,-3.728Zm-612.456,-2.49c7.279,1.348 14.575,2.65 21.9,3.908l-25.37,141.473l-21.896,-3.927l25.366,-141.454Zm670.712,-8.855l29.101,140.69l-21.785,4.506l-29.104,-140.706c7.292,-1.454 14.567,-2.954 21.788,-4.49Zm-728.873,-2.968c7.239,1.603 14.494,3.16 21.751,4.669l-30.249,140.462l-21.748,-4.684l30.246,-140.447Zm786.699,-10.404l33.953,139.565l-21.616,5.258l-33.955,-139.574c7.249,-1.711 14.48,-3.467 21.618,-5.249Zm-844.413,-3.444c7.172,1.854 14.361,3.662 21.574,5.427l-35.092,139.296l-21.572,-5.435l35.09,-139.288Zm901.737,-11.94l38.766,138.287l-21.42,6.005l-38.767,-138.292c7.186,-1.961 14.353,-3.969 21.421,-6Zm-958.932,-3.916c7.102,2.104 14.224,4.163 21.371,6.177l-39.895,137.979l-21.37,-6.179l39.894,-137.977Zm1015.68,-13.464l43.537,136.862l-21.199,6.743l-43.537,-136.859c7.106,-2.21 14.193,-4.464 21.199,-6.746Zm-1072.29,-4.383c7.028,2.352 14.077,4.659 21.142,6.921l-44.654,136.513l-21.144,-6.916l44.656,-136.518Zm1128.4,-14.97l48.262,135.288l-20.953,7.474l-48.259,-135.279c7.009,-2.452 13.997,-4.947 20.95,-7.483Zm-1184.35,-4.844c6.936,2.594 13.894,5.143 20.888,7.656l-49.366,134.899l-20.891,-7.645l49.369,-134.91Zm1239.75,-16.457l52.936,133.566l-20.681,8.196l-52.931,-133.552c6.895,-2.686 13.768,-5.415 20.676,-8.21Zm-1294.96,-5.298c6.854,2.839 13.73,5.635 20.608,8.379l-54.026,133.139l-20.614,-8.364l54.032,-133.154Zm1349.58,-17.923l57.554,131.695l-20.384,8.908l-57.546,-131.676c6.824,-2.937 13.624,-5.916 20.376,-8.927Zm-1404.01,-5.746c6.736,3.07 13.496,6.098 20.303,9.094l-58.629,131.229l-20.311,-9.074l58.637,-131.249Zm1457.79,-19.364l62.11,129.674l-20.063,9.61l-62.1,-129.653c6.731,-3.179 13.438,-6.401 20.053,-9.631Zm-1511.35,-6.186c6.634,3.307 13.293,6.572 19.974,9.795l-63.168,129.172l-19.985,-9.773l63.179,-129.194Zm1564.22,-20.779l66.6,127.503l-19.718,10.299l-66.588,-127.48c6.617,-3.411 13.21,-6.864 19.706,-10.322Zm-1616.86,-6.618c6.517,3.537 13.06,7.033 19.621,10.484l-67.641,126.964l-19.633,-10.459l67.653,-126.989Zm1668.76,-22.167l71.016,125.181l-19.349,10.977l-71.002,-125.157c6.483,-3.633 12.941,-7.307 19.335,-11.001Zm-1720.42,-7.04c6.38,3.755 12.786,7.469 19.245,11.159l-72.038,124.606l-19.259,-11.134l72.052,-124.631Zm1771.28,-23.525l75.35,122.705l-18.957,11.641l-75.336,-122.682c6.332,-3.843 12.637,-7.726 18.943,-11.664Zm-1821.89,-7.454c6.255,3.98 12.538,7.92 18.847,11.819l-76.354,122.097l-18.862,-11.795l76.369,-122.121Zm1871.67,-24.853l79.598,120.078l-18.543,12.291l-79.583,-120.057c6.207,-4.067 12.386,-8.173 18.528,-12.312Zm-1921.18,-7.858c6.105,4.188 12.238,8.337 18.427,12.464l-80.581,119.436l-18.441,-12.441l80.595,-119.459Zm1969.8,-26.15l83.75,117.3l-18.105,12.926l-83.737,-117.28c6.06,-4.277 12.091,-8.592 18.092,-12.946Zm-2018.15,-8.251c5.963,4.401 11.956,8.764 17.985,13.093l-84.712,116.625l-17.999,-13.073l84.726,-116.645Zm2065.57,-27.412l87.8,114.369l-17.646,13.547l-87.788,-114.354c5.892,-4.473 11.755,-8.982 17.634,-13.562Zm-2112.7,-8.635c5.808,4.604 11.647,9.171 17.523,13.705l-88.74,113.665l-17.535,-13.69l88.752,-113.68Zm2158.86,-28.642l91.741,111.291l-17.166,14.151l-91.731,-111.28c5.742,-4.678 11.453,-9.392 17.156,-14.162Zm-2204.71,-9.006c5.643,4.798 11.317,9.56 17.04,14.3l-92.657,110.556l-17.05,-14.289l92.667,-110.567Zm2249.56,-29.837l95.564,108.067l-16.664,14.737l-95.558,-108.06c5.568,-4.863 11.103,-9.762 16.658,-14.744Zm-2294.1,-9.368c5.476,4.991 10.985,9.946 16.538,14.878l-96.457,107.303l-16.544,-14.872l96.463,-107.309Zm2337.58,-30.995l99.263,104.701l-16.143,15.305l-99.261,-104.698c5.405,-5.06 10.777,-10.155 16.141,-15.308Zm-2380.74,-9.718c5.307,5.182 10.648,10.33 16.017,15.438l-100.133,103.909l-16.018,-15.437l100.134,-103.91Zm2422.81,-32.117l102.834,101.197l-15.603,15.856l-102.836,-101.198c5.249,-5.265 10.464,-10.564 15.605,-15.855Zm-2464.54,-10.057c5.11,5.346 10.256,10.66 15.476,15.98l-103.677,100.378l-15.474,-15.983l103.675,-100.375Zm2505.14,-33.201l106.27,97.561l-15.045,16.388l-106.275,-97.567c5.064,-5.442 10.093,-10.917 15.05,-16.382Zm-2545.4,-10.384c4.923,5.517 9.882,11.003 14.917,16.503l-107.086,96.715l-14.91,-16.509l107.079,-96.709Zm2584.49,-34.247l109.565,93.8l-14.467,16.899l-109.575,-93.808c4.852,-5.587 9.669,-11.207 14.477,-16.891Zm-2623.22,-10.699c4.742,5.699 9.52,11.366 14.339,17.008l-110.353,92.927l-14.329,-17.016l110.343,-92.919Zm2660.76,-35.252l112.717,89.918l-13.873,17.391l-112.731,-89.929c4.666,-5.764 9.296,-11.559 13.887,-17.38Zm-2697.91,-11.001c4.542,5.857 9.121,11.684 13.745,17.492l-113.477,89.02l-13.731,-17.503l113.463,-89.009Zm2733.84,-36.218l115.722,85.924l-13.261,17.861l-115.741,-85.937c4.473,-5.93 8.907,-11.89 13.28,-17.848Zm-2769.39,-11.29c4.353,6.032 8.743,12.034 13.134,17.955l-116.452,85.002l-13.116,-17.968l116.434,-84.989Zm2803.67,-37.142l118.578,81.824l-12.635,18.309l-118.599,-81.837c4.248,-6.057 8.458,-12.142 12.656,-18.296Zm-2837.55,-11.567c4.116,6.141 8.271,12.254 12.506,18.398l-119.277,80.879l-12.485,-18.412l119.256,-80.865Zm2870.14,-38.023l121.284,77.625l-11.992,18.737l-121.307,-77.64c4.05,-6.221 8.061,-12.47 12.015,-18.722Zm-2902.32,-11.83c3.927,6.32 7.895,12.614 11.861,18.819l-121.95,76.659l-11.839,-18.834l121.928,-76.644Zm2933.17,-38.86l123.838,73.336l-11.335,19.142l-123.863,-73.351c3.819,-6.336 7.598,-12.699 11.36,-19.127Zm-2963.61,-12.08c3.692,6.429 7.424,12.832 11.203,19.219l-124.471,72.349l-11.179,-19.233l124.447,-72.335Zm2992.69,-39.652l126.242,68.964l-10.665,19.523l-126.266,-68.977c3.599,-6.467 7.157,-12.961 10.689,-19.51Zm-3021.34,-12.315c3.474,6.568 6.99,13.111 10.529,19.597l-126.84,67.955l-10.505,-19.609l126.816,-67.943Zm3048.6,-40.397l128.494,64.514l-9.982,19.881l-128.517,-64.526c3.381,-6.606 6.72,-13.237 10.005,-19.869Zm-3075.44,-12.536c3.244,6.686 6.53,13.349 9.842,19.951l-129.057,63.486l-9.819,-19.962l129.034,-63.475Zm3100.85,-41.096l130.596,59.996l-9.286,20.215l-130.617,-60.005c3.146,-6.716 6.249,-13.455 9.307,-20.206Zm-3125.83,-12.741c3.005,6.785 6.052,13.546 9.141,20.281l-131.122,58.948l-9.122,-20.289l131.103,-58.94Zm3149.36,-41.745l132.55,55.412l-8.58,20.525l-132.567,-55.419c2.908,-6.814 5.773,-13.651 8.597,-20.518Zm-3172.44,-12.932c2.757,6.862 5.557,13.702 8.429,20.588l-133.039,54.347l-8.412,-20.594l133.022,-54.341Zm3194.06,-42.344l134.355,50.77l-7.863,20.81l-134.368,-50.774c2.67,-6.918 5.297,-13.858 7.876,-20.806Zm-3215.22,-13.106c2.525,6.982 5.095,13.942 7.704,20.869l-134.805,49.689l-7.694,-20.873l134.795,-49.685Zm3234.89,-42.892l136.014,46.075l-7.138,21.07l-136.02,-46.077c2.425,-6.999 4.805,-14.018 7.144,-21.068Zm-3254.1,-13.265c2.286,7.085 4.617,14.15 6.97,21.126l-136.424,44.978l-6.965,-21.127l136.419,-44.977Zm3271.8,-43.387l137.524,41.33l-6.402,21.305l-137.525,-41.33c2.18,-7.085 4.315,-14.188 6.403,-21.305Zm-3289.04,-13.408c2.04,7.171 4.125,14.323 6.227,21.357l-137.894,40.22l-6.229,-21.356l137.896,-40.221Zm3304.75,-43.829l138.887,36.542l-5.66,21.513l-138.881,-36.539c1.928,-7.147 3.811,-14.312 5.654,-21.516Zm-3319.99,-13.533c1.789,7.239 3.624,14.46 5.476,21.561l-139.215,35.418l-5.485,-21.559l139.224,-35.42Zm3333.69,-44.217l140.099,31.711l-4.911,21.697l-140.086,-31.708c1.677,-7.212 3.309,-14.441 4.898,-21.7Zm-3346.91,-13.642c1.532,7.287 3.11,14.557 4.72,21.739l-140.386,30.577l-4.735,-21.737l140.401,-30.579Zm3358.59,-44.55l141.157,26.844l-4.155,21.854l-141.14,-26.84c1.426,-7.272 2.807,-14.562 4.138,-21.858Zm-3369.79,-13.734c1.273,7.317 2.594,14.619 3.959,21.89l-141.404,25.699l-3.978,-21.887l141.423,-25.702Zm3379.43,-44.828l142.057,21.942l-3.395,21.986l-142.037,-21.939c1.172,-7.316 2.297,-14.646 3.375,-21.989Zm-3388.59,-13.809c1.015,7.328 2.076,14.642 3.195,22.015l-142.263,20.789l-3.217,-22.012l142.285,-20.792Zm3396.19,-45.051l142.793,17.012l-2.632,22.09l-142.77,-17.009c0.916,-7.348 1.785,-14.71 2.609,-22.093Zm-3403.31,-13.867c0.765,7.407 1.578,14.801 2.429,22.113l-142.959,15.851l-2.451,-22.11l142.981,-15.854Zm3408.87,-45.218l143.355,12.056l-1.864,22.168l-143.335,-12.055c0.662,-7.38 1.276,-14.772 1.844,-22.169Zm-3413.94,-13.909c0.505,7.382 1.057,14.751 1.664,22.183l-143.482,10.891l-1.684,-22.182l143.502,-10.892Zm3417.46,-45.331l143.734,7.081l-1.094,22.219l-143.719,-7.081c0.407,-7.389 0.767,-14.796 1.079,-22.219Zm-3420.49,-13.934c0.253,7.43 0.554,14.848 0.9,22.228l-143.823,5.912l-0.914,-22.227l143.837,-5.913Zm3421.97,-45.391l143.917,2.095l-0.324,22.244l-143.911,-2.095c0.153,-7.444 0.259,-14.848 0.318,-22.244Zm-3422.94,-26.361c-0.031,4.259 -0.046,8.412 -0.046,12.568c-0,3.212 0.009,6.421 0.027,9.678l-143.974,-0.122l0.019,-22.246l143.974,0.122Zm3422.39,-32.979l143.895,-2.895l0.447,22.241l-143.902,2.896c-0.099,-7.471 -0.247,-14.93 -0.44,-22.242Zm-3420.95,-26.345c-0.307,7.398 -0.566,14.809 -0.778,22.233l-143.871,-5.113l0.79,-22.232l143.859,5.112Zm3418.39,-32.942l143.669,-7.88l1.219,22.213l-143.686,7.88c-0.354,-7.431 -0.755,-14.85 -1.202,-22.213Zm-3414.91,-26.298c-0.561,7.386 -1.074,14.784 -1.54,22.192l-143.568,-10.094l1.56,-22.191l143.548,10.093Zm3410.31,-32.868l143.254,-12.85l1.988,22.157l-143.276,12.852c-0.607,-7.379 -1.261,-14.744 -1.966,-22.159Zm-3404.79,-26.22c-0.816,7.362 -1.585,14.739 -2.305,22.127l-143.077,-15.06l2.329,-22.123l143.053,15.056Zm3398.14,-32.753l142.662,-17.801l2.755,22.074l-142.686,17.805c-0.865,-7.395 -1.778,-14.776 -2.731,-22.078Zm-3390.59,-26.11c-1.071,7.328 -2.095,14.671 -3.072,22.033l-142.408,-20.001l3.095,-22.03l142.385,19.998Zm3381.89,-32.599l141.901,-22.727l3.519,21.966l-141.923,22.731c-1.116,-7.312 -2.278,-14.61 -3.497,-21.97Zm-3372.3,-25.968c-1.327,7.293 -2.607,14.603 -3.837,21.913l-141.571,-24.916l3.856,-21.909l141.552,24.912Zm3361.57,-32.404l140.979,-27.623l4.278,21.831l-140.997,27.626c-1.373,-7.293 -2.793,-14.571 -4.26,-21.834Zm-3349.93,-25.794c-1.579,7.239 -3.112,14.496 -4.598,21.765l-140.574,-29.799l4.614,-21.762l140.558,29.796Zm3337.17,-32.17l139.901,-32.486l5.032,21.67l-139.913,32.488c-1.631,-7.257 -3.309,-14.496 -5.02,-21.672Zm-3323.51,-25.589c-1.831,7.177 -3.616,14.373 -5.356,21.592l-139.421,-34.645l5.365,-21.59l139.412,34.643Zm3308.73,-31.895l138.671,-37.31l5.78,21.482l-138.677,37.312c-1.884,-7.2 -3.814,-14.382 -5.774,-21.484Zm-3293.07,-25.351c-2.08,7.11 -4.115,14.239 -6.106,21.391l-138.117,-39.452l6.11,-21.391l138.113,39.452Zm3276.29,-31.582l137.291,-42.094l6.521,21.269l-137.289,42.094c-2.135,-7.126 -4.314,-14.233 -6.523,-21.269Zm-3258.62,-25.082c-2.328,7.036 -4.612,14.093 -6.852,21.164l-136.663,-44.215l6.848,-21.166l136.667,44.217Zm3239.87,-31.229l135.762,-46.833l7.255,21.03l-135.756,46.831c-2.377,-7.034 -4.798,-14.047 -7.261,-21.028Zm-3220.23,-24.783c-2.574,6.951 -5.104,13.924 -7.587,20.913l-135.063,-48.933l7.578,-20.915l135.072,48.935Zm3199.52,-30.837l134.086,-51.523l7.979,20.766l-134.073,51.518c-2.614,-6.925 -5.272,-13.828 -7.992,-20.761Zm-3177.94,-24.454c-2.817,6.862 -5.591,13.746 -8.312,20.635l-133.315,-53.597l8.298,-20.64l133.329,53.602Zm3155.3,-30.408l132.261,-56.158l8.694,20.477l-132.243,56.15c-2.867,-6.86 -5.777,-13.698 -8.712,-20.469Zm-3131.81,-24.095c-3.054,6.761 -6.066,13.545 -9.027,20.332l-131.418,-58.204l9.008,-20.34l131.437,58.212Zm3107.26,-29.943l130.287,-60.733l9.399,20.163l-130.267,60.723c-3.085,-6.715 -6.214,-13.407 -9.419,-20.153Zm-3081.89,-23.706c-3.285,6.644 -6.528,13.313 -9.73,20.005l-129.373,-62.751l9.708,-20.015l129.395,62.761Zm3055.48,-29.443l128.162,-65.243l10.092,19.825l-128.139,65.232c-3.321,-6.61 -6.683,-13.196 -10.115,-19.814Zm-3028.25,-23.29c-3.519,6.535 -6.997,13.095 -10.42,19.655l-127.179,-67.229l10.397,-19.667l127.202,67.241Zm3000.01,-28.906l125.887,-69.682l10.774,19.463l-125.863,69.669c-3.546,-6.485 -7.132,-12.944 -10.798,-19.45Zm-2970.97,-22.846c-3.74,6.403 -7.441,12.834 -11.096,19.281l-124.834,-71.633l11.072,-19.295l124.858,71.647Zm2940.94,-28.337l123.459,-74.042l11.442,19.078l-123.436,74.028c-3.787,-6.39 -7.615,-12.754 -11.465,-19.064Zm-2910.13,-22.376c-3.953,6.258 -7.867,12.544 -11.757,18.885l-122.338,-75.956l11.734,-18.9l122.361,75.971Zm2878.34,-27.733l120.879,-78.317l12.096,18.67l-120.857,78.302c-3.985,-6.223 -8.009,-12.419 -12.118,-18.655Zm-2845.79,-21.88c-4.183,6.139 -8.326,12.308 -12.404,18.467l-119.691,-80.192l12.383,-18.481l119.712,80.206Zm2812.29,-27.098l118.147,-82.5l12.736,18.24l-118.127,82.485c-4.199,-6.084 -8.438,-12.141 -12.756,-18.225Zm-2778.05,-21.359c-4.379,5.974 -8.72,11.978 -13.034,18.027l-116.893,-84.331l13.016,-18.041l116.911,84.345Zm2742.88,-26.432l115.263,-86.581l13.361,17.787l-115.247,86.569c-4.429,-5.966 -8.896,-11.902 -13.377,-17.775Zm-2706.99,-20.813c-4.585,5.824 -9.133,11.678 -13.648,17.567l-113.945,-88.368l13.633,-17.579l113.96,88.38Zm2670.19,-25.734l112.231,-90.556l13.969,17.313l-112.217,90.545c-4.612,-5.782 -9.26,-11.534 -13.983,-17.302Zm-2632.69,-20.244c-4.784,5.664 -9.532,11.36 -14.245,17.086l-110.849,-92.295l14.234,-17.096l110.86,92.305Zm2594.31,-25.007l109.051,-94.416l14.561,16.818l-109.042,94.408c-4.835,-5.652 -9.706,-11.272 -14.57,-16.81Zm-2555.25,-19.651c-4.979,5.498 -9.922,11.028 -14.826,16.586l-107.608,-96.106l14.818,-16.592l107.616,96.112Zm2515.34,-24.252l105.729,-98.154l15.135,16.304l-105.724,98.149c-5.007,-5.461 -10.05,-10.89 -15.14,-16.299Zm-2474.77,-19.035c-5.173,5.331 -10.312,10.697 -15.387,16.066l-104.227,-99.792l15.385,-16.069l104.229,99.795Zm2433.37,-23.468l102.267,-101.764l15.691,15.768l-102.266,101.765c-5.188,-5.281 -10.41,-10.528 -15.692,-15.769Zm-2391.33,-18.397c-5.342,5.14 -10.65,10.315 -15.93,15.527l-100.708,-103.348l15.933,-15.526l100.705,103.347Zm2348.5,-22.656l98.671,-105.242l16.229,15.215l-98.675,105.246c-5.371,-5.104 -10.775,-10.174 -16.225,-15.219Zm-2305.04,-17.738c-5.515,4.952 -10.998,9.94 -16.456,14.97l-97.056,-106.769l16.461,-14.964l97.051,106.763Zm2260.82,-21.818l94.947,-108.581l16.746,14.644l-94.954,108.589c-5.559,-4.929 -11.15,-9.823 -16.739,-14.652Zm-2216,-17.057c-5.699,4.773 -11.366,9.583 -16.961,14.394l-93.28,-110.049l16.97,-14.384l93.271,110.039Zm2170.44,-20.953l91.101,-111.777l17.244,14.054l-91.112,111.79c-5.715,-4.726 -11.462,-9.416 -17.233,-14.067Zm-2124.31,-16.356c-5.861,4.575 -11.691,9.188 -17.447,13.802l-89.384,-113.186l17.459,-13.787l89.372,113.171Zm2077.47,-20.062l87.141,-114.828l17.721,13.448l-87.154,114.844c-5.864,-4.519 -11.758,-9 -17.708,-13.464Zm-2030.08,-15.636c-5.996,4.356 -11.963,8.75 -17.912,13.192l-85.375,-116.173l17.926,-13.174l85.361,116.155Zm1982,-19.146l83.073,-117.731l18.176,12.826l-83.087,117.75c-6.031,-4.325 -12.092,-8.612 -18.162,-12.845Zm-1933.4,-14.895c-6.153,4.152 -12.276,8.343 -18.358,12.565l-81.261,-119.011l18.372,-12.545l81.247,118.991Zm1884.16,-18.207l78.905,-120.483l18.61,12.188l-78.919,120.505c-6.183,-4.118 -12.394,-8.197 -18.596,-12.21Zm-1834.41,-14.136c-6.286,3.935 -12.546,7.909 -18.781,11.923l-77.049,-121.698l18.796,-11.9l77.034,121.675Zm1784.04,-17.244l74.643,-123.083l19.021,11.535l-74.657,123.107c-6.312,-3.896 -12.652,-7.751 -19.007,-11.559Zm-1733.2,-13.358c-6.396,3.7 -12.766,7.441 -19.183,11.265l-72.746,-124.232l19.197,-11.241l72.732,124.208Zm1681.78,-16.259l70.296,-125.533l19.41,10.869l-70.309,125.557c-6.441,-3.672 -12.907,-7.303 -19.397,-10.893Zm-1629.9,-12.563c-6.536,3.484 -13.046,7.01 -19.562,10.593l-68.361,-126.614l19.575,-10.569l68.348,126.59Zm1577.48,-15.252l65.869,-127.832l19.775,10.19l-65.881,127.855c-6.551,-3.44 -13.128,-6.838 -19.763,-10.213Zm-1524.64,-11.752c-6.655,3.256 -13.286,6.553 -19.918,9.907l-63.899,-128.844l19.93,-9.884l63.887,128.821Zm1471.28,-14.225l61.37,-129.98l20.117,9.498l-61.381,130.001c-6.68,-3.216 -13.385,-6.391 -20.106,-9.519Zm-1417.52,-10.924c-6.755,3.017 -13.486,6.077 -20.251,9.207l-59.367,-130.923l20.26,-9.187l59.358,130.903Zm1363.29,-13.178l56.806,-131.981l20.434,8.795l-56.814,131.998c-6.791,-2.983 -13.606,-5.923 -20.426,-8.812Zm-1308.68,-10.083c-6.895,2.796 -13.768,5.637 -20.56,8.495l-54.771,-132.851l20.566,-8.479l54.765,132.835Zm1253.64,-12.114l52.182,-133.832l20.726,8.081l-52.186,133.844c-6.888,-2.742 -13.798,-5.441 -20.722,-8.093Zm-1198.26,-9.228c-6.953,2.541 -13.886,5.126 -20.844,7.772l-50.119,-134.631l20.848,-7.761l50.115,134.62Zm1142.47,-11.034l47.503,-135.535l20.993,7.357l-47.504,135.543c-6.972,-2.498 -13.964,-4.952 -20.992,-7.365Zm-1086.38,-8.361c-7.057,2.303 -14.095,4.651 -21.103,7.039l-45.413,-136.262l21.105,-7.033l45.411,136.256Zm1029.91,-9.939l42.772,-137.091l21.236,6.625l-42.772,137.093c-7.056,-2.253 -14.132,-4.461 -21.236,-6.627Zm-973.176,-7.482c-7.143,2.056 -14.267,4.158 -21.336,6.297l-40.659,-137.746l21.336,-6.298l40.659,137.747Zm916.108,-8.832l37.996,-138.5l21.454,5.885l-37.995,138.495c-7.133,-2.006 -14.286,-3.967 -21.455,-5.88Zm-858.795,-6.596c-7.212,1.807 -14.406,3.659 -21.544,5.547l-35.861,-139.079l21.541,-5.555l35.864,139.087Zm801.193,-7.714l33.178,-139.758l21.644,5.138l-33.175,139.747c-7.192,-1.753 -14.401,-3.46 -21.647,-5.127Zm-743.377,-5.7c-7.262,1.552 -14.508,3.15 -21.724,4.791l-31.024,-140.265l21.721,-4.804l31.027,140.278Zm685.311,-6.589l28.321,-140.864l21.81,4.384l-28.318,140.849c-7.257,-1.503 -14.53,-2.959 -21.813,-4.369Zm-627.063,-4.8c-7.294,1.295 -14.572,2.637 -21.877,4.031l-26.151,-141.296l21.875,-4.048l26.153,141.313Zm568.606,-5.456l23.429,-141.814l21.948,3.626l-23.425,141.794c-7.299,-1.248 -14.613,-2.449 -21.952,-3.606Zm-509.998,-3.896c-7.388,1.047 -14.761,2.141 -22.005,3.267l-21.244,-142.169l22.002,-3.288l21.247,142.19Zm451.221,-4.319l18.506,-142.602l22.061,2.863l-18.503,142.579c-7.338,-0.993 -14.689,-1.939 -22.064,-2.84Zm-392.325,-2.99c-7.385,0.787 -14.756,1.621 -22.105,2.501l-16.31,-142.879l22.103,-2.523l16.312,142.901Zm333.3,-3.183l13.558,-143.218l22.147,2.097l-13.556,143.195c-7.366,-0.738 -14.746,-1.429 -22.149,-2.074Zm-274.189,-2.083c-7.449,0.533 -14.885,1.115 -22.178,1.735l-11.351,-143.418l22.176,-1.755l11.353,143.438Zm214.989,-2.048l8.588,-143.654l22.206,1.328l-8.587,143.636c-7.389,-0.484 -14.793,-0.921 -22.207,-1.31Zm-155.733,-1.179c-7.409,0.275 -14.805,0.598 -22.225,0.971l-6.375,-143.775l22.224,-0.986l6.376,143.79Zm96.427,-0.915l3.604,-143.9l22.239,0.557l-3.604,143.89c-7.404,-0.23 -14.817,-0.412 -22.239,-0.547Zm-37.097,-0.281c-7.443,0.023 -14.875,0.094 -22.245,0.211l-1.387,-143.94l22.245,-0.214l1.387,143.943Z"/></svg>