<svg version="1.1" id="Layer_1" x="0px" y="0px" viewBox="0 0 1638.099 1639.171" enable-background="new 0 0 1638.099 1639.171" xmlns="http://www.w3.org/2000/svg">
  <defs></defs>
  <g>
    <g>
      <g>
        <g>
          <path fill="none" stroke="#C0EAFF" stroke-width="3" stroke-miterlimit="10" d="M231.384,1044.738
					c-30.294-0.692-58.032-1.449-83.124-2.308c11.725,47.993,27.252,94.731,46.398,139.484c23.503,1.299,49.455,2.445,77.766,3.491
					C255.454,1140.203,241.743,1093.098,231.384,1044.738z"></path>
          <path fill="none" stroke="#C0EAFF" stroke-width="3" stroke-miterlimit="10" d="M331.809,1312.431
					c-25.407-1.257-48.734-2.634-69.895-4.196c25.472,39.169,54.104,75.655,85.464,108.762c18.119,1.614,38.051,3.039,59.716,4.338
					C379.377,1388.124,354.188,1351.586,331.809,1312.431z"></path>
          <path fill="none" stroke="#C0EAFF" stroke-width="3" stroke-miterlimit="10" d="M 231.384 594.434 C 241.743 546.073 218.161 455.958 194.658 457.258 C 175.512 502.011 159.985 548.75 148.26 596.742 C 173.352 595.883 201.09 595.126 231.384 594.434 Z"></path>
          <path fill="none" stroke="#C0EAFF" stroke-width="3" stroke-miterlimit="10" d="M 331.809 326.74 C 306.402 327.997 283.075 329.374 261.914 330.936 C 236.157 370.558 213.639 412.907 194.657 457.257 C 218.16 455.957 309.003 366.659 331.809 326.74 Z"></path>
          <path fill="none" stroke="#C0EAFF" stroke-width="3" stroke-miterlimit="10" d="M 231.384 594.434 C 201.09 595.126 173.352 595.883 148.26 596.742 C 136.475 645.011 128.553 694.469 124.581 744.383 C 150.476 744.083 220.935 643.241 231.384 594.434 Z"></path>
          <path fill="none" stroke="#C0EAFF" stroke-width="3" stroke-miterlimit="10" d="M 210.417 895.596 C 206.896 845.026 150.476 744.083 124.581 744.384 C 120.609 794.397 120.609 844.776 124.581 894.789 C 150.476 895.089 179.118 895.354 210.417 895.596 Z"></path>
          <path fill="none" stroke="#C0EAFF" stroke-width="3" stroke-miterlimit="10" d="M 664.935 1429.978 C 674.995 1461.622 686.026 1490.539 698.292 1516.255 C 724.611 1516.717 770.405 1462.459 767.022 1431.01 C 732.582 1430.836 698.504 1430.494 664.935 1429.978 Z"></path>
          <path fill="none" stroke="#C0EAFF" stroke-width="3" stroke-miterlimit="10" d="M1069.457,1427.959
					c-16.427,31.936-34.434,61.004-54.059,86.489c23.741-0.73,46.595-1.597,68.468-2.619c26.087-25.375,50.355-54.561,72.559-86.791
					C1128.676,1426.177,1099.647,1427.144,1069.457,1427.959z"></path>
          <path fill="none" stroke="#C0EAFF" stroke-width="3" stroke-miterlimit="10" d="M 331.809 326.741 C 354.188 287.585 365.497 220.56 347.378 222.175 C 316.018 255.282 287.386 291.768 261.914 330.937 C 283.075 329.375 306.402 327.998 331.809 326.741 Z"></path>
          <path fill="none" stroke="#C0EAFF" stroke-width="3" stroke-miterlimit="10" d="M 481.673 1425.038 C 503.877 1457.268 528.145 1486.454 554.232 1511.829 C 576.105 1512.85 585.069 1459.895 568.641 1427.959 C 538.452 1427.144 509.423 1426.177 481.673 1425.038 Z"></path>
          <path fill="none" stroke="#C0EAFF" stroke-width="3" stroke-miterlimit="10" d="M 767.023 1431.009 C 770.405 1462.458 832.652 1517.331 859.801 1517.176 C 863.993 1491.23 867.694 1462.458 871.077 1431.009 C 836.416 1431.182 801.683 1431.182 767.023 1431.009 Z"></path>
          <path fill="none" stroke="#C0EAFF" stroke-width="3" stroke-miterlimit="10" d="M1301.594,592.452
					c37.293,0.58,72.377,1.234,105.122,1.982c-10.36-48.36-24.07-95.466-41.04-140.667c-30.569-1.129-63.295-2.117-98.056-2.993
					C1281.702,496.392,1293.029,543.797,1301.594,592.452z"></path>
          <path fill="none" stroke="#C0EAFF" stroke-width="3" stroke-miterlimit="10" d="M1218.531,323.149
					c31.077,1.051,60.368,2.237,87.759,3.591c-22.378-39.155-47.568-75.693-75.285-108.903c-23.312-1.397-48.204-2.62-74.578-3.703
					C1179.407,247.504,1200.14,284.066,1218.531,323.149z"></path>
          <path fill="none" stroke="#C0EAFF" stroke-width="3" stroke-miterlimit="10" d="M1301.594,1046.719
					c37.293-0.58,72.377-1.234,105.122-1.982c10.448-48.807,17.451-98.731,20.967-149.143c-33.85,0.261-70.133,0.49-108.715,0.693
					C1316.055,947.119,1310.263,997.432,1301.594,1046.719z"></path>
          <path fill="none" stroke="#C0EAFF" stroke-width="3" stroke-miterlimit="10" d="M1267.619,1188.398
					c34.761-0.876,67.487-1.864,98.056-2.993c16.97-45.202,30.68-92.307,41.04-140.667c-32.745,0.747-67.829,1.402-105.122,1.982
					C1293.029,1095.375,1281.702,1142.779,1267.619,1188.398z"></path>
          <path fill="none" stroke="#C0EAFF" stroke-width="3" stroke-miterlimit="10" d="M 495.267 130.67 C 478.07 131.84 462.212 133.125 447.759 134.579 C 412.009 160.079 378.352 189.487 347.378 222.174 C 365.497 220.56 463.759 156.061 495.267 130.67 Z"></path>
          <path fill="none" stroke="#C0EAFF" stroke-width="3" stroke-miterlimit="10" d="M 664.935 209.194 C 674.995 177.55 686.026 148.633 698.292 122.917 C 672.464 123.37 647.232 123.97 622.7 124.724 C 603.075 150.208 632.01 209.701 664.935 209.194 Z"></path>
          <path fill="none" stroke="#C0EAFF" stroke-width="3" stroke-miterlimit="10" d="M 481.673 214.133 C 503.877 181.903 528.145 152.717 554.232 127.342 C 533.412 128.315 513.731 129.414 495.267 130.67 C 463.759 156.061 455.298 215.216 481.673 214.133 Z"></path>
          <path fill="none" stroke="#C0EAFF" stroke-width="3" stroke-miterlimit="10" d="M 481.674 214.133 C 509.423 212.994 603.076 150.208 622.701 124.723 C 598.96 125.453 576.106 126.32 554.233 127.342 C 528.146 152.717 503.877 181.903 481.674 214.133 Z"></path>
          <path fill="none" stroke="#C0EAFF" stroke-width="3" stroke-miterlimit="10" d="M1069.457,211.212
					c-16.427-31.936-34.434-61.004-54.059-86.489c-24.532-0.754-49.764-1.353-75.592-1.807
					c12.266,25.716,23.297,54.633,33.357,86.277C1006.089,209.701,1038.231,210.37,1069.457,211.212z"></path>
          <path fill="none" stroke="#C0EAFF" stroke-width="3" stroke-miterlimit="10" d="M973.164,209.194
					c-10.06-31.644-21.091-60.561-33.357-86.277c-26.318-0.462-53.024-0.768-80.006-0.922c4.192,25.946,7.893,54.718,11.276,86.167
					C905.517,208.335,939.594,208.677,973.164,209.194z"></path>
          <path fill="none" stroke="#C0EAFF" stroke-width="3" stroke-miterlimit="10" d="M1427.682,743.577
					c31.299,0.242,59.941,0.506,85.836,0.807c-3.972-49.915-11.894-99.372-23.679-147.641c-25.092-0.859-52.83-1.616-83.124-2.308
					C1417.164,643.241,1424.166,693.165,1427.682,743.577z"></path>
          <path fill="none" stroke="#C0EAFF" stroke-width="3" stroke-miterlimit="10" d="M559.304,70.854
					c-9.284,1.005-17.547,2.086-24.737,3.328c-42.185,17.505-82.905,39.227-121.393,64.741c10.002-1.624,21.554-3.032,34.586-4.344
					C483.081,109.396,520.513,87.987,559.304,70.854z"></path>
          <path fill="none" stroke="#C0EAFF" stroke-width="3" stroke-miterlimit="10" d="M 495.267 130.67 C 526.094 105.838 569.562 69.744 559.304 70.854 C 520.513 87.987 483.081 109.396 447.76 134.579 C 462.212 133.125 478.07 131.841 495.267 130.67 Z"></path>
          <path fill="none" stroke="#C0EAFF" stroke-width="3" stroke-miterlimit="10" d="M347.378,222.174
					c-16.281,1.451-30.658,3.006-43.053,4.805c-33.838,33.051-64.806,69.471-92.38,108.593c14.333-1.739,31.015-3.236,49.97-4.636
					C287.386,291.768,316.018,255.281,347.378,222.174z"></path>
          <path fill="none" stroke="#C0EAFF" stroke-width="3" stroke-miterlimit="10" d="M447.76,134.579
					c-13.032,1.312-24.583,2.72-34.586,4.344c-38.709,25.672-75.211,55.211-108.849,88.056c12.396-1.799,26.772-3.354,43.053-4.805
					C378.352,189.487,412.009,160.079,447.76,134.579z"></path>
          <path fill="none" stroke="#C0EAFF" stroke-width="3" stroke-miterlimit="10" d="M 554.232 127.342 C 579.378 102.893 606.271 81.958 634.376 65.338 C 619.766 66.078 526.095 105.838 495.267 130.67 C 513.731 129.414 533.412 128.315 554.232 127.342 Z"></path>
          <path fill="none" stroke="#C0EAFF" stroke-width="3" stroke-miterlimit="10" d="M 698.292 122.917 C 709.534 99.359 721.674 78.765 735 61.982 C 717 62.325 641.206 100.702 622.7 124.723 C 647.232 123.97 672.464 123.37 698.292 122.917 Z"></path>
          <path fill="none" stroke="#C0EAFF" stroke-width="3" stroke-miterlimit="10" d="M 622.7 124.724 C 641.206 100.703 649.699 64.563 634.375 65.339 C 606.27 81.959 579.377 102.894 554.231 127.343 C 576.106 126.321 598.959 125.454 622.7 124.724 Z"></path>
          <path fill="none" stroke="#C0EAFF" stroke-width="3" stroke-miterlimit="10" d="M 148.26 1042.429 C 125.881 1041.662 118.861 1133.768 139.434 1178.066 C 155.229 1179.511 173.658 1180.752 194.658 1181.914 C 175.512 1137.161 159.985 1090.422 148.26 1042.429 Z"></path>
          <path fill="none" stroke="#C0EAFF" stroke-width="3" stroke-miterlimit="10" d="M261.914,1308.235
					c-18.955-1.4-35.636-2.897-49.97-4.636c27.574,39.122,58.543,75.542,92.38,108.593c12.396,1.799,26.772,3.354,43.053,4.805
					C316.018,1383.89,287.386,1347.404,261.914,1308.235z"></path>
          <path fill="none" stroke="#C0EAFF" stroke-width="3" stroke-miterlimit="10" d="M 194.658 1181.914 C 173.658 1180.752 155.229 1179.511 139.434 1178.066 C 159.923 1222.163 242.96 1306.835 261.915 1308.235 C 236.157 1268.612 213.64 1226.264 194.658 1181.914 Z"></path>
          <path fill="none" stroke="#C0EAFF" stroke-width="3" stroke-miterlimit="10" d="M347.378,1416.997
					c-16.281-1.451-30.658-3.006-43.053-4.805c33.639,32.844,70.14,62.384,108.849,88.055c10.002,1.624,21.554,3.032,34.586,4.344
					C412.009,1479.092,378.352,1449.684,347.378,1416.997z"></path>
          <path fill="none" stroke="#C0EAFF" stroke-width="3" stroke-miterlimit="10" d="M778.299,121.995
					c3.75-23.199,7.761-43.51,12.399-60.711c-18.777,0.117-37.367,0.348-55.697,0.698c-13.326,16.783-25.466,37.377-36.708,60.935
					C724.611,122.455,751.316,122.149,778.299,121.995z"></path>
          <path fill="none" stroke="#C0EAFF" stroke-width="3" stroke-miterlimit="10" d="M 148.26 596.742 C 125.881 597.509 106.279 598.327 89.508 599.282 C 76.854 646.982 101.508 744.651 124.581 744.383 C 128.553 694.468 136.475 645.011 148.26 596.742 Z"></path>
          <path fill="none" stroke="#C0EAFF" stroke-width="3" stroke-miterlimit="10" d="M 124.581 744.383 C 101.508 744.651 59.793 844.492 64.059 893.9 C 81.318 894.234 101.508 894.519 124.581 894.787 C 120.609 844.775 120.609 794.396 124.581 744.383 Z"></path>
          <path fill="none" stroke="#C0EAFF" stroke-width="3" stroke-miterlimit="10" d="M 124.581 894.788 C 101.508 894.52 81.318 894.235 64.059 893.901 C 68.329 943.26 125.881 1041.663 148.26 1042.429 C 136.475 994.16 128.553 944.703 124.581 894.788 Z"></path>
          <path fill="none" stroke="#C0EAFF" stroke-width="3" stroke-miterlimit="10" d="M1406.715,594.434
					c30.294,0.692,58.032,1.449,83.124,2.308c-11.725-47.992-27.252-94.731-46.398-139.484c-23.503-1.299-49.455-2.445-77.766-3.491
					C1382.645,498.968,1396.355,546.073,1406.715,594.434z"></path>
          <path fill="none" stroke="#C0EAFF" stroke-width="3" stroke-miterlimit="10" d="M859.8,121.995
					c-3.75-23.199-7.761-43.51-12.399-60.711c-18.889-0.117-37.815-0.117-56.704,0c-4.638,17.201-8.649,37.511-12.399,60.711
					C805.447,121.84,832.652,121.84,859.8,121.995z"></path>
          <path fill="none" stroke="#C0EAFF" stroke-width="3" stroke-miterlimit="10" d="M1156.426,1425.038
					c26.375-1.083,51.266-2.306,74.578-3.703c27.717-33.211,52.907-69.748,75.285-108.904c-27.391,1.355-56.681,2.541-87.759,3.592
					C1200.14,1355.106,1179.407,1391.667,1156.426,1425.038z"></path>
          <path fill="none" stroke="#C0EAFF" stroke-width="3" stroke-miterlimit="10" d="M1427.682,895.595
					c31.299-0.242,59.941-0.506,85.836-0.807c3.972-50.013,3.972-100.392,0-150.405c-25.895-0.3-54.537-0.565-85.836-0.807
					C1431.203,794.146,1431.203,845.026,1427.682,895.595z"></path>
          <path fill="none" stroke="#C0EAFF" stroke-width="3" stroke-miterlimit="10" d="M1306.29,1312.431
					c25.407-1.257,48.734-2.634,69.895-4.196c25.757-39.622,48.274-81.971,67.256-126.321c-23.503,1.299-49.455,2.445-77.766,3.491
					C1348.947,1229.943,1329.096,1272.512,1306.29,1312.431z"></path>
          <path fill="none" stroke="#C0EAFF" stroke-width="3" stroke-miterlimit="10" d="M1142.832,1508.501
					c17.197-1.17,33.055-2.455,47.508-3.909c35.75-25.5,69.407-54.908,100.381-87.595c-18.119,1.614-38.051,3.039-59.716,4.338
					C1203.885,1453.818,1174.34,1483.11,1142.832,1508.501z"></path>
          <path fill="none" stroke="#C0EAFF" stroke-width="3" stroke-miterlimit="10" d="M1083.867,127.342
					c-25.146-24.449-52.039-45.384-80.144-62.004c-15.324-0.775-31.313-1.434-47.904-1.988
					c21.143,16.575,41.073,37.352,59.579,61.373C1039.14,125.454,1061.993,126.321,1083.867,127.342z"></path>
          <path fill="none" stroke="#C0EAFF" stroke-width="3" stroke-miterlimit="10" d="M1142.832,130.67
					c-30.827-24.832-63.61-45.974-97.66-62.8c-13.004-0.956-26.839-1.793-41.449-2.532c28.105,16.62,54.998,37.555,80.144,62.004
					C1104.687,128.315,1124.368,129.414,1142.832,130.67z"></path>
          <path fill="none" stroke="#C0EAFF" stroke-width="3" stroke-miterlimit="10" d="M1365.675,453.767
					c28.311,1.046,54.263,2.191,77.766,3.491c-18.982-44.35-41.5-86.699-67.257-126.321c-21.161-1.562-44.488-2.939-69.895-4.196
					C1329.096,366.659,1348.947,409.228,1365.675,453.767z"></path>
          <path fill="none" stroke="#C0EAFF" stroke-width="3" stroke-miterlimit="10" d="M1231.005,217.837
					c21.665,1.299,41.597,2.723,59.716,4.338c-30.974-32.687-64.631-62.095-100.381-87.595c-14.453-1.455-30.311-2.739-47.508-3.909
					C1174.34,156.061,1203.884,185.353,1231.005,217.837z"></path>
          <path fill="none" stroke="#C0EAFF" stroke-width="3" stroke-miterlimit="10" d="M1190.339,134.579
					c-35.322-25.183-72.753-46.592-111.544-63.725c-10.258-1.11-21.482-2.091-33.623-2.984c34.05,16.826,66.832,37.968,97.66,62.8
					C1160.029,131.841,1175.887,133.125,1190.339,134.579z"></path>
          <path fill="none" stroke="#C0EAFF" stroke-width="3" stroke-miterlimit="10" d="M1177.949,1048.29
					c43.016-0.438,84.287-0.959,123.645-1.571c8.67-49.287,14.461-99.6,17.374-150.432c-40.734,0.214-83.46,0.396-128.004,0.55
					C1188.782,947.997,1184.452,998.61,1177.949,1048.29z"></path>
          <path fill="none" stroke="#C0EAFF" stroke-width="3" stroke-miterlimit="10" d="M 1048.314 897.219 C 1097.167 897.123 1144.785 896.997 1190.963 896.838 C 1193.151 845.4 1193.151 793.772 1190.963 742.334 C 1144.784 742.175 1049.67 845.512 1048.314 897.219 Z"></path>
          <path fill="none" stroke="#C0EAFF" stroke-width="3" stroke-miterlimit="10" d="M 1040.253 589.791 C 1044.286 639.752 1144.785 742.174 1190.963 742.333 C 1188.782 691.174 1184.452 640.561 1177.949 590.88 C 1133.366 590.426 1087.402 590.065 1040.253 589.791 Z"></path>
          <path fill="none" stroke="#C0EAFF" stroke-width="3" stroke-miterlimit="10" d="M 1152.517 448.404 C 1142.231 403.678 1130.023 360.831 1115.816 320.31 C 1078.869 319.49 1111.056 447.719 1152.517 448.404 Z"></path>
          <path fill="none" stroke="#C0EAFF" stroke-width="3" stroke-miterlimit="10" d="M 893.779 1049.937 C 892.439 1099.023 890.671 1146.866 888.448 1193.25 C 934.375 1193.109 979.795 1192.83 1024.509 1192.41 C 959.303 1192.849 968.505 1192.581 887.463 1193.033 C 887.463 1193.033 890.278 1129.967 893.779 1049.937 Z"></path>
          <path fill="none" stroke="#C0EAFF" stroke-width="3" stroke-miterlimit="10" d="M 460.15 590.881 C 417.134 591.319 375.863 591.84 336.505 592.452 C 327.835 641.739 322.044 692.052 319.131 742.884 C 359.865 742.67 453.647 640.561 460.15 590.881 Z"></path>
          <path fill="none" stroke="#C0EAFF" stroke-width="3" stroke-miterlimit="10" d="M 460.15 590.881 C 466.553 542.008 407.139 449.85 370.48 450.774 C 356.397 496.393 345.07 543.797 336.505 592.452 C 375.863 591.84 417.134 591.32 460.15 590.881 Z"></path>
          <path fill="none" stroke="#C0EAFF" stroke-width="3" stroke-miterlimit="10" d="M 447.136 896.839 C 444.948 845.4 359.866 742.669 319.132 742.884 C 316.213 793.936 316.213 845.237 319.132 896.289 C 359.866 896.503 402.592 896.685 447.136 896.839 Z"></path>
          <path fill="none" stroke="#C0EAFF" stroke-width="3" stroke-miterlimit="10" d="M 888.449 445.922 C 886.303 401.166 883.758 358.243 880.766 317.341 C 839.652 317.172 798.448 317.172 757.334 317.341 C 754.341 358.242 842.217 445.78 888.449 445.922 Z"></path>
          <path fill="none" stroke="#C0EAFF" stroke-width="3" stroke-miterlimit="10" d="M 447.136 896.838 C 402.592 896.685 359.866 896.503 319.132 896.288 C 322.044 947.119 327.836 997.432 336.506 1046.72 C 375.864 1047.332 449.317 947.997 447.136 896.838 Z"></path>
          <path fill="none" stroke="#C0EAFF" stroke-width="3" stroke-miterlimit="10" d="M 522.282 320.31 C 486.593 321.102 452.308 322.042 419.567 323.149 C 400.645 363.375 384.273 406.113 370.479 450.774 C 407.138 449.851 508.075 360.83 522.282 320.31 Z"></path>
          <path fill="none" stroke="#C0EAFF" stroke-width="3" stroke-miterlimit="10" d="M 613.589 446.762 C 619.937 402.011 627.469 359.108 636.29 318.346 C 597.284 318.839 559.228 319.491 522.281 320.31 C 508.074 360.83 569.773 447.174 613.589 446.762 Z"></path>
          <path fill="none" stroke="#C0EAFF" stroke-width="3" stroke-miterlimit="10" d="M 597.845 1049.38 C 550.698 1049.106 475.013 1144.791 485.581 1190.768 C 527.043 1191.453 569.772 1191.997 613.589 1192.41 C 607.032 1146.168 601.804 1098.396 597.845 1049.38 Z"></path>
          <path fill="none" stroke="#C0EAFF" stroke-width="3" stroke-miterlimit="10" d="M 896.51 897.414 C 947.763 897.381 998.44 897.316 1048.314 897.219 C 1049.67 845.512 947.763 741.79 896.51 741.758 C 896.969 793.603 896.969 845.569 896.51 897.414 Z"></path>
          <path fill="none" stroke="#C0EAFF" stroke-width="3" stroke-miterlimit="10" d="M 893.779 1049.937 C 895.865 976.389 895.986 937.45 895.986 895.986 C 948.641 897.454 996.697 897.431 1048.314 897.219 C 998.44 897.317 947.763 897.382 896.51 897.414 C 896.052 948.913 895.146 999.832 893.779 1049.937 Z"></path>
          <path fill="none" stroke="#C0EAFF" stroke-width="3" stroke-miterlimit="10" d="M 741.589 897.413 C 741.13 845.569 639.659 741.855 589.785 741.952 C 588.429 793.659 588.429 845.511 589.785 897.218 C 639.659 897.316 690.336 897.381 741.589 897.413 Z"></path>
          <path fill="none" stroke="#C0EAFF" stroke-width="3" stroke-miterlimit="10" d="M 741.589 897.414 C 793.19 897.447 844.908 897.447 896.509 897.414 C 896.968 845.568 896.968 793.603 896.509 741.757 C 844.908 741.724 741.13 845.569 741.589 897.414 Z"></path>
          <path fill="none" stroke="#C0EAFF" stroke-width="3" stroke-miterlimit="10" d="M 589.784 741.953 C 639.658 741.855 645.973 589.512 597.845 589.792 C 593.812 639.752 591.134 690.568 589.784 741.953 Z"></path>
          <path fill="none" stroke="#C0EAFF" stroke-width="3" stroke-miterlimit="10" d="M 597.846 589.792 C 550.698 590.066 504.734 590.427 460.15 590.881 C 453.647 640.561 540.932 742.049 589.785 741.953 C 591.135 690.568 593.813 639.752 597.846 589.792 Z"></path>
          <path fill="none" stroke="#C0EAFF" stroke-width="3" stroke-miterlimit="10" d="M 589.785 741.952 C 540.932 742.048 444.948 845.399 447.136 896.837 C 493.315 896.996 540.932 897.122 589.785 897.218 C 588.429 845.512 588.429 793.659 589.785 741.952 Z"></path>
          <path fill="none" stroke="#C0EAFF" stroke-width="3" stroke-miterlimit="10" d="M 597.846 589.792 C 601.805 540.776 466.552 542.008 460.15 590.881 C 504.733 590.427 550.697 590.066 597.846 589.792 Z"></path>
          <path fill="none" stroke="#C0EAFF" stroke-width="3" stroke-miterlimit="10" d="M 589.785 897.219 C 540.932 897.123 493.315 896.997 447.136 896.838 C 447.974 916.508 463.477 943.561 484.924 969.429 C 500.924 988.727 520.232 1007.366 539.228 1021.785 C 560.994 1038.307 582.349 1049.29 597.846 1049.38 C 593.813 999.419 591.135 948.603 589.785 897.219 Z"></path>
          <path fill="none" stroke="#C0EAFF" stroke-width="3" stroke-miterlimit="10" d="M 896.51 741.757 C 947.763 741.79 1044.286 639.751 1040.253 589.791 C 992.126 589.512 943.229 589.327 893.779 589.233 C 895.146 639.34 896.052 690.259 896.51 741.757 Z"></path>
          <path fill="none" stroke="#C0EAFF" stroke-width="3" stroke-miterlimit="10" d="M 893.779 589.234 C 892.439 540.148 890.671 492.305 888.448 445.921 C 480.734 280.684 810.151 647.624 744.318 589.234 C 794.102 589.14 843.997 589.14 893.779 589.234 Z"></path>
          <path fill="none" stroke="#C0EAFF" stroke-width="3" stroke-miterlimit="10" d="M 744.319 589.234 C 688.202 588.689 606.79 494.882 613.589 446.761 C 607.032 493.003 601.804 540.775 597.845 589.791 C 645.973 589.513 694.87 589.328 744.319 589.234 Z"></path>
          <path fill="none" stroke="#C0EAFF" stroke-width="3" stroke-miterlimit="10" d="M 485.582 1190.768 C 475.013 1144.791 375.863 1047.331 336.505 1046.719 C 345.07 1095.374 356.396 1142.779 370.48 1188.398 C 407.139 1189.321 445.558 1190.106 485.582 1190.768 Z"></path>
          <path fill="none" stroke="#C0EAFF" stroke-width="3" stroke-miterlimit="10" d="M 336.505 592.452 C 299.212 593.032 264.128 593.686 231.383 594.434 C 220.935 643.241 280.549 743.087 319.131 742.884 C 322.044 692.052 327.835 641.739 336.505 592.452 Z"></path>
          <path fill="none" stroke="#C0EAFF" stroke-width="3" stroke-miterlimit="10" d="M 370.48 450.773 C 335.719 451.649 241.744 546.073 231.384 594.433 C 264.129 593.686 299.213 593.031 336.506 592.451 C 345.07 543.797 356.397 496.392 370.48 450.773 Z"></path>
          <path fill="none" stroke="#C0EAFF" stroke-width="3" stroke-miterlimit="10" d="M 636.291 318.346 C 644.701 279.501 654.191 243.004 664.935 209.194 C 632.01 209.701 535.95 281.343 522.282 320.311 C 559.229 319.491 597.285 318.839 636.291 318.346 Z"></path>
          <path fill="none" stroke="#C0EAFF" stroke-width="3" stroke-miterlimit="10" d="M 319.132 742.883 C 280.55 743.086 206.897 845.025 210.417 895.594 C 244.267 895.855 280.55 896.084 319.132 896.287 C 316.213 845.236 316.213 793.935 319.132 742.883 Z"></path>
          <path fill="none" stroke="#C0EAFF" stroke-width="3" stroke-miterlimit="10" d="M 522.282 320.31 C 535.95 281.342 509.422 212.994 481.672 214.133 C 458.691 247.504 437.958 284.065 419.567 323.148 C 452.308 322.042 486.593 321.102 522.282 320.31 Z"></path>
          <path fill="none" stroke="#C0EAFF" stroke-width="3" stroke-miterlimit="10" d="M 481.673 214.133 C 455.298 215.216 354.187 287.584 331.809 326.739 C 359.2 325.384 388.49 324.198 419.567 323.148 C 437.959 284.066 458.692 247.504 481.673 214.133 Z"></path>
          <path fill="none" stroke="#C0EAFF" stroke-width="3" stroke-miterlimit="10" d="M 419.568 323.149 C 388.491 324.2 359.2 325.386 331.81 326.74 C 309.004 366.659 335.719 451.65 370.48 450.774 C 384.274 406.113 400.646 363.375 419.568 323.149 Z"></path>
          <path fill="none" stroke="#C0EAFF" stroke-width="3" stroke-miterlimit="10" d="M336.505,1046.719
					c-37.293-0.58-72.377-1.234-105.122-1.982c10.36,48.36,24.07,95.466,41.04,140.667c30.569,1.129,63.295,2.117,98.056,2.993
					C356.397,1142.779,345.07,1095.375,336.505,1046.719z"></path>
          <path fill="none" stroke="#C0EAFF" stroke-width="3" stroke-miterlimit="10" d="M 880.765 1321.83 C 877.927 1360.595 874.728 1397.041 871.076 1431.009 C 905.517 1430.836 939.594 1430.494 973.164 1429.978 C 983.908 1396.168 921.613 1321.662 880.765 1321.83 Z"></path>
          <path fill="none" stroke="#C0EAFF" stroke-width="3" stroke-miterlimit="10" d="M 1115.817 1318.861 C 1078.87 1319.681 983.908 1396.168 973.164 1429.978 C 1006.089 1429.471 1038.231 1428.802 1069.458 1427.959 C 1086.726 1394.376 1102.149 1357.829 1115.817 1318.861 Z"></path>
          <path fill="none" stroke="#C0EAFF" stroke-width="3" stroke-miterlimit="10" d="M 419.568 1316.023 C 437.959 1355.106 458.692 1391.668 481.673 1425.038 C 509.423 1426.177 538.452 1427.144 568.642 1427.959 C 551.374 1394.376 452.308 1317.129 419.568 1316.023 Z"></path>
          <path fill="none" stroke="#C0EAFF" stroke-width="3" stroke-miterlimit="10" d="M331.809,1312.431
					c22.378,39.155,47.568,75.693,75.285,108.904c23.312,1.397,48.204,2.62,74.579,3.703
					c-22.981-33.371-43.714-69.932-62.105-109.015C388.49,1314.972,359.2,1313.786,331.809,1312.431z"></path>
          <path fill="none" stroke="#C0EAFF" stroke-width="3" stroke-miterlimit="10" d="M 636.291 1320.826 C 597.285 1320.332 551.373 1394.376 568.641 1427.959 C 599.867 1428.801 632.01 1429.471 664.935 1429.978 C 654.191 1396.168 644.701 1359.671 636.291 1320.826 Z"></path>
          <path fill="none" stroke="#C0EAFF" stroke-width="3" stroke-miterlimit="10" d="M 1024.509 1192.41 C 982.961 1286.441 1071.597 1329.863 1115.817 1318.862 C 1130.024 1278.342 1142.232 1235.494 1152.518 1190.769 C 1111.056 1191.453 1068.326 1191.997 1024.509 1192.41 Z"></path>
          <path fill="none" stroke="#C0EAFF" stroke-width="3" stroke-miterlimit="10" d="M1152.517,1190.768
					c40.023-0.661,78.443-1.446,115.102-2.37c14.083-45.619,25.41-93.024,33.974-141.679c-39.358,0.612-80.629,1.132-123.645,1.571
					C1171.546,1097.163,1163.086,1144.791,1152.517,1190.768z"></path>
          <path fill="none" stroke="#C0EAFF" stroke-width="3" stroke-miterlimit="10" d="M 613.59 1192.41 C 648.787 1192.614 751.738 1193.557 751.738 1193.557 C 751.738 1193.557 640.574 1192.663 613.59 1192.41 Z"></path>
          <path fill="none" stroke="#C0EAFF" stroke-width="3" stroke-miterlimit="10" d="M 485.582 1190.768 C 495.868 1235.494 597.286 1320.332 636.292 1320.825 C 627.47 1280.063 619.939 1237.16 613.591 1192.409 C 569.773 1191.997 527.043 1191.453 485.582 1190.768 Z"></path>
          <path fill="none" stroke="#C0EAFF" stroke-width="3" stroke-miterlimit="10" d="M413.174,1500.247
					c38.488,25.514,79.208,47.236,121.393,64.741c7.19,1.243,15.453,2.323,24.737,3.328
					c-38.791-17.133-76.223-38.542-111.544-63.725C434.728,1503.28,423.176,1501.872,413.174,1500.247z"></path>
          <path fill="none" stroke="#C0EAFF" stroke-width="3" stroke-miterlimit="10" d="M 749.65 1193.25 C 751.644 1242.552 749.494 1293.885 762.842 1312.453 C 781.619 1338.575 823.176 1320.62 881.189 1322.254 C 884.182 1281.353 886.303 1238.006 888.448 1193.25 C 842.217 1193.391 795.882 1193.391 749.65 1193.25 Z"></path>
          <path fill="none" stroke="#C0EAFF" stroke-width="3" stroke-miterlimit="10" d="M757.333,317.341
					c2.838-38.764,6.037-75.211,9.689-109.179c-34.441,0.173-68.518,0.515-102.088,1.031
					c-10.744,33.81-20.234,70.307-28.644,109.152C676.08,317.843,716.486,317.509,757.333,317.341z"></path>
          <path fill="none" stroke="#C0EAFF" stroke-width="3" stroke-miterlimit="10" d="M1218.531,323.149
					c-18.391-39.083-39.124-75.645-62.105-109.015c-27.75-1.139-56.779-2.106-86.969-2.921
					c17.268,33.583,32.691,70.13,46.359,109.098C1151.506,321.102,1185.79,322.042,1218.531,323.149z"></path>
          <path fill="none" stroke="#C0EAFF" stroke-width="3" stroke-miterlimit="10" d="M1001.808,318.346
					c-8.41-38.845-17.9-75.342-28.644-109.152c-33.569-0.516-67.647-0.859-102.088-1.031c3.652,33.968,6.852,70.414,9.689,109.179
					C921.613,317.509,962.019,317.843,1001.808,318.346z"></path>
          <path fill="none" stroke="#C0EAFF" stroke-width="3" stroke-miterlimit="10" d="M1115.817,320.31
					c-13.668-38.968-29.091-75.515-46.359-109.098c-31.226-0.842-63.369-1.512-96.294-2.019
					c10.744,33.81,20.234,70.307,28.644,109.152C1040.814,318.839,1078.87,319.491,1115.817,320.31z"></path>
          <path fill="none" stroke="#C0EAFF" stroke-width="3" stroke-miterlimit="10" d="M 370.48 1188.398 C 384.274 1233.059 400.646 1275.796 419.568 1316.023 C 452.309 1317.129 495.868 1235.494 485.582 1190.769 C 445.558 1190.106 407.139 1189.322 370.48 1188.398 Z"></path>
          <path fill="none" stroke="#C0EAFF" stroke-width="3" stroke-miterlimit="10" d="M1177.949,590.881
					c43.016,0.438,84.287,0.959,123.645,1.571c-8.565-48.655-19.891-96.06-33.974-141.678c-36.659-0.923-75.078-1.708-115.102-2.37
					C1163.086,494.38,1171.546,542.008,1177.949,590.881z"></path>
          <path fill="none" stroke="#C0EAFF" stroke-width="3" stroke-miterlimit="10" d="M655.639,36.682
					c-1.707,0.603-3.012,1.29-3.187,2.112c-47.207,9.982-93.532,24.265-138.176,42.605c0.052-1.364,2.253-2.625,5.158-3.661
					C563.504,59.861,609.18,46.098,655.639,36.682z"></path>
          <path fill="none" stroke="#C0EAFF" stroke-width="3" stroke-miterlimit="10" d="M796.484,21.547
					c-0.253,0.086-0.447,0.178-0.494,0.298c-48.213,1.296-96.336,6.977-143.538,16.949c0.175-0.822,1.48-1.509,3.187-2.112
					C702.034,27.289,749.265,22.22,796.484,21.547z"></path>
          <path fill="none" stroke="#C0EAFF" stroke-width="3" stroke-miterlimit="10" d="M519.434,77.738
					c-2.906,1.037-5.106,2.297-5.158,3.661c-44.647,18.351-87.648,40.775-128.262,66.888c-0.247-1.659,2.605-3.413,6.438-4.74
					C432.707,117.721,475.289,95.656,519.434,77.738z"></path>
          <path fill="none" stroke="#C0EAFF" stroke-width="3" stroke-miterlimit="10" d="M392.453,143.547
					c-3.834,1.327-6.686,3.081-6.438,4.74c-40.614,26.124-78.873,55.959-114.114,88.992c-0.612-1.664,2.63-3.768,7.13-5.205
					C314.09,199.115,352.122,169.431,392.453,143.547z"></path>
          <path fill="none" stroke="#C0EAFF" stroke-width="3" stroke-miterlimit="10" d="M664.23,34.64
					c44.028-8.828,88.817-13.307,133.489-13.38c-0.493,0.086-0.908,0.176-1.234,0.287c-47.219,0.673-94.45,5.742-140.845,15.135
					C657.878,35.892,660.767,35.252,664.23,34.64z"></path>
          <path fill="none" stroke="#C0EAFF" stroke-width="3" stroke-miterlimit="10" d="M745.107,28.473
					c20.862-7.019,42.642-9.795,63.823-8.071c-1.236,0.043-2.43,0.095-3.578,0.156c-28.711-1.4-57.867,1.654-86.265,9.041
					C727.423,29.159,736.107,28.787,745.107,28.473z"></path>
          <path fill="none" stroke="#C0EAFF" stroke-width="3" stroke-miterlimit="10" d="M696.463,31.037
					c34.895-7.811,70.494-11.261,105.763-10.279c-0.924,0.071-1.783,0.149-2.573,0.237c-40.646-0.485-81.516,3.448-121.674,11.743
					C683.636,32.104,689.807,31.545,696.463,31.037z"></path>
          <path fill="none" stroke="#C0EAFF" stroke-width="3" stroke-miterlimit="10" d="M719.088,29.599
					c28.398-7.387,57.554-10.441,86.265-9.041c-1.098,0.058-2.141,0.124-3.126,0.2c-35.269-0.981-70.868,2.469-105.763,10.279
					C703.576,30.494,711.128,30.018,719.088,29.599z"></path>
          <path fill="none" stroke="#C0EAFF" stroke-width="3" stroke-miterlimit="10" d="M677.979,32.737
					c40.158-8.295,81.028-12.227,121.674-11.743c-0.72,0.08-1.367,0.167-1.935,0.266c-44.671,0.073-89.461,4.552-133.489,13.38
					C668.247,33.93,672.841,33.312,677.979,32.737z"></path>
          <path fill="none" stroke="#C0EAFF" stroke-width="3" stroke-miterlimit="10" d="M279.03,232.074
					c-4.501,1.438-7.743,3.541-7.13,5.205c-35.24,33.044-67.49,69.314-96.193,108.184c-0.912-1.393,2.449-3.635,7.384-4.991
					C211.738,301.452,243.906,265.106,279.03,232.074z"></path>
          <path fill="none" stroke="#C0EAFF" stroke-width="3" stroke-miterlimit="10" d="M30.123,892.968
					c-5.347-0.247-7.797-0.847-7.166-0.946c4.391,48.149,13.168,95.917,26.178,142.48c-0.897,0.441,1.953,1.999,7.258,2.713
					C43.337,990.091,34.531,941.731,30.123,892.968z"></path>
          <path fill="none" stroke="#C0EAFF" stroke-width="3" stroke-miterlimit="10" d="M56.393,1037.214
					c-5.304-0.714-8.154-2.272-7.258-2.713c13.018,46.557,30.28,91.947,51.486,135.384c-1.026,0.933,2.187,3.021,7.373,4.123
					C86.744,1130.153,69.445,1084.29,56.393,1037.214z"></path>
          <path fill="none" stroke="#C0EAFF" stroke-width="3" stroke-miterlimit="10" d="M107.995,1174.008
					c-5.185-1.102-8.399-3.19-7.373-4.123c21.213,43.43,46.386,84.943,75.085,123.823c-0.912,1.393,2.449,3.635,7.384,4.991
					C154.399,1259.601,129.221,1217.794,107.995,1174.008z"></path>
          <path fill="none" stroke="#C0EAFF" stroke-width="3" stroke-miterlimit="10" d="M183.091,1298.699
					c-4.936-1.356-8.297-3.598-7.384-4.991c28.703,38.871,60.953,75.141,96.193,108.184c-0.612,1.664,2.63,3.768,7.13,5.205
					C243.906,1374.065,211.738,1337.719,183.091,1298.699z"></path>
          <path fill="none" stroke="#C0EAFF" stroke-width="3" stroke-miterlimit="10" d="M56.393,601.957
					c-5.304,0.714-8.154,2.272-7.258,2.713c-13.01,46.562-21.787,94.331-26.178,142.48c-0.631-0.099,1.819-0.699,7.166-0.946
					C34.531,697.44,43.337,649.08,56.393,601.957z"></path>
          <path fill="none" stroke="#C0EAFF" stroke-width="3" stroke-miterlimit="10" d="M30.123,746.204
					c-5.347,0.247-7.797,0.847-7.166,0.946c-4.382,48.151-4.382,96.721,0,144.872c-0.631,0.099,1.819,0.699,7.166,0.946
					C25.723,844.187,25.723,794.984,30.123,746.204z"></path>
          <path fill="none" stroke="#C0EAFF" stroke-width="3" stroke-miterlimit="10" d="M107.995,465.163
					c-5.185,1.102-8.399,3.19-7.373,4.123c-21.206,43.437-38.468,88.826-51.486,135.384c-0.897-0.441,1.953-1.999,7.258-2.713
					C69.445,554.881,86.744,509.018,107.995,465.163z"></path>
          <path fill="none" stroke="#C0EAFF" stroke-width="3" stroke-miterlimit="10" d="M183.091,340.473
					c-4.936,1.357-8.297,3.598-7.384,4.991c-28.699,38.88-53.873,80.393-75.085,123.823c-1.026-0.933,2.187-3.021,7.373-4.123
					C129.221,421.377,154.399,379.57,183.091,340.473z"></path>
          <path fill="none" stroke="#C0EAFF" stroke-width="3" stroke-miterlimit="10" d="M960.12,32.737
					c-40.158-8.295-81.028-12.227-121.674-11.743c-0.79-0.088-1.649-0.166-2.573-0.237c35.269-0.981,70.868,2.469,105.763,10.279
					C948.292,31.545,954.463,32.104,960.12,32.737z"></path>
          <path fill="none" stroke="#C0EAFF" stroke-width="3" stroke-miterlimit="10" d="M1333.774,226.979
					c10.462,1.52,18.963,3.075,25.295,5.095c-35.059-32.959-73.092-62.643-113.423-88.528c-5.249-1.815-12.219-3.241-20.721-4.623
					C1263.634,164.595,1300.135,194.135,1333.774,226.979z"></path>
          <path fill="none" stroke="#C0EAFF" stroke-width="3" stroke-miterlimit="10" d="M1224.925,138.924
					c8.502,1.381,15.472,2.807,20.721,4.623c-40.255-25.825-82.836-47.891-126.982-65.808c-3.887-1.385-8.977-2.491-15.132-3.556
					C1145.717,91.688,1186.437,113.41,1224.925,138.924z"></path>
          <path fill="none" stroke="#C0EAFF" stroke-width="3" stroke-miterlimit="10" d="M1103.532,74.183
					c6.155,1.064,11.245,2.17,15.132,3.556c-44.07-17.877-89.745-31.641-136.205-41.056c-2.239-0.79-5.128-1.43-8.591-2.042
					C1018.049,43.508,1061.552,56.772,1103.532,74.183z"></path>
          <path fill="none" stroke="#C0EAFF" stroke-width="3" stroke-miterlimit="10" d="M1426.154,335.572
					c12.018,1.459,21.698,2.936,28.853,4.9c-28.647-39.02-60.814-75.366-95.939-108.398c-6.331-2.02-14.832-3.575-25.295-5.095
					C1367.612,260.03,1398.58,296.45,1426.154,335.572z"></path>
          <path fill="none" stroke="#C0EAFF" stroke-width="3" stroke-miterlimit="10" d="M1574.04,745.27
					c14.297,0.277,25.613,0.55,33.936,0.933c-4.407-48.763-13.214-97.123-26.27-144.247c-8.132-1.093-19.191-1.881-33.115-2.675
					C1561.245,646.982,1569.77,695.911,1574.04,745.27z"></path>
          <path fill="none" stroke="#C0EAFF" stroke-width="3" stroke-miterlimit="10" d="M982.46,36.682
					c-46.395-9.393-93.626-14.462-140.845-15.135c-0.326-0.11-0.741-0.201-1.234-0.287c44.671,0.073,89.461,4.552,133.489,13.38
					C977.332,35.252,980.221,35.892,982.46,36.682z"></path>
          <path fill="none" stroke="#C0EAFF" stroke-width="3" stroke-miterlimit="10" d="M1548.591,599.282
					c13.923,0.794,24.983,1.581,33.115,2.675c-13.052-47.076-30.351-92.939-51.601-136.794c-7.747-1.644-18.271-2.852-31.439-4.058
					C1519.238,505.404,1535.965,551.722,1548.591,599.282z"></path>
          <path fill="none" stroke="#C0EAFF" stroke-width="3" stroke-miterlimit="10" d="M1498.665,461.105
					c13.168,1.206,23.692,2.414,31.439,4.058c-21.227-43.786-46.404-85.593-75.097-124.691c-7.155-1.964-16.835-3.442-28.853-4.9
					C1453.876,374.919,1478.176,417.008,1498.665,461.105z"></path>
          <path fill="none" stroke="#C0EAFF" stroke-width="3" stroke-miterlimit="10" d="M864.451,27.7
					c-12.504-6.638-26.287-9.339-39.194-7.405c-1.356-0.027-2.729-0.045-4.116-0.054c4.016-1.89,9.466,1.258,13.216,7.066
					C844.499,27.372,854.543,27.503,864.451,27.7z"></path>
          <path fill="none" stroke="#C0EAFF" stroke-width="3" stroke-miterlimit="10" d="M973.869,34.64
					c-44.028-8.828-88.817-13.307-133.489-13.38c-0.568-0.099-1.215-0.186-1.935-0.266c40.646-0.485,81.516,3.448,121.674,11.743
					C965.258,33.312,969.852,33.93,973.869,34.64z"></path>
          <path fill="none" stroke="#C0EAFF" stroke-width="3" stroke-miterlimit="10" d="M773.647,27.7
					c12.504-6.638,26.287-9.339,39.194-7.405c-1.333,0.027-2.638,0.062-3.911,0.107c-21.182-1.724-42.961,1.053-63.823,8.071
					C754.386,28.15,763.911,27.894,773.647,27.7z"></path>
          <path fill="none" stroke="#C0EAFF" stroke-width="3" stroke-miterlimit="10" d="M834.358,27.306
					c-3.75-5.808-9.201-8.955-13.216-7.066c-1.394-0.009-2.791-0.009-4.185,0c-4.016-1.89-9.466,1.258-13.216,7.066
					C813.94,27.24,824.159,27.24,834.358,27.306z"></path>
          <path fill="none" stroke="#C0EAFF" stroke-width="3" stroke-miterlimit="10" d="M803.741,27.306
					c3.75-5.808,9.201-8.955,13.216-7.066c-1.386,0.009-2.76,0.027-4.116,0.054c-12.907-1.934-26.69,0.767-39.194,7.405
					C783.555,27.503,793.6,27.372,803.741,27.306z"></path>
          <path fill="none" stroke="#C0EAFF" stroke-width="3" stroke-miterlimit="10" d="M892.992,28.473
					c-20.862-7.019-42.642-9.795-63.823-8.071c-1.273-0.045-2.578-0.08-3.911-0.107c12.907-1.934,26.69,0.767,39.194,7.405
					C874.187,27.894,883.713,28.15,892.992,28.473z"></path>
          <path fill="none" stroke="#C0EAFF" stroke-width="3" stroke-miterlimit="10" d="M279.03,1407.097
					c-4.501-1.438-7.743-3.541-7.13-5.205c35.241,33.033,73.5,62.869,114.114,88.992c-0.247,1.659,2.605,3.413,6.438,4.74
					C352.122,1469.74,314.09,1440.056,279.03,1407.097z"></path>
          <path fill="none" stroke="#C0EAFF" stroke-width="3" stroke-miterlimit="10" d="M941.636,31.037
					c-34.895-7.811-70.494-11.261-105.763-10.279c-0.985-0.075-2.029-0.141-3.126-0.2c28.711-1.4,57.867,1.654,86.265,9.041
					C926.971,30.018,934.523,30.494,941.636,31.037z"></path>
          <path fill="none" stroke="#C0EAFF" stroke-width="3" stroke-miterlimit="10" d="M919.011,29.599
					c-28.398-7.387-57.554-10.441-86.265-9.041c-1.148-0.061-2.342-0.112-3.578-0.156c21.181-1.724,42.961,1.053,63.823,8.071
					C901.992,28.787,910.676,29.159,919.011,29.599z"></path>
          <path fill="none" stroke="#C0EAFF" stroke-width="3" stroke-miterlimit="10" d="M841.615,21.547
					c47.219,0.673,94.45,5.742,140.845,15.135c1.707,0.603,3.012,1.29,3.187,2.112c-47.202-9.972-95.325-15.654-143.538-16.949
					C842.062,21.725,841.868,21.633,841.615,21.547z"></path>
          <path fill="none" stroke="#C0EAFF" stroke-width="3" stroke-miterlimit="10" d="M1359.069,1407.097
					c4.501-1.438,7.743-3.541,7.13-5.205c35.24-33.044,67.49-69.314,96.193-108.184c0.912,1.393-2.449,3.635-7.384,4.991
					C1426.361,1337.719,1394.193,1374.065,1359.069,1407.097z"></path>
          <path fill="none" stroke="#C0EAFF" stroke-width="3" stroke-miterlimit="10" d="M841.615,1617.624
					c0.253-0.086,0.447-0.178,0.494-0.298c48.213-1.296,96.336-6.977,143.538-16.949c-0.175,0.822-1.48,1.509-3.187,2.112
					C936.065,1611.882,888.834,1616.951,841.615,1617.624z"></path>
          <path fill="none" stroke="#C0EAFF" stroke-width="3" stroke-miterlimit="10" d="M1455.008,1298.699
					c4.936-1.356,8.297-3.598,7.384-4.991c28.699-38.88,53.872-80.393,75.085-123.823c1.026,0.933-2.188,3.021-7.373,4.123
					C1508.878,1217.794,1483.7,1259.601,1455.008,1298.699z"></path>
          <path fill="none" stroke="#C0EAFF" stroke-width="3" stroke-miterlimit="10" d="M1581.706,1037.214
					c5.304-0.714,8.154-2.272,7.258-2.713c13.01-46.562,21.787-94.331,26.178-142.48c0.631,0.099-1.819,0.699-7.166,0.946
					C1603.568,941.731,1594.762,990.091,1581.706,1037.214z"></path>
          <path fill="none" stroke="#C0EAFF" stroke-width="3" stroke-miterlimit="10" d="M982.46,1602.489
					c1.707-0.603,3.012-1.29,3.187-2.112c47.207-9.982,93.532-24.265,138.176-42.605c-0.052,1.364-2.252,2.625-5.158,3.661
					C1074.595,1579.31,1028.919,1593.074,982.46,1602.489z"></path>
          <path fill="none" stroke="#C0EAFF" stroke-width="3" stroke-miterlimit="10" d="M1607.976,892.968
					c5.347-0.247,7.797-0.847,7.166-0.946c4.382-48.151,4.382-96.721,0-144.872c0.631-0.099-1.819-0.699-7.166-0.946
					C1612.376,794.984,1612.376,844.187,1607.976,892.968z"></path>
          <path fill="none" stroke="#C0EAFF" stroke-width="3" stroke-miterlimit="10" d="M1245.646,1495.625
					c3.834-1.327,6.686-3.081,6.438-4.74c40.614-26.124,78.873-55.959,114.114-88.992c0.612,1.664-2.63,3.768-7.13,5.205
					C1324.009,1440.056,1285.977,1469.74,1245.646,1495.625z"></path>
          <path fill="none" stroke="#C0EAFF" stroke-width="3" stroke-miterlimit="10" d="M1118.665,1561.433
					c2.906-1.036,5.106-2.297,5.158-3.661c44.647-18.351,87.648-40.775,128.262-66.888c0.247,1.659-2.605,3.413-6.438,4.74
					C1205.392,1521.45,1162.81,1543.515,1118.665,1561.433z"></path>
          <path fill="none" stroke="#C0EAFF" stroke-width="3" stroke-miterlimit="10" d="M1530.104,1174.008
					c5.185-1.102,8.399-3.19,7.373-4.123c21.206-43.437,38.468-88.826,51.486-135.384c0.896,0.441-1.953,1.999-7.258,2.713
					C1568.654,1084.29,1551.354,1130.153,1530.104,1174.008z"></path>
          <path fill="none" stroke="#C0EAFF" stroke-width="3" stroke-miterlimit="10" d="M1359.069,232.074
					c4.501,1.438,7.743,3.541,7.13,5.205c-35.241-33.033-73.5-62.869-114.115-88.992c0.248-1.659-2.604-3.413-6.438-4.74
					C1285.977,169.431,1324.009,199.115,1359.069,232.074z"></path>
          <path fill="none" stroke="#C0EAFF" stroke-width="3" stroke-miterlimit="10" d="M1245.646,143.547
					c3.834,1.327,6.686,3.081,6.438,4.74c-40.613-26.113-83.615-48.537-128.262-66.888c-0.052-1.364-2.252-2.625-5.158-3.661
					C1162.81,95.656,1205.391,117.721,1245.646,143.547z"></path>
          <path fill="none" stroke="#C0EAFF" stroke-width="3" stroke-miterlimit="10" d="M1118.664,77.738
					c2.906,1.037,5.106,2.297,5.158,3.661c-44.644-18.34-90.969-32.623-138.176-42.605c-0.175-0.822-1.48-1.509-3.187-2.112
					C1028.919,46.098,1074.595,59.861,1118.664,77.738z"></path>
          <path fill="none" stroke="#C0EAFF" stroke-width="3" stroke-miterlimit="10" d="M1574.04,893.901
					c14.297-0.277,25.613-0.55,33.936-0.933c4.4-48.78,4.4-97.984,0-146.764c-8.323-0.384-19.639-0.657-33.936-0.933
					C1578.306,794.679,1578.306,844.492,1574.04,893.901z"></path>
          <path fill="none" stroke="#C0EAFF" stroke-width="3" stroke-miterlimit="10" d="M1607.976,746.204
					c5.347,0.247,7.797,0.847,7.166,0.946c-4.391-48.149-13.168-95.918-26.178-142.48c0.896-0.441-1.953-1.999-7.258-2.713
					C1594.762,649.08,1603.568,697.44,1607.976,746.204z"></path>
          <path fill="none" stroke="#C0EAFF" stroke-width="3" stroke-miterlimit="10" d="M1581.706,601.957
					c5.304,0.714,8.154,2.272,7.258,2.713c-13.018-46.557-30.28-91.947-51.486-135.384c1.026-0.933-2.188-3.021-7.373-4.123
					C1551.354,509.018,1568.654,554.881,1581.706,601.957z"></path>
          <path fill="none" stroke="#C0EAFF" stroke-width="3" stroke-miterlimit="10" d="M1455.008,340.473
					c4.936,1.357,8.297,3.598,7.384,4.991c-28.703-38.871-60.953-75.141-96.193-108.184c0.612-1.664-2.63-3.768-7.13-5.205
					C1394.193,265.106,1426.361,301.452,1455.008,340.473z"></path>
          <path fill="none" stroke="#C0EAFF" stroke-width="3" stroke-miterlimit="10" d="M1530.104,465.163
					c5.185,1.102,8.399,3.19,7.373,4.123c-21.213-43.43-46.386-84.943-75.085-123.823c0.912-1.393-2.449-3.635-7.384-4.991
					C1483.7,379.57,1508.878,421.377,1530.104,465.163z"></path>
          <path fill="none" stroke="#C0EAFF" stroke-width="3" stroke-miterlimit="10" d="M677.979,1606.435
					c40.158,8.295,81.028,12.227,121.674,11.743c0.79,0.088,1.649,0.166,2.573,0.237c-35.269,0.981-70.868-2.469-105.763-10.279
					C689.807,1607.626,683.636,1607.067,677.979,1606.435z"></path>
          <path fill="none" stroke="#C0EAFF" stroke-width="3" stroke-miterlimit="10" d="M664.229,1604.531
					c44.028,8.828,88.817,13.307,133.489,13.38c0.568,0.099,1.215,0.186,1.935,0.266c-40.646,0.485-81.516-3.448-121.674-11.743
					C672.841,1605.86,668.247,1605.241,664.229,1604.531z"></path>
          <path fill="none" stroke="#C0EAFF" stroke-width="3" stroke-miterlimit="10" d="M392.453,1495.625
					c-3.834-1.327-6.686-3.081-6.438-4.74c40.613,26.113,83.615,48.537,128.262,66.888c0.052,1.364,2.252,2.625,5.158,3.661
					C475.289,1543.515,432.707,1521.45,392.453,1495.625z"></path>
          <path fill="none" stroke="#C0EAFF" stroke-width="3" stroke-miterlimit="10" d="M696.463,1608.135
					c34.895,7.811,70.494,11.261,105.763,10.279c0.985,0.075,2.029,0.141,3.126,0.2c-28.711,1.4-57.867-1.654-86.265-9.041
					C711.128,1609.153,703.576,1608.678,696.463,1608.135z"></path>
          <path fill="none" stroke="#C0EAFF" stroke-width="3" stroke-miterlimit="10" d="M719.088,1609.573
					c28.398,7.387,57.554,10.441,86.265,9.041c1.148,0.061,2.342,0.112,3.578,0.156c-21.182,1.724-42.961-1.053-63.823-8.072
					C736.107,1610.385,727.423,1610.012,719.088,1609.573z"></path>
          <path fill="none" stroke="#C0EAFF" stroke-width="3" stroke-miterlimit="10" d="M652.452,1600.377
					c47.202,9.972,95.325,15.654,143.538,16.949c0.047,0.12,0.241,0.212,0.494,0.298c-47.219-0.673-94.45-5.742-140.845-15.135
					C653.932,1601.886,652.627,1601.199,652.452,1600.377z"></path>
          <path fill="none" stroke="#C0EAFF" stroke-width="3" stroke-miterlimit="10" d="M973.869,1604.531
					c-44.028,8.828-88.817,13.307-133.489,13.38c0.493-0.086,0.908-0.176,1.234-0.287c47.219-0.673,94.45-5.742,140.845-15.135
					C980.221,1603.279,977.332,1603.919,973.869,1604.531z"></path>
          <path fill="none" stroke="#C0EAFF" stroke-width="3" stroke-miterlimit="10" d="M519.434,1561.433
					c-2.906-1.036-5.106-2.297-5.158-3.661c44.644,18.34,90.969,32.623,138.176,42.605c0.175,0.822,1.48,1.509,3.187,2.112
					C609.18,1593.074,563.504,1579.31,519.434,1561.433z"></path>
          <path fill="none" stroke="#C0EAFF" stroke-width="3" stroke-miterlimit="10" d="M745.107,1610.698
					c20.862,7.019,42.642,9.795,63.823,8.072c1.273,0.045,2.578,0.08,3.911,0.107c-12.907,1.934-26.69-0.767-39.194-7.405
					C763.911,1611.277,754.386,1611.021,745.107,1610.698z"></path>
          <path fill="none" stroke="#C0EAFF" stroke-width="3" stroke-miterlimit="10" d="M655.639,1602.489
					c46.395,9.393,93.626,14.462,140.845,15.135c0.326,0.11,0.741,0.201,1.234,0.287c-44.671-0.073-89.461-4.552-133.489-13.38
					C660.766,1603.919,657.878,1603.279,655.639,1602.489z"></path>
          <path fill="none" stroke="#C0EAFF" stroke-width="3" stroke-miterlimit="10" d="M941.636,1608.135
					c-34.895,7.811-70.494,11.261-105.763,10.279c0.924-0.071,1.783-0.149,2.573-0.237c40.646,0.485,81.516-3.448,121.674-11.743
					C954.463,1607.067,948.292,1607.626,941.636,1608.135z"></path>
          <path fill="none" stroke="#C0EAFF" stroke-width="3" stroke-miterlimit="10" d="M919.011,1609.573
					c-28.398,7.387-57.554,10.441-86.265,9.041c1.098-0.058,2.141-0.124,3.126-0.2c35.269,0.981,70.868-2.469,105.763-10.279
					C934.523,1608.678,926.971,1609.153,919.011,1609.573z"></path>
          <path fill="none" stroke="#C0EAFF" stroke-width="3" stroke-miterlimit="10" d="M773.647,1611.471
					c12.504,6.638,26.287,9.339,39.194,7.405c1.356,0.027,2.729,0.045,4.116,0.054c-4.016,1.89-9.466-1.258-13.216-7.066
					C793.6,1611.799,783.555,1611.668,773.647,1611.471z"></path>
          <path fill="none" stroke="#C0EAFF" stroke-width="3" stroke-miterlimit="10" d="M960.12,1606.435
					c-40.158,8.295-81.028,12.227-121.674,11.743c0.72-0.08,1.366-0.167,1.935-0.266c44.671-0.073,89.461-4.552,133.489-13.38
					C969.852,1605.241,965.258,1605.86,960.12,1606.435z"></path>
          <path fill="none" stroke="#C0EAFF" stroke-width="3" stroke-miterlimit="10" d="M892.992,1610.698
					c-20.862,7.019-42.642,9.795-63.823,8.072c1.236-0.043,2.43-0.095,3.578-0.156c28.711,1.4,57.867-1.654,86.265-9.041
					C910.676,1610.012,901.992,1610.385,892.992,1610.698z"></path>
          <path fill="none" stroke="#C0EAFF" stroke-width="3" stroke-miterlimit="10" d="M803.741,1611.865
					c3.75,5.808,9.201,8.955,13.216,7.066c1.394,0.009,2.791,0.009,4.185,0c4.016,1.89,9.466-1.258,13.216-7.066
					C824.159,1611.931,813.94,1611.931,803.741,1611.865z"></path>
          <path fill="none" stroke="#C0EAFF" stroke-width="3" stroke-miterlimit="10" d="M864.452,1611.471
					c-12.504,6.638-26.287,9.339-39.194,7.405c1.333-0.027,2.638-0.062,3.911-0.107c21.182,1.724,42.961-1.053,63.823-8.072
					C883.713,1611.021,874.187,1611.277,864.452,1611.471z"></path>
          <path fill="none" stroke="#C0EAFF" stroke-width="3" stroke-miterlimit="10" d="M834.358,1611.865
					c-3.75,5.808-9.201,8.955-13.216,7.066c1.386-0.009,2.76-0.027,4.116-0.054c12.907,1.934,26.69-0.767,39.194-7.405
					C854.543,1611.668,844.499,1611.799,834.358,1611.865z"></path>
          <path fill="none" stroke="#C0EAFF" stroke-width="3" stroke-miterlimit="10" d="M1103.532,74.183
					c-41.98-17.411-85.483-30.675-129.663-39.543c-4.018-0.71-8.611-1.329-13.749-1.904c40.419,8.358,80.271,21.165,118.675,38.118
					C1088.079,71.86,1096.342,72.94,1103.532,74.183z"></path>
          <path fill="none" stroke="#C0EAFF" stroke-width="3" stroke-miterlimit="10" d="M1190.339,134.579
					c13.032,1.312,24.583,2.72,34.585,4.344c-38.488-25.514-79.208-47.236-121.393-64.741c-7.19-1.243-15.453-2.323-24.737-3.328
					C1117.586,87.987,1155.018,109.396,1190.339,134.579z"></path>
          <path fill="none" stroke="#C0EAFF" stroke-width="3" stroke-miterlimit="10" d="M1078.795,70.854
					c-38.404-16.953-78.256-29.76-118.675-38.118c-5.657-0.633-11.828-1.192-18.484-1.7c35.29,7.908,70.106,20.324,103.536,36.834
					C1057.313,68.763,1068.537,69.744,1078.795,70.854z"></path>
          <path fill="none" stroke="#C0EAFF" stroke-width="3" stroke-miterlimit="10" d="M1443.441,457.258
					c21,1.162,39.429,2.403,55.224,3.848c-20.489-44.097-44.789-86.187-72.511-125.533c-14.333-1.739-31.015-3.236-49.97-4.636
					C1401.942,370.559,1424.459,412.907,1443.441,457.258z"></path>
          <path fill="none" stroke="#C0EAFF" stroke-width="3" stroke-miterlimit="10" d="M1489.839,596.742
					c22.379,0.767,41.981,1.585,58.752,2.54c-12.626-47.56-29.353-93.879-49.926-138.177c-15.795-1.445-34.224-2.686-55.224-3.848
					C1462.587,502.011,1478.114,548.749,1489.839,596.742z"></path>
          <path fill="none" stroke="#C0EAFF" stroke-width="3" stroke-miterlimit="10" d="M 735 61.982 C 746.969 46.918 759.957 34.977 773.647 27.7 C 763.911 27.894 754.385 28.15 745.106 28.473 C 723.443 35.77 717.001 62.325 735 61.982 Z"></path>
          <path fill="none" stroke="#C0EAFF" stroke-width="3" stroke-miterlimit="10" d="M 634.375 65.338 C 649.7 64.563 723.443 35.771 745.106 28.474 C 736.106 28.787 727.422 29.16 719.087 29.599 C 690.127 37.141 661.579 49.261 634.375 65.338 Z"></path>
          <path fill="none" stroke="#C0EAFF" stroke-width="3" stroke-miterlimit="10" d="M 634.376 65.338 C 661.58 49.261 690.128 37.141 719.088 29.599 C 711.128 30.019 703.576 30.494 696.463 31.037 C 661.173 38.945 619.766 66.078 634.376 65.338 Z"></path>
          <path fill="none" stroke="#C0EAFF" stroke-width="3" stroke-miterlimit="10" d="M1003.723,65.338
					c-27.204-16.077-55.752-28.197-84.712-35.739c-8.335-0.439-17.02-0.812-26.019-1.125c21.663,7.297,42.888,19.256,62.827,34.877
					C972.41,63.904,988.399,64.563,1003.723,65.338z"></path>
          <path fill="none" stroke="#C0EAFF" stroke-width="3" stroke-miterlimit="10" d="M1548.591,1039.889
					c13.923-0.794,24.983-1.582,33.115-2.675c13.056-47.123,21.863-95.483,26.27-144.247c-8.323,0.383-19.639,0.657-33.936,0.933
					C1569.77,943.26,1561.245,992.19,1548.591,1039.889z"></path>
          <path fill="none" stroke="#C0EAFF" stroke-width="3" stroke-miterlimit="10" d="M847.401,61.285
					c-3.896-14.442-7.943-26.07-13.043-33.978c-10.199-0.066-20.418-0.066-30.618,0c-5.1,7.908-9.147,19.537-13.043,33.978
					C809.586,61.167,828.513,61.167,847.401,61.285z"></path>
          <path fill="none" stroke="#C0EAFF" stroke-width="3" stroke-miterlimit="10" d="M 677.979 32.736 C 637.56 41.094 661.174 38.944 696.463 31.036 C 689.806 31.544 683.636 32.103 677.979 32.736 Z"></path>
          <path fill="none" stroke="#C0EAFF" stroke-width="3" stroke-miterlimit="10" d="M 859.8 1517.176 C 832.652 1517.331 786.059 1560.686 790.697 1577.887 C 809.586 1578.004 828.512 1578.004 847.401 1577.887 C 852.039 1560.686 856.05 1540.376 859.8 1517.176 Z"></path>
          <path fill="none" stroke="#C0EAFF" stroke-width="3" stroke-miterlimit="10" d="M1015.399,1514.448
					c-18.506,24.021-38.436,44.798-59.579,61.373c16.59-0.554,32.58-1.212,47.904-1.988c28.105-16.62,54.998-37.555,80.144-62.004
					C1061.994,1512.85,1039.14,1513.718,1015.399,1514.448z"></path>
          <path fill="none" stroke="#C0EAFF" stroke-width="3" stroke-miterlimit="10" d="M 698.292 1516.254 C 709.534 1539.812 721.674 1560.406 735 1577.189 C 753.33 1577.538 771.92 1577.77 790.697 1577.887 C 786.059 1560.686 724.611 1516.716 698.292 1516.254 Z"></path>
          <path fill="none" stroke="#C0EAFF" stroke-width="3" stroke-miterlimit="10" d="M495.267,1508.501
					c30.827,24.832,63.61,45.974,97.66,62.8c13.004,0.956,26.839,1.793,41.449,2.532c-28.105-16.62-54.998-37.555-80.144-62.004
					C533.412,1510.856,513.731,1509.757,495.267,1508.501z"></path>
          <path fill="none" stroke="#C0EAFF" stroke-width="3" stroke-miterlimit="10" d="M1513.518,894.788
					c23.073-0.268,43.263-0.553,60.522-0.887c4.266-49.409,4.266-99.222,0-148.63c-17.259-0.334-37.449-0.619-60.522-0.887
					C1517.49,794.396,1517.49,844.775,1513.518,894.788z"></path>
          <path fill="none" stroke="#C0EAFF" stroke-width="3" stroke-miterlimit="10" d="M1443.441,1181.914
					c21-1.162,39.429-2.403,55.224-3.848c20.573-44.298,37.3-90.617,49.926-138.177c-16.771,0.955-36.373,1.774-58.752,2.54
					C1478.114,1090.422,1462.587,1137.161,1443.441,1181.914z"></path>
          <path fill="none" stroke="#C0EAFF" stroke-width="3" stroke-miterlimit="10" d="M1142.832,1508.501
					c-30.827,24.832-63.61,45.974-97.66,62.8c12.141-0.893,23.365-1.874,33.623-2.984c38.791-17.133,76.223-38.542,111.544-63.725
					C1175.887,1506.046,1160.029,1507.331,1142.832,1508.501z"></path>
          <path fill="none" stroke="#C0EAFF" stroke-width="3" stroke-miterlimit="10" d="M1190.339,1504.592
					c13.032-1.312,24.583-2.72,34.586-4.344c38.709-25.672,75.21-55.211,108.849-88.055c-12.396,1.799-26.772,3.354-43.053,4.805
					C1259.747,1449.684,1226.09,1479.092,1190.339,1504.592z"></path>
          <path fill="none" stroke="#C0EAFF" stroke-width="3" stroke-miterlimit="10" d="M1078.795,1568.317
					c9.284-1.005,17.547-2.086,24.737-3.328c42.185-17.505,82.905-39.227,121.393-64.741c-10.002,1.624-21.554,3.032-34.586,4.344
					C1155.018,1529.775,1117.586,1551.184,1078.795,1568.317z"></path>
          <path fill="none" stroke="#C0EAFF" stroke-width="3" stroke-miterlimit="10" d="M790.698,1577.887
					c3.896,14.442,7.943,26.07,13.043,33.978c10.199,0.066,20.418,0.066,30.618,0c5.1-7.908,9.147-19.537,13.043-33.978
					C828.513,1578.004,809.586,1578.004,790.698,1577.887z"></path>
          <path fill="none" stroke="#C0EAFF" stroke-width="3" stroke-miterlimit="10" d="M903.098,1577.189
					c-11.969,15.064-24.957,27.005-38.647,34.282c9.736-0.194,19.262-0.45,28.541-0.773c21.663-7.297,42.888-19.256,62.827-34.877
					C938.695,1576.392,921.098,1576.846,903.098,1577.189z"></path>
          <path fill="none" stroke="#C0EAFF" stroke-width="3" stroke-miterlimit="10" d="M847.401,1577.887
					c-3.896,14.442-7.943,26.07-13.043,33.978c10.141-0.066,20.185-0.197,30.093-0.394c13.69-7.277,26.678-19.218,38.647-34.282
					C884.769,1577.539,866.178,1577.77,847.401,1577.887z"></path>
          <path fill="none" stroke="#C0EAFF" stroke-width="3" stroke-miterlimit="10" d="M955.819,1575.821
					c-19.939,15.621-41.164,27.58-62.827,34.877c9-0.313,17.684-0.686,26.019-1.125c28.96-7.542,57.508-19.662,84.712-35.739
					C988.399,1574.609,972.41,1575.267,955.819,1575.821z"></path>
          <path fill="none" stroke="#C0EAFF" stroke-width="3" stroke-miterlimit="10" d="M634.376,1573.833
					c27.204,16.077,55.752,28.197,84.712,35.739c8.335,0.439,17.02,0.812,26.019,1.125c-21.663-7.297-42.888-19.256-62.827-34.877
					C665.689,1575.267,649.7,1574.609,634.376,1573.833z"></path>
          <path fill="none" stroke="#C0EAFF" stroke-width="3" stroke-miterlimit="10" d="M1003.723,1573.833
					c-27.204,16.077-55.752,28.197-84.712,35.739c7.96-0.42,15.512-0.895,22.625-1.438c35.289-7.908,70.106-20.324,103.536-36.834
					C1032.168,1572.257,1018.333,1573.094,1003.723,1573.833z"></path>
          <path fill="none" stroke="#C0EAFF" stroke-width="3" stroke-miterlimit="10" d="M682.279,1575.821
					c19.939,15.621,41.164,27.58,62.827,34.877c9.279,0.323,18.805,0.579,28.541,0.773c-13.69-7.277-26.678-19.218-38.647-34.282
					C717.001,1576.846,699.404,1576.392,682.279,1575.821z"></path>
          <path fill="none" stroke="#C0EAFF" stroke-width="3" stroke-miterlimit="10" d="M735,1577.189
					c11.969,15.064,24.957,27.005,38.647,34.282c9.908,0.197,19.952,0.328,30.093,0.394c-5.1-7.908-9.147-19.537-13.043-33.978
					C771.921,1577.77,753.33,1577.539,735,1577.189z"></path>
          <path fill="none" stroke="#C0EAFF" stroke-width="3" stroke-miterlimit="10" d="M592.927,1571.301
					c33.43,16.51,68.247,28.926,103.536,36.834c7.113,0.543,14.665,1.018,22.625,1.438c-28.96-7.542-57.508-19.662-84.712-35.739
					C619.766,1573.094,605.931,1572.257,592.927,1571.301z"></path>
          <path fill="none" stroke="#C0EAFF" stroke-width="3" stroke-miterlimit="10" d="M1045.172,1571.301
					c-33.43,16.51-68.247,28.926-103.536,36.834c6.657-0.508,12.827-1.068,18.484-1.7c40.419-8.358,80.271-21.165,118.675-38.118
					C1068.537,1569.427,1057.313,1570.408,1045.172,1571.301z"></path>
          <path fill="none" stroke="#C0EAFF" stroke-width="3" stroke-miterlimit="10" d="M1426.155,1303.599
					c12.018-1.459,21.698-2.937,28.853-4.901c28.693-39.098,53.87-80.905,75.097-124.691c-7.747,1.644-18.271,2.852-31.439,4.058
					C1478.176,1222.163,1453.876,1264.253,1426.155,1303.599z"></path>
          <path fill="none" stroke="#C0EAFF" stroke-width="3" stroke-miterlimit="10" d="M559.304,70.854
					c38.404-16.953,78.256-29.76,118.675-38.118c-5.138,0.575-9.732,1.194-13.75,1.904c-44.18,8.867-87.683,22.132-129.663,39.543
					C541.757,72.94,550.02,71.86,559.304,70.854z"></path>
          <path fill="none" stroke="#C0EAFF" stroke-width="3" stroke-miterlimit="10" d="M1498.665,1178.066
					c13.168-1.206,23.692-2.414,31.439-4.058c21.25-43.855,38.549-89.718,51.601-136.794c-8.132,1.093-19.191,1.881-33.115,2.675
					C1535.965,1087.449,1519.238,1133.768,1498.665,1178.066z"></path>
          <path fill="none" stroke="#C0EAFF" stroke-width="3" stroke-miterlimit="10" d="M1333.774,1412.192
					c10.462-1.52,18.963-3.075,25.295-5.095c35.125-33.032,67.292-69.378,95.939-108.399c-7.155,1.964-16.835,3.442-28.853,4.901
					C1398.58,1342.721,1367.612,1379.141,1333.774,1412.192z"></path>
          <path fill="none" stroke="#C0EAFF" stroke-width="3" stroke-miterlimit="10" d="M1078.795,1568.317
					c-38.404,16.953-78.256,29.76-118.675,38.118c5.138-0.575,9.732-1.194,13.75-1.903c44.18-8.868,87.683-22.132,129.663-39.543
					C1096.342,1566.231,1088.079,1567.312,1078.795,1568.317z"></path>
          <path fill="none" stroke="#C0EAFF" stroke-width="3" stroke-miterlimit="10" d="M973.869,1604.531
					c3.463-0.612,6.351-1.252,8.59-2.042c46.459-9.415,92.135-23.179,136.205-41.056c-3.887,1.385-8.977,2.491-15.132,3.556
					C1061.552,1582.399,1018.049,1595.664,973.869,1604.531z"></path>
          <path fill="none" stroke="#C0EAFF" stroke-width="3" stroke-miterlimit="10" d="M1103.532,1564.989
					c6.155-1.064,11.246-2.17,15.132-3.556c44.146-17.918,86.727-39.983,126.982-65.808c-5.249,1.815-12.219,3.241-20.721,4.623
					C1186.437,1525.761,1145.717,1547.483,1103.532,1564.989z"></path>
          <path fill="none" stroke="#C0EAFF" stroke-width="3" stroke-miterlimit="10" d="M1224.925,1500.247
					c8.502-1.381,15.472-2.807,20.721-4.623c40.331-25.885,78.363-55.569,113.422-88.527c-6.331,2.02-14.832,3.575-25.295,5.095
					C1300.135,1445.036,1263.634,1474.576,1224.925,1500.247z"></path>
          <path fill="none" stroke="#C0EAFF" stroke-width="3" stroke-miterlimit="10" d="M 89.508 599.282 C 75.585 600.076 64.525 600.863 56.393 601.957 C 43.337 649.08 34.531 697.441 30.123 746.204 C 38.445 745.82 76.854 646.982 89.508 599.282 Z"></path>
          <path fill="none" stroke="#C0EAFF" stroke-width="3" stroke-miterlimit="10" d="M304.325,226.979
					c-10.462,1.52-18.963,3.075-25.295,5.095c-35.125,33.032-67.292,69.378-95.939,108.398c7.155-1.964,16.835-3.442,28.853-4.9
					C239.519,296.45,270.487,260.03,304.325,226.979z"></path>
          <path fill="none" stroke="#C0EAFF" stroke-width="3" stroke-miterlimit="10" d="M664.23,34.64
					c-3.463,0.612-6.351,1.252-8.59,2.042c-46.459,9.415-92.135,23.179-136.205,41.056c3.887-1.385,8.977-2.491,15.132-3.556
					C576.547,56.772,620.05,43.508,664.23,34.64z"></path>
          <path fill="none" stroke="#C0EAFF" stroke-width="3" stroke-miterlimit="10" d="M 64.059 893.9 C 59.793 844.492 38.446 745.82 30.123 746.203 C 25.723 794.983 25.723 844.186 30.123 892.967 C 38.445 893.35 49.762 893.624 64.059 893.9 Z"></path>
          <path fill="none" stroke="#C0EAFF" stroke-width="3" stroke-miterlimit="10" d="M534.567,74.183
					c-6.155,1.064-11.246,2.17-15.132,3.556c-44.146,17.918-86.727,39.983-126.981,65.808c5.249-1.815,12.219-3.241,20.721-4.623
					C451.662,113.41,492.382,91.688,534.567,74.183z"></path>
          <path fill="none" stroke="#C0EAFF" stroke-width="3" stroke-miterlimit="10" d="M559.304,1568.317
					c38.404,16.953,78.256,29.76,118.675,38.118c5.657,0.633,11.828,1.192,18.484,1.7c-35.289-7.908-70.106-20.324-103.536-36.834
					C580.786,1570.408,569.562,1569.427,559.304,1568.317z"></path>
          <path fill="none" stroke="#C0EAFF" stroke-width="3" stroke-miterlimit="10" d="M 304.325 1412.192 C 293.863 1410.672 285.362 1409.117 279.03 1407.097 C 314.089 1440.056 352.122 1469.74 392.453 1495.624 C 397.702 1497.439 337.964 1445.036 304.325 1412.192 Z"></path>
          <path fill="none" stroke="#C0EAFF" stroke-width="3" stroke-miterlimit="10" d="M 64.059 893.901 C 49.762 893.624 38.446 893.351 30.123 892.968 C 34.53 941.731 43.337 990.091 56.393 1037.215 C 64.525 1038.308 68.329 943.26 64.059 893.901 Z"></path>
          <path fill="none" stroke="#C0EAFF" stroke-width="3" stroke-miterlimit="10" d="M519.434,1561.433
					c44.07,17.877,89.745,31.641,136.205,41.056c2.239,0.79,5.127,1.43,8.59,2.042c-44.18-8.867-87.683-22.132-129.663-39.542
					C528.411,1563.924,523.321,1562.818,519.434,1561.433z"></path>
          <path fill="none" stroke="#C0EAFF" stroke-width="3" stroke-miterlimit="10" d="M534.567,1564.989
					c41.98,17.411,85.483,30.675,129.663,39.542c4.018,0.71,8.611,1.329,13.75,1.904c-40.419-8.358-80.271-21.165-118.675-38.118
					C550.02,1567.312,541.757,1566.231,534.567,1564.989z"></path>
          <path fill="none" stroke="#C0EAFF" stroke-width="3" stroke-miterlimit="10" d="M 534.567 1564.988 C 492.382 1547.483 397.702 1497.44 392.453 1495.624 C 432.707 1521.449 475.289 1543.515 519.435 1561.432 C 523.322 1562.817 528.412 1563.923 534.567 1564.988 Z"></path>
          <path fill="none" stroke="#C0EAFF" stroke-width="3" stroke-miterlimit="10" d="M 139.433 1178.066 C 118.861 1133.768 64.525 1038.307 56.393 1037.214 C 69.445 1084.29 86.744 1130.153 107.994 1174.008 C 115.741 1175.652 126.265 1176.86 139.433 1178.066 Z"></path>
          <path fill="none" stroke="#C0EAFF" stroke-width="3" stroke-miterlimit="10" d="M139.434,1178.066
					c-13.168-1.206-23.692-2.414-31.439-4.058c21.227,43.786,46.404,85.593,75.097,124.691c7.155,1.964,16.835,3.442,28.853,4.901
					C184.223,1264.253,159.923,1222.163,139.434,1178.066z"></path>
          <path fill="none" stroke="#C0EAFF" stroke-width="3" stroke-miterlimit="10" d="M 304.325 1412.192 C 270.487 1379.141 190.246 1300.662 183.091 1298.698 C 211.738 1337.718 243.905 1374.064 279.03 1407.097 C 285.361 1409.117 293.862 1410.672 304.325 1412.192 Z"></path>
        </g>
        <path fill="#6EBFFF" fill-opacity="0.35" stroke="#C0EAFF" stroke-width="4.22578" d="M274.394,312.323c-5.287,0.412-15.264,8.97-22.13,19.352c-6.878,10.414-7.87,18.706-2.366,18.323
				c5.672-0.411,15.544-9.361,22.209-19.788C278.745,319.814,279.842,311.914,274.394,312.323z"></path>
        <path fill="#6EBFFF" fill-opacity="0.35" stroke="#C0EAFF" stroke-width="4.22578" d="M464.891,122.768c-3.54,0.366-14.224,5.81-23.753,12.502c-9.555,6.714-14.086,12.108-10.226,11.73
				c3.97-0.398,14.587-6.406,23.821-13.098C463.934,127.23,468.533,122.4,464.891,122.768z"></path>
        <path fill="#6EBFFF" fill-opacity="0.35" stroke="#C0EAFF" stroke-width="4.22578" d="M566.574,115.749c-5.528,0.267-15.777,5.542-22.773,12.096c-7.055,6.618-7.773,11.995-1.718,11.722
				c6.137-0.287,16.307-6.106,22.839-12.709C571.381,120.321,572.177,115.488,566.574,115.749z"></path>
        <path fill="#6EBFFF" fill-opacity="0.35" stroke="#C0EAFF" stroke-width="4.22578" d="M185.807,1160.442c-6.063-0.307-6.964,9.091-1.849,20.858c5.111,11.738,14.177,21.396,20.081,21.75
				c6.089,0.347,6.874-8.764,1.932-20.532C201.009,1170.722,192.059,1160.777,185.807,1160.442z"></path>
        <path fill="#6EBFFF" fill-opacity="0.35" stroke="#C0EAFF" stroke-width="4.22578" d="M332.667,1400.998c-4.765-0.408-1.945,6.529,6.431,15.235c8.354,8.676,18.88,15.808,23.373,16.224
				c4.626,0.416,1.716-6.036-6.356-14.708C348.008,1409.048,337.572,1401.431,332.667,1400.998z"></path>
        <path fill="#6EBFFF" fill-opacity="0.35" stroke="#C0EAFF" stroke-width="4.22578" d="M703.954,111.46c-6.774,0.126-15.101,5.258-18.501,11.695c-3.466,6.584-0.172,11.987,7.262,11.864
				c7.472-0.134,15.726-5.737,18.536-12.317C713.985,116.277,710.764,111.344,703.954,111.46z"></path>
        <path fill="#6EBFFF" fill-opacity="0.35" stroke="#C0EAFF" stroke-width="4.22578" d="M154.17,573.83c-6.333,0.249-14.165,10.635-17.319,23.318c-3.149,12.702-0.352,22.902,6.077,22.715
				c6.633-0.214,14.343-10.776,17.405-23.519C163.38,583.618,160.704,573.593,154.17,573.83z"></path>
        <path fill="#6EBFFF" fill-opacity="0.35" stroke="#C0EAFF" stroke-width="4.22578" d="M122.983,870.86c-6.598-0.042-11.228,10.61-10.168,23.787c1.07,13.169,7.402,23.889,13.967,24
				c6.775,0.093,11.282-10.5,10.255-23.719C135.999,881.702,129.791,870.924,122.983,870.86z"></path>
        <path fill="#6EBFFF" fill-opacity="0.35" stroke="#C0EAFF" stroke-width="4.22578" d="M1401.484,571.307c-8.631-0.207-13.329,9.938-10.661,22.775c2.688,12.868,11.843,23.505,20.612,23.695
				c8.585,0.165,13.385-10.152,10.573-22.983C1419.189,581.995,1409.933,571.529,1401.484,571.307z"></path>
        <path fill="#6EBFFF" fill-opacity="0.35" stroke="#C0EAFF" stroke-width="4.22578" d="M1429.098,871.411c-9.016,0.058-16.928,10.942-17.842,24.307c-0.898,13.354,5.508,24.068,14.477,23.988
				c8.779-0.1,16.793-10.926,17.752-24.237C1444.43,882.147,1437.922,871.375,1429.098,871.411z"></path>
        <path fill="#6EBFFF" fill-opacity="0.35" stroke="#C0EAFF" stroke-width="4.22578" d="M1243.95,1405.352c-6.393,0.38-17.198,7.943-24.273,16.641c-7.025,8.648-7.96,15.133-1.946,14.77
				c5.895-0.368,16.788-7.452,24.196-16.104C1249.369,1411.956,1250.217,1404.993,1243.95,1405.352z"></path>
        <path fill="#6EBFFF" fill-opacity="0.35" stroke="#C0EAFF" stroke-width="4.22578" d="M1373.499,1163.773c-8.238,0.296-18.313,10.275-22.664,22.163c-4.321,11.843-1.463,21.056,6.549,20.753
				c7.846-0.316,18.021-10.013,22.578-21.829C1384.525,1172.997,1381.567,1163.502,1373.499,1163.773z"></path>
        <path fill="#6EBFFF" fill-opacity="0.35" stroke="#C0EAFF" stroke-width="4.22578" d="M1006.215,113.211c-6.318-0.192-7.539,4.679-2.854,11.157c4.771,6.582,14.154,12.294,21.082,12.509
				c6.866,0.202,8.171-5.183,2.8-11.775C1021.943,118.61,1012.476,113.411,1006.215,113.211z"></path>
        <path fill="#6EBFFF" fill-opacity="0.35" stroke="#C0EAFF" stroke-width="4.22578" d="M857.887,110.567c-7.055-0.036-12.185,4.971-11.497,11.364c0.72,6.587,7.551,12.092,15.295,12.141
				c7.732,0.038,12.892-5.401,11.485-11.988C871.792,115.686,864.93,110.613,857.887,110.567z"></path>
        <path fill="#6EBFFF" fill-opacity="0.35" stroke="#C0EAFF" stroke-width="4.22578" d="M1127.811,118.976c-4.698-0.32-1.938,4.5,6.044,11.102c8.036,6.641,18.62,12.559,23.756,12.908
				c5.038,0.332,2.349-5.048-6.115-11.708C1143.074,124.657,1132.419,119.298,1127.811,118.976z"></path>
        <path fill="#6EBFFF" fill-opacity="0.35" stroke="#C0EAFF" stroke-width="4.22578" d="M896.694,872.654c-14.101,0.017-25.578,11.105-25.671,24.773c-0.07,13.644,11.211,24.667,25.233,24.666
				c13.995-0.023,25.484-11.06,25.656-24.699C922.061,883.732,910.769,872.659,896.694,872.654z"></path>
        <path fill="#6EBFFF" fill-opacity="0.35" stroke="#C0EAFF" stroke-width="4.22578" d="M589.24,872.521c-13.484-0.007-24.138,11.025-23.753,24.648c0.406,13.6,11.64,24.624,25.048,24.669
				c13.484,0.024,24.106-10.957,23.798-24.573C614.002,883.625,602.8,872.55,589.24,872.521z"></path>
        <path fill="#6EBFFF" fill-opacity="0.35" stroke="#C0EAFF" stroke-width="4.22578" d="M893.099,565.626c-13.448-0.017-24.137,10.498-23.908,23.57c0.252,13.143,11.52,23.849,25.203,23.883
				c13.658,0.012,24.358-10.652,23.893-23.79C917.802,576.221,906.522,565.664,893.099,565.626z"></path>
        <path fill="#6EBFFF" fill-opacity="0.35" stroke="#C0EAFF" stroke-width="4.22578" d="M599.855,566.235c-12.865,0.093-24.284,10.666-25.458,23.701c-1.159,13.102,8.548,23.704,21.636,23.646
				c13.161-0.079,24.546-10.804,25.502-23.92C622.465,576.612,612.792,566.163,599.855,566.235z"></path>
        <path fill="#6EBFFF" fill-opacity="0.35" stroke="#C0EAFF" stroke-width="4.22578" d="M340.838,569.141c-10.305,0.187-20.675,10.712-23.041,23.611c-2.357,12.944,4.321,23.369,14.798,23.234
				c10.632-0.159,20.922-10.849,23.123-23.823C357.895,579.231,351.297,568.972,340.838,569.141z"></path>
        <path fill="#6EBFFF" fill-opacity="0.35" stroke="#C0EAFF" stroke-width="4.22578" d="M317.959,871.885c-10.781-0.028-18.974,10.85-18.183,24.298c0.807,13.432,10.25,24.348,20.973,24.433
				c10.883,0.064,18.998-10.758,18.267-24.226C338.265,882.906,328.901,871.935,317.959,871.885z"></path>
        <path fill="#6EBFFF" fill-opacity="0.35" stroke="#C0EAFF" stroke-width="4.22578" d="M428.655,304.422c-8.466,0.305-19.567,8.841-24.67,19.27c-5.127,10.51-2.016,18.936,6.826,18.657
				c8.968-0.3,19.985-9.206,24.746-19.724C440.269,312.186,437.242,304.129,428.655,304.422z"></path>
        <path fill="#6EBFFF" fill-opacity="0.35" stroke="#C0EAFF" stroke-width="4.22578" d="M872.738,1415.07c-9.752,0.055-18.145,7.281-18.782,16.01c-0.61,8.553,6.277,15.321,15.418,15.28
				c9.125-0.054,17.54-6.897,18.769-15.452C889.381,1422.18,882.473,1415.03,872.738,1415.07z"></path>
        <path fill="#6EBFFF" fill-opacity="0.35" stroke="#C0EAFF" stroke-width="4.22578" d="M1077.416,1412.005c-8.695,0.236-19.063,7.642-23.278,16.351c-4.146,8.594-0.993,15.198,7.165,14.979
				c8.084-0.23,18.529-7.202,23.219-15.799C1089.261,1418.825,1086.031,1411.786,1077.416,1412.005z"></path>
        <path fill="#6EBFFF" fill-opacity="0.35" stroke="#C0EAFF" stroke-width="4.22578" d="M471.004,1409.071c-7.57-0.296-8.768,6.702-2.55,15.407c6.172,8.625,17.044,15.655,24.155,15.96
				c7.21,0.297,8.322-6.24,2.622-14.861C489.466,1416.876,478.68,1409.385,471.004,1409.071z"></path>
        <path fill="#6EBFFF" fill-opacity="0.35" stroke="#C0EAFF" stroke-width="4.22578" d="M660.02,1414.034c-9.349-0.133-14.512,6.956-11.455,15.677c3.019,8.571,12.638,15.482,21.404,15.627
				c8.813,0.132,13.918-6.553,11.493-15.121C678.98,1421.496,669.419,1414.182,660.02,1414.034z"></path>
        <path fill="#6EBFFF" fill-opacity="0.35" stroke="#C0EAFF" stroke-width="4.22578" d="M1157.361,1168.892c-11.347,0.186-22.569,10.166-25.177,22.199c-2.571,11.946,4.184,21.368,15.202,21.185
				c10.912-0.2,22.196-9.922,25.112-21.851C1175.417,1178.407,1168.599,1168.727,1157.361,1168.892z"></path>
        <path fill="#6EBFFF" fill-opacity="0.35" stroke="#C0EAFF" stroke-width="4.22578" d="M610.592,1170.46c-12.238-0.099-20.675,9.665-18.792,21.733c1.886,11.963,13.088,21.666,24.965,21.794
				c11.944,0.109,20.342-9.408,18.835-21.382C634.06,1180.527,622.898,1170.579,610.592,1170.46z"></path>
        <path fill="#6EBFFF" fill-opacity="0.35" stroke="#C0EAFF" stroke-width="4.22578" d="M889.464,1171.262c-12.788,0.047-23.451,9.947-23.85,22.046c-0.375,11.985,9.352,21.584,21.76,21.553
				c12.386-0.05,23.063-9.711,23.835-21.693C911.969,1181.073,902.229,1171.235,889.464,1171.262z"></path>
        <path fill="#6EBFFF" fill-opacity="0.35" stroke="#C0EAFF" stroke-width="4.22578" d="M1191.842,872.26c-12.486,0.04-22.968,11.076-23.521,24.652c-0.532,13.557,9.014,24.47,21.431,24.424
				c12.296-0.067,22.833-11.049,23.453-24.579C1213.807,883.208,1204.206,872.242,1191.842,872.26z"></path>
        <path fill="#6EBFFF" fill-opacity="0.35" stroke="#C0EAFF" stroke-width="4.22578" d="M640.488,299.552c-10.492,0.146-21.083,8.606-23.592,19.053c-2.524,10.581,4.377,19.15,15.35,19.025
				c11.033-0.143,21.578-8.933,23.633-19.518C657.89,307.661,651.036,299.422,640.488,299.552z"></path>
        <path fill="#6EBFFF" fill-opacity="0.35" stroke="#C0EAFF" stroke-width="4.22578" d="M879.345,298.534c-10.951-0.038-19.392,8.287-18.888,18.737c0.53,10.6,10.219,19.318,21.677,19.372
				c11.437,0.037,19.895-8.607,18.874-19.205C899.984,306.989,890.277,298.589,879.345,298.534z"></path>
        <path fill="#6EBFFF" fill-opacity="0.35" stroke="#C0EAFF" stroke-width="4.22578" d="M1109.028,301.544c-9.746-0.216-14.767,7.931-11.333,18.379c3.485,10.557,14.476,19.411,24.664,19.637
				c10.092,0.207,15.183-8.29,11.271-18.84C1129.743,310.279,1118.682,301.774,1109.028,301.544z"></path>
        <path fill="#6EBFFF" fill-opacity="0.35" stroke="#C0EAFF" stroke-width="4.22578" d="M364.006,1166.63c-9.823-0.223-14.784,9.367-10.96,21.314c3.817,11.88,14.749,21.6,24.293,21.863
				c9.683,0.249,14.562-9.071,11.04-20.973C384.822,1176.867,373.973,1166.876,364.006,1166.63z"></path>
        <path fill="#6EBFFF" fill-opacity="0.35" stroke="#C0EAFF" stroke-width="4.22578" d="M1174.704,567.425c-11.921-0.123-20.206,10.239-18.616,23.242c1.616,13.058,12.665,23.778,24.79,23.9
				c12.006,0.099,20.349-10.422,18.549-23.458C1197.615,578.129,1186.508,567.568,1174.704,567.425z"></path>
        <path fill="#6EBFFF" fill-opacity="0.35" stroke="#C0EAFF" stroke-width="4.22578" d="M1295.284,308.065c-7.131-0.358-8.089,7.615-2.297,18.037c5.832,10.475,16.466,19.413,23.904,19.775
				c7.287,0.339,8.341-8.019,2.215-18.483C1313,316.984,1302.27,308.431,1295.284,308.065z"></path>
        <path fill="#6EBFFF" fill-opacity="0.35" stroke="#C0EAFF" stroke-width="4.22578" d="M675.09,34.351c-0.048,0.162-10.177,2.134-22.638,4.794c-12.461,2.66-22.532,4.964-22.502,4.747
				c0.051-0.222,10.189-2.837,22.65-5.447C665.061,35.835,675.122,34.175,675.09,34.351z"></path>
        <path fill="#6EBFFF" fill-opacity="0.35" stroke="#C0EAFF" stroke-width="4.22578" d="M819.049,21.561c0,0-10.331-0.035-23.068,0.333c-12.736,0.369-23.043,0.957-23.034,0.901
				c0.029-0.053,10.355-0.686,23.072-1C808.736,21.482,819.049,21.561,819.049,21.561z"></path>
        <path fill="#6EBFFF" fill-opacity="0.35" stroke="#C0EAFF" stroke-width="4.22578" d="M405.613,136.08c0.042,0.431-8.582,6.079-19.288,12.988c-10.706,6.909-19.456,12.443-19.55,11.988
				c-0.07-0.438,8.578-6.665,19.314-13.552C396.827,140.618,405.554,135.664,405.613,136.08z"></path>
        <path fill="#6EBFFF" fill-opacity="0.35" stroke="#C0EAFF" stroke-width="4.22578" d="M819.049,21.561c0,0-10.163-0.168-22.698,0.035c-12.538,0.204-22.583,0.659-22.433,0.605
				c0.163-0.053,10.337-0.552,22.719-0.702C809.016,21.349,819.049,21.561,819.049,21.561z"></path>
        <path fill="#6EBFFF" fill-opacity="0.35" stroke="#C0EAFF" stroke-width="4.22578" d="M819.049,21.561c0,0-7.732-0.527-17.288-0.767c-9.561-0.239-16.909-0.133-16.393-0.173
				c0.526-0.04,8.298-0.179,17.337,0.101C811.741,21.002,819.049,21.561,819.049,21.561z"></path>
        <path fill="#6EBFFF" fill-opacity="0.35" stroke="#C0EAFF" stroke-width="4.22578" d="M819.049,21.561c0,0-6.368-0.619-14.246-0.973c-7.88-0.354-13.792-0.334-13.182-0.367
				c0.618-0.032,7.028-0.078,14.293,0.308C813.18,20.916,819.049,21.561,819.049,21.561z"></path>
        <path fill="#6EBFFF" fill-opacity="0.35" stroke="#C0EAFF" stroke-width="4.22578" d="M819.049,21.561c0,0-9.661-0.298-21.584-0.255c-11.928,0.044-21.377,0.372-21.094,0.321
				c0.295-0.05,9.979-0.419,21.619-0.413C809.625,21.222,819.049,21.561,819.049,21.561z"></path>
        <path fill="#6EBFFF" fill-opacity="0.35" stroke="#C0EAFF" stroke-width="4.22578" d="M819.049,21.561c0,0-8.841-0.419-19.761-0.525c-10.925-0.105-19.465,0.105-19.059,0.059
				c0.417-0.046,9.292-0.293,19.806-0.142C810.543,21.105,819.049,21.561,819.049,21.561z"></path>
        <path fill="#6EBFFF" fill-opacity="0.35" stroke="#C0EAFF" stroke-width="4.22578" d="M819.049,21.561c0,0,8.506-0.456,19.014-0.608c10.514-0.152,19.389,0.096,19.806,0.142
				c0.406,0.046-8.134-0.164-19.059-0.059C827.891,21.142,819.049,21.561,819.049,21.561z"></path>
        <path fill="#6EBFFF" fill-opacity="0.35" stroke="#C0EAFF" stroke-width="4.22578" d="M819.049,21.561c0,0,9.425-0.339,21.059-0.346c11.64-0.007,21.325,0.362,21.619,0.413
				c0.283,0.051-9.166-0.277-21.094-0.321C828.71,21.263,819.049,21.561,819.049,21.561z"></path>
        <path fill="#6EBFFF" fill-opacity="0.35" stroke="#C0EAFF" stroke-width="4.22578" d="M819.049,21.561c0,0-4.794-0.692-10.735-1.137c-5.936-0.444-10.216-0.491-9.533-0.516
				c0.689-0.024,5.526,0.004,10.774,0.472C814.813,20.85,819.049,21.561,819.049,21.561z"></path>
        <path fill="#6EBFFF" fill-opacity="0.35" stroke="#C0EAFF" stroke-width="4.22578" d="M819.049,21.561c0,0,0.577-0.74,1.404-1.324c0.733-0.516,2.026-0.656,2.788-0.651c0.76,0.005,0.097,0.127-1.413,0.66
				C820.258,20.801,819.049,21.561,819.049,21.561z"></path>
        <path fill="#6EBFFF" fill-opacity="0.35" stroke="#C0EAFF" stroke-width="4.22578" d="M819.049,21.561c0,0-3.058-0.742-6.87-1.252c-3.792-0.507-6.3-0.6-5.566-0.614c0.737-0.015,3.843,0.067,6.896,0.588
				C816.59,20.808,819.049,21.561,819.049,21.561z"></path>
        <path fill="#6EBFFF" fill-opacity="0.35" stroke="#C0EAFF" stroke-width="4.22578" d="M819.049,21.561c0,0-1.208-0.76-2.779-1.315c-1.51-0.533-2.173-0.655-1.413-0.66c0.762-0.005,2.055,0.135,2.788,0.651
				C818.472,20.821,819.049,21.561,819.049,21.561z"></path>
        <path fill="#6EBFFF" fill-opacity="0.35" stroke="#C0EAFF" stroke-width="4.22578" d="M819.049,21.561c0,0,2.46-0.753,5.54-1.279c3.052-0.52,6.158-0.602,6.896-0.588c0.734,0.015-1.774,0.108-5.566,0.614
				C822.108,20.819,819.049,21.561,819.049,21.561z"></path>
        <path fill="#6EBFFF" fill-opacity="0.35" stroke="#C0EAFF" stroke-width="4.22578" d="M255.279,1385.851c0.217-0.501,7.898,6.458,17.182,15.185c9.284,8.727,16.672,15.909,16.517,16.409
				c-0.159,0.451-7.828-5.971-17.15-14.694C262.506,1394.026,255.102,1386.307,255.279,1385.851z"></path>
        <path fill="#6EBFFF" fill-opacity="0.35" stroke="#C0EAFF" stroke-width="4.22578" d="M819.049,21.561c0,0,7.308-0.559,16.344-0.839c9.039-0.279,16.811-0.141,17.337-0.101
				c0.517,0.04-6.832-0.066-16.393,0.173C826.781,21.034,819.049,21.561,819.049,21.561z"></path>
        <path fill="#6EBFFF" fill-opacity="0.35" stroke="#C0EAFF" stroke-width="4.22578" d="M819.049,21.561c0,0,4.237-0.711,9.494-1.18c5.248-0.468,10.085-0.496,10.774-0.472c0.683,0.024-3.597,0.072-9.533,0.516
				C823.843,20.869,819.049,21.561,819.049,21.561z"></path>
        <path fill="#6EBFFF" fill-opacity="0.35" stroke="#C0EAFF" stroke-width="4.22578" d="M819.049,21.561c0,0,5.87-0.645,13.135-1.032c7.265-0.386,13.675-0.34,14.293-0.308c0.61,0.033-5.302,0.013-13.182,0.367
				C825.417,20.942,819.049,21.561,819.049,21.561z"></path>
        <path fill="#6EBFFF" fill-opacity="0.35" stroke="#C0EAFF" stroke-width="4.22578" d="M865.151,22.796c0.01,0.055-10.297-0.533-23.034-0.901c-12.736-0.368-23.068-0.333-23.068-0.333
				s10.313-0.079,23.03,0.234C854.796,22.11,865.122,22.743,865.151,22.796z"></path>
        <path fill="#6EBFFF" fill-opacity="0.35" stroke="#C0EAFF" stroke-width="4.22578" d="M819.049,21.561c0,0,10.033-0.212,22.412-0.062c12.382,0.15,22.556,0.649,22.719,0.702
				c0.15,0.054-9.895-0.401-22.433-0.605C829.212,21.393,819.049,21.561,819.049,21.561z"></path>
        <path fill="#6EBFFF" fill-opacity="0.35" stroke="#C0EAFF" stroke-width="4.22578" d="M865.151,1616.376c-0.029,0.053-10.355,0.686-23.072,1c-12.716,0.313-23.03,0.234-23.03,0.234s10.332,0.035,23.068-0.333
				C854.854,1616.908,865.161,1616.32,865.151,1616.376z"></path>
        <path fill="#6EBFFF" fill-opacity="0.35" stroke="#C0EAFF" stroke-width="4.22578" d="M1008.148,1595.28c-0.051,0.222-10.189,2.837-22.65,5.447c-12.461,2.609-22.521,4.269-22.49,4.094
				c0.048-0.162,10.177-2.134,22.638-4.794C998.108,1597.367,1008.179,1595.063,1008.148,1595.28z"></path>
        <path fill="#6EBFFF" fill-opacity="0.35" stroke="#C0EAFF" stroke-width="4.22578" d="M1616.906,868.969c0.444,0.056,0.037,10.464-1.125,23.208c-1.162,12.743-2.627,22.919-3.07,22.836
				c-0.646-0.146-0.07-10.457,1.083-23.146C1614.948,879.177,1616.245,868.912,1616.906,868.969z"></path>
        <path fill="#6EBFFF" fill-opacity="0.35" stroke="#C0EAFF" stroke-width="4.22578" d="M1382.82,1385.851c0.177,0.456-7.227,8.175-16.549,16.899c-9.322,8.723-16.991,15.146-17.15,14.694
				c-0.155-0.5,7.234-7.681,16.517-16.409C1374.922,1392.309,1382.604,1385.349,1382.82,1385.851z"></path>
        <path fill="#6EBFFF" fill-opacity="0.35" stroke="#C0EAFF" stroke-width="4.22578" d="M1145.043,1548.691c-0.012,0.356-9.584,4.86-21.379,9.686c-11.794,4.825-21.325,8.176-21.314,7.857
				c0.03-0.313,9.582-4.203,21.359-9.067C1135.485,1552.302,1145.036,1548.336,1145.043,1548.691z"></path>
        <path fill="#6EBFFF" fill-opacity="0.35" stroke="#C0EAFF" stroke-width="4.22578" d="M1547.317,1148.971c0.368,0.317-3.798,10.104-9.414,21.592c-5.616,11.487-10.512,20.281-10.868,19.942
				c-0.439-0.448,3.793-9.842,9.375-21.296C1541.993,1157.755,1546.82,1148.573,1547.317,1148.971z"></path>
        <path fill="#6EBFFF" fill-opacity="0.35" stroke="#C0EAFF" stroke-width="4.22578" d="M1232.486,136.08c0.059-0.416,8.786,4.538,19.523,11.424c10.737,6.887,19.385,13.115,19.314,13.552
				c-0.094,0.455-8.844-5.079-19.55-11.988C1241.068,142.159,1232.444,136.511,1232.486,136.08z"></path>
        <path fill="#6EBFFF" fill-opacity="0.35" stroke="#C0EAFF" stroke-width="4.22578" d="M960.203,32.516c-0.486-0.173,9.023,1.365,21.209,3.823c12.191,2.46,22.559,4.949,23.187,5.17
				c0.582,0.208-8.913-1.972-21.238-4.482C971.039,34.52,960.656,32.673,960.203,32.516z"></path>
        <path fill="#6EBFFF" fill-opacity="0.35" stroke="#C0EAFF" stroke-width="4.22578" d="M963.009,34.351c-0.032-0.175,10.029,1.484,22.49,4.094c12.461,2.61,22.6,5.225,22.65,5.447
				c0.03,0.216-10.041-2.087-22.502-4.747C973.185,36.484,963.057,34.513,963.009,34.351z"></path>
        <path fill="#6EBFFF" fill-opacity="0.35" stroke="#C0EAFF" stroke-width="4.22578" d="M1582.419,582.499c0.416-0.219,3.662,9.406,7.109,21.725c3.446,12.32,5.758,22.606,5.336,22.798
				c-0.606,0.25-3.724-9.635-7.149-21.908C1584.29,592.841,1581.854,582.822,1582.419,582.499z"></path>
        <path fill="#6EBFFF" fill-opacity="0.35" stroke="#C0EAFF" stroke-width="4.22578" d="M1441.034,322.005c-1.708-0.477,3.153,7.329,10.696,17.649c7.548,10.326,14.966,19.228,16.72,19.702
				c1.587,0.415-3.158-7.752-10.75-18.062C1450.11,330.988,1442.578,322.447,1441.034,322.005z"></path>
        <path fill="#6EBFFF" fill-opacity="0.35" stroke="#C0EAFF" stroke-width="4.22578" d="M780.229,1618.077c-0.406-0.046,8.134,0.164,19.059,0.059c10.919-0.106,19.761-0.525,19.761-0.525
				s-8.506,0.456-19.014,0.608C789.522,1618.37,780.647,1618.123,780.229,1618.077z"></path>
        <path fill="#6EBFFF" fill-opacity="0.35" stroke="#C0EAFF" stroke-width="4.22578" d="M785.369,1618.551c-0.517-0.04,6.831,0.066,16.393-0.173c9.556-0.24,17.288-0.767,17.288-0.767
				s-7.309,0.559-16.344,0.839C793.666,1618.729,785.895,1618.59,785.369,1618.551z"></path>
        <path fill="#6EBFFF" fill-opacity="0.35" stroke="#C0EAFF" stroke-width="4.22578" d="M791.621,1618.95c-0.61-0.033,5.302-0.013,13.182-0.367c7.878-0.354,14.246-0.973,14.246-0.973s-5.87,0.645-13.135,1.032
				C798.649,1619.029,792.239,1618.983,791.621,1618.95z"></path>
        <path fill="#6EBFFF" fill-opacity="0.35" stroke="#C0EAFF" stroke-width="4.22578" d="M772.948,1616.376c-0.01-0.055,10.297,0.533,23.034,0.901c12.736,0.368,23.068,0.333,23.068,0.333
				s-10.313,0.079-23.03-0.234C783.302,1617.062,772.976,1616.429,772.948,1616.376z"></path>
        <path fill="#6EBFFF" fill-opacity="0.35" stroke="#C0EAFF" stroke-width="4.22578" d="M864.181,1616.971c-0.163,0.053-10.337,0.552-22.719,0.702c-12.379,0.15-22.412-0.062-22.412-0.062
				s10.163,0.168,22.698-0.035C854.286,1617.372,864.331,1616.916,864.181,1616.971z"></path>
        <path fill="#6EBFFF" fill-opacity="0.35" stroke="#C0EAFF" stroke-width="4.22578" d="M629.95,1595.28c-0.03-0.216,10.041,2.087,22.502,4.747c12.461,2.66,22.59,4.631,22.638,4.794
				c0.032,0.175-10.029-1.484-22.49-4.094C640.139,1598.116,630.001,1595.502,629.95,1595.28z"></path>
        <path fill="#6EBFFF" fill-opacity="0.35" stroke="#C0EAFF" stroke-width="4.22578" d="M493.056,1548.691c0.007-0.355,9.557,3.611,21.334,8.476c11.776,4.864,21.329,8.754,21.359,9.067
				c0.011,0.32-9.52-3.032-21.314-7.857C502.64,1553.551,493.069,1549.047,493.056,1548.691z"></path>
        <path fill="#6EBFFF" fill-opacity="0.35" stroke="#C0EAFF" stroke-width="4.22578" d="M798.781,1619.263c-0.683-0.024,3.597-0.072,9.533-0.516c5.942-0.445,10.735-1.137,10.735-1.137s-4.237,0.711-9.494,1.18
				C804.307,1619.258,799.47,1619.286,798.781,1619.263z"></path>
        <path fill="#6EBFFF" fill-opacity="0.35" stroke="#C0EAFF" stroke-width="4.22578" d="M776.371,1617.544c-0.283-0.051,9.166,0.277,21.094,0.321c11.923,0.043,21.584-0.255,21.584-0.255
				s-9.425,0.339-21.059,0.346C786.35,1617.963,776.666,1617.594,776.371,1617.544z"></path>
        <path fill="#6EBFFF" fill-opacity="0.35" stroke="#C0EAFF" stroke-width="4.22578" d="M773.918,1616.971c-0.15-0.054,9.895,0.401,22.433,0.605c12.536,0.203,22.698,0.035,22.698,0.035
				s-10.034,0.212-22.412,0.062C784.255,1617.522,774.081,1617.024,773.918,1616.971z"></path>
        <path fill="#6EBFFF" fill-opacity="0.35" stroke="#C0EAFF" stroke-width="4.22578" d="M852.73,1618.551c-0.526,0.04-8.298,0.178-17.337-0.101c-9.035-0.28-16.344-0.839-16.344-0.839s7.732,0.527,17.288,0.767
				C845.899,1618.617,853.247,1618.51,852.73,1618.551z"></path>
        <path fill="#6EBFFF" fill-opacity="0.35" stroke="#C0EAFF" stroke-width="4.22578" d="M806.613,1619.477c-0.734-0.015,1.774-0.108,5.566-0.615c3.812-0.51,6.87-1.252,6.87-1.252s-2.46,0.753-5.54,1.279
				C810.457,1619.409,807.351,1619.491,806.613,1619.477z"></path>
        <path fill="#6EBFFF" fill-opacity="0.35" stroke="#C0EAFF" stroke-width="4.22578" d="M861.728,1617.544c-0.295,0.05-9.979,0.419-21.619,0.412c-11.634-0.007-21.059-0.346-21.059-0.346
				s9.661,0.298,21.584,0.255C852.562,1617.821,862.011,1617.493,861.728,1617.544z"></path>
        <path fill="#6EBFFF" fill-opacity="0.35" stroke="#C0EAFF" stroke-width="4.22578" d="M857.869,1618.077c-0.417,0.046-9.292,0.293-19.806,0.142c-10.508-0.152-19.014-0.608-19.014-0.608
				s8.842,0.419,19.761,0.525C849.736,1618.241,858.276,1618.03,857.869,1618.077z"></path>
        <path fill="#6EBFFF" fill-opacity="0.35" stroke="#C0EAFF" stroke-width="4.22578" d="M846.478,1618.95c-0.618,0.032-7.028,0.078-14.293-0.308c-7.265-0.387-13.135-1.032-13.135-1.032
				s6.368,0.619,14.246,0.973C841.176,1618.937,847.088,1618.918,846.478,1618.95z"></path>
        <path fill="#6EBFFF" fill-opacity="0.35" stroke="#C0EAFF" stroke-width="4.22578" d="M814.858,1619.586c-0.76-0.005-0.097-0.127,1.413-0.66c1.571-0.555,2.779-1.315,2.779-1.315s-0.577,0.74-1.404,1.324
				C816.913,1619.451,815.619,1619.59,814.858,1619.586z"></path>
        <path fill="#6EBFFF" fill-opacity="0.35" stroke="#C0EAFF" stroke-width="4.22578" d="M839.318,1619.263c-0.689,0.024-5.526-0.004-10.774-0.472c-5.257-0.469-9.494-1.18-9.494-1.18s4.794,0.692,10.735,1.137
				C835.721,1619.191,840.001,1619.238,839.318,1619.263z"></path>
        <path fill="#6EBFFF" fill-opacity="0.35" stroke="#C0EAFF" stroke-width="4.22578" d="M831.486,1619.477c-0.737,0.015-3.843-0.068-6.896-0.588c-3.081-0.526-5.54-1.279-5.54-1.279s3.058,0.742,6.87,1.252
				C829.712,1619.369,832.22,1619.462,831.486,1619.477z"></path>
        <path fill="#6EBFFF" fill-opacity="0.35" stroke="#C0EAFF" stroke-width="4.22578" d="M823.241,1619.586c-0.762,0.005-2.055-0.135-2.788-0.651c-0.826-0.584-1.404-1.324-1.404-1.324s1.209,0.76,2.779,1.315
				C823.338,1619.458,824.002,1619.58,823.241,1619.586z"></path>
        <path fill="#6EBFFF" fill-opacity="0.35" stroke="#C0EAFF" stroke-width="4.22578" d="M952.735,30.743c-0.904-0.16,7.713,1.26,19.214,3.572c11.513,2.314,21.779,4.68,22.958,4.889
				c1.132,0.199-7.477-1.873-19.257-4.235C963.878,32.61,953.604,30.897,952.735,30.743z"></path>
        <path fill="#6EBFFF" fill-opacity="0.35" stroke="#C0EAFF" stroke-width="4.22578" d="M940.822,29.092c-1.293-0.144,6.137,1.174,16.563,3.349c10.446,2.179,20.263,4.423,21.956,4.613
				c1.649,0.183-5.777-1.793-16.616-4.015C951.903,30.82,942.082,29.234,940.822,29.092z"></path>
        <path fill="#6EBFFF" fill-opacity="0.35" stroke="#C0EAFF" stroke-width="4.22578" d="M1206.311,126.984c-2.476-0.404,3.773,4.458,13.849,11.2c10.094,6.753,20.372,12.838,23.06,13.273
				c2.572,0.408-3.609-5.011-13.908-11.787C1219.026,132.906,1208.679,127.378,1206.311,126.984z"></path>
        <path fill="#6EBFFF" fill-opacity="0.35" stroke="#C0EAFF" stroke-width="4.22578" d="M1412.682,317.028c-3.616-0.446-0.556,7.395,6.669,17.757c7.24,10.377,16.019,19.316,19.771,19.763
				c3.577,0.411,0.63-7.819-6.738-18.181C1425.021,326.02,1416.128,317.468,1412.682,317.028z"></path>
        <path fill="#6EBFFF" fill-opacity="0.35" stroke="#C0EAFF" stroke-width="4.22578" d="M924.835,27.618c-1.641-0.125,4.347,1.109,13.338,3.162c9.021,2.06,18.052,4.186,20.207,4.352
				c2.115,0.16-3.867-1.734-13.395-3.831C935.484,29.209,926.447,27.742,924.835,27.618z"></path>
        <path fill="#6EBFFF" fill-opacity="0.35" stroke="#C0EAFF" stroke-width="4.22578" d="M779.893,24.728c-2.31,0.047-7.308,1.256-11.083,3.074c-3.852,1.858-4.438,3.614-1.393,3.555
				c3.059-0.062,7.99-1.899,11.112-3.748C781.56,25.81,782.213,24.683,779.893,24.728z"></path>
        <path fill="#6EBFFF" fill-opacity="0.35" stroke="#C0EAFF" stroke-width="4.22578" d="M732.809,26.372c-1.91,0.102-9.856,1.463-17.706,3.443c-7.887,1.991-12.211,3.82-9.698,3.69
				c2.545-0.135,10.476-2.155,17.759-4.115C730.406,27.441,734.744,26.271,732.809,26.372z"></path>
        <path fill="#6EBFFF" fill-opacity="0.35" stroke="#C0EAFF" stroke-width="4.22578" d="M832.252,24.387c-2.399-0.014-3.672,1.179-2.932,2.892c0.82,1.887,3.978,3.61,7.141,3.632
				c3.158,0.019,4.516-1.701,2.922-3.567C837.888,25.6,834.646,24.404,832.252,24.387z"></path>
        <path fill="#6EBFFF" fill-opacity="0.35" stroke="#C0EAFF" stroke-width="4.22578" d="M1542.235,576.607c-4.268-0.258-4.888,9.647-1.584,22.245c3.313,12.607,9.346,23.074,13.672,23.305
				c4.112,0.2,4.872-9.878,1.509-22.44C1552.465,587.164,1546.292,576.871,1542.235,576.607z"></path>
        <path fill="#6EBFFF" fill-opacity="0.35" stroke="#C0EAFF" stroke-width="4.22578" d="M713.264,27.618c-1.611,0.124-10.648,1.592-20.15,3.682c-9.527,2.098-15.51,3.991-13.395,3.831
				c2.154-0.165,11.186-2.292,20.206-4.352C708.917,28.727,714.904,27.493,713.264,27.618z"></path>
        <path fill="#6EBFFF" fill-opacity="0.35" stroke="#C0EAFF" stroke-width="4.22578" d="M1575.756,870.253c-4.428,0.069-8.761,10.727-9.882,23.798c-1.114,13.068,1.391,23.531,5.801,23.43
				c4.189-0.117,8.667-10.717,9.806-23.732C1582.614,880.731,1579.964,870.208,1575.756,870.253z"></path>
        <path fill="#6EBFFF" fill-opacity="0.35" stroke="#C0EAFF" stroke-width="4.22578" d="M882.83,25.397c-2.164-0.075,0.374,1.057,5.607,2.923c5.293,1.887,11.843,3.811,14.693,3.911
				c2.827,0.096,0.322-1.688-5.65-3.597C891.559,26.745,884.976,25.473,882.83,25.397z"></path>
        <path fill="#6EBFFF" fill-opacity="0.35" stroke="#C0EAFF" stroke-width="4.22578" d="M849.433,1569.982c-5.519,0.038-10.584,3.677-11.362,7.953c-0.734,4.076,2.504,7.202,7.283,7.175
				c4.771-0.033,9.884-3.203,11.351-7.291C858.23,1573.547,854.943,1569.952,849.433,1569.982z"></path>
        <path fill="#6EBFFF" fill-opacity="0.35" stroke="#C0EAFF" stroke-width="4.22578" d="M965.592,1567.792c-4.955,0.167-13.043,4.025-18.177,8.299c-5.044,4.204-5.744,7.225-1.449,7.084
				c4.258-0.146,12.421-3.414,18.129-7.641C969.879,1571.244,970.504,1567.633,965.592,1567.792z"></path>
        <path fill="#6EBFFF" fill-opacity="0.35" stroke="#C0EAFF" stroke-width="4.22578" d="M728.984,1569.243c-5.305-0.096-6.666,3.502-2.929,7.766c3.646,4.151,10.417,7.356,15.012,7.448
				c4.618,0.086,5.891-2.973,2.961-7.105C740.999,1573.091,734.315,1569.347,728.984,1569.243z"></path>
        <path fill="#6EBFFF" fill-opacity="0.35" stroke="#C0EAFF" stroke-width="4.22578" d="M621.218,1565.685c-4.349-0.214-1.773,3.419,5.841,7.766c7.556,4.31,16.816,7.665,20.59,7.861
				c3.824,0.192,1.192-2.828-5.781-7.111C634.826,1569.878,625.624,1565.91,621.218,1565.685z"></path>
        <path fill="#6EBFFF" fill-opacity="0.35" stroke="#C0EAFF" stroke-width="4.22578" d="M1061.225,1563.002c-3.708,0.273-13.691,4.353-22.379,8.75c-8.641,4.375-13.1,7.422-9.876,7.186
				c3.164-0.237,13.191-3.695,22.315-8.1C1060.449,1566.41,1064.864,1562.741,1061.225,1563.002z"></path>
        <path fill="#6EBFFF" fill-opacity="0.35" stroke="#C0EAFF" stroke-width="4.22578" d="M697.277,29.092c-1.26,0.142-11.081,1.728-21.903,3.946c-10.839,2.223-18.265,4.198-16.616,4.015
				c1.693-0.19,11.51-2.433,21.956-4.613C691.14,30.266,698.57,28.947,697.277,29.092z"></path>
        <path fill="#6EBFFF" fill-opacity="0.35" stroke="#C0EAFF" stroke-width="4.22578" d="M1508.194,1156.771c-4.1,0.363-11.637,10.251-17.016,21.947c-5.366,11.682-6.622,20.698-2.618,20.32
				c3.81-0.377,11.476-9.981,16.943-21.631C1510.97,1165.744,1512.097,1156.444,1508.194,1156.771z"></path>
        <path fill="#6EBFFF" fill-opacity="0.35" stroke="#C0EAFF" stroke-width="4.22578" d="M979.342,1602.118c-1.693,0.19-11.51,2.433-21.956,4.613c-10.426,2.175-17.856,3.493-16.563,3.349
				c1.26-0.142,11.081-1.728,21.903-3.946C973.565,1603.911,980.991,1601.935,979.342,1602.118z"></path>
        <path fill="#6EBFFF" fill-opacity="0.35" stroke="#C0EAFF" stroke-width="4.22578" d="M1004.599,1597.662c-0.628,0.222-10.997,2.71-23.187,5.17c-12.185,2.458-21.695,3.996-21.209,3.823
				c0.453-0.158,10.837-2.004,23.158-4.512C995.686,1599.635,1005.181,1597.455,1004.599,1597.662z"></path>
        <path fill="#6EBFFF" fill-opacity="0.35" stroke="#C0EAFF" stroke-width="4.22578" d="M994.907,1599.968c-1.179,0.209-11.444,2.574-22.958,4.889c-11.501,2.312-20.118,3.732-19.214,3.572
				c0.869-0.154,11.143-1.867,22.914-4.226C987.43,1601.841,996.038,1599.768,994.907,1599.968z"></path>
        <path fill="#6EBFFF" fill-opacity="0.35" stroke="#C0EAFF" stroke-width="4.22578" d="M1139.636,1552.56c-1.02,0.364-11.194,4.76-22.785,9.469c-11.584,4.706-20.297,7.968-19.393,7.646
				c0.836-0.298,11.051-4.097,22.748-8.842C1131.907,1556.086,1140.578,1552.226,1139.636,1552.56z"></path>
        <path fill="#6EBFFF" fill-opacity="0.35" stroke="#C0EAFF" stroke-width="4.22578" d="M1349.696,1396.177c-3.28,0.472-12.987,8.125-21.816,16.832c-8.811,8.692-13.552,15.13-10.446,14.675
				c2.965-0.446,12.765-7.62,21.752-16.316C1348.181,1402.656,1352.828,1395.739,1349.696,1396.177z"></path>
        <path fill="#6EBFFF" fill-opacity="0.35" stroke="#C0EAFF" stroke-width="4.22578" d="M62.957,579.531c-1.72,0.263-6.077,10.458-9.532,22.873c-3.453,12.417-4.687,22.369-2.951,22.168
				c1.946-0.246,6.151-10.597,9.591-23.061C63.502,589.05,64.888,579.256,62.957,579.531z"></path>
        <path fill="#6EBFFF" fill-opacity="0.35" stroke="#C0EAFF" stroke-width="4.22578" d="M197.065,322.005c-1.543,0.443-9.076,8.984-16.666,19.289c-7.591,10.31-12.337,18.478-10.75,18.062
				c1.754-0.474,9.172-9.376,16.72-19.702C193.912,329.333,198.773,321.528,197.065,322.005z"></path>
        <path fill="#6EBFFF" fill-opacity="0.35" stroke="#C0EAFF" stroke-width="4.22578" d="M677.896,32.516c-0.453,0.158-10.836,2.004-23.158,4.512c-12.325,2.509-21.82,4.689-21.238,4.482
				c0.628-0.221,10.997-2.71,23.187-5.17C668.873,33.881,678.382,32.343,677.896,32.516z"></path>
        <path fill="#6EBFFF" fill-opacity="0.35" stroke="#C0EAFF" stroke-width="4.22578" d="M28.352,869.615c-1.757-0.045-2.406,10.342-1.243,23.196c1.166,12.853,3.702,23.328,5.454,23.444
				c1.974,0.109,2.461-10.225,1.303-23.132C32.705,880.214,30.331,869.689,28.352,869.615z"></path>
        <path fill="#6EBFFF" fill-opacity="0.35" stroke="#C0EAFF" stroke-width="4.22578" d="M540.942,1559.843c-2.812-0.299,3.267,3.422,13.649,7.946c10.358,4.512,20.803,8.08,23.255,8.35
				c2.52,0.272-3.598-2.826-13.588-7.303C554.239,1564.346,543.832,1560.156,540.942,1559.843z"></path>
        <path fill="#6EBFFF" fill-opacity="0.35" stroke="#C0EAFF" stroke-width="4.22578" d="M514.552,1556.321c-1.901-0.324,5.61,3.462,16.845,8.094c11.222,4.626,21.729,8.308,23.394,8.6
				c1.737,0.3-5.814-2.87-16.794-7.458C527.002,1560.961,516.535,1556.663,514.552,1556.321z"></path>
        <path fill="#6EBFFF" fill-opacity="0.35" stroke="#C0EAFF" stroke-width="4.22578" d="M498.463,1552.56c-0.942-0.335,7.729,3.526,19.43,8.273c11.697,4.745,21.912,8.543,22.748,8.842
				c0.904,0.322-7.809-2.94-19.393-7.646C509.657,1557.321,499.483,1552.924,498.463,1552.56z"></path>
        <path fill="#6EBFFF" fill-opacity="0.35" stroke="#C0EAFF" stroke-width="4.22578" d="M98.139,1152.902c-1.682-0.33,1.369,8.869,6.989,20.427c5.621,11.554,11.667,21.1,13.32,21.477
				c1.845,0.403-1.343-8.533-6.932-20.121C105.922,1163.093,100.013,1153.287,98.139,1152.902z"></path>
        <path fill="#6EBFFF" fill-opacity="0.35" stroke="#C0EAFF" stroke-width="4.22578" d="M262.474,1391.068c-1.439-0.446,4.832,6.456,14.129,15.174c9.294,8.714,18.051,15.927,19.428,16.378
				c1.511,0.486-4.852-5.962-14.08-14.671C272.717,1399.234,264.052,1391.567,262.474,1391.068z"></path>
      </g>
    </g>
  </g>
</svg>