<?xml version='1.0' encoding='utf-8'?>
<svg xmlns:xlink="http://www.w3.org/1999/xlink" xmlns="http://www.w3.org/2000/svg" width="100%" height="100%" viewBox="0 0 4000 4000" version="1.1" style="fill-rule:evenodd;clip-rule:evenodd;stroke-linecap:round;stroke-linejoin:round;stroke-miterlimit:1.5;fill:#00B0FF;fill-opacity:0.42;stroke:#00B0FF;stroke-opacity:1;">
<use xlink:href="#_Image1" x="456.996" y="457.124" width="3085.98px" height="3086.04px" transform="matrix(0.999993,0,0,0.99969,0,0)"/>
<path d="M2529.93,3562.59c671.354,-227.681 1122.24,-858.75 1120.06,-1567.66c-1.345,-437.606 -176.473,-856.753 -486.858,-1165.24l-17.011,17.115c305.845,303.971 478.412,716.989 479.738,1148.19c2.147,698.539 -442.145,1320.38 -1103.68,1544.73l7.75,22.853Z" style="stroke:#00B0FF;stroke-width:3.33px;stroke-opacity:1;"/>
<path d="M1477.96,434.76c-388.13,129.45 -714.322,398.487 -915.263,754.893l21.021,11.851c198.002,-351.193 519.423,-616.296 901.877,-743.852l-7.635,-22.892Z" style="stroke:#00B0FF;stroke-width:3.33px;stroke-opacity:1;"/>
<path d="M888.071,3219.06c302.289,275.724 696.238,429.302 1105.38,430.925l0.096,-24.131c-403.161,-1.6 -791.349,-152.931 -1089.22,-424.622l-16.262,17.828Z" style="stroke:#00B0FF;stroke-width:3.33px;stroke-opacity:1;"/>
<path d="M350.009,2005.3c0.563,175.162 29.014,349.117 84.284,515.331l22.898,-7.615c-54.462,-163.783 -82.496,-335.193 -83.051,-507.793l-24.131,0.077Z" style="stroke:#00B0FF;stroke-width:3.33px;stroke-opacity:1;"/>
<path d="M663.312,3106.45c475.376,574.298 1264.46,780.759 1960.19,512.875c71.968,-27.711 142.009,-60.189 209.657,-97.218l-12.185,-22.26c-66.658,36.487 -135.675,68.49 -206.591,95.795c-685.554,263.966 -1463.1,60.525 -1931.52,-505.374l-19.55,16.182Z" style="stroke:#00B0FF;stroke-width:3.33px;stroke-opacity:1;"/>
<circle cx="2323.91" cy="307" r="56" style="stroke:#00B0FF;stroke-width:3.33px;stroke-opacity:1;"/>
<circle cx="670.312" cy="3090.26" r="56" style="stroke:#00B0FF;stroke-width:3.33px;stroke-opacity:1;"/>
<path d="M2185.74,88.503c-123.536,-12.004 -247.944,-12.004 -371.48,-0l-93.233,88.401c-133.775,20.471 -264.89,55.603 -390.977,104.762l-124.943,-29.941c-112.987,51.372 -220.728,113.576 -321.711,185.74l-36.541,123.174c-105.618,84.615 -201.601,180.598 -286.216,286.216l-123.174,36.541c-72.164,100.983 -134.368,208.724 -185.74,321.711l29.941,124.943c-49.159,126.087 -84.291,257.202 -104.762,390.977l-88.401,93.233c-12.004,123.536 -12.004,247.944 -0,371.48l88.401,93.233c20.471,133.775 55.603,264.89 104.762,390.977l-29.941,124.943c51.372,112.987 113.576,220.728 185.74,321.711l123.174,36.541c84.615,105.618 180.598,201.601 286.216,286.216l36.541,123.174c100.983,72.164 208.724,134.368 321.711,185.74l124.943,-29.941c126.087,49.159 257.202,84.291 390.977,104.762l93.233,88.401c123.536,12.004 247.944,12.004 371.48,0l93.233,-88.401c133.775,-20.471 264.89,-55.603 390.977,-104.762l124.943,29.941c112.987,-51.372 220.728,-113.576 321.711,-185.74l36.541,-123.174c105.618,-84.615 201.601,-180.598 286.216,-286.216l123.174,-36.541c72.164,-100.983 134.368,-208.724 185.74,-321.711l-29.941,-124.943c49.159,-126.087 84.291,-257.202 104.762,-390.977l88.401,-93.233c12.004,-123.536 12.004,-247.944 0,-371.48l-88.401,-93.233c-20.471,-133.775 -55.603,-264.89 -104.762,-390.977l29.941,-124.943c-51.372,-112.987 -113.576,-220.728 -185.74,-321.711l-123.174,-36.541c-84.615,-105.618 -180.598,-201.601 -286.216,-286.216l-36.541,-123.174c-100.983,-72.164 -208.724,-134.368 -321.711,-185.74l-124.943,29.941c-126.087,-49.159 -257.202,-84.291 -390.977,-104.762l-93.233,-88.401Zm-185.74,108.872c994.896,-0 1802.62,807.729 1802.62,1802.62c0,994.896 -807.729,1802.62 -1802.62,1802.62c-994.896,0 -1802.62,-807.729 -1802.62,-1802.62c-0,-994.896 807.729,-1802.62 1802.62,-1802.62Z" style="stroke:#00B0FF;stroke-width:3.33px;stroke-opacity:1;"/>
<path d="M3735.21,1999.97c-0.013,-745.52 -476.234,-1407.71 -1183,-1644.97c-73.11,-24.543 -147.774,-44.184 -223.497,-58.793l-4.808,24.918c74.616,14.395 148.188,33.75 220.229,57.933c696.424,233.785 1165.68,886.291 1165.69,1620.91l25.378,-0Z" style="stroke:#00B0FF;stroke-width:3.33px;stroke-opacity:1;"/><path d="M2680.93,2680.94c180.597,-180.598 282.056,-425.541 282.056,-680.944c-0,-255.403 -101.459,-500.346 -282.056,-680.944l-76.299,76.299c160.362,160.362 250.453,377.859 250.453,604.645c-0,226.786 -90.091,444.283 -250.453,604.645l76.299,76.299Z"/>
<path d="M1036.98,2002.16c0.573,255.403 102.58,500.118 283.582,680.31c181.002,180.193 426.171,281.102 681.574,280.53l-0.242,-107.902c-226.785,0.508 -444.484,-89.095 -605.205,-249.097c-160.721,-160.002 -251.298,-377.297 -251.807,-604.082l-107.902,0.241Z"/>
<path d="M1054.64,1777.73c-4.508,19.172 -8.432,38.477 -11.765,57.887l107.242,18.419c2.96,-17.235 6.444,-34.377 10.447,-51.4l-105.924,-24.906Zm23.974,-84.579c-6.223,18.685 -11.876,37.556 -16.952,56.585l105.137,28.042c4.507,-16.897 9.527,-33.653 15.053,-50.245l-103.238,-34.382Zm31.525,-82.066c-7.887,18.047 -15.224,36.329 -21.999,54.821l102.17,37.435c6.016,-16.42 12.531,-32.654 19.534,-48.678l-99.705,-43.578Zm38.817,-78.877c-9.487,17.259 -18.446,34.802 -26.867,52.606l98.367,46.521c7.476,-15.809 15.432,-31.387 23.856,-46.712l-95.356,-52.415Zm45.792,-75.045c-11.009,16.331 -21.519,32.992 -31.515,49.962l93.757,55.226c8.875,-15.068 18.207,-29.863 27.983,-44.364l-90.225,-60.824Zm52.39,-70.596c-12.441,15.268 -24.414,30.911 -35.903,46.907l88.377,63.479c10.202,-14.204 20.834,-28.094 31.881,-41.651l-84.355,-68.735Zm58.56,-65.568c-13.771,14.08 -27.109,28.576 -39.998,43.467l82.275,71.211c11.444,-13.223 23.289,-26.095 35.516,-38.597l-77.793,-76.081Zm64.249,-60.005c-14.987,12.778 -29.582,26.008 -43.765,39.673l75.498,78.359c12.594,-12.134 25.554,-23.882 38.862,-35.227l-70.595,-82.805Zm69.413,-53.948c-16.081,11.37 -31.813,23.226 -47.174,35.552l68.103,84.866c13.639,-10.945 27.608,-21.473 41.888,-31.569l-62.817,-88.849Zm74.007,-47.45c-17.044,9.869 -33.783,20.254 -50.196,31.141l60.149,90.676c14.573,-9.667 29.437,-18.888 44.571,-27.651l-54.524,-94.166Zm77.995,-40.563c-17.867,8.287 -35.477,17.116 -52.806,26.474l51.702,95.745c15.387,-8.31 31.024,-16.149 46.889,-23.508l-45.785,-98.711Zm81.343,-33.343c-18.543,6.637 -36.879,13.837 -54.984,21.59l42.832,100.028c16.076,-6.884 32.358,-13.277 48.823,-19.171l-36.671,-102.447Zm84.025,-25.85c-19.067,4.933 -37.979,10.445 -56.711,16.528l33.611,103.492c16.633,-5.402 33.426,-10.296 50.356,-14.677l-27.256,-105.343Zm86.019,-18.146c-19.435,3.188 -38.768,6.968 -57.973,11.332l24.114,106.107c17.053,-3.875 34.22,-7.231 51.477,-10.063l-17.618,-107.376Z"/><path d="M1992.26,2731.46c2.577,0.027 5.158,0.04 7.742,0.04c0.606,0 1.211,-0.001 1.766,-0.002l-0.251,61.527l-9.508,-0.039l0.251,-61.526Zm34.866,-0.455l1.882,61.49l-9.504,0.291l-1.882,-61.495c3.165,-0.075 6.325,-0.17 9.504,-0.286Zm-60.219,-0.242c3.159,0.141 6.327,0.262 9.501,0.363l-2.383,61.475l-9.501,-0.368l2.383,-61.47Zm85.545,-1.118l4.012,61.368l-9.488,0.62l-4.012,-61.376c3.185,-0.185 6.365,-0.39 9.488,-0.612Zm-110.86,-0.448c3.156,0.25 6.318,0.48 9.483,0.689l-4.511,61.338l-9.483,-0.697l4.511,-61.33Zm136.125,-1.785l6.134,61.168l-9.46,0.949l-6.135,-61.178c3.16,-0.293 6.314,-0.606 9.461,-0.939Zm-161.371,-0.653c3.146,0.359 6.298,0.698 9.453,1.016l-6.632,61.122l-9.453,-1.026l6.632,-61.112Zm186.545,-2.452l8.247,60.892l-9.422,1.276l-8.248,-60.902c3.165,-0.404 6.323,-0.829 9.423,-1.266Zm-211.693,-0.859c3.13,0.468 6.265,0.915 9.413,1.343l-8.744,60.829l-9.411,-1.352l8.742,-60.82Zm236.745,-3.12l10.349,60.546l-9.372,1.602l-10.351,-60.554c3.127,-0.511 6.247,-1.041 9.374,-1.594Zm-261.763,-1.064c3.111,0.577 6.229,1.133 9.36,1.67l-10.843,60.466l-9.358,-1.678l10.841,-60.458Zm286.661,-3.784l12.438,60.13l-9.311,1.926l-12.439,-60.137c3.117,-0.622 6.226,-1.263 9.312,-1.919Zm-311.519,-1.269c3.094,0.685 6.195,1.351 9.296,1.996l-12.928,60.033l-9.295,-2.002l12.927,-60.027Zm336.234,-4.446l14.511,59.649l-9.238,2.248l-14.513,-59.654c3.099,-0.731 6.189,-1.482 9.24,-2.243Zm-360.901,-1.472c3.066,0.792 6.138,1.565 9.221,2.319l-14.998,59.535l-9.22,-2.323l14.997,-59.531Zm385.401,-5.104l16.569,59.104l-9.155,2.567l-16.569,-59.106c3.071,-0.838 6.134,-1.696 9.155,-2.565Zm-409.846,-1.673c3.036,0.899 6.08,1.779 9.134,2.64l-17.051,58.972l-9.134,-2.641l17.051,-58.971Zm434.102,-5.755l18.608,58.495l-9.061,2.882l-18.607,-58.493c3.037,-0.945 6.065,-1.909 9.06,-2.884Zm-458.295,-1.873c3.004,1.005 6.016,1.991 9.036,2.958l-19.085,58.346l-9.037,-2.956l19.086,-58.348Zm482.276,-6.398l20.627,57.822l-8.955,3.194l-20.626,-57.818c2.995,-1.048 5.982,-2.114 8.954,-3.198Zm-506.188,-2.07c2.965,1.108 5.938,2.198 8.927,3.272l-21.099,57.655l-8.928,-3.267l21.1,-57.66Zm529.865,-7.034l22.624,57.085l-8.839,3.504l-22.622,-57.08c2.947,-1.148 5.884,-2.315 8.837,-3.509Zm-553.466,-2.265c2.929,1.214 5.868,2.409 8.808,3.582l-23.091,56.903l-8.81,-3.575l23.093,-56.91Zm576.81,-7.66l24.598,56.286l-8.712,3.808l-24.595,-56.279c2.917,-1.254 5.823,-2.528 8.709,-3.815Zm-600.072,-2.456c2.879,1.313 5.769,2.607 8.678,3.887l-25.058,56.087l-8.681,-3.878l25.061,-56.096Zm623.056,-8.276l26.545,55.423l-8.575,4.107l-26.541,-55.413c2.877,-1.359 5.744,-2.736 8.571,-4.117Zm-645.95,-2.644c2.835,1.414 5.681,2.809 8.537,4.187l-26.998,55.208l-8.542,-4.177l27.003,-55.218Zm668.545,-8.881l28.465,54.495l-8.428,4.402l-28.459,-54.485c2.828,-1.458 5.645,-2.934 8.422,-4.412Zm-691.045,-2.828c2.786,1.512 5.582,3.006 8.386,4.481l-28.909,54.264l-8.391,-4.47l28.914,-54.275Zm713.225,-9.474l30.352,53.502l-8.27,4.691l-30.346,-53.491c2.771,-1.553 5.532,-3.123 8.264,-4.702Zm-735.303,-3.009c2.727,1.605 5.465,3.192 8.225,4.769l-30.789,53.257l-8.231,-4.759l30.795,-53.267Zm757.043,-10.055l32.204,52.444l-8.102,4.976l-32.198,-52.435c2.706,-1.642 5.401,-3.302 8.096,-4.985Zm-778.675,-3.186c2.674,1.701 5.359,3.385 8.055,5.052l-32.633,52.184l-8.061,-5.041l32.639,-52.195Zm799.948,-10.622l34.02,51.321l-7.925,5.254l-34.014,-51.312c2.653,-1.739 5.294,-3.493 7.919,-5.263Zm-821.107,-3.358c2.609,1.79 5.23,3.563 7.875,5.327l-34.44,51.047l-7.882,-5.318l34.447,-51.056Zm841.889,-11.176l35.795,50.133l-7.738,5.525l-35.789,-50.126c2.59,-1.827 5.168,-3.672 7.732,-5.532Zm-862.552,-3.527c2.548,1.881 5.11,3.746 7.687,5.596l-36.206,49.845l-7.693,-5.587l36.212,-49.854Zm882.82,-11.716l37.526,48.881l-7.542,5.79l-37.521,-48.875c2.519,-1.911 5.024,-3.838 7.537,-5.796Zm-902.963,-3.69c2.483,1.967 4.978,3.919 7.489,5.857l-37.927,48.58l-7.494,-5.851l37.932,-48.586Zm922.692,-12.242l39.21,47.566l-7.337,6.047l-39.205,-47.56c2.454,-2 4.895,-4.014 7.332,-6.053Zm-942.291,-3.849c2.412,2.05 4.837,4.086 7.283,6.112l-39.601,47.251l-7.287,-6.107l39.605,-47.256Zm961.46,-12.752l40.844,46.187l-7.123,6.299l-40.841,-46.185c2.38,-2.078 4.745,-4.172 7.12,-6.301Zm-980.493,-4.004c2.341,2.133 4.695,4.251 7.069,6.359l-41.226,45.861l-7.071,-6.356l41.228,-45.864Zm999.078,-13.248l42.425,44.749l-6.899,6.542l-42.424,-44.748c2.31,-2.163 4.606,-4.34 6.898,-6.543Zm-1017.52,-4.153c2.269,2.215 4.551,4.415 6.846,6.598l-42.796,44.411l-6.847,-6.598l42.797,-44.411Zm1035.5,-13.727l43.951,43.252l-6.669,6.777l-43.951,-43.252c2.243,-2.251 4.472,-4.515 6.669,-6.777Zm-1053.34,-4.298c2.185,2.285 4.384,4.556 6.615,6.83l-44.312,42.901l-6.613,-6.831l44.31,-42.9Zm1070.69,-14.19l45.42,41.697l-6.43,7.004l-45.422,-41.699c2.164,-2.326 4.313,-4.666 6.432,-7.002Zm-1087.9,-4.438c2.104,2.358 4.223,4.703 6.375,7.053l-45.768,41.336l-6.373,-7.056l45.766,-41.333Zm1104.61,-14.637l46.828,40.09l-6.184,7.222l-46.832,-40.093c2.074,-2.388 4.133,-4.79 6.188,-7.219Zm-1121.16,-4.573c2.026,2.436 4.069,4.858 6.129,7.269l-47.165,39.717l-6.125,-7.273l47.161,-39.713Zm1137.2,-15.067l48.175,38.431l-5.929,7.433l-48.181,-38.436c1.994,-2.463 3.973,-4.94 5.935,-7.428Zm-1153.08,-4.702c1.941,2.504 3.898,4.994 5.874,7.476l-48.499,38.048l-5.869,-7.481l48.494,-38.043Zm1168.44,-15.479l49.46,36.724l-5.668,7.633l-49.468,-36.729c1.912,-2.534 3.807,-5.082 5.676,-7.628Zm-1183.63,-4.826c1.86,2.579 3.737,5.144 5.613,7.674l-49.771,36.33l-5.606,-7.679l49.764,-36.325Zm1198.28,-15.874l50.68,34.971l-5.4,7.826l-50.689,-34.977c1.816,-2.589 3.615,-5.19 5.409,-7.82Zm-1212.77,-4.944c1.759,2.625 3.535,5.238 5.345,7.864l-50.979,34.567l-5.336,-7.869l50.97,-34.562Zm1226.69,-16.25l51.836,33.177l-5.125,8.008l-51.847,-33.184c1.731,-2.659 3.446,-5.33 5.136,-8.001Zm-1240.45,-5.057c1.678,2.702 3.374,5.391 5.069,8.044l-52.121,32.764l-5.06,-8.05l52.112,-32.758Zm1253.63,-16.608l52.928,31.344l-4.845,8.181l-52.939,-31.35c1.633,-2.708 3.248,-5.428 4.856,-8.175Zm-1266.64,-5.163c1.578,2.748 3.173,5.484 4.788,8.214l-53.199,30.922l-4.778,-8.221l53.189,-30.915Zm1279.07,-16.947l53.956,29.475l-4.559,8.344l-53.965,-29.481c1.538,-2.764 3.058,-5.539 4.568,-8.338Zm-1291.32,-5.264c1.485,2.807 2.988,5.604 4.5,8.376l-54.211,29.044l-4.49,-8.381l54.201,-29.039Zm1302.97,-17.266l54.918,27.574l-4.266,8.497l-54.928,-27.579c1.445,-2.823 2.872,-5.657 4.276,-8.492Zm-1314.44,-5.357c1.386,2.857 2.79,5.705 4.206,8.527l-55.159,27.133l-4.197,-8.531l55.15,-27.129Zm1325.3,-17.565l55.817,25.642l-3.97,8.64l-55.825,-25.646c1.345,-2.87 2.671,-5.75 3.978,-8.636Zm-1335.97,-5.445c1.284,2.9 2.586,5.789 3.907,8.668l-56.042,25.194l-3.899,-8.672l56.034,-25.19Zm1346.03,-17.842l56.652,23.683l-3.668,8.772l-56.658,-23.686c1.243,-2.912 2.467,-5.834 3.674,-8.769Zm-1355.89,-5.527c1.178,2.933 2.375,5.856 3.602,8.799l-56.86,23.228l-3.596,-8.802l56.854,-23.225Zm1365.13,-18.098l57.423,21.699l-3.361,8.894l-57.428,-21.701c1.141,-2.956 2.263,-5.922 3.366,-8.892Zm-1374.18,-5.601c1.079,2.984 2.178,5.959 3.293,8.919l-57.616,21.237l-3.288,-8.921l57.611,-21.235Zm1382.59,-18.332l58.132,19.692l-3.051,9.005l-58.135,-19.693c1.036,-2.991 2.054,-5.991 3.054,-9.004Zm-1390.8,-5.67c0.977,3.028 1.974,6.048 2.979,9.029l-58.307,19.224l-2.977,-9.03l58.305,-19.223Zm1398.36,-18.543l58.777,17.664l-2.736,9.106l-58.778,-17.665c0.932,-3.027 1.844,-6.064 2.737,-9.105Zm-1405.73,-5.731c0.872,3.065 1.763,6.122 2.661,9.128l-58.936,17.19l-2.662,-9.128l58.937,-17.19Zm1412.44,-18.732l59.36,15.618l-2.42,9.195l-59.357,-15.617c0.824,-3.055 1.629,-6.117 2.417,-9.196Zm-1418.96,-5.784c0.765,3.094 1.549,6.18 2.341,9.215l-59.501,15.138l-2.344,-9.215l59.504,-15.138Zm1424.81,-18.898l59.878,13.553l-2.099,9.273l-59.872,-13.552c0.717,-3.082 1.414,-6.172 2.093,-9.274Zm-1430.46,-5.831c0.654,3.114 1.329,6.222 2.017,9.291l-60.001,13.069l-2.024,-9.291l60.008,-13.069Zm1435.46,-19.041l60.33,11.473l-1.776,9.341l-60.323,-11.472c0.61,-3.108 1.2,-6.223 1.769,-9.342Zm-1440.24,-5.87c0.545,3.128 1.109,6.249 1.693,9.356l-60.436,10.984l-1.701,-9.355l60.444,-10.985Zm1444.36,-19.159l60.715,9.378l-1.451,9.397l-60.706,-9.377c0.501,-3.127 0.982,-6.26 1.442,-9.398Zm-1448.28,-5.902c0.433,3.132 0.887,6.258 1.365,9.409l-60.803,8.885l-1.375,-9.407l60.813,-8.887Zm1451.53,-19.254l61.029,7.27l-1.124,9.441l-61.02,-7.269c0.391,-3.141 0.763,-6.287 1.115,-9.442Zm-1454.57,-5.928c0.327,3.166 0.675,6.326 1.039,9.452l-61.101,6.774l-1.048,-9.45l61.11,-6.776Zm1456.94,-19.326l61.269,5.153l-0.796,9.475l-61.261,-5.152c0.282,-3.155 0.545,-6.314 0.788,-9.476Zm-1459.11,-5.944c0.216,3.155 0.452,6.304 0.711,9.481l-61.324,4.655l-0.719,-9.481l61.332,-4.655Zm1460.62,-19.375l61.432,3.027l-0.468,9.496l-61.425,-3.026c0.174,-3.158 0.328,-6.324 0.461,-9.497Zm-1461.91,-5.955c0.109,3.176 0.237,6.346 0.385,9.5l-61.47,2.527l-0.39,-9.5l61.475,-2.527Zm1462.55,-19.4l61.51,0.896l-0.139,9.506l-61.507,-0.895c0.065,-3.181 0.111,-6.346 0.136,-9.507Zm-1462.96,-11.267c-0.014,1.821 -0.02,3.596 -0.02,5.372c-0,1.373 0.004,2.744 0.012,4.136l-61.535,-0.052l0.008,-9.508l61.535,0.052Zm1462.73,-14.095l61.5,-1.237l0.192,9.506l-61.504,1.237c-0.042,-3.193 -0.105,-6.381 -0.188,-9.506Zm-1462.11,-11.259c-0.131,3.161 -0.242,6.329 -0.332,9.502l-61.491,-2.185l0.338,-9.502l61.485,2.185Zm1461.01,-14.08l61.404,-3.368l0.521,9.494l-61.411,3.368c-0.151,-3.176 -0.323,-6.347 -0.514,-9.494Zm-1459.53,-11.24c-0.239,3.157 -0.459,6.319 -0.658,9.485l-61.361,-4.314l0.667,-9.484l61.352,4.313Zm1457.56,-14.047l61.226,-5.493l0.85,9.47l-61.236,5.493c-0.26,-3.153 -0.539,-6.301 -0.84,-9.47Zm-1455.2,-11.207c-0.349,3.147 -0.678,6.3 -0.986,9.457l-61.15,-6.436l0.995,-9.456l61.141,6.435Zm1452.36,-13.998l60.973,-7.609l1.178,9.435l-60.984,7.61c-0.37,-3.161 -0.76,-6.316 -1.167,-9.436Zm-1449.13,-11.16c-0.457,3.132 -0.895,6.271 -1.312,9.417l-60.865,-8.548l1.322,-9.416l60.855,8.547Zm1445.42,-13.932l60.648,-9.714l1.504,9.388l-60.658,9.715c-0.476,-3.125 -0.973,-6.244 -1.494,-9.389Zm-1441.31,-11.099c-0.567,3.117 -1.114,6.241 -1.64,9.366l-60.507,-10.65l1.648,-9.364l60.499,10.648Zm1436.73,-13.85l60.255,-11.806l1.828,9.331l-60.262,11.807c-0.587,-3.117 -1.194,-6.227 -1.821,-9.332Zm-1431.76,-11.024c-0.675,3.094 -1.33,6.196 -1.966,9.303l-60.08,-12.736l1.971,-9.302l60.075,12.735Zm1426.3,-13.749l59.794,-13.885l2.15,9.262l-59.798,13.885c-0.697,-3.101 -1.414,-6.195 -2.146,-9.262Zm-1420.46,-10.937c-0.782,3.068 -1.545,6.143 -2.289,9.228l-59.588,-14.807l2.293,-9.227l59.584,14.806Zm1414.15,-13.632l59.267,-15.946l2.471,9.181l-59.27,15.947c-0.806,-3.077 -1.631,-6.146 -2.468,-9.182Zm-1407.45,-10.835c-0.889,3.039 -1.759,6.086 -2.61,9.143l-59.031,-16.862l2.612,-9.142l59.029,16.861Zm1400.28,-13.498l58.678,-17.991l2.787,9.09l-58.677,17.991c-0.912,-3.045 -1.844,-6.083 -2.788,-9.09Zm-1392.73,-10.72c-0.995,3.007 -1.972,6.023 -2.929,9.046l-58.409,-18.898l2.926,-9.046l58.412,18.898Zm1384.71,-13.347l58.024,-20.016l3.101,8.988l-58.022,20.015c-1.016,-3.006 -2.051,-6.003 -3.103,-8.987Zm-1376.32,-10.592c-1.1,2.971 -2.182,5.951 -3.243,8.938l-57.725,-20.914l3.238,-8.939l57.73,20.915Zm1367.47,-13.18l57.308,-22.021l3.41,8.876l-57.303,22.018c-1.117,-2.96 -2.253,-5.91 -3.415,-8.873Zm-1358.25,-10.451c-1.204,2.932 -2.39,5.875 -3.553,8.819l-56.978,-22.907l3.547,-8.822l56.984,22.91Zm1348.57,-12.997l56.528,-24.002l3.716,8.752l-56.52,23.998c-1.226,-2.932 -2.47,-5.854 -3.724,-8.748Zm-1338.53,-10.298c-1.305,2.889 -2.593,5.789 -3.858,8.69l-56.168,-24.877l3.85,-8.693l56.176,24.88Zm1328.04,-12.798l55.685,-25.957l4.017,8.618l-55.676,25.953c-1.319,-2.87 -2.656,-5.73 -4.026,-8.614Zm-1317.19,-10.132c-1.405,2.84 -2.791,5.69 -4.159,8.55l-55.294,-26.819l4.149,-8.555l55.304,26.824Zm1305.91,-12.583l54.777,-27.885l4.313,8.473l-54.767,27.88c-1.419,-2.825 -2.856,-5.64 -4.323,-8.468Zm-1294.27,-9.954c-1.504,2.792 -2.991,5.596 -4.454,8.4l-54.356,-28.733l4.444,-8.406l54.366,28.739Zm1282.2,-12.355l53.804,-29.782l4.604,8.319l-53.794,29.776c-1.515,-2.772 -3.048,-5.533 -4.614,-8.313Zm-1269.79,-9.764c-1.599,2.737 -3.18,5.485 -4.742,8.24l-53.354,-30.615l4.732,-8.247l53.364,30.622Zm1256.95,-12.111l52.766,-31.646l4.89,8.154l-52.756,31.64c-1.618,-2.732 -3.254,-5.451 -4.9,-8.148Zm-1243.78,-9.564c-1.689,2.675 -3.362,5.361 -5.025,8.072l-52.287,-32.464l5.015,-8.078l52.297,32.47Zm1230.2,-11.853l51.663,-33.473l5.17,7.98l-51.654,33.466c-1.703,-2.66 -3.423,-5.308 -5.179,-7.973Zm-1216.29,-9.352c-1.787,2.625 -3.558,5.261 -5.301,7.893l-51.156,-34.274l5.293,-7.898l51.164,34.279Zm1201.97,-11.581l50.496,-35.26l5.443,7.795l-50.487,35.254c-1.795,-2.6 -3.606,-5.189 -5.452,-7.789Zm-1187.33,-9.129c-1.871,2.553 -3.727,5.12 -5.57,7.705l-49.96,-36.043l5.563,-7.711l49.967,36.049Zm1172.3,-11.297l49.264,-37.004l5.71,7.602l-49.256,36.999c-1.893,-2.55 -3.802,-5.087 -5.718,-7.597Zm-1156.96,-8.895c-1.96,2.489 -3.904,4.991 -5.833,7.508l-48.7,-37.769l5.827,-7.513l48.706,37.774Zm1141.23,-10.999l47.968,-38.703l5.97,7.399l-47.961,38.699c-1.971,-2.471 -3.958,-4.93 -5.977,-7.395Zm-1125.21,-8.652c-2.045,2.421 -4.074,4.855 -6.089,7.302l-47.377,-39.447l6.084,-7.306l47.382,39.451Zm1108.81,-10.688l46.608,-40.353l6.224,7.188l-46.605,40.349c-2.066,-2.415 -4.148,-4.817 -6.227,-7.184Zm-1092.11,-8.399c-2.127,2.35 -4.24,4.713 -6.336,7.089l-45.992,-41.076l6.334,-7.091l45.994,41.078Zm1075.05,-10.365l45.188,-41.951l6.469,6.968l-45.186,41.949c-2.141,-2.334 -4.296,-4.654 -6.471,-6.966Zm-1057.71,-8.136c-2.211,2.279 -4.407,4.572 -6.577,6.867l-44.546,-42.651l6.576,-6.868l44.547,42.652Zm1040.02,-10.03l43.709,-43.494l6.706,6.74l-43.708,43.494c-2.218,-2.257 -4.45,-4.5 -6.707,-6.74Zm-1022.05,-7.863c-2.283,2.197 -4.552,4.409 -6.808,6.636l-43.042,-44.171l6.809,-6.635l43.041,44.17Zm1003.75,-9.683l42.172,-44.98l6.936,6.503l-42.174,44.982c-2.295,-2.182 -4.605,-4.349 -6.934,-6.505Zm-985.172,-7.581c-2.357,2.116 -4.7,4.248 -7.033,6.398l-41.482,-45.633l7.036,-6.396l41.479,45.631Zm966.272,-9.325l40.58,-46.407l7.157,6.258l-40.583,46.411c-2.376,-2.107 -4.766,-4.198 -7.154,-6.262Zm-947.116,-7.29c-2.435,2.04 -4.858,4.095 -7.249,6.152l-39.867,-47.035l7.252,-6.148l39.864,47.031Zm927.644,-8.955l38.937,-47.774l7.37,6.007l-38.941,47.779c-2.443,-2.02 -4.899,-4.025 -7.366,-6.012Zm-907.926,-6.991c-2.505,1.955 -4.997,3.927 -7.457,5.899l-38.202,-48.376l7.461,-5.892l38.198,48.369Zm887.906,-8.575l37.244,-49.077l7.574,5.748l-37.249,49.084c-2.507,-1.931 -5.026,-3.847 -7.569,-5.755Zm-867.65,-6.682c-2.563,1.861 -5.113,3.739 -7.656,5.638l-36.489,-49.652l7.661,-5.631l36.484,49.645Zm847.104,-8.183l35.505,-50.318l7.769,5.482l-35.511,50.326c-2.578,-1.849 -5.168,-3.681 -7.763,-5.49Zm-826.333,-6.367c-2.63,1.775 -5.247,3.566 -7.846,5.371l-34.731,-50.865l7.852,-5.362l34.725,50.856Zm805.285,-7.781l33.724,-51.494l7.954,5.209l-33.73,51.503c-2.642,-1.76 -5.297,-3.503 -7.948,-5.218Zm-784.023,-6.042c-2.686,1.682 -5.362,3.381 -8.027,5.096l-32.93,-52.013l8.033,-5.086l32.924,52.003Zm762.498,-7.37l31.902,-52.605l8.13,4.93l-31.909,52.615c-2.698,-1.665 -5.407,-3.312 -8.123,-4.94Zm-740.768,-5.709c-2.734,1.581 -5.456,3.18 -8.199,4.815l-31.092,-53.097l8.205,-4.804l31.086,53.086Zm718.789,-6.949l30.044,-53.653l8.296,4.646l-30.05,53.663c-2.752,-1.57 -5.516,-3.122 -8.29,-4.656Zm-696.618,-5.37c-2.794,1.49 -5.576,2.996 -8.361,4.528l-29.217,-54.115l8.366,-4.517l29.212,54.104Zm674.213,-6.518l28.152,-54.635l8.452,4.355l-28.157,54.645c-2.801,-1.47 -5.612,-2.923 -8.447,-4.365Zm-651.627,-5.023c-2.845,1.392 -5.679,2.801 -8.513,4.234l-27.31,-55.067l8.517,-4.225l27.306,55.058Zm628.821,-6.08l26.229,-55.553l8.598,4.059l-26.234,55.563c-2.855,-1.375 -5.721,-2.732 -8.593,-4.069Zm-605.846,-4.669c-2.887,1.29 -5.764,2.598 -8.655,3.935l-25.374,-55.956l8.66,-3.926l25.369,55.947Zm582.666,-5.632l24.279,-56.408l8.733,3.759l-24.282,56.415c-2.903,-1.275 -5.815,-2.531 -8.73,-3.766Zm-559.329,-4.309c-2.947,1.195 -5.885,2.409 -8.788,3.63l-23.409,-56.78l8.79,-3.624l23.407,56.774Zm535.803,-5.178l22.302,-57.199l8.859,3.454l-22.305,57.204c-2.944,-1.172 -5.897,-2.325 -8.856,-3.459Zm-512.133,-3.944c-2.972,1.086 -5.935,2.191 -8.909,3.322l-21.421,-57.541l8.911,-3.317l21.419,57.536Zm488.29,-4.716l20.302,-57.927l8.973,3.144l-20.304,57.931c-2.979,-1.068 -5.968,-2.116 -8.971,-3.148Zm-464.316,-3.573c-3.016,0.984 -6.024,1.988 -9.019,3.008l-19.41,-58.238l9.021,-3.006l19.408,58.236Zm440.184,-4.248l18.281,-58.593l9.076,2.832l-18.281,58.593c-3.015,-0.963 -6.04,-1.907 -9.076,-2.832Zm-415.934,-3.198c-3.053,0.879 -6.098,1.777 -9.119,2.691l-17.378,-58.872l9.119,-2.692l17.378,58.873Zm391.543,-3.775l16.24,-59.194l9.169,2.515l-16.239,59.192c-3.049,-0.857 -6.106,-1.695 -9.17,-2.513Zm-367.047,-2.819c-3.083,0.772 -6.157,1.564 -9.208,2.371l-15.327,-59.442l9.207,-2.374l15.328,59.445Zm342.428,-3.297l14.18,-59.732l9.251,2.196l-14.179,59.728c-3.074,-0.75 -6.155,-1.479 -9.252,-2.192Zm-317.718,-2.436c-3.104,0.663 -6.2,1.346 -9.285,2.048l-13.259,-59.949l9.283,-2.053l13.261,59.954Zm292.901,-2.816l12.104,-60.205l9.322,1.874l-12.103,60.198c-3.102,-0.642 -6.21,-1.264 -9.323,-1.867Zm-268.006,-2.051c-3.117,0.553 -6.228,1.126 -9.35,1.722l-11.177,-60.389l9.349,-1.731l11.178,60.398Zm243.021,-2.332l10.014,-60.611l9.381,1.549l-10.012,60.603c-3.12,-0.534 -6.246,-1.047 -9.383,-1.541Zm-217.972,-1.665c-3.157,0.447 -6.309,0.915 -9.404,1.396l-9.08,-60.763l9.403,-1.405l9.081,60.772Zm192.851,-1.847l7.91,-60.947l9.429,1.223l-7.909,60.938c-3.136,-0.424 -6.278,-0.828 -9.43,-1.214Zm-167.679,-1.278c-3.156,0.337 -6.306,0.693 -9.447,1.069l-6.971,-61.066l9.447,-1.078l6.971,61.075Zm142.452,-1.36l5.795,-61.211l9.465,0.896l-5.793,61.202c-3.149,-0.316 -6.303,-0.611 -9.467,-0.887Zm-117.188,-0.89c-3.183,0.228 -6.362,0.476 -9.479,0.741l-4.851,-61.296l9.478,-0.75l4.852,61.305Zm91.886,-0.875l3.67,-61.398l9.491,0.567l-3.67,61.39c-3.158,-0.206 -6.322,-0.393 -9.491,-0.559Zm-66.56,-0.504c-3.166,0.117 -6.328,0.255 -9.499,0.415l-2.724,-61.45l9.498,-0.421l2.725,61.456Zm41.213,-0.391l1.54,-61.503l9.505,0.238l-1.54,61.498c-3.165,-0.098 -6.333,-0.176 -9.505,-0.233Zm-15.855,-0.12c-3.181,0.009 -6.358,0.04 -9.508,0.09l-0.593,-61.52l9.508,-0.091l0.593,61.521Z"/><defs></defs></svg>