<svg width="100%" height="100%" viewBox="0 0 4000 4000" version="1.1" style="stroke-linejoin:round;stroke-miterlimit:2;stroke:#C0EAFF;stroke-opacity:1;fill:#C0EAFF;fill-opacity:0.7" xmlns="http://www.w3.org/2000/svg">
  <defs></defs>
  <path d="M2009.25,188.625c0,-2.553 -2.072,-4.625 -4.625,-4.625l-9.25,0c-2.553,0 -4.625,2.072 -4.625,4.625l0,246.75c0,2.553 2.072,4.625 4.625,4.625l9.25,0c2.553,0 4.625,-2.072 4.625,-4.625l0,-246.75Z"></path>
  <path d="M2009.25,188.625c0,-2.553 -2.072,-4.625 -4.625,-4.625l-9.25,-0c-2.553,-0 -4.625,2.072 -4.625,4.625l0,342.75c0,2.553 2.072,4.625 4.625,4.625l9.25,0c2.553,0 4.625,-2.072 4.625,-4.625l0,-342.75Z"></path>
  <path d="M3173.94,620.496c1.644,-1.952 1.394,-4.872 -0.559,-6.517l-7.075,-5.958c-1.952,-1.645 -4.872,-1.395 -6.516,0.558l-159.314,189.158c-1.644,1.953 -1.394,4.873 0.559,6.517l7.075,5.959c1.952,1.644 4.872,1.394 6.517,-0.558l159.313,-189.159Z"></path>
  <path d="M3810.95,1959.76c2.552,-0.07 4.567,-2.198 4.497,-4.75l-0.252,-9.246c-0.07,-2.552 -2.198,-4.567 -4.75,-4.497l-342.622,9.365c-2.552,0.069 -4.567,2.198 -4.497,4.749l0.253,9.247c0.07,2.551 2.198,4.566 4.749,4.497l342.622,-9.365Z"></path>
  <path d="M3790.23,2276.13c2.525,0.377 4.88,-1.368 5.256,-3.892l1.363,-9.149c0.377,-2.525 -1.368,-4.88 -3.892,-5.257l-339.007,-50.518c-2.525,-0.377 -4.88,1.368 -5.256,3.892l-1.363,9.149c-0.377,2.525 1.368,4.88 3.892,5.257l339.007,50.518Z"></path>
  <path d="M3714.34,2585c2.42,0.812 5.044,-0.494 5.856,-2.914l2.942,-8.769c0.812,-2.42 -0.493,-5.044 -2.913,-5.856l-324.945,-109.034c-2.42,-0.812 -5.044,0.493 -5.856,2.913l-2.942,8.77c-0.812,2.42 0.493,5.044 2.913,5.856l324.945,109.034Z"></path>
  <path d="M3586.32,2874.51c2.242,1.221 5.053,0.392 6.274,-1.849l4.424,-8.124c1.221,-2.241 0.392,-5.053 -1.849,-6.273l-301.002,-163.939c-2.241,-1.221 -5.053,-0.392 -6.273,1.85l-4.425,8.123c-1.221,2.242 -0.392,5.053 1.85,6.274l301.001,163.938Z"></path>
  <path d="M3409.75,3137.44c1.995,1.593 4.907,1.266 6.5,-0.729l5.772,-7.228c1.592,-1.995 1.266,-4.908 -0.729,-6.5l-267.846,-213.86c-1.995,-1.592 -4.908,-1.266 -6.5,0.729l-5.772,7.228c-1.593,1.995 -1.266,4.908 0.729,6.5l267.846,213.86Z"></path>
  <path d="M3189.56,3366.06c1.687,1.917 4.611,2.104 6.528,0.418l6.945,-6.11c1.916,-1.687 2.103,-4.611 0.417,-6.528l-226.403,-257.331c-1.686,-1.916 -4.611,-2.103 -6.528,-0.417l-6.944,6.11c-1.917,1.686 -2.104,4.611 -0.418,6.527l226.403,257.331Z"></path>
  <path d="M2933.01,3552.63c1.326,2.181 4.173,2.876 6.354,1.55l7.904,-4.805c2.182,-1.326 2.876,-4.174 1.55,-6.355l-178.04,-292.881c-1.326,-2.181 -4.174,-2.875 -6.355,-1.549l-7.904,4.805c-2.181,1.326 -2.876,4.173 -1.55,6.354l178.041,292.881Z"></path>
  <path d="M2647.92,3691.56c0.926,2.379 3.608,3.559 5.987,2.634l8.621,-3.353c2.379,-0.925 3.56,-3.608 2.634,-5.987l-124.232,-319.443c-0.925,-2.379 -3.607,-3.559 -5.986,-2.634l-8.621,3.352c-2.379,0.926 -3.56,3.608 -2.635,5.987l124.232,319.444Z"></path>
  <path d="M2342.02,3778.82c0.495,2.504 2.93,4.135 5.434,3.641l9.074,-1.793c2.505,-0.495 4.136,-2.93 3.641,-5.434l-66.435,-336.25c-0.494,-2.504 -2.929,-4.135 -5.433,-3.641l-9.075,1.793c-2.504,0.495 -4.136,2.93 -3.641,5.434l66.435,336.25Z"></path>
  <path d="M2027.88,3811.18c0.053,2.552 2.167,4.582 4.719,4.529l9.248,-0.189c2.552,-0.053 4.582,-2.167 4.529,-4.719l-7.025,-342.678c-0.052,-2.552 -2.166,-4.582 -4.718,-4.529l-9.248,0.189c-2.553,0.053 -4.582,2.167 -4.53,4.719l7.025,342.678Z"></path>
  <path d="M1709.09,3787.89c-0.397,2.521 1.328,4.891 3.849,5.288l9.138,1.439c2.521,0.397 4.891,-1.328 5.288,-3.85l53.317,-338.577c0.397,-2.522 -1.327,-4.891 -3.849,-5.288l-9.137,-1.439c-2.522,-0.397 -4.891,1.328 -5.288,3.849l-53.318,338.578Z"></path>
  <path d="M1403.14,3710.24c-0.829,2.414 0.458,5.047 2.872,5.876l8.749,3.003c2.415,0.829 5.047,-0.458 5.876,-2.872l111.284,-324.182c0.829,-2.414 -0.458,-5.047 -2.873,-5.876l-8.749,-3.003c-2.414,-0.829 -5.047,0.459 -5.876,2.873l-111.283,324.181Z"></path>
  <path d="M1113.91,3579.88c-1.237,2.233 -0.429,5.05 1.804,6.288l8.09,4.483c2.233,1.237 5.05,0.429 6.287,-1.803l166.136,-299.794c1.238,-2.233 0.429,-5.05 -1.803,-6.288l-8.091,-4.483c-2.233,-1.237 -5.05,-0.429 -6.287,1.803l-166.136,299.794Z"></path>
  <path d="M851.664,3400.89c-1.608,1.982 -1.304,4.897 0.678,6.505l7.184,5.828c1.982,1.608 4.897,1.304 6.505,-0.678l215.93,-266.18c1.608,-1.983 1.304,-4.898 -0.678,-6.506l-7.184,-5.827c-1.982,-1.608 -4.897,-1.305 -6.505,0.678l-215.93,266.18Z"></path>
  <path d="M624.398,3178.51c-1.93,1.67 -2.14,4.593 -0.47,6.523l6.054,6.994c1.671,1.93 4.594,2.141 6.524,0.47l259.147,-224.322c1.93,-1.671 2.141,-4.594 0.47,-6.524l-6.054,-6.994c-1.67,-1.93 -4.594,-2.14 -6.524,-0.469l-259.147,224.322Z"></path>
  <path d="M440.96,2922.26c-2.19,1.311 -2.904,4.154 -1.593,6.344l4.75,7.937c1.311,2.191 4.153,2.905 6.344,1.594l294.104,-176.013c2.19,-1.311 2.904,-4.153 1.593,-6.343l-4.75,-7.937c-1.311,-2.191 -4.153,-2.905 -6.344,-1.594l-294.104,176.012Z"></path>
  <path d="M303.598,2635.13c-2.386,0.907 -3.587,3.581 -2.679,5.967l3.287,8.646c0.907,2.386 3.581,3.586 5.967,2.679l320.373,-121.815c2.386,-0.907 3.586,-3.581 2.679,-5.967l-3.288,-8.646c-0.907,-2.386 -3.58,-3.586 -5.966,-2.679l-320.373,121.815Z"></path>
  <path d="M218.501,2327.76c-2.508,0.475 -4.159,2.896 -3.684,5.404l1.72,9.089c0.474,2.508 2.896,4.159 5.404,3.684l336.772,-63.738c2.508,-0.475 4.159,-2.897 3.684,-5.405l-1.72,-9.088c-0.475,-2.509 -2.897,-4.159 -5.405,-3.685l-336.771,63.739Z"></path>
  <path d="M188.647,2012.85c-2.552,0.031 -4.599,2.128 -4.568,4.681l0.113,9.249c0.031,2.552 2.128,4.599 4.681,4.568l342.724,-4.182c2.553,-0.031 4.6,-2.129 4.568,-4.681l-0.112,-9.249c-0.032,-2.553 -2.129,-4.6 -4.682,-4.569l-342.724,4.183Z"></path>
  <path d="M214.099,1697.14c-2.519,-0.414 -4.9,1.295 -5.313,3.814l-1.5,9.127c-0.414,2.519 1.295,4.9 3.813,5.314l338.214,55.58c2.519,0.414 4.9,-1.295 5.314,-3.814l1.5,-9.127c0.414,-2.519 -1.295,-4.9 -3.814,-5.314l-338.214,-55.58Z"></path>
  <path d="M294.513,1389.69c-2.408,-0.848 -5.051,0.418 -5.899,2.826l-3.072,8.725c-0.848,2.408 0.419,5.051 2.826,5.899l323.296,113.832c2.407,0.848 5.05,-0.419 5.898,-2.826l3.072,-8.725c0.848,-2.408 -0.419,-5.051 -2.826,-5.899l-323.295,-113.832Z"></path>
  <path d="M427.569,1100.76c-2.222,-1.255 -5.046,-0.471 -6.302,1.751l-4.551,8.053c-1.256,2.223 -0.471,5.047 1.751,6.302l298.398,168.631c2.223,1.256 5.046,0.471 6.302,-1.751l4.551,-8.053c1.256,-2.222 0.471,-5.046 -1.751,-6.302l-298.398,-168.631Z"></path>
  <path d="M607.69,841.277c-1.97,-1.623 -4.887,-1.341 -6.51,0.63l-5.881,7.14c-1.622,1.97 -1.34,4.887 0.63,6.51l264.567,217.904c1.97,1.622 4.887,1.34 6.51,-0.63l5.881,-7.14c1.623,-1.97 1.341,-4.888 -0.63,-6.51l-264.567,-217.904Z"></path>
  <path d="M831.554,615.84c-1.656,-1.942 -4.578,-2.174 -6.52,-0.518l-7.038,6.003c-1.942,1.657 -2.174,4.578 -0.517,6.52l222.426,260.777c1.656,1.942 4.578,2.174 6.52,0.517l7.038,-6.003c1.942,-1.656 2.174,-4.578 0.517,-6.52l-222.426,-260.776Z"></path>
  <path d="M1092.26,432.461c-1.29,-2.202 -4.126,-2.942 -6.328,-1.652l-7.981,4.676c-2.203,1.291 -2.943,4.127 -1.653,6.329l173.273,295.726c1.291,2.203 4.127,2.943 6.329,1.653l7.981,-4.677c2.202,-1.29 2.943,-4.126 1.652,-6.328l-173.273,-295.727Z"></path>
  <path d="M1380.07,297.986c-0.886,-2.394 -3.549,-3.618 -5.943,-2.732l-8.675,3.21c-2.394,0.886 -3.618,3.548 -2.732,5.942l118.945,321.45c0.886,2.394 3.549,3.618 5.943,2.732l8.675,-3.21c2.394,-0.886 3.618,-3.549 2.732,-5.943l-118.945,-321.449Z"></path>
  <path d="M1686.54,215.929c-0.455,-2.511 -2.863,-4.182 -5.375,-3.727l-9.102,1.647c-2.512,0.455 -4.182,2.863 -3.728,5.375l61.036,337.271c0.454,2.512 2.863,4.183 5.374,3.728l9.103,-1.647c2.511,-0.455 4.182,-2.863 3.727,-5.375l-61.035,-337.272Z"></path>
  <path d="M2072.76,190.063c0.089,-2.551 -1.909,-4.694 -4.46,-4.784l-9.245,-0.324c-2.551,-0.09 -4.694,1.909 -4.784,4.46l-8.653,246.598c-0.089,2.551 1.909,4.695 4.46,4.784l9.244,0.325c2.551,0.089 4.695,-1.909 4.785,-4.46l8.653,-246.599Z"></path>
  <path d="M2136.19,193.728c0.179,-2.546 -1.743,-4.759 -4.29,-4.937l-9.227,-0.649c-2.546,-0.179 -4.759,1.743 -4.938,4.29l-17.295,246.143c-0.179,2.546 1.743,4.759 4.29,4.938l9.227,0.648c2.546,0.179 4.759,-1.743 4.938,-4.29l17.295,-246.143Z"></path>
  <path d="M2199.45,199.615c0.268,-2.538 -1.575,-4.817 -4.113,-5.085l-9.199,-0.972c-2.539,-0.268 -4.817,1.576 -5.085,4.114l-25.916,245.385c-0.269,2.539 1.575,4.817 4.113,5.085l9.199,0.972c2.539,0.268 4.817,-1.575 5.085,-4.114l25.916,-245.385Z"></path>
  <path d="M2262.46,207.717c0.357,-2.528 -1.406,-4.87 -3.933,-5.227l-9.159,-1.293c-2.528,-0.357 -4.87,1.405 -5.227,3.933l-34.505,244.325c-0.357,2.528 1.405,4.869 3.933,5.226l9.159,1.294c2.528,0.357 4.869,-1.405 5.226,-3.933l34.506,-244.325Z"></path>
  <path d="M2325.15,218.023c0.445,-2.514 -1.234,-4.916 -3.747,-5.361l-9.108,-1.614c-2.514,-0.446 -4.916,1.233 -5.361,3.747l-43.052,242.965c-0.445,2.514 1.234,4.916 3.747,5.361l9.108,1.614c2.514,0.445 4.916,-1.234 5.361,-3.747l43.052,-242.965Z"></path>
  <path d="M2387.44,230.521c0.534,-2.496 -1.06,-4.956 -3.556,-5.489l-9.046,-1.933c-2.497,-0.533 -4.956,1.061 -5.489,3.557l-51.546,241.306c-0.533,2.497 1.061,4.956 3.557,5.489l9.046,1.933c2.496,0.533 4.956,-1.061 5.489,-3.557l51.545,-241.306Z"></path>
  <path d="M2449.25,245.196c0.621,-2.476 -0.886,-4.99 -3.362,-5.611l-8.972,-2.248c-2.476,-0.621 -4.99,0.886 -5.611,3.362l-59.976,239.35c-0.62,2.476 0.886,4.99 3.362,5.611l8.973,2.248c2.476,0.62 4.99,-0.886 5.61,-3.362l59.976,-239.35Z"></path>
  <path d="M2510.51,262.029c0.706,-2.453 -0.711,-5.018 -3.164,-5.725l-8.888,-2.561c-2.453,-0.707 -5.018,0.71 -5.725,3.163l-68.332,237.1c-0.707,2.452 0.71,5.018 3.163,5.724l8.888,2.562c2.453,0.707 5.018,-0.71 5.725,-3.163l68.333,-237.1Z"></path>
  <path d="M2571.14,281c0.792,-2.426 -0.534,-5.039 -2.961,-5.832l-8.793,-2.872c-2.426,-0.792 -5.04,0.534 -5.832,2.961l-76.605,234.558c-0.792,2.426 0.534,5.039 2.961,5.832l8.793,2.872c2.426,0.792 5.04,-0.535 5.832,-2.961l76.605,-234.558Z"></path>
  <path d="M2631.07,302.086c0.878,-2.397 -0.357,-5.055 -2.754,-5.932l-8.687,-3.179c-2.397,-0.877 -5.055,0.357 -5.932,2.755l-84.783,231.727c-0.877,2.397 0.357,5.055 2.754,5.932l8.687,3.178c2.397,0.878 5.055,-0.357 5.932,-2.754l84.783,-231.727Z"></path>
  <path d="M2690.23,325.261c0.96,-2.365 -0.18,-5.065 -2.545,-6.026l-8.57,-3.481c-2.365,-0.96 -5.065,0.18 -6.025,2.545l-92.857,228.611c-0.961,2.365 0.179,5.065 2.544,6.026l8.57,3.481c2.365,0.96 5.065,-0.18 6.026,-2.545l92.857,-228.611Z"></path>
  <path d="M2748.53,350.495c1.043,-2.33 -0.002,-5.068 -2.331,-6.111l-8.443,-3.779c-2.33,-1.043 -5.068,0.002 -6.111,2.332l-100.817,225.214c-1.043,2.33 0.002,5.068 2.332,6.111l8.442,3.779c2.33,1.043 5.069,-0.001 6.112,-2.331l100.816,-225.215Z"></path>
  <path d="M2805.91,377.759c1.124,-2.292 0.176,-5.065 -2.116,-6.189l-8.305,-4.073c-2.292,-1.124 -5.065,-0.176 -6.189,2.116l-108.653,221.54c-1.124,2.292 -0.175,5.065 2.116,6.189l8.305,4.073c2.292,1.124 5.065,0.176 6.189,-2.116l108.653,-221.54Z"></path>
  <path d="M2862.31,407.018c1.204,-2.251 0.353,-5.056 -1.898,-6.259l-8.157,-4.362c-2.251,-1.204 -5.055,-0.354 -6.259,1.897l-116.355,217.595c-1.203,2.251 -0.353,5.055 1.898,6.259l8.157,4.362c2.251,1.203 5.056,0.353 6.26,-1.898l116.354,-217.594Z"></path>
  <path d="M2917.64,438.237c1.282,-2.208 0.531,-5.041 -1.676,-6.322l-8,-4.646c-2.207,-1.281 -5.04,-0.53 -6.322,1.677l-123.913,213.38c-1.282,2.208 -0.53,5.041 1.677,6.322l7.999,4.646c2.207,1.282 5.04,0.53 6.322,-1.677l123.913,-213.38Z"></path>
  <path d="M2971.84,471.377c1.359,-2.162 0.707,-5.019 -1.454,-6.378l-7.831,-4.922c-2.161,-1.359 -5.019,-0.707 -6.377,1.454l-131.32,208.903c-1.359,2.161 -0.707,5.019 1.454,6.377l7.831,4.923c2.161,1.359 5.019,0.707 6.377,-1.454l131.32,-208.903Z"></path>
  <path d="M3024.85,506.397c1.434,-2.112 0.883,-4.991 -1.229,-6.424l-7.654,-5.195c-2.112,-1.433 -4.991,-0.882 -6.424,1.23l-138.565,204.17c-1.433,2.112 -0.882,4.99 1.23,6.424l7.653,5.194c2.113,1.434 4.991,0.883 6.425,-1.229l138.564,-204.17Z"></path>
  <path d="M3076.6,543.254c1.507,-2.06 1.057,-4.956 -1.004,-6.463l-7.467,-5.46c-2.06,-1.506 -4.956,-1.057 -6.463,1.004l-145.639,199.185c-1.507,2.061 -1.057,4.957 1.003,6.463l7.467,5.46c2.061,1.507 4.957,1.057 6.464,-1.004l145.639,-199.185Z"></path>
  <path d="M3127.02,581.904c1.578,-2.007 1.23,-4.917 -0.776,-6.495l-7.271,-5.718c-2.007,-1.578 -4.917,-1.23 -6.495,0.776l-152.534,193.956c-1.578,2.006 -1.23,4.916 0.776,6.494l7.271,5.719c2.006,1.577 4.917,1.23 6.495,-0.777l152.534,-193.955Z"></path>
  <path d="M3223.64,664.386c1.715,-1.891 1.572,-4.818 -0.319,-6.533l-6.852,-6.214c-1.891,-1.714 -4.819,-1.571 -6.533,0.32l-165.754,182.787c-1.715,1.891 -1.572,4.818 0.319,6.533l6.852,6.213c1.891,1.715 4.818,1.572 6.533,-0.319l165.754,-182.787Z"></path>
  <path d="M3269.73,708.118c1.78,-1.83 1.74,-4.761 -0.09,-6.541l-6.63,-6.45c-1.83,-1.78 -4.76,-1.739 -6.54,0.09l-172.062,176.862c-1.78,1.83 -1.74,4.76 0.09,6.54l6.63,6.451c1.83,1.78 4.76,1.739 6.54,-0.09l172.062,-176.862Z"></path>
  <path d="M3314.25,753.438c1.843,-1.766 1.906,-4.696 0.14,-6.539l-6.4,-6.679c-1.766,-1.843 -4.696,-1.905 -6.539,-0.139l-178.159,170.719c-1.843,1.766 -1.905,4.697 -0.139,6.54l6.4,6.678c1.766,1.843 4.696,1.906 6.539,0.14l178.158,-170.72Z"></path>
  <path d="M3357.15,800.292c1.904,-1.7 2.069,-4.626 0.368,-6.53l-6.161,-6.899c-1.701,-1.904 -4.627,-2.069 -6.531,-0.369l-184.035,164.367c-1.904,1.701 -2.069,4.627 -0.369,6.531l6.162,6.899c1.7,1.903 4.626,2.069 6.53,0.368l184.036,-164.367Z"></path>
  <path d="M3398.39,848.622c1.962,-1.633 2.23,-4.551 0.597,-6.513l-5.916,-7.111c-1.632,-1.962 -4.551,-2.23 -6.513,-0.598l-189.686,157.813c-1.963,1.632 -2.23,4.551 -0.598,6.513l5.916,7.111c1.633,1.962 4.551,2.23 6.513,0.597l189.687,-157.812Z"></path>
  <path d="M3437.91,898.368c2.018,-1.563 2.388,-4.47 0.825,-6.488l-5.663,-7.314c-1.563,-2.019 -4.47,-2.388 -6.488,-0.826l-195.104,151.064c-2.018,1.562 -2.388,4.47 -0.826,6.488l5.663,7.314c1.563,2.018 4.471,2.388 6.489,0.826l195.104,-151.064Z"></path>
  <path d="M3475.65,949.469c2.071,-1.491 2.543,-4.383 1.052,-6.455l-5.403,-7.508c-1.491,-2.072 -4.384,-2.544 -6.455,-1.053l-200.281,144.129c-2.072,1.491 -2.544,4.384 -1.053,6.456l5.403,7.508c1.491,2.071 4.384,2.543 6.456,1.052l200.281,-144.129Z"></path>
  <path d="M3511.58,1001.86c2.123,-1.417 2.696,-4.292 1.279,-6.415l-5.137,-7.693c-1.417,-2.122 -4.291,-2.695 -6.414,-1.278l-205.212,137.017c-2.123,1.417 -2.696,4.292 -1.279,6.415l5.137,7.692c1.417,2.123 4.291,2.696 6.414,1.279l205.212,-137.017Z"></path>
  <path d="M3545.66,1055.48c2.171,-1.342 2.844,-4.194 1.502,-6.366l-4.863,-7.868c-1.342,-2.171 -4.195,-2.844 -6.366,-1.502l-209.891,129.736c-2.171,1.342 -2.844,4.194 -1.502,6.366l4.863,7.868c1.342,2.171 4.195,2.845 6.366,1.502l209.891,-129.736Z"></path>
  <path d="M3577.83,1110.27c2.217,-1.265 2.99,-4.092 1.725,-6.309l-4.585,-8.034c-1.265,-2.217 -4.092,-2.99 -6.309,-1.724l-214.311,122.296c-2.217,1.265 -2.99,4.092 -1.725,6.309l4.585,8.034c1.265,2.217 4.092,2.99 6.309,1.724l214.311,-122.296Z"></path>
  <path d="M3608.06,1166.14c2.26,-1.186 3.132,-3.985 1.945,-6.245l-4.3,-8.19c-1.187,-2.26 -3.985,-3.131 -6.245,-1.944l-218.468,114.705c-2.26,1.187 -3.131,3.985 -1.945,6.245l4.3,8.19c1.187,2.26 3.985,3.131 6.245,1.945l218.468,-114.706Z"></path>
  <path d="M3636.31,1223.05c2.301,-1.107 3.27,-3.873 2.163,-6.173l-4.01,-8.336c-1.107,-2.3 -3.873,-3.269 -6.173,-2.163l-222.356,106.974c-2.3,1.107 -3.269,3.873 -2.163,6.173l4.01,8.336c1.107,2.3 3.873,3.269 6.173,2.162l222.356,-106.973Z"></path>
  <path d="M3662.55,1280.91c2.337,-1.026 3.403,-3.756 2.377,-6.094l-3.715,-8.471c-1.025,-2.337 -3.756,-3.403 -6.093,-2.377l-225.971,99.11c-2.337,1.025 -3.403,3.756 -2.378,6.093l3.716,8.471c1.025,2.338 3.755,3.403 6.093,2.378l225.971,-99.11Z"></path>
  <path d="M3686.74,1339.65c2.372,-0.942 3.533,-3.634 2.59,-6.006l-3.416,-8.596c-0.943,-2.372 -3.634,-3.533 -6.006,-2.59l-229.307,91.125c-2.373,0.943 -3.533,3.634 -2.59,6.007l3.416,8.596c0.942,2.372 3.634,3.532 6.006,2.59l229.307,-91.126Z"></path>
  <path d="M3708.86,1399.21c2.404,-0.859 3.658,-3.507 2.799,-5.911l-3.112,-8.711c-0.859,-2.404 -3.508,-3.658 -5.912,-2.799l-232.361,83.028c-2.404,0.859 -3.658,3.508 -2.8,5.912l3.113,8.71c0.859,2.404 3.508,3.658 5.912,2.799l232.361,-83.028Z"></path>
  <path d="M3728.88,1459.5c2.433,-0.774 3.779,-3.377 3.005,-5.809l-2.805,-8.815c-0.774,-2.432 -3.378,-3.779 -5.81,-3.004l-235.13,74.828c-2.433,0.774 -3.779,3.378 -3.005,5.81l2.805,8.814c0.774,2.433 3.378,3.779 5.81,3.005l235.13,-74.829Z"></path>
  <path d="M3746.77,1520.46c2.458,-0.688 3.895,-3.243 3.206,-5.701l-2.494,-8.907c-0.688,-2.458 -3.243,-3.895 -5.701,-3.206l-237.609,66.537c-2.458,0.688 -3.895,3.242 -3.207,5.701l2.494,8.907c0.689,2.458 3.243,3.895 5.701,3.206l237.61,-66.537Z"></path>
  <path d="M3762.51,1582.01c2.48,-0.602 4.006,-3.104 3.404,-5.585l-2.18,-8.989c-0.602,-2.481 -3.104,-4.006 -5.585,-3.405l-239.797,58.164c-2.481,0.602 -4.006,3.104 -3.404,5.585l2.18,8.989c0.602,2.481 3.104,4.007 5.585,3.405l239.797,-58.164Z"></path>
  <path d="M3776.09,1644.08c2.501,-0.514 4.113,-2.962 3.599,-5.462l-1.864,-9.06c-0.515,-2.501 -2.962,-4.113 -5.462,-3.599l-241.689,49.719c-2.501,0.515 -4.113,2.962 -3.598,5.462l1.863,9.061c0.515,2.5 2.962,4.112 5.462,3.598l241.689,-49.719Z"></path>
  <path d="M3787.47,1706.58c2.517,-0.427 4.214,-2.816 3.788,-5.333l-1.545,-9.12c-0.426,-2.517 -2.816,-4.214 -5.333,-3.787l-243.283,41.213c-2.517,0.426 -4.214,2.815 -3.788,5.332l1.545,9.12c0.426,2.517 2.816,4.214 5.333,3.788l243.283,-41.213Z"></path>
  <path d="M3796.67,1769.44c2.53,-0.337 4.31,-2.666 3.972,-5.196l-1.224,-9.169c-0.338,-2.53 -2.667,-4.31 -5.197,-3.972l-244.579,32.656c-2.53,0.338 -4.31,2.667 -3.973,5.197l1.225,9.169c0.338,2.53 2.666,4.31 5.196,3.972l244.58,-32.657Z"></path>
  <path d="M3803.65,1832.59c2.54,-0.249 4.401,-2.514 4.152,-5.054l-0.902,-9.206c-0.249,-2.541 -2.514,-4.401 -5.054,-4.152l-245.574,24.059c-2.541,0.249 -4.401,2.514 -4.152,5.054l0.902,9.206c0.248,2.541 2.513,4.401 5.053,4.152l245.575,-24.059Z"></path>
  <path d="M3808.41,1895.94c2.548,-0.16 4.486,-2.358 4.327,-4.905l-0.579,-9.232c-0.159,-2.548 -2.357,-4.486 -4.905,-4.327l-246.267,15.433c-2.547,0.16 -4.486,2.358 -4.327,4.905l0.579,9.232c0.16,2.548 2.358,4.487 4.905,4.327l246.267,-15.433Z"></path>
  <path d="M3810.94,1959.42c2.552,-0.07 4.566,-2.199 4.496,-4.75l-0.254,-9.247c-0.071,-2.551 -2.199,-4.566 -4.751,-4.496l-246.657,6.788c-2.551,0.07 -4.566,2.199 -4.496,4.75l0.255,9.247c0.07,2.551 2.199,4.566 4.75,4.496l246.657,-6.788Z"></path>
  <path d="M3811.25,2022.95c2.553,0.02 4.641,-2.037 4.66,-4.59l0.07,-9.249c0.019,-2.553 -2.037,-4.641 -4.59,-4.66l-246.743,-1.866c-2.552,-0.02 -4.64,2.037 -4.66,4.59l-0.07,9.249c-0.019,2.553 2.038,4.641 4.59,4.66l246.743,1.866Z"></path>
  <path d="M3809.33,2086.45c2.551,0.109 4.71,-1.873 4.818,-4.423l0.395,-9.242c0.108,-2.55 -1.874,-4.709 -4.424,-4.818l-246.526,-10.518c-2.55,-0.108 -4.709,1.874 -4.818,4.424l-0.394,9.242c-0.109,2.55 1.873,4.709 4.424,4.818l246.525,10.517Z"></path>
  <path d="M3805.19,2149.85c2.545,0.198 4.772,-1.707 4.97,-4.252l0.718,-9.222c0.198,-2.545 -1.707,-4.772 -4.252,-4.97l-246.005,-19.157c-2.545,-0.198 -4.772,1.708 -4.97,4.252l-0.718,9.223c-0.198,2.544 1.707,4.771 4.252,4.97l246.005,19.156Z"></path>
  <path d="M3798.83,2213.06c2.536,0.287 4.829,-1.539 5.116,-4.075l1.041,-9.191c0.287,-2.537 -1.539,-4.829 -4.075,-5.116l-245.182,-27.772c-2.537,-0.287 -4.829,1.539 -5.116,4.076l-1.041,9.191c-0.288,2.536 1.538,4.829 4.075,5.116l245.182,27.771Z"></path>
  <path d="M3790.25,2276.01c2.525,0.376 4.88,-1.368 5.256,-3.893l1.363,-9.149c0.376,-2.525 -1.369,-4.88 -3.893,-5.256l-244.058,-36.352c-2.525,-0.376 -4.88,1.369 -5.256,3.893l-1.363,9.149c-0.376,2.525 1.369,4.88 3.894,5.256l244.057,36.352Z"></path>
  <path d="M3779.47,2338.62c2.51,0.464 4.925,-1.196 5.389,-3.706l1.683,-9.096c0.464,-2.51 -1.196,-4.925 -3.706,-5.389l-242.633,-44.888c-2.51,-0.465 -4.925,1.196 -5.389,3.706l-1.683,9.096c-0.464,2.51 1.197,4.924 3.707,5.389l242.632,44.888Z"></path>
  <path d="M3766.5,2400.81c2.492,0.552 4.964,-1.023 5.516,-3.515l2.001,-9.031c0.552,-2.492 -1.023,-4.964 -3.515,-5.516l-240.91,-53.369c-2.492,-0.552 -4.963,1.023 -5.516,3.515l-2,9.031c-0.552,2.492 1.023,4.964 3.515,5.516l240.909,53.369Z"></path>
  <path d="M3751.36,2462.51c2.472,0.639 4.997,-0.848 5.636,-3.319l2.316,-8.956c0.639,-2.471 -0.848,-4.996 -3.319,-5.635l-238.89,-61.785c-2.471,-0.639 -4.997,0.849 -5.636,3.32l-2.316,8.955c-0.639,2.471 0.848,4.997 3.32,5.636l238.889,61.784Z"></path>
  <path d="M3734.06,2523.64c2.448,0.726 5.023,-0.672 5.749,-3.119l2.629,-8.869c0.725,-2.447 -0.673,-5.023 -3.12,-5.749l-236.576,-70.123c-2.448,-0.726 -5.024,0.672 -5.749,3.12l-2.629,8.868c-0.725,2.447 0.673,5.023 3.12,5.749l236.576,70.123Z"></path>
  <path d="M3714.63,2584.13c2.42,0.811 5.044,-0.496 5.854,-2.916l2.939,-8.771c0.81,-2.42 -0.496,-5.044 -2.917,-5.854l-233.971,-78.377c-2.421,-0.811 -5.044,0.496 -5.855,2.916l-2.938,8.771c-0.811,2.421 0.496,5.044 2.916,5.855l233.972,78.376Z"></path>
  <path d="M3693.09,2643.9c2.391,0.895 5.058,-0.319 5.954,-2.709l3.243,-8.663c0.896,-2.39 -0.318,-5.058 -2.709,-5.953l-231.079,-86.533c-2.39,-0.896 -5.058,0.318 -5.953,2.709l-3.244,8.663c-0.895,2.39 0.319,5.058 2.709,5.953l231.079,86.533Z"></path>
  <path d="M3669.47,2702.87c2.358,0.979 5.066,-0.141 6.045,-2.499l3.545,-8.543c0.979,-2.358 -0.141,-5.066 -2.498,-6.045l-227.903,-94.583c-2.358,-0.978 -5.066,0.141 -6.045,2.499l-3.545,8.543c-0.979,2.358 0.141,5.067 2.499,6.045l227.902,94.583Z"></path>
  <path d="M3643.8,2760.99c2.322,1.061 5.068,0.037 6.129,-2.285l3.843,-8.414c1.06,-2.322 0.036,-5.068 -2.285,-6.129l-224.446,-102.517c-2.322,-1.06 -5.068,-0.036 -6.128,2.286l-3.844,8.414c-1.06,2.321 -0.036,5.068 2.286,6.128l224.445,102.517Z"></path>
  <path d="M3616.1,2818.16c2.283,1.141 5.063,0.214 6.204,-2.069l4.136,-8.274c1.141,-2.283 0.214,-5.064 -2.069,-6.205l-220.712,-110.325c-2.284,-1.141 -5.064,-0.214 -6.205,2.069l-4.136,8.274c-1.141,2.283 -0.214,5.064 2.069,6.205l220.713,110.325Z"></path>
  <path d="M3586.41,2874.33c2.242,1.221 5.053,0.392 6.273,-1.85l4.424,-8.124c1.22,-2.242 0.391,-5.053 -1.851,-6.273l-216.707,-117.997c-2.242,-1.221 -5.053,-0.392 -6.274,1.85l-4.423,8.124c-1.221,2.242 -0.392,5.053 1.85,6.273l216.708,117.997Z"></path>
  <path d="M3554.78,2929.42c2.198,1.299 5.037,0.569 6.335,-1.629l4.706,-7.964c1.298,-2.197 0.568,-5.036 -1.629,-6.334l-212.437,-125.524c-2.198,-1.299 -5.036,-0.569 -6.335,1.629l-4.705,7.964c-1.299,2.197 -0.569,5.036 1.629,6.334l212.436,125.524Z"></path>
  <path d="M3521.23,2983.37c2.15,1.375 5.013,0.745 6.387,-1.405l4.982,-7.794c1.375,-2.151 0.745,-5.013 -1.406,-6.388l-207.904,-132.896c-2.151,-1.375 -5.013,-0.745 -6.388,1.406l-4.982,7.794c-1.374,2.15 -0.744,5.013 1.406,6.387l207.905,132.896Z"></path>
  <path d="M3485.81,3036.12c2.101,1.45 4.983,0.92 6.433,-1.181l5.252,-7.614c1.449,-2.101 0.92,-4.984 -1.181,-6.433l-203.116,-140.105c-2.101,-1.45 -4.984,-0.92 -6.433,1.181l-5.253,7.614c-1.449,2.101 -0.92,4.984 1.181,6.433l203.117,140.105Z"></path>
  <path d="M3448.56,3087.58c2.049,1.522 4.948,1.094 6.47,-0.955l5.516,-7.426c1.523,-2.049 1.095,-4.948 -0.954,-6.47l-198.078,-147.142c-2.05,-1.522 -4.949,-1.094 -6.471,0.955l-5.516,7.425c-1.522,2.049 -1.094,4.949 0.955,6.471l198.078,147.142Z"></path>
  <path d="M3409.53,3137.71c1.995,1.593 4.907,1.267 6.5,-0.727l5.773,-7.228c1.593,-1.994 1.267,-4.907 -0.727,-6.5l-192.796,-153.997c-1.995,-1.593 -4.908,-1.267 -6.501,0.727l-5.773,7.228c-1.593,1.994 -1.267,4.907 0.728,6.5l192.796,153.997Z"></path>
  <path d="M3368.77,3186.44c1.937,1.662 4.859,1.439 6.521,-0.499l6.023,-7.02c1.662,-1.938 1.439,-4.86 -0.499,-6.522l-187.277,-160.663c-1.938,-1.662 -4.86,-1.439 -6.522,0.499l-6.023,7.02c-1.662,1.937 -1.438,4.86 0.499,6.522l187.278,160.663Z"></path>
  <path d="M3326.32,3233.71c1.878,1.729 4.806,1.608 6.535,-0.27l6.266,-6.805c1.729,-1.878 1.608,-4.806 -0.27,-6.535l-181.528,-167.132c-1.878,-1.729 -4.807,-1.608 -6.536,0.27l-6.265,6.805c-1.729,1.877 -1.608,4.806 0.27,6.535l181.528,167.132Z"></path>
  <path d="M3282.24,3279.46c1.817,1.793 4.747,1.775 6.541,-0.041l6.5,-6.581c1.794,-1.816 1.776,-4.747 -0.04,-6.541l-175.556,-173.395c-1.816,-1.793 -4.747,-1.775 -6.541,0.041l-6.5,6.581c-1.794,1.816 -1.775,4.747 0.041,6.541l175.555,173.395Z"></path>
  <path d="M3236.59,3323.64c1.752,1.856 4.682,1.941 6.538,0.188l6.727,-6.349c1.857,-1.752 1.941,-4.681 0.189,-6.538l-169.367,-179.444c-1.752,-1.856 -4.682,-1.941 -6.538,-0.189l-6.727,6.349c-1.856,1.752 -1.941,4.682 -0.189,6.538l169.367,179.445Z"></path>
  <path d="M3189.41,3366.19c1.686,1.917 4.611,2.104 6.528,0.418l6.945,-6.109c1.917,-1.686 2.104,-4.611 0.418,-6.527l-162.97,-185.274c-1.686,-1.916 -4.611,-2.104 -6.528,-0.418l-6.945,6.11c-1.917,1.686 -2.104,4.61 -0.418,6.527l162.97,185.273Z"></path>
  <path d="M3140.77,3407.06c1.618,1.974 4.534,2.264 6.509,0.646l7.155,-5.862c1.974,-1.617 2.264,-4.534 0.647,-6.508l-156.373,-190.875c-1.618,-1.974 -4.535,-2.264 -6.509,-0.646l-7.156,5.862c-1.974,1.617 -2.264,4.534 -0.646,6.508l156.373,190.875Z"></path>
  <path d="M3090.72,3446.2c1.548,2.03 4.452,2.422 6.482,0.875l7.357,-5.608c2.03,-1.547 2.422,-4.452 0.874,-6.482l-149.583,-196.24c-1.548,-2.03 -4.452,-2.422 -6.482,-0.875l-7.357,5.608c-2.03,1.547 -2.422,4.452 -0.874,6.482l149.583,196.24Z"></path>
  <path d="M3039.34,3483.56c1.475,2.083 4.364,2.576 6.447,1.101l7.549,-5.346c2.083,-1.475 2.577,-4.364 1.101,-6.447l-142.609,-201.366c-1.476,-2.083 -4.365,-2.576 -6.448,-1.101l-7.548,5.346c-2.084,1.475 -2.577,4.364 -1.102,6.447l142.61,201.366Z"></path>
  <path d="M2986.68,3519.09c1.402,2.134 4.271,2.728 6.405,1.327l7.731,-5.078c2.134,-1.401 2.728,-4.271 1.327,-6.405l-135.461,-206.242c-1.401,-2.134 -4.271,-2.728 -6.404,-1.327l-7.732,5.078c-2.133,1.401 -2.728,4.271 -1.326,6.405l135.46,206.242Z"></path>
  <path d="M2932.8,3552.76c1.325,2.181 4.173,2.876 6.354,1.551l7.905,-4.804c2.181,-1.326 2.876,-4.173 1.55,-6.355l-128.145,-210.865c-1.325,-2.182 -4.173,-2.877 -6.354,-1.551l-7.905,4.804c-2.181,1.326 -2.876,4.173 -1.55,6.354l128.145,210.866Z"></path>
  <path d="M2877.77,3584.51c1.248,2.227 4.069,3.021 6.296,1.772l8.068,-4.523c2.227,-1.249 3.021,-4.07 1.773,-6.296l-120.672,-215.23c-1.248,-2.227 -4.07,-3.021 -6.296,-1.773l-8.068,4.524c-2.227,1.248 -3.021,4.07 -1.773,6.296l120.672,215.23Z"></path>
  <path d="M2821.67,3614.32c1.17,2.269 3.961,3.161 6.23,1.992l8.222,-4.238c2.269,-1.17 3.162,-3.961 1.992,-6.23l-113.05,-219.329c-1.169,-2.269 -3.961,-3.162 -6.23,-1.992l-8.222,4.238c-2.269,1.169 -3.161,3.961 -1.992,6.23l113.05,219.329Z"></path>
  <path d="M2764.55,3642.14c1.089,2.308 3.847,3.298 6.156,2.209l8.366,-3.947c2.308,-1.089 3.298,-3.848 2.209,-6.156l-105.289,-223.159c-1.089,-2.309 -3.848,-3.299 -6.156,-2.209l-8.366,3.947c-2.309,1.089 -3.299,3.847 -2.209,6.156l105.289,223.159Z"></path>
  <path d="M2706.5,3667.94c1.007,2.345 3.729,3.431 6.075,2.423l8.499,-3.651c2.345,-1.007 3.431,-3.729 2.423,-6.075l-97.398,-226.713c-1.008,-2.346 -3.73,-3.432 -6.075,-2.424l-8.499,3.651c-2.345,1.008 -3.431,3.73 -2.424,6.075l97.399,226.714Z"></path>
  <path d="M2647.57,3691.69c0.924,2.379 3.607,3.56 5.986,2.635l8.622,-3.351c2.379,-0.924 3.56,-3.607 2.635,-5.986l-89.388,-229.99c-0.925,-2.379 -3.607,-3.56 -5.987,-2.635l-8.621,3.351c-2.38,0.925 -3.56,3.607 -2.636,5.986l89.389,229.99Z"></path>
  <path d="M2587.85,3713.36c0.841,2.41 3.48,3.684 5.89,2.844l8.734,-3.047c2.41,-0.84 3.685,-3.48 2.844,-5.89l-81.268,-232.983c-0.841,-2.41 -3.48,-3.684 -5.891,-2.844l-8.733,3.047c-2.411,0.841 -3.685,3.48 -2.844,5.89l81.268,232.983Z"></path>
  <path d="M2527.41,3732.92c0.756,2.438 3.349,3.804 5.787,3.048l8.836,-2.738c2.438,-0.756 3.804,-3.349 3.048,-5.787l-73.048,-235.689c-0.756,-2.439 -3.349,-3.805 -5.787,-3.049l-8.835,2.738c-2.438,0.756 -3.804,3.349 -3.049,5.787l73.048,235.69Z"></path>
  <path d="M2466.31,3750.35c0.67,2.463 3.213,3.919 5.676,3.249l8.926,-2.427c2.464,-0.669 3.92,-3.213 3.25,-5.676l-64.738,-238.106c-0.67,-2.463 -3.213,-3.919 -5.677,-3.25l-8.926,2.427c-2.463,0.67 -3.919,3.213 -3.249,5.677l64.738,238.106Z"></path>
  <path d="M2404.65,3765.62c0.583,2.485 3.074,4.029 5.559,3.446l9.006,-2.112c2.485,-0.583 4.029,-3.074 3.446,-5.559l-56.349,-240.23c-0.582,-2.485 -3.073,-4.03 -5.558,-3.447l-9.006,2.113c-2.485,0.583 -4.03,3.074 -3.447,5.559l56.349,240.23Z"></path>
  <path d="M2342.48,3778.73c0.496,2.504 2.931,4.134 5.435,3.639l9.074,-1.795c2.504,-0.496 4.135,-2.931 3.639,-5.435l-47.889,-242.058c-0.496,-2.504 -2.931,-4.135 -5.435,-3.64l-9.074,1.796c-2.504,0.495 -4.135,2.93 -3.64,5.434l47.89,242.059Z"></path>
  <path d="M2279.89,3789.64c0.407,2.52 2.784,4.236 5.304,3.828l9.131,-1.476c2.52,-0.407 4.235,-2.784 3.828,-5.303l-39.372,-243.589c-0.407,-2.52 -2.784,-4.235 -5.304,-3.828l-9.131,1.476c-2.52,0.407 -4.235,2.784 -3.828,5.304l39.372,243.588Z"></path>
  <path d="M2216.97,3798.36c0.318,2.533 2.633,4.33 5.166,4.011l9.177,-1.154c2.533,-0.319 4.331,-2.634 4.012,-5.167l-30.806,-244.819c-0.318,-2.533 -2.633,-4.33 -5.166,-4.012l-9.178,1.155c-2.532,0.319 -4.33,2.634 -4.011,5.166l30.806,244.82Z"></path>
  <path d="M2153.77,3804.86c0.23,2.543 2.48,4.42 5.023,4.19l9.212,-0.832c2.542,-0.23 4.42,-2.48 4.19,-5.022l-22.201,-245.749c-0.23,-2.543 -2.48,-4.42 -5.023,-4.191l-9.212,0.833c-2.542,0.229 -4.42,2.48 -4.19,5.022l22.201,245.749Z"></path>
  <path d="M2090.38,3809.14c0.14,2.549 2.323,4.504 4.872,4.364l9.236,-0.509c2.549,-0.14 4.504,-2.323 4.364,-4.872l-13.57,-246.377c-0.141,-2.548 -2.324,-4.504 -4.873,-4.363l-9.236,0.508c-2.548,0.141 -4.504,2.324 -4.363,4.873l13.57,246.376Z"></path>
  <path d="M2026.88,3811.2c0.051,2.552 2.164,4.583 4.717,4.532l9.248,-0.185c2.552,-0.05 4.582,-2.164 4.532,-4.716l-4.922,-246.701c-0.051,-2.552 -2.165,-4.583 -4.717,-4.532l-9.248,0.185c-2.552,0.051 -4.583,2.164 -4.532,4.716l4.922,246.701Z"></path>
  <path d="M1963.35,3811.03c-0.039,2.552 2.002,4.656 4.554,4.694l9.249,0.14c2.552,0.039 4.656,-2.002 4.694,-4.554l3.733,-246.722c0.038,-2.552 -2.002,-4.656 -4.555,-4.695l-9.249,-0.139c-2.552,-0.039 -4.656,2.002 -4.694,4.554l-3.732,246.722Z"></path>
  <path d="M1899.87,3808.63c-0.128,2.549 1.838,4.723 4.387,4.851l9.238,0.464c2.55,0.128 4.724,-1.837 4.852,-4.387l12.382,-246.439c0.128,-2.549 -1.838,-4.723 -4.388,-4.851l-9.238,-0.464c-2.549,-0.128 -4.723,1.837 -4.851,4.387l-12.382,246.439Z"></path>
  <path d="M1836.51,3804.01c-0.218,2.543 1.67,4.785 4.214,5.002l9.216,0.788c2.543,0.217 4.785,-1.671 5.002,-4.214l21.017,-245.854c0.217,-2.543 -1.671,-4.784 -4.215,-5.002l-9.216,-0.788c-2.543,-0.217 -4.785,1.671 -5.002,4.215l-21.016,245.853Z"></path>
  <path d="M1773.34,3797.16c-0.306,2.534 1.502,4.84 4.036,5.147l9.184,1.11c2.534,0.307 4.84,-1.502 5.146,-4.036l29.625,-244.965c0.307,-2.534 -1.502,-4.84 -4.036,-5.147l-9.183,-1.11c-2.534,-0.307 -4.841,1.502 -5.147,4.036l-29.625,244.965Z"></path>
  <path d="M1710.46,3788.11c-0.395,2.522 1.331,4.891 3.853,5.286l9.138,1.432c2.522,0.395 4.891,-1.332 5.286,-3.854l38.197,-243.775c0.395,-2.522 -1.332,-4.89 -3.854,-5.286l-9.138,-1.431c-2.522,-0.396 -4.89,1.331 -5.285,3.853l-38.197,243.775Z"></path>
  <path d="M1647.93,3776.86c-0.483,2.507 1.159,4.934 3.666,5.417l9.083,1.752c2.506,0.483 4.933,-1.159 5.417,-3.666l46.722,-242.286c0.483,-2.506 -1.16,-4.934 -3.666,-5.417l-9.083,-1.752c-2.506,-0.483 -4.933,1.16 -5.417,3.666l-46.722,242.286Z"></path>
  <path d="M1585.84,3763.42c-0.571,2.488 0.985,4.972 3.473,5.543l9.016,2.069c2.488,0.571 4.971,-0.986 5.542,-3.474l55.19,-240.499c0.571,-2.488 -0.985,-4.971 -3.473,-5.542l-9.016,-2.069c-2.488,-0.571 -4.971,0.986 -5.542,3.474l-55.19,240.498Z"></path>
  <path d="M1524.26,3747.81c-0.658,2.467 0.811,5.003 3.277,5.661l8.938,2.384c2.466,0.658 5.003,-0.811 5.66,-3.277l63.59,-238.416c0.658,-2.466 -0.811,-5.002 -3.277,-5.66l-8.938,-2.384c-2.466,-0.658 -5.003,0.81 -5.66,3.277l-63.59,238.415Z"></path>
  <path d="M1463.26,3730.05c-0.744,2.442 0.634,5.028 3.076,5.772l8.848,2.696c2.442,0.744 5.029,-0.635 5.773,-3.076l71.91,-236.039c0.744,-2.442 -0.634,-5.028 -3.076,-5.772l-8.848,-2.696c-2.442,-0.744 -5.029,0.634 -5.772,3.076l-71.911,236.039Z"></path>
  <path d="M1402.92,3710.16c-0.829,2.414 0.458,5.047 2.872,5.876l8.749,3.005c2.414,0.829 5.047,-0.458 5.876,-2.872l80.144,-233.372c0.829,-2.415 -0.458,-5.048 -2.872,-5.877l-8.748,-3.004c-2.415,-0.829 -5.048,0.458 -5.877,2.872l-80.144,233.372Z"></path>
  <path d="M1343.32,3688.17c-0.913,2.384 0.281,5.06 2.665,5.974l8.637,3.309c2.384,0.913 5.061,-0.281 5.974,-2.664l88.278,-230.418c0.914,-2.384 -0.28,-5.061 -2.664,-5.974l-8.638,-3.309c-2.383,-0.913 -5.06,0.28 -5.973,2.664l-88.279,230.418Z"></path>
  <path d="M1284.52,3664.11c-0.996,2.35 0.103,5.067 2.453,6.063l8.517,3.61c2.35,0.996 5.067,-0.103 6.063,-2.453l96.304,-227.181c0.997,-2.35 -0.103,-5.067 -2.453,-6.063l-8.516,-3.61c-2.35,-0.997 -5.067,0.103 -6.063,2.453l-96.305,227.181Z"></path>
  <path d="M1226.6,3637.99c-1.078,2.314 -0.074,5.067 2.239,6.146l8.385,3.906c2.314,1.078 5.067,0.075 6.145,-2.239l104.212,-223.664c1.078,-2.313 0.075,-5.067 -2.239,-6.145l-8.384,-3.907c-2.314,-1.078 -5.068,-0.075 -6.146,2.239l-104.212,223.664Z"></path>
  <path d="M1169.64,3609.87c-1.159,2.275 -0.253,5.062 2.022,6.221l8.242,4.198c2.275,1.159 5.062,0.252 6.221,-2.022l111.99,-219.872c1.159,-2.274 0.253,-5.062 -2.022,-6.22l-8.242,-4.198c-2.275,-1.159 -5.062,-0.253 -6.22,2.022l-111.991,219.871Z"></path>
  <path d="M1113.7,3579.76c-1.238,2.232 -0.43,5.049 1.802,6.287l8.09,4.485c2.233,1.237 5.05,0.43 6.288,-1.803l119.632,-215.809c1.238,-2.233 0.43,-5.05 -1.803,-6.288l-8.09,-4.484c-2.232,-1.238 -5.049,-0.43 -6.287,1.802l-119.632,215.81Z"></path>
  <path d="M1058.84,3547.7c-1.316,2.187 -0.607,5.031 1.581,6.346l7.928,4.766c2.187,1.315 5.031,0.607 6.346,-1.581l127.127,-211.481c1.315,-2.188 0.607,-5.032 -1.581,-6.347l-7.928,-4.766c-2.188,-1.315 -5.032,-0.606 -6.347,1.581l-127.126,211.482Z"></path>
  <path d="M1005.15,3513.75c-1.391,2.14 -0.782,5.007 1.358,6.398l7.756,5.041c2.14,1.391 5.007,0.782 6.398,-1.358l134.465,-206.893c1.391,-2.14 0.782,-5.007 -1.358,-6.398l-7.756,-5.041c-2.14,-1.391 -5.007,-0.783 -6.398,1.357l-134.465,206.894Z"></path>
  <path d="M952.677,3477.93c-1.465,2.09 -0.958,4.977 1.132,6.442l7.575,5.309c2.09,1.466 4.976,0.958 6.442,-1.132l141.637,-202.051c1.465,-2.09 0.958,-4.976 -1.133,-6.442l-7.574,-5.309c-2.09,-1.466 -4.977,-0.958 -6.442,1.132l-141.637,202.051Z"></path>
  <path d="M901.494,3440.3c-1.538,2.037 -1.132,4.94 0.906,6.478l7.383,5.571c2.038,1.538 4.94,1.132 6.478,-0.905l148.635,-196.96c1.538,-2.037 1.132,-4.94 -0.906,-6.478l-7.383,-5.572c-2.038,-1.537 -4.94,-1.131 -6.478,0.906l-148.635,196.96Z"></path>
  <path d="M851.662,3400.89c-1.608,1.982 -1.304,4.897 0.678,6.506l7.184,5.827c1.982,1.608 4.897,1.304 6.505,-0.678l155.451,-191.626c1.608,-1.983 1.304,-4.898 -0.678,-6.506l-7.184,-5.827c-1.982,-1.608 -4.897,-1.304 -6.505,0.678l-155.451,191.626Z"></path>
  <path d="M803.243,3359.76c-1.677,1.925 -1.476,4.849 0.449,6.525l6.975,6.076c1.925,1.677 4.849,1.475 6.525,-0.449l162.075,-186.057c1.677,-1.925 1.476,-4.849 -0.449,-6.526l-6.975,-6.075c-1.925,-1.677 -4.849,-1.476 -6.525,0.449l-162.075,186.057Z"></path>
  <path d="M756.296,3316.95c-1.744,1.864 -1.645,4.794 0.22,6.537l6.757,6.316c1.865,1.743 4.794,1.645 6.537,-0.22l168.5,-180.259c1.744,-1.865 1.645,-4.794 -0.22,-6.537l-6.757,-6.317c-1.865,-1.743 -4.794,-1.644 -6.537,0.221l-168.5,180.259Z"></path>
  <path d="M710.878,3272.53c-1.807,1.803 -1.811,4.733 -0.009,6.541l6.532,6.55c1.803,1.807 4.733,1.811 6.541,0.008l174.717,-174.239c1.808,-1.802 1.812,-4.733 0.009,-6.541l-6.531,-6.549c-1.803,-1.808 -4.734,-1.812 -6.541,-0.009l-174.718,174.239Z"></path>
  <path d="M667.047,3226.54c-1.87,1.738 -1.976,4.667 -0.238,6.537l6.298,6.774c1.738,1.87 4.666,1.977 6.536,0.239l180.72,-168.006c1.87,-1.738 1.977,-4.666 0.239,-6.536l-6.299,-6.775c-1.738,-1.869 -4.666,-1.976 -6.536,-0.238l-180.72,168.005Z"></path>
  <path d="M624.855,3179.04c-1.929,1.671 -2.139,4.594 -0.467,6.524l6.056,6.991c1.672,1.929 4.595,2.139 6.524,0.467l186.501,-161.564c1.929,-1.672 2.139,-4.595 0.467,-6.524l-6.056,-6.992c-1.672,-1.929 -4.595,-2.138 -6.524,-0.467l-186.501,161.565Z"></path>
  <path d="M584.355,3130.09c-1.987,1.603 -2.299,4.517 -0.696,6.504l5.808,7.2c1.602,1.986 4.516,2.298 6.503,0.695l192.052,-154.925c1.987,-1.602 2.298,-4.516 0.696,-6.503l-5.808,-7.2c-1.603,-1.986 -4.517,-2.298 -6.504,-0.696l-192.051,154.925Z"></path>
  <path d="M545.596,3079.76c-2.042,1.532 -2.456,4.434 -0.924,6.476l5.552,7.398c1.532,2.042 4.434,2.456 6.475,0.924l197.367,-148.095c2.041,-1.532 2.455,-4.434 0.923,-6.475l-5.552,-7.399c-1.532,-2.042 -4.433,-2.456 -6.475,-0.924l-197.366,148.095Z"></path>
  <path d="M508.626,3028.09c-2.094,1.459 -2.609,4.345 -1.15,6.439l5.289,7.589c1.459,2.094 4.345,2.609 6.439,1.15l202.438,-141.083c2.094,-1.46 2.609,-4.345 1.15,-6.439l-5.289,-7.589c-1.459,-2.094 -4.344,-2.609 -6.439,-1.15l-202.438,141.083Z"></path>
  <path d="M473.491,2975.16c-2.144,1.385 -2.76,4.25 -1.375,6.394l5.019,7.77c1.385,2.144 4.251,2.76 6.395,1.375l207.261,-133.897c2.144,-1.385 2.76,-4.25 1.375,-6.394l-5.019,-7.77c-1.386,-2.144 -4.251,-2.76 -6.395,-1.375l-207.261,133.897Z"></path>
  <path d="M440.233,2921.03c-2.191,1.309 -2.907,4.151 -1.598,6.343l4.744,7.941c1.309,2.191 4.151,2.907 6.342,1.598l211.829,-126.546c2.192,-1.309 2.908,-4.151 1.599,-6.343l-4.744,-7.941c-1.309,-2.191 -4.151,-2.907 -6.343,-1.598l-211.829,126.546Z"></path>
  <path d="M408.895,2865.76c-2.236,1.231 -3.052,4.046 -1.82,6.282l4.462,8.103c1.232,2.236 4.047,3.051 6.283,1.82l216.136,-119.041c2.236,-1.231 3.051,-4.046 1.82,-6.282l-4.462,-8.103c-1.232,-2.236 -4.047,-3.051 -6.283,-1.82l-216.136,119.041Z"></path>
  <path d="M379.513,2809.44c-2.278,1.153 -3.191,3.937 -2.039,6.215l4.176,8.254c1.152,2.278 3.937,3.191 6.214,2.039l220.178,-111.388c2.278,-1.152 3.192,-3.937 2.039,-6.214l-4.175,-8.254c-1.153,-2.278 -3.937,-3.192 -6.215,-2.039l-220.178,111.387Z"></path>
  <path d="M352.125,2752.11c-2.317,1.072 -3.328,3.823 -2.256,6.14l3.884,8.395c1.071,2.316 3.822,3.327 6.139,2.256l223.949,-103.599c2.316,-1.071 3.327,-3.822 2.256,-6.139l-3.884,-8.395c-1.072,-2.317 -3.823,-3.328 -6.14,-2.256l-223.948,103.598Z"></path>
  <path d="M326.764,2693.86c-2.353,0.989 -3.46,3.703 -2.47,6.056l3.587,8.526c0.99,2.353 3.704,3.46 6.056,2.47l227.444,-95.681c2.353,-0.99 3.46,-3.704 2.47,-6.057l-3.587,-8.526c-0.99,-2.353 -3.704,-3.459 -6.056,-2.469l-227.444,95.681Z"></path>
  <path d="M303.461,2634.76c-2.386,0.906 -3.587,3.58 -2.681,5.966l3.286,8.647c0.907,2.386 3.58,3.587 5.966,2.68l230.659,-87.646c2.386,-0.907 3.588,-3.58 2.681,-5.966l-3.286,-8.647c-0.906,-2.386 -3.58,-3.587 -5.966,-2.681l-230.659,87.647Z"></path>
  <path d="M282.245,2574.88c-2.417,0.822 -3.711,3.452 -2.888,5.869l2.98,8.756c0.823,2.417 3.452,3.711 5.869,2.888l233.591,-79.503c2.416,-0.823 3.71,-3.453 2.888,-5.869l-2.981,-8.757c-0.822,-2.416 -3.452,-3.71 -5.868,-2.888l-233.591,79.504Z"></path>
  <path d="M263.142,2514.28c-2.444,0.737 -3.829,3.32 -3.092,5.764l2.671,8.856c0.738,2.443 3.32,3.829 5.764,3.092l236.235,-71.264c2.444,-0.737 3.83,-3.32 3.092,-5.763l-2.671,-8.856c-0.737,-2.444 -3.32,-3.83 -5.764,-3.092l-236.235,71.263Z"></path>
  <path d="M246.176,2453.06c-2.469,0.651 -3.944,3.183 -3.293,5.651l2.359,8.944c0.652,2.469 3.184,3.944 5.652,3.293l238.589,-62.936c2.468,-0.651 3.944,-3.183 3.292,-5.651l-2.359,-8.945c-0.651,-2.468 -3.183,-3.943 -5.651,-3.292l-238.589,62.936Z"></path>
  <path d="M231.367,2391.28c-2.49,0.564 -4.053,3.043 -3.489,5.533l2.044,9.021c0.564,2.489 3.043,4.052 5.533,3.488l240.649,-54.53c2.49,-0.564 4.053,-3.043 3.489,-5.533l-2.045,-9.021c-0.564,-2.489 -3.043,-4.052 -5.532,-3.488l-240.649,54.53Z"></path>
  <path d="M218.733,2329.02c-2.508,0.476 -4.157,2.899 -3.68,5.407l1.726,9.087c0.477,2.508 2.9,4.157 5.407,3.681l242.414,-46.058c2.507,-0.477 4.157,-2.899 3.68,-5.407l-1.726,-9.088c-0.477,-2.507 -2.9,-4.156 -5.407,-3.68l-242.414,46.058Z"></path>
  <path d="M208.291,2266.35c-2.523,0.388 -4.256,2.751 -3.868,5.274l1.407,9.143c0.388,2.523 2.752,4.256 5.275,3.868l243.879,-37.529c2.523,-0.388 4.256,-2.752 3.868,-5.275l-1.407,-9.142c-0.388,-2.523 -2.752,-4.256 -5.275,-3.868l-243.879,37.529Z"></path>
  <path d="M200.053,2203.36c-2.535,0.3 -4.35,2.601 -4.051,5.136l1.086,9.186c0.299,2.535 2.6,4.35 5.135,4.05l245.046,-28.953c2.535,-0.299 4.35,-2.601 4.05,-5.135l-1.085,-9.187c-0.3,-2.535 -2.601,-4.349 -5.136,-4.05l-245.045,28.953Z"></path>
  <path d="M194.028,2140.11c-2.544,0.21 -4.438,2.446 -4.228,4.99l0.763,9.219c0.21,2.544 2.447,4.438 4.991,4.228l245.91,-20.343c2.544,-0.21 4.438,-2.446 4.228,-4.99l-0.763,-9.219c-0.21,-2.544 -2.447,-4.438 -4.991,-4.228l-245.91,20.343Z"></path>
  <path d="M190.226,2076.7c-2.55,0.121 -4.522,2.289 -4.401,4.839l0.439,9.239c0.121,2.55 2.29,4.522 4.839,4.401l246.473,-11.707c2.549,-0.121 4.521,-2.289 4.4,-4.839l-0.439,-9.239c-0.121,-2.55 -2.289,-4.522 -4.839,-4.401l-246.472,11.707Z"></path>
  <path d="M188.649,2013.18c-2.552,0.032 -4.599,2.13 -4.567,4.682l0.115,9.249c0.031,2.553 2.129,4.599 4.681,4.568l246.732,-3.056c2.552,-0.032 4.599,-2.13 4.567,-4.682l-0.115,-9.249c-0.031,-2.553 -2.129,-4.599 -4.682,-4.568l-246.731,3.056Z"></path>
  <path d="M189.301,1949.66c-2.552,-0.058 -4.671,1.967 -4.729,4.518l-0.209,9.248c-0.058,2.552 1.966,4.671 4.518,4.729l246.687,5.598c2.552,0.058 4.671,-1.967 4.729,-4.519l0.209,-9.247c0.058,-2.552 -1.966,-4.671 -4.518,-4.729l-246.687,-5.598Z"></path>
  <path d="M192.18,1886.19c-2.548,-0.147 -4.737,1.802 -4.884,4.35l-0.534,9.235c-0.147,2.548 1.802,4.737 4.35,4.884l246.339,14.245c2.548,0.148 4.737,-1.801 4.884,-4.35l0.534,-9.234c0.147,-2.549 -1.802,-4.737 -4.35,-4.885l-246.339,-14.245Z"></path>
  <path d="M197.283,1822.87c-2.542,-0.236 -4.797,1.635 -5.034,4.177l-0.857,9.21c-0.237,2.541 1.634,4.797 4.176,5.034l245.687,22.875c2.542,0.236 4.798,-1.635 5.034,-4.177l0.858,-9.21c0.236,-2.541 -1.635,-4.797 -4.177,-5.034l-245.687,-22.875Z"></path>
  <path d="M204.604,1759.76c-2.532,-0.326 -4.852,1.465 -5.178,3.997l-1.18,9.174c-0.325,2.532 1.466,4.852 3.998,5.177l244.734,31.477c2.531,0.326 4.851,-1.465 5.177,-3.997l1.18,-9.175c0.325,-2.531 -1.466,-4.851 -3.997,-5.177l-244.734,-31.476Z"></path>
  <path d="M214.132,1696.94c-2.518,-0.414 -4.9,1.295 -5.314,3.813l-1.501,9.128c-0.414,2.519 1.295,4.9 3.814,5.314l243.479,40.04c2.519,0.414 4.9,-1.295 5.314,-3.814l1.501,-9.127c0.415,-2.519 -1.294,-4.9 -3.813,-5.314l-243.48,-40.04Z"></path>
  <path d="M225.858,1634.51c-2.502,-0.502 -4.942,1.122 -5.444,3.624l-1.821,9.07c-0.502,2.502 1.122,4.942 3.625,5.444l241.926,48.553c2.503,0.503 4.942,-1.122 5.445,-3.624l1.82,-9.069c0.502,-2.503 -1.122,-4.943 -3.625,-5.445l-241.926,-48.553Z"></path>
  <path d="M239.766,1572.52c-2.483,-0.59 -4.978,0.948 -5.568,3.431l-2.137,9c-0.59,2.484 0.948,4.979 3.431,5.568l240.075,57.007c2.483,0.59 4.978,-0.947 5.568,-3.431l2.137,-9c0.59,-2.483 -0.948,-4.978 -3.431,-5.568l-240.075,-57.007Z"></path>
  <path d="M255.84,1511.05c-2.462,-0.676 -5.009,0.773 -5.685,3.234l-2.452,8.919c-0.676,2.462 0.773,5.009 3.234,5.686l237.928,65.39c2.461,0.677 5.009,-0.772 5.685,-3.234l2.452,-8.919c0.676,-2.461 -0.773,-5.009 -3.234,-5.685l-237.928,-65.391Z"></path>
  <path d="M274.059,1450.19c-2.436,-0.762 -5.033,0.597 -5.795,3.033l-2.763,8.828c-0.762,2.436 0.596,5.033 3.033,5.795l235.488,73.694c2.436,0.762 5.033,-0.596 5.795,-3.033l2.763,-8.827c0.762,-2.436 -0.597,-5.033 -3.033,-5.796l-235.488,-73.694Z"></path>
  <path d="M294.401,1390c-2.408,-0.847 -5.051,0.42 -5.898,2.828l-3.071,8.725c-0.847,2.408 0.42,5.051 2.828,5.898l232.759,81.907c2.408,0.847 5.051,-0.42 5.898,-2.828l3.07,-8.725c0.848,-2.408 -0.419,-5.051 -2.827,-5.898l-232.759,-81.907Z"></path>
  <path d="M316.841,1330.57c-2.377,-0.931 -5.062,0.243 -5.994,2.619l-3.374,8.613c-0.932,2.376 0.242,5.062 2.619,5.993l229.744,90.019c2.376,0.931 5.062,-0.242 5.993,-2.619l3.375,-8.613c0.931,-2.376 -0.243,-5.062 -2.619,-5.993l-229.744,-90.019Z"></path>
  <path d="M341.351,1271.95c-2.342,-1.014 -5.067,0.065 -6.081,2.407l-3.675,8.489c-1.014,2.343 0.065,5.068 2.407,6.082l226.446,98.019c2.343,1.014 5.068,-0.064 6.082,-2.407l3.674,-8.489c1.014,-2.342 -0.064,-5.067 -2.407,-6.081l-226.446,-98.02Z"></path>
  <path d="M367.902,1214.24c-2.305,-1.095 -5.067,-0.113 -6.162,2.193l-3.97,8.354c-1.096,2.306 -0.113,5.067 2.192,6.163l222.87,105.9c2.305,1.096 5.066,0.113 6.162,-2.192l3.97,-8.355c1.095,-2.306 0.113,-5.067 -2.193,-6.163l-222.869,-105.9Z"></path>
  <path d="M396.461,1157.49c-2.266,-1.176 -5.06,-0.291 -6.236,1.975l-4.26,8.21c-1.176,2.266 -0.291,5.06 1.975,6.236l219.018,113.65c2.266,1.176 5.06,0.291 6.236,-1.975l4.26,-8.21c1.176,-2.266 0.291,-5.06 -1.975,-6.235l-219.018,-113.651Z"></path>
  <path d="M426.992,1101.77c-2.223,-1.254 -5.047,-0.468 -6.301,1.755l-4.546,8.056c-1.254,2.223 -0.468,5.047 1.755,6.301l214.899,121.261c2.223,1.255 5.046,0.468 6.3,-1.755l4.546,-8.056c1.255,-2.223 0.468,-5.046 -1.755,-6.301l-214.898,-121.261Z"></path>
  <path d="M459.458,1047.16c-2.178,-1.332 -5.027,-0.645 -6.359,1.533l-4.825,7.892c-1.332,2.177 -0.645,5.027 1.533,6.358l210.514,128.723c2.177,1.331 5.027,0.644 6.358,-1.533l4.826,-7.892c1.331,-2.178 0.644,-5.027 -1.533,-6.358l-210.514,-128.723Z"></path>
  <path d="M493.819,993.728c-2.13,-1.407 -5.001,-0.82 -6.409,1.309l-5.099,7.718c-1.407,2.13 -0.82,5.001 1.309,6.408l205.871,136.026c2.129,1.407 5.001,0.82 6.408,-1.309l5.099,-7.718c1.407,-2.13 0.821,-5.001 -1.309,-6.408l-205.87,-136.026Z"></path>
  <path d="M530.033,941.529c-2.08,-1.481 -4.97,-0.995 -6.451,1.084l-5.367,7.534c-1.481,2.079 -0.995,4.969 1.084,6.45l200.974,143.161c2.079,1.481 4.969,0.996 6.45,-1.083l5.367,-7.534c1.481,-2.079 0.995,-4.97 -1.084,-6.451l-200.973,-143.161Z"></path>
  <path d="M568.055,890.632c-2.026,-1.553 -4.932,-1.169 -6.485,0.857l-5.627,7.341c-1.553,2.026 -1.17,4.931 0.856,6.484l195.83,150.121c2.026,1.553 4.931,1.169 6.484,-0.857l5.628,-7.341c1.553,-2.026 1.169,-4.931 -0.857,-6.484l-195.829,-150.121Z"></path>
  <path d="M607.838,841.1c-1.97,-1.623 -4.887,-1.342 -6.51,0.629l-5.882,7.139c-1.623,1.97 -1.341,4.887 0.629,6.51l190.445,156.896c1.97,1.623 4.887,1.341 6.51,-0.629l5.882,-7.139c1.623,-1.97 1.341,-4.887 -0.629,-6.511l-190.445,-156.895Z"></path>
  <path d="M649.334,792.993c-1.912,-1.691 -4.837,-1.512 -6.529,0.4l-6.128,6.929c-1.691,1.912 -1.512,4.837 0.4,6.528l184.826,163.478c1.912,1.691 4.837,1.512 6.529,-0.4l6.128,-6.929c1.691,-1.912 1.512,-4.837 -0.4,-6.528l-184.826,-163.478Z"></path>
  <path d="M692.491,746.371c-1.851,-1.757 -4.781,-1.681 -6.538,0.171l-6.368,6.709c-1.757,1.852 -1.68,4.782 0.171,6.539l178.98,169.858c1.851,1.757 4.781,1.681 6.538,-0.171l6.368,-6.709c1.757,-1.852 1.68,-4.781 -0.171,-6.539l-178.98,-169.858Z"></path>
  <path d="M737.257,701.291c-1.789,-1.821 -4.719,-1.847 -6.54,-0.059l-6.599,6.483c-1.821,1.788 -1.847,4.719 -0.059,6.54l172.913,176.03c1.789,1.821 4.72,1.848 6.541,0.059l6.599,-6.482c1.821,-1.789 1.847,-4.72 0.058,-6.541l-172.913,-176.03Z"></path>
  <path d="M783.576,657.808c-1.724,-1.882 -4.652,-2.011 -6.534,-0.287l-6.822,6.246c-1.883,1.724 -2.012,4.652 -0.288,6.535l166.633,181.986c1.724,1.882 4.652,2.011 6.535,0.287l6.822,-6.246c1.883,-1.724 2.012,-4.652 0.288,-6.535l-166.634,-181.986Z"></path>
  <path d="M831.392,615.977c-1.657,-1.942 -4.579,-2.173 -6.521,-0.517l-7.037,6.004c-1.942,1.657 -2.173,4.578 -0.516,6.52l160.149,187.717c1.657,1.942 4.578,2.174 6.52,0.517l7.037,-6.003c1.942,-1.657 2.174,-4.579 0.517,-6.521l-160.149,-187.717Z"></path>
  <path d="M880.645,575.848c-1.588,-1.999 -4.5,-2.332 -6.499,-0.745l-7.243,5.753c-1.999,1.588 -2.333,4.5 -0.745,6.498l153.468,193.218c1.588,1.999 4.5,2.333 6.498,0.745l7.244,-5.753c1.998,-1.587 2.332,-4.499 0.745,-6.498l-153.468,-193.218Z"></path>
  <path d="M931.274,537.471c-1.516,-2.053 -4.414,-2.489 -6.468,-0.972l-7.44,5.495c-2.053,1.517 -2.489,4.415 -0.973,6.468l146.598,198.481c1.517,2.053 4.415,2.489 6.468,0.972l7.441,-5.495c2.053,-1.517 2.489,-4.415 0.972,-6.468l-146.598,-198.481Z"></path>
  <path d="M983.219,500.893c-1.444,-2.105 -4.325,-2.642 -6.43,-1.198l-7.629,5.231c-2.105,1.443 -2.642,4.325 -1.198,6.43l139.547,203.499c1.444,2.105 4.325,2.642 6.43,1.199l7.629,-5.231c2.105,-1.444 2.642,-4.325 1.199,-6.43l-139.548,-203.5Z"></path>
  <path d="M1036.41,466.159c-1.369,-2.154 -4.229,-2.792 -6.384,-1.423l-7.807,4.96c-2.155,1.369 -2.793,4.23 -1.424,6.384l132.326,208.268c1.369,2.155 4.229,2.793 6.384,1.424l7.807,-4.961c2.155,-1.369 2.793,-4.229 1.424,-6.384l-132.326,-208.268Z"></path>
  <path d="M1090.8,433.312c-1.293,-2.201 -4.129,-2.939 -6.33,-1.646l-7.977,4.683c-2.201,1.293 -2.939,4.129 -1.646,6.331l124.94,212.78c1.293,2.201 4.129,2.939 6.33,1.646l7.977,-4.684c2.201,-1.292 2.939,-4.129 1.646,-6.33l-124.94,-212.78Z"></path>
  <path d="M1146.29,402.392c-1.215,-2.245 -4.024,-3.082 -6.269,-1.867l-8.136,4.401c-2.245,1.214 -3.082,4.023 -1.867,6.268l117.402,217.031c1.215,2.245 4.023,3.082 6.269,1.867l8.136,-4.401c2.245,-1.214 3.081,-4.023 1.867,-6.268l-117.402,-217.031Z"></path>
  <path d="M1202.84,373.438c-1.135,-2.287 -3.913,-3.222 -6.199,-2.087l-8.286,4.114c-2.286,1.135 -3.221,3.912 -2.086,6.199l109.72,221.014c1.135,2.286 3.912,3.221 6.199,2.086l8.285,-4.113c2.286,-1.135 3.221,-3.913 2.086,-6.199l-109.719,-221.014Z"></path>
  <path d="M1260.37,346.484c-1.055,-2.325 -3.798,-3.357 -6.123,-2.302l-8.424,3.82c-2.325,1.054 -3.356,3.797 -2.302,6.122l101.901,224.725c1.054,2.325 3.798,3.357 6.122,2.303l8.425,-3.82c2.325,-1.055 3.356,-3.798 2.302,-6.123l-101.901,-224.725Z"></path>
  <path d="M1318.81,321.564c-0.972,-2.36 -3.677,-3.488 -6.038,-2.516l-8.553,3.523c-2.36,0.972 -3.487,3.677 -2.515,6.037l93.958,228.161c0.972,2.361 3.677,3.488 6.038,2.516l8.553,-3.523c2.36,-0.972 3.487,-3.677 2.515,-6.037l-93.958,-228.161Z"></path>
  <path d="M1378.09,298.709c-0.889,-2.393 -3.553,-3.615 -5.946,-2.726l-8.672,3.22c-2.393,0.889 -3.614,3.553 -2.725,5.946l85.899,231.315c0.889,2.393 3.553,3.615 5.946,2.726l8.671,-3.22c2.393,-0.889 3.615,-3.553 2.726,-5.946l-85.899,-231.315Z"></path>
  <path d="M1438.13,277.946c-0.804,-2.422 -3.424,-3.736 -5.847,-2.932l-8.779,2.914c-2.422,0.804 -3.736,3.424 -2.932,5.846l77.735,234.186c0.804,2.422 3.424,3.736 5.846,2.932l8.779,-2.914c2.423,-0.804 3.737,-3.424 2.933,-5.846l-77.735,-234.186Z"></path>
  <path d="M1498.87,259.302c-0.719,-2.449 -3.291,-3.854 -5.74,-3.136l-8.876,2.605c-2.45,0.719 -3.855,3.291 -3.136,5.74l69.475,236.767c0.719,2.45 3.291,3.855 5.74,3.136l8.876,-2.604c2.449,-0.719 3.854,-3.291 3.135,-5.741l-69.474,-236.767Z"></path>
  <path d="M1560.22,242.799c-0.633,-2.473 -3.154,-3.967 -5.627,-3.335l-8.962,2.292c-2.473,0.632 -3.967,3.153 -3.335,5.626l61.13,239.058c0.632,2.473 3.153,3.968 5.626,3.335l8.962,-2.291c2.473,-0.632 3.967,-3.154 3.335,-5.627l-61.129,-239.058Z"></path>
  <path d="M1622.11,228.458c-0.545,-2.494 -3.013,-4.076 -5.506,-3.53l-9.037,1.975c-2.494,0.546 -4.075,3.013 -3.53,5.507l52.708,241.054c0.546,2.494 3.013,4.076 5.507,3.531l9.036,-1.976c2.494,-0.546 4.076,-3.013 3.53,-5.506l-52.708,-241.055Z"></path>
  <path d="M1684.46,216.296c-0.458,-2.512 -2.868,-4.179 -5.379,-3.722l-9.101,1.658c-2.511,0.458 -4.178,2.868 -3.721,5.379l44.223,242.755c0.458,2.511 2.868,4.179 5.379,3.721l9.1,-1.658c2.512,-0.457 4.179,-2.867 3.722,-5.379l-44.223,-242.754Z"></path>
  <path d="M1747.21,206.328c-0.369,-2.526 -2.72,-4.277 -5.245,-3.908l-9.153,1.338c-2.526,0.369 -4.277,2.719 -3.908,5.245l35.683,244.156c0.369,2.526 2.72,4.277 5.245,3.908l9.153,-1.338c2.526,-0.369 4.277,-2.719 3.908,-5.245l-35.683,-244.156Z"></path>
  <path d="M1810.26,198.566c-0.281,-2.537 -2.568,-4.369 -5.105,-4.089l-9.194,1.016c-2.537,0.28 -4.37,2.568 -4.089,5.105l27.099,245.257c0.28,2.537 2.568,4.37 5.105,4.089l9.194,-1.016c2.537,-0.28 4.369,-2.567 4.089,-5.105l-27.099,-245.257Z"></path>
  <path d="M1873.55,193.02c-0.191,-2.545 -2.413,-4.456 -4.958,-4.265l-9.224,0.693c-2.546,0.191 -4.457,2.413 -4.266,4.958l18.482,246.057c0.191,2.545 2.413,4.457 4.958,4.265l9.224,-0.692c2.546,-0.192 4.457,-2.413 4.266,-4.959l-18.482,-246.057Z"></path>
  <path d="M1936.99,189.697c-0.102,-2.55 -2.255,-4.538 -4.806,-4.436l-9.242,0.369c-2.551,0.101 -4.539,2.255 -4.437,4.805l9.842,246.554c0.102,2.551 2.255,4.539 4.806,4.437l9.242,-0.369c2.551,-0.102 4.539,-2.255 4.437,-4.806l-9.842,-246.554Z"></path>
  <path d="M2000,3166.67c644.333,0 1166.67,-522.335 1166.67,-1166.67c0,-643.902 -522.766,-1166.67 -1166.67,-1166.67c-644.333,-0 -1166.67,522.335 -1166.67,1166.67l46.782,0c0,-618.496 501.39,-1119.89 1119.89,-1119.89c618.082,0 1119.89,501.804 1119.89,1119.89c-0,618.496 -501.39,1119.89 -1119.89,1119.89l0,46.782Z"></path>
  <path d="M668.332,2000c-0,735.46 596.208,1331.67 1331.67,1331.67c734.968,0 1331.67,-596.7 1331.67,-1331.67c0,-735.46 -596.208,-1331.67 -1331.67,-1331.67l-0,53.399c705.969,-0 1278.27,572.3 1278.27,1278.27c0,705.496 -572.773,1278.27 -1278.27,1278.27c-705.969,0 -1278.27,-572.3 -1278.27,-1278.27l-53.399,0Z"></path>
</svg>