<?xml version='1.0' encoding='utf-8'?>
<svg xmlns="http://www.w3.org/2000/svg" width="100%" height="100%" viewBox="0 0 4000 4000" version="1.1" style="fill-rule:evenodd;clip-rule:evenodd;stroke-linecap:round;stroke-linejoin:round;stroke-miterlimit:1.5;fill:#E0E0DF;fill-opacity:0.4;stroke-width:2.33px;">
<path d="M2743,2000c0,-197.056 -78.28,-386.041 -217.62,-525.38l-131.345,131.345c104.505,104.504 163.215,246.243 163.215,394.035l185.75,0Z" style="stroke:#CFCFCD;stroke-width:2.33px;"/>
<path d="M3103,2000c0,-292.534 -116.209,-573.086 -323.061,-779.939l-194.985,194.985c155.14,155.139 242.296,365.554 242.296,584.954l275.75,-0Z" style="stroke:#CFCFCD;stroke-width:2.33px;"/>
<path d="M2000,3103c292.534,-0 573.086,-116.209 779.939,-323.061l-194.985,-194.985c-155.139,155.14 -365.554,242.296 -584.954,242.296l-0,275.75Z" style="stroke:#CFCFCD;stroke-width:2.33px;"/>
<path d="M897,2000c0,292.534 116.209,573.086 323.061,779.939l194.985,-194.985c-155.14,-155.139 -242.296,-365.554 -242.296,-584.954l-275.75,-0Z" style="stroke:#CFCFCD;stroke-width:2.33px;"/>
<path d="M2000,897c-292.534,-0 -573.086,116.209 -779.939,323.061l194.985,194.985c155.139,-155.14 365.554,-242.296 584.954,-242.296l0,-275.75Z" style="stroke:#CFCFCD;stroke-width:2.33px;"/>
<path d="M2371.5,1356.54c-170.655,-98.528 -373.461,-125.228 -563.803,-74.226l48.076,179.421c142.756,-38.252 294.86,-18.227 422.852,55.669l92.875,-160.864Z" style="stroke:#CFCFCD;stroke-width:2.33px;"/>
<path d="M1628.5,1356.54c-170.655,98.528 -295.181,260.813 -346.183,451.154l179.421,48.076c38.251,-142.756 131.645,-264.47 259.637,-338.366l-92.875,-160.864Z" style="stroke:#CFCFCD;stroke-width:2.33px;"/>
<path d="M1356.54,2371.5c98.528,170.655 260.813,295.181 451.154,346.183l48.076,-179.421c-142.756,-38.251 -264.47,-131.645 -338.366,-259.637l-160.864,92.875Z" style="stroke:#CFCFCD;stroke-width:2.33px;"/>
<path d="M2371.5,2643.46c43.759,-25.265 84.828,-54.927 122.567,-88.527l-123.517,-138.733c-28.304,25.2 -59.105,47.447 -91.925,66.396l92.875,160.864Z" style="stroke:#CFCFCD;stroke-width:2.33px;"/>
<path d="M2532.43,2518.23c35.243,-36.209 66.701,-75.919 93.884,-118.513l-156.579,-99.93c-20.388,31.946 -43.981,61.728 -70.413,88.885l133.108,129.558Z" style="stroke:#CFCFCD;stroke-width:2.33px;"/>
<path d="M2653.26,2353.97c24.073,-44.427 43.551,-91.193 58.132,-139.572l-177.849,-53.601c-10.935,36.285 -25.544,71.36 -43.598,104.679l163.315,88.494Z" style="stroke:#CFCFCD;stroke-width:2.33px;"/>
<path d="M2000,3220c673.787,0 1220,-546.213 1220,-1220c0,-323.564 -128.535,-633.876 -357.33,-862.67l-26.946,26.946c221.647,221.648 346.168,522.267 346.168,835.724c-0,652.741 -529.151,1181.89 -1181.89,1181.89l-0,38.108Z" style="stroke:#CFCFCD;stroke-width:2.33px;"/><path d="M2005.92,780.014c-673.779,-3.269 -1222.64,540.286 -1225.91,1214.07c-1.57,323.56 125.458,634.492 353.14,864.394l27.077,-26.816c-220.57,-222.72 -343.63,-523.94 -342.109,-837.393c3.168,-652.733 534.88,-1179.31 1187.61,-1176.14l0.185,-38.108Z" style="stroke:#CFCFCD;stroke-width:2.33px;"/>
<path d="M2717.68,1282.32c-190.341,-190.341 -448.5,-297.274 -717.683,-297.274l-0,17.971c264.417,-0 518.005,105.039 704.976,292.01l12.707,-12.707Z" style="stroke:#CFCFCD;stroke-width:2.33px;"/>
<path d="M1282.32,1282.32c-190.341,190.341 -297.274,448.5 -297.274,717.683l17.971,0c-0,-264.417 105.039,-518.005 292.01,-704.976l-12.707,-12.707Z" style="stroke:#CFCFCD;stroke-width:2.33px;"/>
<path d="M1078.88,3012.78c237.493,217.388 543.83,344.401 865.47,358.84l17.449,-388.702c-230.491,-10.347 -450.015,-101.366 -620.206,-257.149l-262.713,287.011Z" style="stroke:#CFCFCD;stroke-width:2.33px;"/>
<path d="M3018.7,2927.04c217.389,-237.494 344.401,-543.83 358.84,-865.47l-388.702,-17.449c-10.347,230.49 -101.365,450.015 -257.148,620.205l287.01,262.714Z" style="stroke:#CFCFCD;stroke-width:2.33px;"/>
<path d="M2000,452c854.364,0 1548,693.636 1548,1548c0,854.364 -693.636,1548 -1548,1548c-854.364,0 -1548,-693.636 -1548,-1548c0,-854.364 693.636,-1548 1548,-1548Zm0,66.284c817.781,0 1481.72,663.935 1481.72,1481.72c-0,817.781 -663.935,1481.72 -1481.72,1481.72c-817.781,-0 -1481.72,-663.935 -1481.72,-1481.72c0,-817.781 663.935,-1481.72 1481.72,-1481.72Z" style="stroke:#CFCFCD;stroke-width:2.33px;"/>
<path d="M2000,3731c956.005,0 1731,-774.995 1731,-1731c0,-459.09 -182.373,-899.376 -506.998,-1224l-52.411,52.411c310.725,310.725 485.289,732.159 485.289,1171.59c-0,915.07 -741.81,1656.88 -1656.88,1656.88l-0,74.12Z" style="stroke:#CFCFCD;stroke-width:2.33px;"/><path d="M1551.98,327.982c-923.43,247.433 -1471.43,1196.6 -1224,2120.03c118.822,443.446 408.935,821.529 806.518,1051.07l37.06,-64.19c-380.559,-219.716 -658.25,-581.609 -771.983,-1006.07c-236.838,-883.889 287.702,-1792.42 1171.59,-2029.26l-19.184,-71.595Z" style="stroke:#CFCFCD;stroke-width:2.33px;"/>
<path d="M3846.02,1505.36c-273.182,-1019.53 -1321.13,-1624.56 -2340.66,-1351.38c-489.594,131.187 -907.022,451.491 -1160.45,890.449l70.87,40.917c242.581,-420.163 642.135,-726.751 1110.77,-852.321c975.872,-261.484 1978.95,317.642 2240.43,1293.51l79.045,-21.18Z" style="stroke:#CFCFCD;stroke-width:2.33px;"/>
<path d="M135.107,2499.7c275.975,1029.95 1334.64,1641.17 2364.59,1365.2c494.6,-132.527 916.297,-456.107 1172.32,-899.553l-71.595,-41.335c-245.061,424.458 -648.701,734.182 -1122.12,861.035c-985.85,264.158 -1999.18,-320.89 -2263.34,-1306.74l-79.853,21.397Z" style="stroke:#CFCFCD;stroke-width:2.33px;"/>
<path d="M2945.33,986.415c-13.311,-12.414 -26.864,-24.565 -40.654,-36.445l-202.295,234.799c10.706,9.223 21.229,18.657 31.563,28.295l211.386,-226.649Zm-61.643,-54.17c-14.022,-11.605 -28.272,-22.932 -42.74,-33.976l-188.044,246.36c11.232,8.574 22.295,17.369 33.182,26.378l197.602,-238.762Zm-64.742,-50.427c-14.684,-10.755 -29.579,-21.219 -44.675,-31.387l-173.135,257.057c11.721,7.894 23.285,16.019 34.685,24.368l183.125,-250.038Zm-67.612,-46.507c-15.295,-9.867 -30.783,-19.431 -46.455,-28.688l-157.618,266.853c12.168,7.187 24.192,14.612 36.067,22.273l168.006,-260.438Zm-70.246,-42.424c-15.853,-8.944 -31.879,-17.575 -48.071,-25.888l-141.549,275.713c12.571,6.454 25.014,13.155 37.322,20.099l152.298,-269.924Zm-72.634,-38.193c-16.354,-7.99 -32.863,-15.657 -49.519,-22.997l-124.983,283.607c12.931,5.699 25.749,11.652 38.445,17.855l136.057,-278.465Zm-74.767,-33.826c-16.798,-7.009 -33.732,-13.686 -50.793,-20.027l-107.98,290.507c13.246,4.923 26.394,10.107 39.435,15.548l119.338,-286.028Zm-76.638,-29.343c-17.183,-6.002 -34.483,-11.665 -51.889,-16.985l-90.597,296.388c13.514,4.131 26.945,8.527 40.286,13.187l102.2,-292.59Zm-78.24,-24.755c-17.508,-4.975 -35.113,-9.604 -52.803,-13.885l-72.898,301.23c13.735,3.324 27.403,6.918 40.996,10.78l84.705,-298.125Zm-79.568,-20.082c-17.772,-3.93 -35.62,-7.509 -53.533,-10.736l-54.942,305.017c13.908,2.505 27.764,5.284 41.562,8.335l66.913,-302.616Zm-80.617,-15.338c-17.973,-2.871 -36.002,-5.387 -54.074,-7.548l-36.794,307.734c14.031,1.677 28.028,3.631 41.982,5.86l48.886,-306.046Zm-81.383,-10.539c-18.112,-1.802 -36.258,-3.247 -54.426,-4.335l-18.518,309.372c14.106,0.844 28.194,1.966 42.256,3.366l30.688,-308.403Z" style="stroke:#CFCFCD;stroke-width:2.33px;"/>
<path d="M2376.5,2000c0,-99.854 -39.667,-195.618 -110.274,-266.226l-133.113,133.113c35.304,35.304 55.137,83.186 55.137,133.113l188.25,0Z" style="stroke:#CFCFCD;stroke-width:2.33px;"/>
<path d="M2188.25,2326.06c86.476,-49.927 149.577,-132.162 175.421,-228.614l-181.835,-48.722c-12.923,48.225 -44.473,89.343 -87.711,114.306l94.125,163.03Z" style="stroke:#CFCFCD;stroke-width:2.33px;"/>
<path d="M1811.75,2326.06c86.476,49.927 189.244,63.456 285.695,37.612l-48.722,-181.835c-48.226,12.922 -99.61,6.157 -142.848,-18.807l-94.125,163.03Z" style="stroke:#CFCFCD;stroke-width:2.33px;"/>
<path d="M1623.5,2000c0,99.854 39.667,195.618 110.274,266.226l133.113,-133.113c-35.304,-35.304 -55.137,-83.186 -55.137,-133.113l-188.25,-0Z" style="stroke:#CFCFCD;stroke-width:2.33px;"/>
<path d="M1811.75,1673.94c-86.476,49.927 -149.577,132.162 -175.421,228.614l181.835,48.722c12.923,-48.225 44.473,-89.343 87.711,-114.306l-94.125,-163.03Z" style="stroke:#CFCFCD;stroke-width:2.33px;"/>
<path d="M2188.25,1673.94c-86.476,-49.927 -189.244,-63.456 -285.695,-37.612l48.722,181.835c48.226,-12.922 99.61,-6.157 142.848,18.807l94.125,-163.03Z" style="stroke:#CFCFCD;stroke-width:2.33px;"/>
<path d="M729.708,644.764c-20.27,19 -40.113,38.453 -59.511,58.343l104.928,102.331c17.867,-18.321 36.144,-36.239 54.815,-53.74l-100.232,-106.934Z" style="stroke:#CFCFCD;stroke-width:2.33px;"/>
<path d="M3637.83,1123.75c-13.106,-24.498 -26.76,-48.699 -40.953,-72.584l-126.001,74.867c13.073,22 25.65,44.292 37.722,66.856l129.232,-69.139Z" style="stroke:#CFCFCD;stroke-width:2.33px;"/>
<path d="M2422.49,3808.82c27.056,-6.319 53.966,-13.245 80.711,-20.772l-39.705,-141.084c-24.634,6.932 -49.421,13.311 -74.342,19.132l33.336,142.724Z" style="stroke:#CFCFCD;stroke-width:2.33px;"/>
<path d="M362.166,2876.25c13.107,24.498 26.761,48.699 40.953,72.584l126.002,-74.867c-13.073,-22 -25.65,-44.292 -37.722,-66.856l-129.233,69.139Z" style="stroke:#CFCFCD;stroke-width:2.33px;"/>
<path d="M644.764,3270.29c19,20.271 38.453,40.114 58.343,59.512l102.331,-104.928c-18.321,-17.867 -36.239,-36.144 -53.74,-54.815l-106.934,100.231Z" style="stroke:#CFCFCD;stroke-width:2.33px;"/></svg>