<?xml version="1.0" encoding="UTF-8"?>
<!DOCTYPE svg PUBLIC "-//W3C//DTD SVG 1.1//EN" "http://www.w3.org/Graphics/SVG/1.1/DTD/svg11.dtd">
<svg xmlns="http://www.w3.org/2000/svg" version="1.1" width="290px" height="48px" style="shape-rendering:geometricPrecision; text-rendering:geometricPrecision; image-rendering:optimizeQuality; fill-rule:evenodd; clip-rule:evenodd" xmlns:xlink="http://www.w3.org/1999/xlink">
<g><path style="opacity:1" fill="#565555" d="M 4.5,0.5 C 4.5,0.166667 4.5,-0.166667 4.5,-0.5C 64.8333,-0.5 125.167,-0.5 185.5,-0.5C 188.939,4.05896 192.606,8.39229 196.5,12.5C 193.923,12.5449 191.923,11.5449 190.5,9.5C 189.569,5.57133 187.236,2.90467 183.5,1.5C 124.002,0.500943 64.3357,0.16761 4.5,0.5 Z"/></g>
<g><path style="opacity:1" fill="#908f8e" d="M 3.5,0.5 C 3.83333,0.5 4.16667,0.5 4.5,0.5C 64.3357,0.16761 124.002,0.500943 183.5,1.5C 123.664,1.16761 63.9977,1.50094 4.5,2.5C 3.83333,2.5 3.16667,2.5 2.5,2.5C 2.83333,1.83333 3.16667,1.16667 3.5,0.5 Z"/></g>
<g><path style="opacity:1" fill="#fcfcfb" d="M 183.5,1.5 C 185.87,4.19863 188.203,6.8653 190.5,9.5C 190.624,11.5816 191.624,13.0816 193.5,14C 224.056,13.8521 254.389,14.6854 284.5,16.5C 254.003,17.6639 223.336,17.8306 192.5,17C 183.713,16.9136 175.046,16.0802 166.5,14.5C 150.658,14.1704 134.991,14.5037 119.5,15.5C 118.391,15.5569 117.391,15.8902 116.5,16.5C 78.1667,16.5 39.8333,16.5 1.5,16.5C 1.3347,12.8183 1.50137,9.15159 2,5.5C 3.04499,4.62656 3.87833,3.62656 4.5,2.5C 63.9977,1.50094 123.664,1.16761 183.5,1.5 Z"/></g>
<g><path style="opacity:1" fill="#b7b5b4" d="M 183.5,1.5 C 187.236,2.90467 189.569,5.57133 190.5,9.5C 188.203,6.8653 185.87,4.19863 183.5,1.5 Z"/></g>
<g><path style="opacity:0.973" fill="#6b6969" d="M 3.5,0.5 C 3.16667,1.16667 2.83333,1.83333 2.5,2.5C 1.48837,3.87165 0.488369,5.20498 -0.5,6.5C -0.5,5.5 -0.5,4.5 -0.5,3.5C 0.236209,1.77055 1.56954,0.770553 3.5,0.5 Z"/></g>
<g><path style="opacity:0.031" fill="#575455" d="M 282.5,12.5 C 285.285,11.9162 286.952,12.9162 287.5,15.5C 287.167,15.5 286.833,15.5 286.5,15.5C 285.128,14.4884 283.795,13.4884 282.5,12.5 Z"/></g>
<g><path style="opacity:1" fill="#cecdcd" d="M 190.5,9.5 C 191.923,11.5449 193.923,12.5449 196.5,12.5C 225.167,12.5 253.833,12.5 282.5,12.5C 283.795,13.4884 285.128,14.4884 286.5,15.5C 286.5,16.1667 286.5,16.8333 286.5,17.5C 285.833,17.1667 285.167,16.8333 284.5,16.5C 254.389,14.6854 224.056,13.8521 193.5,14C 191.624,13.0816 190.624,11.5816 190.5,9.5 Z"/></g>
<g><path style="opacity:1" fill="#a5a6a5" d="M 166.5,14.5 C 166.5,14.8333 166.5,15.1667 166.5,15.5C 168.098,17.6979 169.431,20.0313 170.5,22.5C 170.167,22.5 169.833,22.5 169.5,22.5C 168.521,20.8546 167.188,19.5213 165.5,18.5C 150.845,17.3338 136.178,17.1672 121.5,18C 119.804,19.1764 118.138,20.343 116.5,21.5C 116.615,19.0532 117.615,17.0532 119.5,15.5C 134.991,14.5037 150.658,14.1704 166.5,14.5 Z"/></g>
<g><path style="opacity:1" fill="#f5f7f7" d="M 166.5,15.5 C 166.5,15.1667 166.5,14.8333 166.5,14.5C 175.046,16.0802 183.713,16.9136 192.5,17C 223.336,17.8306 254.003,17.6639 284.5,16.5C 285.167,16.8333 285.833,17.1667 286.5,17.5C 286.5,19.1667 286.5,20.8333 286.5,22.5C 249.167,21.8333 211.833,21.1667 174.5,20.5C 171.798,18.779 169.131,17.1124 166.5,15.5 Z"/></g>
<g><path style="opacity:1" fill="#555556" d="M 287.5,15.5 C 288.167,15.8333 288.833,16.1667 289.5,16.5C 289.5,26.8333 289.5,37.1667 289.5,47.5C 289.167,47.5 288.833,47.5 288.5,47.5C 288.787,36.7819 288.454,26.1152 287.5,15.5 Z"/></g>
<g><path style="opacity:0" fill="#b6b9bc" d="M 2.5,2.5 C 3.16667,2.5 3.83333,2.5 4.5,2.5C 3.87833,3.62656 3.04499,4.62656 2,5.5C 1.50137,9.15159 1.3347,12.8183 1.5,16.5C 1.5,18.1667 1.5,19.8333 1.5,21.5C 1.5,22.8333 1.5,24.1667 1.5,25.5C 1.5,27.8333 1.5,30.1667 1.5,32.5C 1.5,33.5 1.5,34.5 1.5,35.5C 1.5,36.5 1.5,37.5 1.5,38.5C 1.5,39.8333 1.5,41.1667 1.5,42.5C 48.6619,43.8333 96.1619,44.4999 144,44.5C 191.668,44.5 239.168,44.1667 286.5,43.5C 286.5,41.8333 286.5,40.1667 286.5,38.5C 286.5,37.5 286.5,36.5 286.5,35.5C 286.5,34.5 286.5,33.5 286.5,32.5C 286.5,30.8333 286.5,29.1667 286.5,27.5C 286.5,25.8333 286.5,24.1667 286.5,22.5C 286.5,20.8333 286.5,19.1667 286.5,17.5C 286.5,16.8333 286.5,16.1667 286.5,15.5C 286.833,15.5 287.167,15.5 287.5,15.5C 288.454,26.1152 288.787,36.7819 288.5,47.5C 287.833,47.5 287.167,47.5 286.5,47.5C 239.338,46.1667 191.838,45.5001 144,45.5C 96.1619,45.5001 48.6619,46.1667 1.5,47.5C 0.833333,47.5 0.166667,47.5 -0.5,47.5C -0.5,33.8333 -0.5,20.1667 -0.5,6.5C 0.488369,5.20498 1.48837,3.87165 2.5,2.5 Z M 169.5,22.5 C 170.403,26.7572 168.736,29.2572 164.5,30C 149.837,30.4999 135.17,30.6666 120.5,30.5C 116.991,28.6209 115.658,25.6209 116.5,21.5C 118.138,20.343 119.804,19.1764 121.5,18C 136.178,17.1672 150.845,17.3338 165.5,18.5C 167.188,19.5213 168.521,20.8546 169.5,22.5 Z"/></g>
<g><path style="opacity:1" fill="#ced3d7" d="M 1.5,42.5 C 96.4592,43.4951 191.459,43.8285 286.5,43.5C 239.168,44.1667 191.668,44.5 144,44.5C 96.1619,44.4999 48.6619,43.8333 1.5,42.5 Z"/></g>
<g><path style="opacity:1" fill="#d9dde2" d="M 1.5,38.5 C 96.5,38.5 191.5,38.5 286.5,38.5C 286.5,40.1667 286.5,41.8333 286.5,43.5C 191.459,43.8285 96.4592,43.4951 1.5,42.5C 1.5,41.1667 1.5,39.8333 1.5,38.5 Z"/></g>
<g><path style="opacity:1" fill="#dee1e4" d="M 1.5,35.5 C 96.5,35.5 191.5,35.5 286.5,35.5C 286.5,36.5 286.5,37.5 286.5,38.5C 191.5,38.5 96.5,38.5 1.5,38.5C 1.5,37.5 1.5,36.5 1.5,35.5 Z"/></g>
<g><path style="opacity:1" fill="#e2e6e9" d="M 1.5,32.5 C 48.815,31.9947 95.9817,32.6614 143,34.5C 190.745,32.6656 238.578,31.9989 286.5,32.5C 286.5,33.5 286.5,34.5 286.5,35.5C 191.5,35.5 96.5,35.5 1.5,35.5C 1.5,34.5 1.5,33.5 1.5,32.5 Z"/></g>
<g><path style="opacity:1" fill="#8b8a8a" d="M 169.5,22.5 C 169.833,22.5 170.167,22.5 170.5,22.5C 171.613,23.9464 171.78,25.6131 171,27.5C 169.955,28.3734 169.122,29.3734 168.5,30.5C 152.372,31.8099 136.372,31.8099 120.5,30.5C 135.17,30.6666 149.837,30.4999 164.5,30C 168.736,29.2572 170.403,26.7572 169.5,22.5 Z"/></g>
<g><path style="opacity:0.757" fill="#929090" d="M 116.5,21.5 C 115.658,25.6209 116.991,28.6209 120.5,30.5C 119.833,30.5 119.167,30.5 118.5,30.5C 117.5,29.8333 116.5,29.1667 115.5,28.5C 115.198,25.9407 115.532,23.6074 116.5,21.5 Z"/></g>
<g><path style="opacity:1" fill="#e7ebed" d="M 112.5,22.5 C 112.025,25.3126 113.025,27.3126 115.5,28.5C 116.5,29.1667 117.5,29.8333 118.5,30.5C 118.611,31.1174 118.944,31.6174 119.5,32C 127.667,32.1667 135.833,32.3333 144,32.5C 152.528,32.4979 160.695,31.8312 168.5,30.5C 170.5,29.5 172.5,28.5 174.5,27.5C 211.695,28.5845 249.029,28.5845 286.5,27.5C 286.5,29.1667 286.5,30.8333 286.5,32.5C 238.578,31.9989 190.745,32.6656 143,34.5C 95.9817,32.6614 48.815,31.9947 1.5,32.5C 1.5,30.1667 1.5,27.8333 1.5,25.5C 37.9043,25.214 74.4043,25.5474 111,26.5C 111.21,24.9419 111.71,23.6085 112.5,22.5 Z"/></g>
<g><path style="opacity:1" fill="#d5d5d5" d="M 118.5,30.5 C 119.167,30.5 119.833,30.5 120.5,30.5C 136.372,31.8099 152.372,31.8099 168.5,30.5C 160.695,31.8312 152.528,32.4979 144,32.5C 135.833,32.3333 127.667,32.1667 119.5,32C 118.944,31.6174 118.611,31.1174 118.5,30.5 Z"/></g>
<g><path style="opacity:1" fill="#d2d2d3" d="M 166.5,15.5 C 169.131,17.1124 171.798,18.779 174.5,20.5C 174.5,22.8333 174.5,25.1667 174.5,27.5C 172.5,28.5 170.5,29.5 168.5,30.5C 169.122,29.3734 169.955,28.3734 171,27.5C 171.78,25.6131 171.613,23.9464 170.5,22.5C 169.431,20.0313 168.098,17.6979 166.5,15.5 Z"/></g>
<g><path style="opacity:1" fill="#eff1f3" d="M 174.5,20.5 C 211.833,21.1667 249.167,21.8333 286.5,22.5C 286.5,24.1667 286.5,25.8333 286.5,27.5C 249.029,28.5845 211.695,28.5845 174.5,27.5C 174.5,25.1667 174.5,22.8333 174.5,20.5 Z"/></g>
<g><path style="opacity:1" fill="#cfcfd0" d="M 119.5,15.5 C 117.615,17.0532 116.615,19.0532 116.5,21.5C 115.532,23.6074 115.198,25.9407 115.5,28.5C 113.025,27.3126 112.025,25.3126 112.5,22.5C 112.5,21.8333 112.5,21.1667 112.5,20.5C 114.167,19.5 115.5,18.1667 116.5,16.5C 117.391,15.8902 118.391,15.5569 119.5,15.5 Z"/></g>
<g><path style="opacity:1" fill="#f1f2f4" d="M 112.5,20.5 C 112.5,21.1667 112.5,21.8333 112.5,22.5C 111.71,23.6085 111.21,24.9419 111,26.5C 74.4043,25.5474 37.9043,25.214 1.5,25.5C 1.5,24.1667 1.5,22.8333 1.5,21.5C 38.5728,21.8266 75.5728,21.4933 112.5,20.5 Z"/></g>
<g><path style="opacity:1" fill="#f5f7f8" d="M 1.5,16.5 C 39.8333,16.5 78.1667,16.5 116.5,16.5C 115.5,18.1667 114.167,19.5 112.5,20.5C 75.5728,21.4933 38.5728,21.8266 1.5,21.5C 1.5,19.8333 1.5,18.1667 1.5,16.5 Z"/></g>
<g><path style="opacity:1" fill="#cfd2d3" d="M 286.5,47.5 C 191.5,47.5 96.5,47.5 1.5,47.5C 48.6619,46.1667 96.1619,45.5001 144,45.5C 191.838,45.5001 239.338,46.1667 286.5,47.5 Z"/></g>
</svg>
