<svg version="1.1" viewBox="0 0 289 48" xmlns="http://www.w3.org/2000/svg" xmlns:bx="https://boxy-svg.com">
  <defs>
    <linearGradient id="Gradient1" x1="0" x2="0" y1="0" y2="1">
      <stop offset="0" stop-color="#FFFFFE"></stop>
      <stop offset="0.7" stop-color="#E2E6E9"></stop>
      <stop offset="1" stop-color="#BABFC2"></stop>
    </linearGradient>
    <bx:guide x="113.247" y="18.236" angle="90"></bx:guide>
    <bx:guide x="112.768" y="31.333" angle="90"></bx:guide>
    <bx:guide x="113.659" y="27.357" angle="0"></bx:guide>
    <bx:guide x="172.707" y="29.208" angle="0"></bx:guide>
    <bx:guide x="121.751" y="27.905" angle="0"></bx:guide>
    <bx:guide x="165.026" y="29.551" angle="0"></bx:guide>
    <bx:guide x="0.844" y="12.658" angle="0"></bx:guide>
    <bx:guide x="288.334" y="36.661" angle="0"></bx:guide>
    <bx:guide x="16.892" y="47.154" angle="90"></bx:guide>
    <bx:guide x="16.275" y="0.862" angle="90"></bx:guide>
    <bx:guide x="265.84" y="12.315" angle="90"></bx:guide>
    <bx:guide x="260.011" y="12.932" angle="90"></bx:guide>
    <bx:guide x="3.101" y="45.978" angle="90"></bx:guide>
    <bx:guide x="5.723" y="45.492" angle="90"></bx:guide>
  </defs>
  <path d="M 4.698 0 C 8.373 0 175.709 0.018 176.418 0.004 C 179.207 0 185.745 0.862 187.665 2.564 C 188.169 2.918 192.815 8.973 194.447 10.661 C 195.785 11.644 195.656 12.315 198.325 12.315 C 272.375 12.315 284.509 12.315 285.47 12.315 C 287.618 12.315 288.334 12.932 288.912 16.522 C 288.881 18.733 289.178 45.117 289.05 48.041 C 286.318 48.046 4.484 48.115 0 48.076 C 0 44.341 0 6.904 0 4.187 C 1.348 1.807 1.441 0 4.698 0 Z M 117.854 18.171 C 109.762 18.24 109.762 31.337 117.854 31.338 C 138.1 31.341 159.158 31.343 161.129 31.337 C 168.81 31.337 168.81 18.24 161.129 18.24 C 138.376 18.24 119.152 18.24 117.854 18.171 Z" fill="url(#Gradient1)"></path>
  <path d="M -8.242 0.154 C 126.726 0.162 167.724 0.168 168.433 0.154 C 172.185 0.216 174.539 1.016 176.276 3.066 C 177.377 4.548 181.246 9.423 182.467 10.715 C 183.022 11.302 184.723 12.469 186.321 12.469 C 260.138 12.474 272.572 12.469 273.425 12.469 C 275.041 12.469 276.85 12.469 276.751 15.191 C 276.802 16.656 276.906 45.641 276.887 48.184 C 275.04 48.212 -9.643 48.175 -12.199 48.154 C -12.199 47.122 -12.199 4.992 -12.199 4.061 C -12.199 1.97 -10.039 0.154 -8.242 0.154 Z M -11.355 5.184 C -11.355 7.988 -11.355 33.304 -11.355 47.308 C -6.031 47.308 273.753 47.308 276.135 47.308 C 276.135 46.807 276.135 17.098 276.135 15.416 C 276.135 13.086 274.315 13.086 272.765 13.086 C 271.548 13.086 186.271 13.086 185.202 13.086 C 182.609 12.469 180.941 10.33 180.303 9.562 C 179.584 8.698 175.948 4.173 175.948 4.173 C 175.948 4.173 174.449 2.445 173.19 1.78 C 172.004 0.815 165.811 1.097 164.743 1.097 C 163.446 1.097 -6.303 1.282 -7.369 1.282 C -9.114 1.282 -11.355 2.552 -11.355 5.184 Z" fill="#C3C6C7" transform="translate(12.198577880859375,-0.153900146484375)"></path>
  <path d="M 121.751 16.948 C 122.35 16.956 153.625 16.928 154.695 16.953 C 155.973 16.983 163.155 16.812 164.663 17.916 C 166.811 20.477 167.475 22.098 167.515 25.121 C 167.363 26.472 166.134 31.333 161.845 32.003 C 160.198 32.004 122.798 31.731 121.751 31.749 C 121.221 31.758 116.639 31.619 115.757 31.493 C 113.659 30.91 111.863 27.674 111.674 27.254 C 111.4 26.408 111.354 23.826 111.465 23.361 C 111.64 22.63 112.556 20.33 112.556 20.33 C 114.053 17.27 121.217 16.941 121.751 16.948 Z M 114.79 18.682 C 113.052 19.36 110.831 23.234 111.727 26.373 C 112.141 27.893 113.578 31.106 116.33 31.479 C 118.944 31.601 120.38 31.596 122.99 31.578 C 148.102 31.585 159.273 31.776 160.226 31.777 C 160.459 31.777 163.818 31.809 165.026 30.136 C 169.669 24.586 165.525 19.889 165.026 19.375 C 164.279 18.357 163.087 18.236 162.51 17.933 C 161.503 17.875 120.785 17.964 121.751 17.962 C 122.647 17.96 115.543 17.829 114.79 18.682 Z" fill="#A2A2A1" style=""></path>
  <path d="M 161.52 17.395 C 161.774 17.287 163.316 17.461 163.988 18.146 C 163.078 17.881 162.431 17.765 161.453 17.679 C 162.064 17.637 162.828 17.713 163.173 17.793 C 162.517 17.46 161.847 17.491 161.52 17.395 Z" fill="#B2B1B2"></path>
  <path d="M 118.721 17.392 C 119.108 17.344 119.918 17.157 120.534 17.186 C 119.944 17.369 119.212 17.502 118.418 17.752 C 118.996 17.705 119.688 17.826 119.09 17.83 C 118.696 17.833 118.234 17.84 117.677 17.944 C 117.238 17.956 117.036 17.969 116.568 17.95 C 116.936 17.681 118.166 17.544 118.721 17.392 Z" fill="#B2B1B2" style=""></path>
  <path d="M 0.844 45.492 C 1.499 45.492 287.365 45.492 288.334 45.492 C 288.334 45.746 288.334 45.978 288.334 45.978 C 288.334 45.978 22.855 46 0.844 45.978 C 0.844 45.765 0.844 45.791 0.844 45.492 Z" fill="#A8A7A7" style=""></path>
</svg>