<?xml version="1.0" encoding="UTF-8"?>
<svg version="1.1" xmlns="http://www.w3.org/2000/svg" viewBox="0 0 60 60" width="100%" height="100%">
<path d="M0 0 C1.10723763 -0.00657338 1.10723763 -0.00657338 2.23684371 -0.01327956 C4.71719403 -0.026664 7.19750883 -0.03284555 9.67788696 -0.03897095 C11.45344707 -0.04687203 13.22900557 -0.05514098 15.00456238 -0.06375122 C20.8404792 -0.08996479 26.67640319 -0.10527552 32.51235962 -0.11953735 C34.52034129 -0.1248968 36.5283229 -0.13027431 38.53630447 -0.13566971 C46.88658463 -0.15729505 55.23686285 -0.17603332 63.58716393 -0.1872921 C75.56139502 -0.20354273 87.53530223 -0.2367515 99.50941122 -0.29369295 C107.92561616 -0.33235408 116.34173433 -0.35192009 124.75802577 -0.35721266 C129.78683286 -0.3608706 134.81529445 -0.37293925 139.84400558 -0.4053154 C144.57353157 -0.43532969 149.30250176 -0.44173169 154.03210258 -0.42993164 C155.76836274 -0.42971037 157.50464821 -0.43805989 159.24081993 -0.45558548 C161.61084495 -0.47820844 163.97884265 -0.47001636 166.34887695 -0.45410156 C167.03652803 -0.46798365 167.7241791 -0.48186574 168.43266809 -0.49616849 C172.18537585 -0.43404287 173.69859735 0.06903714 176.63048744 2.48877525 C178.89171126 5.26474265 180.83238602 8.16639711 182.80142212 11.15390015 C186.06221228 12.78429523 189.65914765 12.29802946 193.24258423 12.29574585 C194.11587875 12.29922028 194.98917328 12.3026947 195.88893127 12.30627441 C197.78888751 12.31363657 199.68885238 12.3189795 201.5888195 12.32256508 C204.59331671 12.32971603 207.59764923 12.34537131 210.60209656 12.36390686 C219.14564789 12.41644802 227.6891091 12.46438366 236.2328186 12.47982788 C241.45483362 12.48988791 246.67643496 12.51916068 251.89828682 12.56114769 C253.89140258 12.57348985 255.88457668 12.57857311 257.87772942 12.57634926 C260.66256013 12.5740063 263.44619582 12.59608488 266.23086548 12.62387085 C267.05850403 12.61726944 267.88614258 12.61066803 268.73886108 12.60386658 C271.03736877 12.64164734 271.03736877 12.64164734 274.80142212 13.15390015 C281.82708935 22.52145645 277.80142212 36.44445477 277.80142212 48.15390015 C182.10142212 48.15390015 86.40142212 48.15390015 -12.19857788 48.15390015 C-12.19857788 4.15390015 -12.19857788 4.15390015 -10.19857788 1.15390015 C-6.72479872 -0.00402624 -3.61330347 0.00259863 0 0 Z M104.80142212 22.15390015 C104.05127017 25.19698305 104.05127017 25.19698305 104.80142212 28.15390015 C106.59506253 30.2487932 108.096461 31.05756136 110.83044434 31.43118286 C113.43885024 31.55248233 116.03006638 31.56945971 118.64126587 31.55233765 C120.0799276 31.55664291 120.0799276 31.55664291 121.5476532 31.56103516 C123.57422476 31.56307484 125.60081605 31.55755167 127.62734985 31.54501343 C130.72423522 31.5289762 133.81981201 31.5448565 136.91665649 31.5640564 C138.88736249 31.5620736 140.85806768 31.55822918 142.82876587 31.55233765 C143.75285751 31.55841034 144.67694916 31.56448303 145.62904358 31.57073975 C150.41030789 31.51862742 154.03893615 31.47604882 157.80142212 28.15390015 C158.2188882 25.02754805 158.2188882 25.02754805 157.80142212 22.15390015 C156.48142212 21.49390015 155.16142212 20.83390015 153.80142212 20.15390015 C153.80142212 19.49390015 153.80142212 18.83390015 153.80142212 18.15390015 C147.62674625 18.0549165 141.45253369 17.98237655 135.2772522 17.93417358 C133.17723545 17.91407618 131.07727454 17.88679348 128.97744751 17.85214233 C125.95639254 17.80354244 122.93607835 17.78091253 119.91470337 17.76327515 C118.97806351 17.74263 118.04142365 17.72198486 117.07640076 17.70071411 C111.76512513 17.69889174 108.51839284 17.92146498 104.80142212 22.15390015 Z " fill="#ECEEF0" transform="translate(12.198577880859375,-0.153900146484375)"/>
<path d="M0 0 C1.10723763 -0.00657338 1.10723763 -0.00657338 2.23684371 -0.01327956 C4.71719403 -0.026664 7.19750883 -0.03284555 9.67788696 -0.03897095 C11.45344707 -0.04687203 13.22900557 -0.05514098 15.00456238 -0.06375122 C20.8404792 -0.08996479 26.67640319 -0.10527552 32.51235962 -0.11953735 C34.52034129 -0.1248968 36.5283229 -0.13027431 38.53630447 -0.13566971 C46.88658463 -0.15729505 55.23686285 -0.17603332 63.58716393 -0.1872921 C75.56139502 -0.20354273 87.53530223 -0.2367515 99.50941122 -0.29369295 C107.92561616 -0.33235408 116.34173433 -0.35192009 124.75802577 -0.35721266 C129.78683286 -0.3608706 134.81529445 -0.37293925 139.84400558 -0.4053154 C144.57353157 -0.43532969 149.30250176 -0.44173169 154.03210258 -0.42993164 C155.76836274 -0.42971037 157.50464821 -0.43805989 159.24081993 -0.45558548 C161.61084495 -0.47820844 163.97884265 -0.47001636 166.34887695 -0.45410156 C167.03652803 -0.46798365 167.7241791 -0.48186574 168.43266809 -0.49616849 C172.18537585 -0.43404287 173.69859735 0.06903714 176.63048744 2.48877525 C178.89171126 5.26474265 180.83238602 8.16639711 182.80142212 11.15390015 C186.06221228 12.78429523 189.65914765 12.29802946 193.24258423 12.29574585 C194.11587875 12.29922028 194.98917328 12.3026947 195.88893127 12.30627441 C197.78888751 12.31363657 199.68885238 12.3189795 201.5888195 12.32256508 C204.59331671 12.32971603 207.59764923 12.34537131 210.60209656 12.36390686 C219.14564789 12.41644802 227.6891091 12.46438366 236.2328186 12.47982788 C241.45483362 12.48988791 246.67643496 12.51916068 251.89828682 12.56114769 C253.89140258 12.57348985 255.88457668 12.57857311 257.87772942 12.57634926 C260.66256013 12.5740063 263.44619582 12.59608488 266.23086548 12.62387085 C267.05850403 12.61726944 267.88614258 12.61066803 268.73886108 12.60386658 C271.03736877 12.64164734 271.03736877 12.64164734 274.80142212 13.15390015 C281.82708935 22.52145645 277.80142212 36.44445477 277.80142212 48.15390015 C182.10142212 48.15390015 86.40142212 48.15390015 -12.19857788 48.15390015 C-12.19857788 4.15390015 -12.19857788 4.15390015 -10.19857788 1.15390015 C-6.72479872 -0.00402624 -3.61330347 0.00259863 0 0 Z M-9.19857788 3.15390015 C-13.6270213 16.4392304 -10.19857788 31.14993245 -10.19857788 45.15390015 C83.85142212 45.15390015 177.90142212 45.15390015 274.80142212 45.15390015 C274.80142212 36.24390015 274.80142212 27.33390015 274.80142212 18.15390015 C270.69126973 14.04374776 270.11330219 13.69599787 264.70011902 13.63719177 C263.48279335 13.65416359 263.48279335 13.65416359 262.24087524 13.67147827 C261.37864853 13.66756577 260.51642181 13.66365326 259.62806702 13.65962219 C257.75816071 13.65364911 255.88820792 13.65681377 254.01832581 13.66804504 C251.05934791 13.68528605 248.10134877 13.67781103 245.1423645 13.66378784 C238.86198397 13.63842583 232.58183309 13.64396222 226.30142212 13.65390015 C219.02389522 13.66541588 211.74684255 13.66432635 204.46937561 13.62983704 C201.55313726 13.62273048 198.63764552 13.63943615 195.72146606 13.6569519 C193.93496292 13.65124524 192.14846286 13.64442855 190.36196899 13.63632202 C189.14464333 13.65329384 189.14464333 13.65329384 187.90272522 13.67060852 C184.2829986 13.63128563 182.22592429 13.47674898 179.30154419 11.25265503 C177.77408006 9.11564707 177.37013905 7.67250368 176.80142212 5.15390015 C175.76317393 3.41580783 175.76317393 3.41580783 173.80142212 2.15390015 C171.31147352 1.86361295 169.07240738 1.75751144 166.58265686 1.78640747 C165.47224418 1.78150421 165.47224418 1.78150421 164.33939892 1.77650189 C161.85184256 1.76920248 159.36487051 1.78339575 156.87734985 1.79745483 C155.09692281 1.79666423 153.31649593 1.7945678 151.53607178 1.79125977 C146.69527842 1.78611739 141.85469697 1.79967742 137.01393771 1.81678677 C131.95531647 1.83179832 126.89669826 1.83064815 121.83805847 1.83145142 C113.34314343 1.83514617 104.84830908 1.85012462 96.35342407 1.87265015 C85.43849137 1.90153322 74.52362365 1.91187382 63.60865688 1.91633224 C54.2384331 1.92030816 44.86822354 1.93281038 35.49800992 1.94667912 C32.4792231 1.95078302 29.46043679 1.95370614 26.44164848 1.9564743 C21.70488546 1.96135864 16.96816208 1.97154738 12.23141861 1.98591232 C10.48908534 1.99044449 8.74674673 1.99327615 7.00440788 1.99431992 C4.63396635 1.99605902 2.26362484 2.00392439 -0.10679626 2.01345825 C-1.15138066 2.01215853 -1.15138066 2.01215853 -2.21706778 2.01083255 C-5.83012351 1.99293856 -5.83012351 1.99293856 -9.19857788 3.15390015 Z " fill="#C3C6C7" transform="translate(12.198577880859375,-0.153900146484375)"/>
<path d="M0 0 C1.10723763 -0.00657338 1.10723763 -0.00657338 2.23684371 -0.01327956 C4.71719403 -0.026664 7.19750883 -0.03284555 9.67788696 -0.03897095 C11.45344707 -0.04687203 13.22900557 -0.05514098 15.00456238 -0.06375122 C20.8404792 -0.08996479 26.67640319 -0.10527552 32.51235962 -0.11953735 C34.52034129 -0.1248968 36.5283229 -0.13027431 38.53630447 -0.13566971 C46.88658463 -0.15729505 55.23686285 -0.17603332 63.58716393 -0.1872921 C75.56139502 -0.20354273 87.53530223 -0.2367515 99.50941122 -0.29369295 C107.92561616 -0.33235408 116.34173433 -0.35192009 124.75802577 -0.35721266 C129.78683286 -0.3608706 134.81529445 -0.37293925 139.84400558 -0.4053154 C144.57353157 -0.43532969 149.30250176 -0.44173169 154.03210258 -0.42993164 C155.76836274 -0.42971037 157.50464821 -0.43805989 159.24081993 -0.45558548 C161.61084495 -0.47820844 163.97884265 -0.47001636 166.34887695 -0.45410156 C167.03652803 -0.46798365 167.7241791 -0.48186574 168.43266809 -0.49616849 C172.2496014 -0.43297963 173.71207177 0.07909111 176.68200111 2.56567955 C179.21049842 5.65346097 180.93893124 8.63586181 182.80142212 12.15390015 C179.93417525 11.58045077 178.93997062 11.29244864 176.80142212 9.15390015 C176.80142212 7.83390015 176.80142212 6.51390015 176.80142212 5.15390015 C175.81142212 4.82390015 174.82142212 4.49390015 173.80142212 4.15390015 C173.80142212 3.49390015 173.80142212 2.83390015 173.80142212 2.15390015 C150.25370813 2.23770804 126.70606333 2.33280717 103.15845013 2.44142723 C92.22540886 2.49159441 81.29237526 2.53803681 70.35928345 2.57577515 C60.83236533 2.6086691 51.3055059 2.64848584 41.77865249 2.6966902 C36.73212891 2.72198106 31.6856444 2.74375466 26.63907433 2.75724411 C21.89244926 2.77004103 17.14595799 2.79206967 12.39940643 2.82128334 C10.65428167 2.8303777 8.90913535 2.83605366 7.16398811 2.83811378 C4.78705401 2.84142325 2.41050228 2.85686453 0.03364563 2.87542725 C-0.66187749 2.87349251 -1.3574006 2.87155778 -2.07400018 2.86956441 C-5.68001143 2.91186137 -7.10436353 3.09109058 -10.19857788 5.15390015 C-10.6725135 7.08292843 -10.6725135 7.08292843 -10.63095093 9.32821655 C-10.65074509 10.18895782 -10.67053925 11.0496991 -10.69093323 11.93652344 C-10.69732315 12.86677338 -10.70371307 13.79702332 -10.71029663 14.75546265 C-10.72824783 15.70706268 -10.74619904 16.65866272 -10.76469421 17.63909912 C-10.81898037 20.68565405 -10.85275147 23.73205072 -10.88607788 26.77890015 C-10.9192348 28.84142226 -10.95372292 30.90392344 -10.98959351 32.96640015 C-11.07471732 38.02878625 -11.14144093 43.09112392 -11.19857788 48.15390015 C-11.52857788 48.15390015 -11.85857788 48.15390015 -12.19857788 48.15390015 C-12.24796764 41.94256759 -12.28429264 35.73134902 -12.30844116 29.51986694 C-12.31850683 27.40623992 -12.33216045 25.29262685 -12.34945679 23.17904663 C-12.37368018 20.14328572 -12.38505526 17.10770872 -12.39389038 14.0718689 C-12.40421295 13.12490646 -12.41453552 12.17794403 -12.4251709 11.20228577 C-12.42532196 10.32159927 -12.42547302 9.44091278 -12.42562866 8.53353882 C-12.43006989 7.75854538 -12.43451111 6.98355194 -12.43908691 6.18507385 C-12.19857788 4.15390015 -12.19857788 4.15390015 -10.19857788 1.15390015 C-6.72479872 -0.00402624 -3.61330347 0.00259863 0 0 Z " fill="#908F8E" transform="translate(12.198577880859375,-0.153900146484375)"/>
<path d="M0 0 C1.07245972 -0.00241196 2.14491943 -0.00482391 3.24987793 -0.00730896 C5.51606954 -0.00632999 7.7822849 0.00707542 10.04833984 0.03198242 C13.51872937 0.0662825 16.98657223 0.05264478 20.45703125 0.03320312 C22.65886502 0.04010163 24.8606922 0.04977404 27.0625 0.0625 C28.10112183 0.05754013 29.13974365 0.05258026 30.20983887 0.04747009 C37.34393305 0.16420644 37.34393305 0.16420644 40.67773438 2.41821289 C42.30117906 5.06978064 42.59838926 7.44702341 42.7578125 10.53125 C41.55625438 14.00026458 39.16491768 15.92754627 36.03125 17.62890625 C32.36542185 18.33754734 28.77473724 18.28313318 25.05078125 18.22265625 C24.0009758 18.22269653 22.95117035 18.22273682 21.86955261 18.22277832 C19.65817249 18.21743153 17.44679231 18.19988507 15.2355957 18.17089844 C11.84462762 18.12891712 8.45563815 18.12984257 5.06445312 18.13671875 C2.91404866 18.12623039 0.76365444 18.1132942 -1.38671875 18.09765625 C-2.40235397 18.09745483 -3.4179892 18.09725342 -4.46440125 18.0970459 C-5.4058046 18.08113403 -6.34720795 18.06522217 -7.31713867 18.04882812 C-8.14509445 18.04040894 -8.97305023 18.03198975 -9.82609558 18.02331543 C-12.45967441 17.53853932 -13.35182656 16.72677396 -14.96875 14.62890625 C-15.40234375 12.54296875 -15.40234375 12.54296875 -15.40625 10.25390625 C-15.42558594 9.50367188 -15.44492188 8.7534375 -15.46484375 7.98046875 C-13.64322428 -0.65429441 -7.34441944 -0.09375294 0 0 Z M-13.96875 7.62890625 C-14.71890195 10.67198916 -14.71890195 10.67198916 -13.96875 13.62890625 C-12.17510959 15.72379931 -10.67371112 16.53256747 -7.93972778 16.90618896 C-5.33132188 17.02748843 -2.74010574 17.04446581 -0.12890625 17.02734375 C1.30975548 17.03164902 1.30975548 17.03164902 2.77748108 17.03604126 C4.80405264 17.03808095 6.83064393 17.03255777 8.85717773 17.02001953 C11.9540631 17.00398231 15.04963989 17.01986261 18.14648438 17.0390625 C20.11719037 17.03707971 22.08789556 17.03323529 24.05859375 17.02734375 C24.98268539 17.03341644 25.90677704 17.03948914 26.85887146 17.04574585 C31.64013578 16.99363352 35.26876403 16.95105493 39.03125 13.62890625 C39.44871608 10.50255416 39.44871608 10.50255416 39.03125 7.62890625 C37.71125 6.96890625 36.39125 6.30890625 35.03125 5.62890625 C35.03125 4.96890625 35.03125 4.30890625 35.03125 3.62890625 C28.85657414 3.52992261 22.68236157 3.45738265 16.50708008 3.40917969 C14.40706333 3.38908228 12.30710242 3.36179959 10.20727539 3.32714844 C7.18622042 3.27854855 4.16590623 3.25591863 1.14453125 3.23828125 C0.20789139 3.21763611 -0.72874847 3.19699097 -1.69377136 3.17572021 C-7.00504699 3.17389784 -10.25177928 3.39647108 -13.96875 7.62890625 Z " fill="#A2A2A1" transform="translate(130.96875,14.37109375)"/>
<path d="M0 0 C23.51305322 -0.11675167 47.02606305 -0.20494822 70.53934765 -0.25906086 C81.4567502 -0.28485306 92.37397274 -0.32002313 103.29125977 -0.37719727 C112.80570526 -0.42700097 122.32002042 -0.45928362 131.83459264 -0.47044247 C136.87352177 -0.47696635 141.91207797 -0.49232054 146.95088768 -0.52865028 C151.69266428 -0.56256177 156.43391398 -0.57306275 161.17580032 -0.56553841 C162.91690368 -0.56691512 164.65802448 -0.5768766 166.39902306 -0.59602737 C168.77575315 -0.62089098 171.1504917 -0.61493138 173.52726746 -0.60127258 C174.56181361 -0.62311889 174.56181361 -0.62311889 175.61725968 -0.64540654 C179.43995195 -0.58598608 180.90678347 -0.07799824 183.88184071 2.41135883 C186.40875767 5.49955022 188.1378037 8.4825181 190 12 C187.13275314 11.42655063 186.1385485 11.1385485 184 9 C184 7.68 184 6.36 184 5 C183.01 4.67 182.02 4.34 181 4 C181 3.34 181 2.68 181 2 C121.27 1.67 61.54 1.34 0 1 C0 0.67 0 0.34 0 0 Z " fill="#565555" transform="translate(5,0)"/>
<path d="M0 0 C-0.33 1.65 -0.66 3.3 -1 5 C-16.84 5 -32.68 5 -49 5 C-47 3 -47 3 -45.16500854 2.75949097 C-44.42332428 2.76393219 -43.68164001 2.76837341 -42.91748047 2.77294922 C-41.63877075 2.77331177 -41.63877075 2.77331177 -40.33422852 2.77368164 C-39.43760498 2.78391357 -38.54098145 2.79414551 -37.6171875 2.8046875 C-36.79355713 2.80670166 -35.96992676 2.80871582 -35.12133789 2.81079102 C-32.03916876 2.82126977 -28.9570789 2.8491923 -25.875 2.875 C-18.98625 2.91625 -12.0975 2.9575 -5 3 C-19.85 2.67 -34.7 2.34 -50 2 C-50 1.67 -50 1.34 -50 1 C-43.20068967 0.85729375 -36.40137264 0.71491012 -29.60205078 0.57275391 C-27.28759609 0.52432619 -24.97314296 0.47582382 -22.65869141 0.42724609 C-19.33756915 0.35755231 -16.01644144 0.28812446 -12.6953125 0.21875 C-11.65569366 0.19687622 -10.61607483 0.17500244 -9.54495239 0.15246582 C-8.10368484 0.12243469 -8.10368484 0.12243469 -6.63330078 0.09179688 C-5.36089035 0.06514954 -5.36089035 0.06514954 -4.06277466 0.03796387 C-2.70868662 0.01304286 -1.35431734 0 0 0 Z " fill="#DDDFE0" transform="translate(169,31)"/>
<path d="M0 0 C46.53 0.495 46.53 0.495 94 1 C94.495 2.485 94.495 2.485 95 4 C94.35521194 3.83923477 93.71042389 3.67846954 93.0460968 3.51283264 C89.11561812 2.85110785 85.23641712 2.82276777 81.26245117 2.79467773 C80.39365326 2.78477814 79.52485535 2.77487854 78.62973022 2.76467896 C75.76750381 2.7331749 72.90526081 2.70835049 70.04296875 2.68359375 C68.05470863 2.66301464 66.06645278 2.64201792 64.07820129 2.62062073 C58.85205559 2.56549892 53.62587106 2.51604609 48.3996582 2.46777344 C43.0639298 2.41748611 37.7282576 2.36183783 32.39257812 2.30664062 C21.92843347 2.19918006 11.46423995 2.09770831 1 2 C0.67 1.34 0.34 0.68 0 0 Z " fill="#A8A7A7" transform="translate(193,12)"/>
<path d="M0 0 C12.87 0 25.74 0 39 0 C39.495 1.485 39.495 1.485 40 3 C39.34298096 2.84152588 38.68596191 2.68305176 38.0090332 2.51977539 C34.29108126 1.87754256 30.61763843 1.76858603 26.85546875 1.68359375 C25.7007885 1.6524221 25.7007885 1.6524221 24.52278137 1.62062073 C22.07777333 1.55553951 19.63266317 1.49643409 17.1875 1.4375 C15.52407823 1.39427532 13.86066656 1.35065979 12.19726562 1.30664062 C8.13161352 1.19990093 4.06585929 1.09851829 0 1 C0 0.67 0 0.34 0 0 Z " fill="#ACAAA9" transform="translate(248,13)"/>
<path d="M0 0 C2.46800047 1.15173355 4.04783565 2.04783565 6 4 C6.26991906 6.68839385 6.08737357 9.29141936 6 12 C5.01 12.33 4.02 12.66 3 13 C2.92652344 11.96939453 2.92652344 11.96939453 2.8515625 10.91796875 C2.77679688 10.01691406 2.70203125 9.11585937 2.625 8.1875 C2.55539063 7.29417969 2.48578125 6.40085937 2.4140625 5.48046875 C2.13354964 2.75601501 2.13354964 2.75601501 0 0 Z " fill="#B2B1B2" transform="translate(167,15)"/>
<path d="M0 0 C0.66 0.33 1.32 0.66 2 1 C1.67 1.33 1.34 1.66 1 2 C0.76807135 3.51469448 0.58784762 5.03754562 0.4375 6.5625 C0.35371094 7.38878906 0.26992187 8.21507812 0.18359375 9.06640625 C0.12300781 9.70449219 0.06242187 10.34257812 0 11 C-0.99 10.67 -1.98 10.34 -3 10 C-3.36923077 3.47692308 -3.36923077 3.47692308 -1.5 1.0625 C-1.005 0.711875 -0.51 0.36125 0 0 Z " fill="#D0CFD0" transform="translate(116,18)"/>
<path d="M0 0 C0.66 0.33 1.32 0.66 2 1 C2.36923077 6.53846154 2.36923077 6.53846154 0.5 8.875 C-0.2425 9.431875 -0.2425 9.431875 -1 10 C-1.99 9.67 -2.98 9.34 -4 9 C-3.34 8.01 -2.68 7.02 -2 6 C-1.34 6 -0.68 6 0 6 C0 4.02 0 2.04 0 0 Z " fill="#D5D5D6" transform="translate(173,21)"/>
<path d="M0 0 C2.74931827 0.68732957 4.53418821 1.35560222 6.22265625 3.69140625 C7.20324656 5.43116325 8.10688055 7.2137611 9 9 C6.13275314 8.42655063 5.1385485 8.1385485 3 6 C3 4.68 3 3.36 3 2 C2.01 1.67 1.02 1.34 0 1 C0 0.67 0 0.34 0 0 Z " fill="#6C6A6A" transform="translate(186,3)"/>
<path d="M0 0 C3.96 0 7.92 0 12 0 C12.33 0.99 12.66 1.98 13 3 C8.71 2.34 4.42 1.68 0 1 C0 0.67 0 0.34 0 0 Z " fill="#878585" transform="translate(275,13)"/>
<path d="M0 0 C4.29 0 8.58 0 13 0 C13 0.33 13 0.66 13 1 C11.98679687 1.09087891 11.98679687 1.09087891 10.953125 1.18359375 C10.06109375 1.26738281 9.1690625 1.35117187 8.25 1.4375 C7.36828125 1.51871094 6.4865625 1.59992187 5.578125 1.68359375 C3.30649548 1.96238465 1.20148177 2.38790577 -1 3 C-0.67 2.01 -0.34 1.02 0 0 Z " fill="#7D7C7B" transform="translate(2,1)"/>
</svg>
