<?xml version="1.0" standalone="no"?>
<!DOCTYPE svg PUBLIC "-//W3C//DTD SVG 1.1//EN"
 "http://www.w3.org/Graphics/SVG/1.1/DTD/svg11.dtd">
<!-- Created with svg_stack (http://github.com/astraw/svg_stack) -->
<svg xmlns:sodipodi="http://sodipodi.sourceforge.net/DTD/sodipodi-0.dtd" xmlns="http://www.w3.org/2000/svg" version="1.1" width="100%" height="100%">
  <defs/>
  <g id="id0:id0" transform="matrix(1.25,0,0,1.25,0.0,0.0)"><g transform="translate(0.000000,38.400000) scale(0.040000,-0.040000)" fill="#8c8a8a" stroke="none">
<path d="M120 945 c0 -13 210 -15 1774 -15 993 0 1785 -4 1798 -9 29 -11 70 -51 88 -88 47 -91 101 -140 145 -131 17 3 16 6 -10 19 -18 8 -53 48 -88 99 -31 47 -71 97 -87 113 l-29 27 -1795 0 c-1584 0 -1796 -2 -1796 -15z"/>
<path d="M37 900 c-27 -29 -37 -48 -37 -72 l1 -33 22 45 c12 25 36 54 54 65 36 23 42 35 15 35 -11 0 -35 -18 -55 -40z"/>
<path d="M5670 693 c0 -5 14 -16 30 -25 16 -9 39 -32 50 -50 19 -31 20 -48 20 -303 -1 -148 -1 -280 0 -292 0 -14 6 -23 15 -23 13 0 15 39 15 289 0 282 -1 291 -22 328 -28 46 -67 82 -90 83 -10 0 -18 -3 -18 -7z"/>
<path d="M3 570 c0 -30 2 -43 4 -27 2 15 2 39 0 55 -2 15 -4 2 -4 -28z"/>
<path d="M2420 590 c0 -5 5 -10 11 -10 5 0 7 5 4 10 -3 6 -8 10 -11 10 -2 0 -4 -4 -4 -10z"/>
<path d="M3412 428 c-10 -30 -10 -31 3 -14 13 17 21 46 12 46 -1 0 -8 -15 -15 -32z"/>
<path d="M3379 373 c-13 -16 -12 -17 4 -4 16 13 21 21 13 21 -2 0 -10 -8 -17 -17z"/>
<path d="M3340 350 c-9 -6 -10 -10 -3 -10 6 0 15 5 18 10 8 12 4 12 -15 0z"/>
<path d="M3 280 c0 -36 2 -50 4 -32 2 17 2 47 0 65 -2 17 -4 3 -4 -33z"/>
<path d="M2 80 c0 -52 2 -77 7 -65 5 11 5 49 1 85 l-7 65 -1 -85z"/>
</g>
</g>
  <g id="id1:id1" transform="matrix(1.25,0,0,1.25,0.0,0.0)"><g transform="translate(0.000000,38.400000) scale(0.040000,-0.040000)" fill="#8a8989" stroke="none">
<path d="M120 945 c0 -13 210 -15 1774 -15 993 0 1785 -4 1798 -9 29 -11 70 -51 88 -88 47 -91 101 -140 145 -131 17 3 16 6 -10 19 -18 8 -53 48 -88 99 -31 47 -71 97 -87 113 l-29 27 -1795 0 c-1584 0 -1796 -2 -1796 -15z"/>
<path d="M37 900 c-27 -29 -37 -48 -37 -72 l1 -33 22 45 c12 25 36 54 54 65 36 23 42 35 15 35 -11 0 -35 -18 -55 -40z"/>
<path d="M5670 693 c0 -5 14 -16 30 -25 16 -9 39 -32 50 -50 19 -31 20 -48 20 -303 -1 -148 -1 -280 0 -292 0 -14 6 -23 15 -23 13 0 15 39 15 289 0 282 -1 291 -22 328 -28 46 -67 82 -90 83 -10 0 -18 -3 -18 -7z"/>
<path d="M3 570 c0 -30 2 -43 4 -27 2 15 2 39 0 55 -2 15 -4 2 -4 -28z"/>
<path d="M2420 590 c0 -5 5 -10 11 -10 5 0 7 5 4 10 -3 6 -8 10 -11 10 -2 0 -4 -4 -4 -10z"/>
<path d="M3412 428 c-10 -30 -10 -31 3 -14 13 17 21 46 12 46 -1 0 -8 -15 -15 -32z"/>
<path d="M3379 373 c-13 -16 -12 -17 4 -4 16 13 21 21 13 21 -2 0 -10 -8 -17 -17z"/>
<path d="M3340 350 c-9 -6 -10 -10 -3 -10 6 0 15 5 18 10 8 12 4 12 -15 0z"/>
<path d="M3 280 c0 -36 2 -50 4 -32 2 17 2 47 0 65 -2 17 -4 3 -4 -33z"/>
<path d="M2 80 c0 -52 2 -77 7 -65 5 11 5 49 1 85 l-7 65 -1 -85z"/>
</g>
</g>
  <g id="id2:id2" transform="matrix(1.25,0,0,1.25,0.0,0.0)"><g transform="translate(0.000000,38.400000) scale(0.040000,-0.040000)" fill="#fefefe" stroke="none">
<path d="M120 945 c0 -13 210 -15 1774 -15 993 0 1785 -4 1798 -9 29 -11 70 -51 88 -88 47 -91 101 -140 145 -131 17 3 16 6 -10 19 -18 8 -53 48 -88 99 -31 47 -71 97 -87 113 l-29 27 -1795 0 c-1584 0 -1796 -2 -1796 -15z"/>
<path d="M37 900 c-27 -29 -37 -48 -37 -72 l1 -33 22 45 c12 25 36 54 54 65 36 23 42 35 15 35 -11 0 -35 -18 -55 -40z"/>
<path d="M165 895 c-5 -2 -22 -6 -37 -9 -16 -4 -28 -11 -28 -17 0 -6 -10 -19 -22 -29 -21 -17 -23 -28 -26 -140 -3 -86 -1 -120 7 -116 6 4 11 23 11 43 0 29 3 33 14 24 21 -17 2284 -11 2295 7 12 19 1028 13 1040 -7 7 -11 49 -13 209 -12 179 2 204 0 229 -16 26 -17 78 -18 921 -20 492 -1 901 -4 908 -7 8 -3 14 -1 14 3 0 5 -12 14 -27 19 -16 6 -22 11 -15 11 7 1 10 5 7 11 -4 7 -296 10 -843 10 -460 0 -867 3 -904 6 -78 8 -108 29 -138 98 -12 25 -24 46 -28 46 -4 0 -13 14 -21 31 -9 21 -27 37 -58 50 -43 18 -92 19 -1771 18 -950 0 -1731 -2 -1737 -4z m2948 -202 c-127 -2 -339 -2 -470 0 -131 1 -26 2 232 2 259 0 366 -1 238 -2z"/>
<path d="M5670 693 c0 -5 14 -16 30 -25 16 -9 39 -32 50 -50 19 -31 20 -48 20 -303 -1 -148 -1 -280 0 -292 0 -14 6 -23 15 -23 13 0 15 39 15 289 0 282 -1 291 -22 328 -28 46 -67 82 -90 83 -10 0 -18 -3 -18 -7z"/>
<path d="M3 570 c0 -30 2 -43 4 -27 2 15 2 39 0 55 -2 15 -4 2 -4 -28z"/>
<path d="M2420 590 c0 -5 5 -10 11 -10 5 0 7 5 4 10 -3 6 -8 10 -11 10 -2 0 -4 -4 -4 -10z"/>
<path d="M3412 428 c-10 -30 -10 -31 3 -14 13 17 21 46 12 46 -1 0 -8 -15 -15 -32z"/>
<path d="M3379 373 c-13 -16 -12 -17 4 -4 16 13 21 21 13 21 -2 0 -10 -8 -17 -17z"/>
<path d="M3340 350 c-9 -6 -10 -10 -3 -10 6 0 15 5 18 10 8 12 4 12 -15 0z"/>
<path d="M3 280 c0 -36 2 -50 4 -32 2 17 2 47 0 65 -2 17 -4 3 -4 -33z"/>
<path d="M2 80 c0 -52 2 -77 7 -65 5 11 5 49 1 85 l-7 65 -1 -85z"/>
</g>
</g>
  <g id="id3:id3" transform="matrix(1.25,0,0,1.25,0.0,0.0)"><g transform="translate(0.000000,38.400000) scale(0.040000,-0.040000)" fill="#f6f8f8" stroke="none">
<path d="M120 945 c0 -13 210 -15 1774 -15 993 0 1785 -4 1798 -9 29 -11 70 -51 88 -88 47 -91 101 -140 145 -131 17 3 16 6 -10 19 -18 8 -53 48 -88 99 -31 47 -71 97 -87 113 l-29 27 -1795 0 c-1584 0 -1796 -2 -1796 -15z"/>
<path d="M37 900 c-27 -29 -37 -48 -37 -72 l1 -33 22 45 c12 25 36 54 54 65 36 23 42 35 15 35 -11 0 -35 -18 -55 -40z"/>
<path d="M148 893 c7 -3 16 -2 19 1 4 3 -2 6 -13 5 -11 0 -14 -3 -6 -6z"/>
<path d="M3650 890 c8 -5 20 -10 25 -10 6 0 3 5 -5 10 -8 5 -19 10 -25 10 -5 0 -3 -5 5 -10z"/>
<path d="M3700 869 c8 -8 21 -21 29 -29 12 -12 11 -10 0 9 -9 14 -22 27 -30 29 -11 3 -11 2 1 -9z"/>
<path d="M74 849 c-19 -22 -19 -22 4 -8 12 8 22 17 22 21 0 12 -6 9 -26 -13z"/>
<path d="M3740 811 c0 -5 7 -12 16 -15 14 -5 15 -4 4 9 -14 17 -20 19 -20 6z"/>
<path d="M44 797 c-3 -8 -4 -52 -2 -98 l3 -84 5 98 c5 96 4 109 -6 84z"/>
<path d="M3790 730 c17 -32 60 -70 80 -70 10 1 9 4 -5 12 -11 6 -35 27 -54 47 -26 28 -31 30 -21 11z"/>
<path d="M2643 693 c131 -2 343 -2 470 0 128 1 21 2 -238 2 -258 0 -363 -1 -232 -2z"/>
<path d="M5670 693 c0 -5 14 -16 30 -25 16 -9 39 -32 50 -50 19 -31 20 -48 20 -303 -1 -148 -1 -280 0 -292 0 -14 6 -23 15 -23 13 0 15 39 15 289 0 282 -1 291 -22 328 -28 46 -67 82 -90 83 -10 0 -18 -3 -18 -7z"/>
<path d="M3367 662 c13 -4 54 -37 93 -74 l70 -68 1090 0 c1083 0 1090 0 1090 -20 0 -11 5 -20 11 -20 8 0 10 18 7 55 -4 47 -10 61 -38 88 -19 17 -30 26 -26 20 4 -8 2 -13 -6 -14 -7 0 -1 -5 15 -11 15 -5 27 -14 27 -19 0 -4 -6 -6 -14 -3 -7 3 -416 6 -908 7 -843 2 -895 3 -921 20 -25 16 -50 18 -229 16 -137 -1 -203 2 -207 10 -4 6 -23 13 -41 16 -23 3 -27 2 -13 -3z"/>
<path d="M70 627 c0 -20 -4 -39 -10 -42 -5 -3 -10 -26 -10 -51 0 -24 5 -44 10 -44 6 0 10 12 10 27 0 21 3 24 12 15 9 -9 263 -12 1080 -12 l1068 0 25 22 c14 12 25 26 25 32 0 6 20 25 44 41 l43 30 -1135 -3 c-837 -2 -1138 1 -1148 9 -11 9 -14 5 -14 -24z"/>
<path d="M4363 653 c235 -2 619 -2 855 0 235 1 42 2 -428 2 -470 0 -663 -1 -427 -2z"/>
<path d="M3 570 c0 -30 2 -43 4 -27 2 15 2 39 0 55 -2 15 -4 2 -4 -28z"/>
<path d="M2420 590 c0 -5 5 -10 11 -10 5 0 7 5 4 10 -3 6 -8 10 -11 10 -2 0 -4 -4 -4 -10z"/>
<path d="M3412 428 c-10 -30 -10 -31 3 -14 13 17 21 46 12 46 -1 0 -8 -15 -15 -32z"/>
<path d="M3379 373 c-13 -16 -12 -17 4 -4 16 13 21 21 13 21 -2 0 -10 -8 -17 -17z"/>
<path d="M3340 350 c-9 -6 -10 -10 -3 -10 6 0 15 5 18 10 8 12 4 12 -15 0z"/>
<path d="M3 280 c0 -36 2 -50 4 -32 2 17 2 47 0 65 -2 17 -4 3 -4 -33z"/>
<path d="M2 80 c0 -52 2 -77 7 -65 5 11 5 49 1 85 l-7 65 -1 -85z"/>
</g>
</g>
  <g id="id4:id4" transform="matrix(1.25,0,0,1.25,0.0,0.0)"><g transform="translate(0.000000,38.400000) scale(0.040000,-0.040000)" fill="#f0f2f3" stroke="none">
<path d="M120 945 c0 -13 210 -15 1774 -15 993 0 1785 -4 1798 -9 29 -11 70 -51 88 -88 47 -91 101 -140 145 -131 17 3 16 6 -10 19 -18 8 -53 48 -88 99 -31 47 -71 97 -87 113 l-29 27 -1795 0 c-1584 0 -1796 -2 -1796 -15z"/>
<path d="M37 900 c-27 -29 -37 -48 -37 -72 l1 -33 22 45 c12 25 36 54 54 65 36 23 42 35 15 35 -11 0 -35 -18 -55 -40z"/>
<path d="M1042 903 c478 -2 1258 -2 1735 0 478 1 87 2 -867 2 -954 0 -1345 -1 -868 -2z"/>
<path d="M74 858 l-19 -23 23 19 c12 11 22 21 22 23 0 8 -8 2 -26 -19z"/>
<path d="M46 813 c-6 -14 -5 -15 5 -6 7 7 10 15 7 18 -3 3 -9 -2 -12 -12z"/>
<path d="M3740 826 c0 -2 8 -10 18 -17 15 -13 16 -12 3 4 -13 16 -21 21 -21 13z"/>
<path d="M5670 693 c0 -5 14 -16 30 -25 16 -9 39 -32 50 -50 19 -31 20 -48 20 -303 -1 -148 -1 -280 0 -292 0 -14 6 -23 15 -23 13 0 15 39 15 289 0 282 -1 291 -22 328 -28 46 -67 82 -90 83 -10 0 -18 -3 -18 -7z"/>
<path d="M3870 670 c8 -5 24 -10 34 -10 26 0 18 6 -19 14 -22 5 -26 4 -15 -4z"/>
<path d="M2638 663 c134 -2 350 -2 480 0 130 1 21 2 -243 2 -264 0 -371 -1 -237 -2z"/>
<path d="M3421 617 c58 -57 89 -106 89 -140 0 -14 2 -31 5 -39 4 -11 195 -13 1090 -11 597 1 1090 5 1095 8 6 3 10 -3 10 -14 0 -12 4 -21 9 -21 11 0 27 148 17 157 -3 4 -6 -12 -6 -35 0 -23 -4 -42 -10 -42 -5 0 -10 9 -10 20 0 20 -7 20 -1091 20 l-1092 0 -27 29 c-16 16 -50 48 -77 71 l-48 43 46 -46z"/>
<path d="M5676 637 c2 -7 14 -19 27 -26 21 -13 21 -12 -2 13 -27 29 -33 32 -25 13z"/>
<path d="M3 570 c0 -30 2 -43 4 -27 2 15 2 39 0 55 -2 15 -4 2 -4 -28z"/>
<path d="M42 549 c-2 -83 6 -139 19 -139 5 0 9 7 9 16 0 9 5 12 12 8 6 -4 494 -8 1084 -8 l1072 -1 6 29 c3 16 6 38 6 49 0 11 8 29 18 40 17 19 16 19 -5 6 -13 -8 -23 -17 -23 -21 0 -5 -483 -8 -1073 -8 -821 0 -1076 3 -1085 12 -9 9 -12 6 -12 -15 0 -15 -4 -27 -10 -27 -5 0 -11 30 -13 68 l-3 67 -2 -76z"/>
<path d="M2301 599 c-13 -11 -22 -22 -19 -24 2 -3 15 6 28 20 28 30 24 32 -9 4z"/>
<path d="M2420 590 c0 -5 5 -10 11 -10 5 0 7 5 4 10 -3 6 -8 10 -11 10 -2 0 -4 -4 -4 -10z"/>
<path d="M3412 428 c-10 -30 -10 -31 3 -14 13 17 21 46 12 46 -1 0 -8 -15 -15 -32z"/>
<path d="M3379 373 c-13 -16 -12 -17 4 -4 16 13 21 21 13 21 -2 0 -10 -8 -17 -17z"/>
<path d="M3340 350 c-9 -6 -10 -10 -3 -10 6 0 15 5 18 10 8 12 4 12 -15 0z"/>
<path d="M3 280 c0 -36 2 -50 4 -32 2 17 2 47 0 65 -2 17 -4 3 -4 -33z"/>
<path d="M3385 320 c-3 -5 1 -10 9 -10 9 0 16 5 16 10 0 6 -4 10 -9 10 -6 0 -13 -4 -16 -10z"/>
<path d="M2378 288 c19 -19 975 -19 993 0 10 10 -89 12 -496 12 -407 0 -507 -3 -497 -12z"/>
<path d="M2 80 c0 -52 2 -77 7 -65 5 11 5 49 1 85 l-7 65 -1 -85z"/>
</g>
</g>
  <g id="id5:id5" transform="matrix(1.25,0,0,1.25,0.0,0.0)"><g transform="translate(0.000000,38.400000) scale(0.040000,-0.040000)" fill="#e9edef" stroke="none">
<path d="M120 945 c0 -13 210 -15 1774 -15 993 0 1785 -4 1798 -9 29 -11 70 -51 88 -88 47 -91 101 -140 145 -131 17 3 16 6 -10 19 -18 8 -53 48 -88 99 -31 47 -71 97 -87 113 l-29 27 -1795 0 c-1584 0 -1796 -2 -1796 -15z"/>
<path d="M37 900 c-27 -29 -37 -48 -37 -72 l1 -33 22 45 c12 25 36 54 54 65 36 23 42 35 15 35 -11 0 -35 -18 -55 -40z"/>
<path d="M74 868 l-19 -23 23 19 c12 11 22 21 22 23 0 8 -8 2 -26 -19z"/>
<path d="M3710 876 c0 -2 8 -10 18 -17 15 -13 16 -12 3 4 -13 16 -21 21 -21 13z"/>
<path d="M3835 700 c10 -11 20 -20 23 -20 3 0 -3 9 -13 20 -10 11 -20 20 -23 20 -3 0 3 -9 13 -20z"/>
<path d="M5670 693 c0 -5 14 -16 30 -25 16 -9 39 -32 50 -50 19 -31 20 -48 20 -303 -1 -148 -1 -280 0 -292 0 -14 6 -23 15 -23 13 0 15 39 15 289 0 282 -1 291 -22 328 -28 46 -67 82 -90 83 -10 0 -18 -3 -18 -7z"/>
<path d="M4348 663 c239 -2 626 -2 860 0 235 1 40 2 -433 2 -473 0 -665 -1 -427 -2z"/>
<path d="M5695 630 c10 -11 20 -20 23 -20 3 0 -3 9 -13 20 -10 11 -20 20 -23 20 -3 0 3 -9 13 -20z"/>
<path d="M3400 626 c0 -2 8 -10 18 -17 15 -13 16 -12 3 4 -13 16 -21 21 -21 13z"/>
<path d="M3 570 c0 -30 2 -43 4 -27 2 15 2 39 0 55 -2 15 -4 2 -4 -28z"/>
<path d="M2304 588 l-29 -33 33 29 c30 28 37 36 29 36 -2 0 -16 -15 -33 -32z"/>
<path d="M2420 590 c0 -5 5 -10 11 -10 5 0 7 5 4 10 -3 6 -8 10 -11 10 -2 0 -4 -4 -4 -10z"/>
<path d="M2262 538 c-7 -7 -11 -21 -11 -32 1 -21 1 -21 6 -1 3 11 10 26 15 33 13 15 6 16 -10 0z"/>
<path d="M3501 453 c-1 -76 -17 -114 -45 -112 -42 4 -55 -1 -50 -16 4 -10 0 -15 -11 -15 -10 0 -13 4 -9 13 5 8 2 7 -10 -2 -13 -11 -14 -16 -4 -22 8 -5 3 -11 -17 -19 -43 -16 -960 -9 -977 8 -9 9 -9 12 2 12 25 0 -6 22 -62 45 -49 20 -53 23 -64 70 -6 28 -12 41 -13 30 -1 -20 -8 -20 -1074 -19 -591 0 -1079 4 -1085 8 -7 4 -12 1 -12 -8 0 -24 -18 -19 -24 7 -3 12 -3 -7 0 -42 4 -61 12 -88 20 -66 3 7 379 9 1106 8 l1102 -2 46 -33 45 -33 495 -3 c272 -1 505 0 517 3 12 3 34 16 50 28 15 13 40 27 55 31 15 3 522 7 1127 9 876 1 1101 -1 1101 -10 0 -7 4 -13 9 -13 9 0 25 149 17 158 -4 3 -6 -11 -6 -31 0 -20 -4 -37 -10 -37 -5 0 -10 9 -10 21 0 11 -4 17 -10 14 -5 -3 -498 -7 -1095 -8 -1079 -2 -1086 -2 -1090 18 -2 11 -6 31 -8 45 -3 14 -5 -3 -6 -37z"/>
<path d="M3412 428 c-10 -30 -10 -31 3 -14 13 17 21 46 12 46 -1 0 -8 -15 -15 -32z"/>
<path d="M3379 373 c-13 -16 -12 -17 4 -4 16 13 21 21 13 21 -2 0 -10 -8 -17 -17z"/>
<path d="M3340 350 c-9 -6 -10 -10 -3 -10 6 0 15 5 18 10 8 12 4 12 -15 0z"/>
<path d="M3 280 c0 -36 2 -50 4 -32 2 17 2 47 0 65 -2 17 -4 3 -4 -33z"/>
<path d="M2 80 c0 -52 2 -77 7 -65 5 11 5 49 1 85 l-7 65 -1 -85z"/>
</g>
</g>
  <g id="id6:id6" transform="matrix(1.25,0,0,1.25,0.0,0.0)"><g transform="translate(0.000000,38.400000) scale(0.040000,-0.040000)" fill="#e2e7e9" stroke="none">
<path d="M120 945 c0 -13 210 -15 1774 -15 993 0 1785 -4 1798 -9 29 -11 70 -51 88 -88 47 -91 101 -140 145 -131 17 3 16 6 -10 19 -18 8 -53 48 -88 99 -31 47 -71 97 -87 113 l-29 27 -1795 0 c-1584 0 -1796 -2 -1796 -15z"/>
<path d="M37 900 c-27 -29 -37 -48 -37 -72 l1 -33 22 45 c12 25 36 54 54 65 36 23 42 35 15 35 -11 0 -35 -18 -55 -40z"/>
<path d="M33 750 c0 -30 2 -43 4 -27 2 15 2 39 0 55 -2 15 -4 2 -4 -28z"/>
<path d="M5670 693 c0 -5 14 -16 30 -25 16 -9 39 -32 50 -50 19 -31 20 -48 20 -303 -1 -148 -1 -280 0 -292 0 -14 6 -23 15 -23 13 0 15 39 15 289 0 282 -1 291 -22 328 -28 46 -67 82 -90 83 -10 0 -18 -3 -18 -7z"/>
<path d="M2374 638 l-19 -23 23 19 c21 18 27 26 19 26 -2 0 -12 -10 -23 -22z"/>
<path d="M3 570 c0 -30 2 -43 4 -27 2 15 2 39 0 55 -2 15 -4 2 -4 -28z"/>
<path d="M2420 590 c0 -5 5 -10 11 -10 5 0 7 5 4 10 -3 6 -8 10 -11 10 -2 0 -4 -4 -4 -10z"/>
<path d="M2265 529 c-4 -6 -5 -12 -2 -15 2 -3 7 2 10 11 7 17 1 20 -8 4z"/>
<path d="M3488 474 c4 -53 3 -56 -39 -92 l-42 -38 35 -1 c29 -1 38 4 47 23 12 28 15 150 4 157 -5 3 -6 -19 -5 -49z"/>
<path d="M32 490 c0 -14 2 -19 5 -12 2 6 2 18 0 25 -3 6 -5 1 -5 -13z"/>
<path d="M2251 470 c0 -14 2 -42 6 -63 5 -34 11 -41 50 -58 61 -26 61 -24 11 17 -23 20 -45 38 -47 40 -3 3 -8 23 -12 47 -4 24 -7 31 -8 17z"/>
<path d="M3412 428 c-10 -30 -10 -31 3 -14 13 17 21 46 12 46 -1 0 -8 -15 -15 -32z"/>
<path d="M5730 357 c0 -26 -4 -47 -10 -47 -5 0 -10 6 -10 13 0 9 -225 11 -1101 10 -605 -2 -1112 -6 -1127 -9 -15 -4 -40 -18 -55 -31 -16 -12 -38 -25 -50 -28 -12 -3 -245 -4 -517 -3 l-495 3 -45 33 -46 33 -1102 2 c-606 1 -1102 -1 -1102 -5 0 -21 -19 -4 -24 20 -2 15 -3 -6 -2 -46 3 -73 11 -96 24 -75 5 8 748 11 2823 11 l2816 0 10 -26 c8 -22 11 -9 17 76 5 57 5 106 2 109 -3 4 -6 -15 -6 -40z"/>
<path d="M3379 373 c-13 -16 -12 -17 4 -4 16 13 21 21 13 21 -2 0 -10 -8 -17 -17z"/>
<path d="M3340 350 c-9 -6 -10 -10 -3 -10 6 0 15 5 18 10 8 12 4 12 -15 0z"/>
<path d="M3 280 c0 -36 2 -50 4 -32 2 17 2 47 0 65 -2 17 -4 3 -4 -33z"/>
<path d="M2379 318 c12 -17 48 -18 496 -18 448 0 484 1 496 18 11 14 11 15 -1 5 -20 -19 -970 -19 -990 0 -12 10 -12 9 -1 -5z"/>
<path d="M2 80 c0 -52 2 -77 7 -65 5 11 5 49 1 85 l-7 65 -1 -85z"/>
</g>
</g>
  <g id="id7:id7" transform="matrix(1.25,0,0,1.25,0.0,0.0)"><g transform="translate(0.000000,38.400000) scale(0.040000,-0.040000)" fill="#dbe0e4" stroke="none">
<path d="M120 945 c0 -13 210 -15 1774 -15 993 0 1785 -4 1798 -9 29 -11 70 -51 88 -88 47 -91 101 -140 145 -131 17 3 16 6 -10 19 -18 8 -53 48 -88 99 -31 47 -71 97 -87 113 l-29 27 -1795 0 c-1584 0 -1796 -2 -1796 -15z"/>
<path d="M37 900 c-27 -29 -37 -48 -37 -72 l1 -33 22 45 c12 25 36 54 54 65 36 23 42 35 15 35 -11 0 -35 -18 -55 -40z"/>
<path d="M69 873 c-13 -16 -12 -17 4 -4 9 7 17 15 17 17 0 8 -8 3 -21 -13z"/>
<path d="M33 640 c0 -36 2 -50 4 -32 2 17 2 47 0 65 -2 17 -4 3 -4 -33z"/>
<path d="M5670 693 c0 -5 14 -16 30 -25 16 -9 39 -32 50 -50 19 -31 20 -48 20 -303 -1 -148 -1 -280 0 -292 0 -14 6 -23 15 -23 13 0 15 39 15 289 0 282 -1 291 -22 328 -28 46 -67 82 -90 83 -10 0 -18 -3 -18 -7z"/>
<path d="M3370 646 c0 -2 8 -10 18 -17 15 -13 16 -12 3 4 -13 16 -21 21 -21 13z"/>
<path d="M5690 646 c0 -2 8 -10 18 -17 15 -13 16 -12 3 4 -13 16 -21 21 -21 13z"/>
<path d="M3 570 c0 -30 2 -43 4 -27 2 15 2 39 0 55 -2 15 -4 2 -4 -28z"/>
<path d="M3431 585 c15 -17 32 -40 38 -52 15 -30 15 -104 -1 -101 -6 2 -14 -6 -16 -17 -2 -11 -16 -33 -30 -49 -20 -22 -14 -19 20 10 44 36 47 42 48 87 0 55 -16 91 -57 127 l-28 25 26 -30z"/>
<path d="M2420 590 c0 -5 5 -10 11 -10 5 0 7 5 4 10 -3 6 -8 10 -11 10 -2 0 -4 -4 -4 -10z"/>
<path d="M5743 510 c0 -30 2 -43 4 -27 2 15 2 39 0 55 -2 15 -4 2 -4 -28z"/>
<path d="M2261 469 c-1 -48 4 -57 59 -104 l35 -30 -25 30 c-14 17 -31 36 -39 43 -9 7 -18 34 -22 60 l-6 47 -2 -46z"/>
<path d="M33 415 c0 -33 2 -45 4 -27 2 18 2 45 0 60 -2 15 -4 0 -4 -33z"/>
<path d="M3412 428 c-10 -30 -10 -31 3 -14 13 17 21 46 12 46 -1 0 -8 -15 -15 -32z"/>
<path d="M3379 373 c-13 -16 -12 -17 4 -4 16 13 21 21 13 21 -2 0 -10 -8 -17 -17z"/>
<path d="M3340 350 c-9 -6 -10 -10 -3 -10 6 0 15 5 18 10 8 12 4 12 -15 0z"/>
<path d="M3 280 c0 -36 2 -50 4 -32 2 17 2 47 0 65 -2 17 -4 3 -4 -33z"/>
<path d="M5731 240 c-3 -50 -4 -53 -14 -28 l-10 26 -2819 0 c-1672 0 -2818 -4 -2818 -9 0 -20 -20 -7 -21 14 -1 17 -3 15 -8 -8 -4 -16 -5 -51 -3 -77 3 -39 8 -48 23 -48 11 0 22 -7 25 -15 5 -13 328 -15 2824 -15 l2819 0 6 52 c4 29 5 78 3 108 l-4 55 -3 -55z"/>
<path d="M2 80 c0 -52 2 -77 7 -65 5 11 5 49 1 85 l-7 65 -1 -85z"/>
<path d="M50 10 c0 -5 5 -10 10 -10 6 0 10 5 10 10 0 6 -4 10 -10 10 -5 0 -10 -4 -10 -10z"/>
</g>
</g>
  <g id="id8:id8" transform="matrix(1.25,0,0,1.25,0.0,0.0)"><g transform="translate(0.000000,38.400000) scale(0.040000,-0.040000)" fill="#d3d7d8" stroke="none">
<path d="M120 945 c0 -13 210 -15 1774 -15 993 0 1785 -4 1798 -9 29 -11 70 -51 88 -88 47 -91 101 -140 145 -131 17 3 16 6 -10 19 -18 8 -53 48 -88 99 -31 47 -71 97 -87 113 l-29 27 -1795 0 c-1584 0 -1796 -2 -1796 -15z"/>
<path d="M37 900 c-27 -29 -37 -48 -37 -72 l1 -33 22 45 c12 25 36 54 54 65 36 23 42 35 15 35 -11 0 -35 -18 -55 -40z"/>
<path d="M1023 913 c483 -2 1271 -2 1750 0 480 1 85 2 -878 2 -962 0 -1355 -1 -872 -2z"/>
<path d="M5670 693 c0 -5 14 -16 30 -25 16 -9 39 -32 50 -50 19 -31 20 -48 20 -303 -1 -148 -1 -280 0 -292 0 -14 6 -23 15 -23 13 0 15 39 15 289 0 282 -1 291 -22 328 -28 46 -67 82 -90 83 -10 0 -18 -3 -18 -7z"/>
<path d="M3928 673 c7 -3 16 -2 19 1 4 3 -2 6 -13 5 -11 0 -14 -3 -6 -6z"/>
<path d="M3405 600 c27 -27 51 -50 54 -50 3 0 -17 23 -44 50 -27 28 -51 50 -54 50 -3 0 17 -22 44 -50z"/>
<path d="M3 570 c0 -30 2 -43 4 -27 2 15 2 39 0 55 -2 15 -4 2 -4 -28z"/>
<path d="M2313 578 c-11 -13 -26 -33 -32 -45 -16 -32 -14 -99 5 -117 22 -23 28 -20 10 6 -30 42 -18 106 27 156 11 12 18 22 15 22 -2 0 -14 -10 -25 -22z"/>
<path d="M2420 590 c0 -5 5 -10 11 -10 5 0 7 5 4 10 -3 6 -8 10 -11 10 -2 0 -4 -4 -4 -10z"/>
<path d="M32 550 c0 -19 2 -27 5 -17 2 9 2 25 0 35 -3 9 -5 1 -5 -18z"/>
<path d="M3462 513 c0 -15 -3 -40 -7 -54 -5 -20 -3 -26 9 -26 12 0 16 11 16 41 0 47 -17 85 -18 39z"/>
<path d="M3412 428 c-10 -30 -10 -31 3 -14 13 17 21 46 12 46 -1 0 -8 -15 -15 -32z"/>
<path d="M5743 380 c0 -47 2 -66 4 -42 2 23 2 61 0 85 -2 23 -4 4 -4 -43z"/>
<path d="M3431 387 c-13 -21 -12 -21 5 -5 10 10 16 20 13 22 -3 3 -11 -5 -18 -17z"/>
<path d="M3379 373 c-13 -16 -12 -17 4 -4 16 13 21 21 13 21 -2 0 -10 -8 -17 -17z"/>
<path d="M33 285 c0 -44 2 -61 4 -37 2 23 2 59 0 80 -2 20 -4 1 -4 -43z"/>
<path d="M3340 350 c-9 -6 -10 -10 -3 -10 6 0 15 5 18 10 8 12 4 12 -15 0z"/>
<path d="M3 280 c0 -36 2 -50 4 -32 2 17 2 47 0 65 -2 17 -4 3 -4 -33z"/>
<path d="M32 154 c-1 -26 3 -46 13 -54 8 -7 12 -16 9 -21 -3 -5 1188 -9 2840 -9 l2846 0 -1 33 c-2 30 -2 30 -6 4 l-4 -27 -2819 0 c-2495 0 -2819 2 -2824 15 -3 8 -14 15 -25 15 -16 0 -21 8 -24 43 l-4 42 -1 -41z"/>
<path d="M2 80 c0 -52 2 -77 7 -65 5 11 5 49 1 85 l-7 65 -1 -85z"/>
<path d="M47 23 c-4 -3 -7 -11 -7 -17 0 -6 5 -4 10 4 8 13 11 13 19 1 5 -7 13 -11 19 -7 6 3 1277 6 2826 6 1789 1 2817 4 2821 10 7 11 -5677 14 -5688 3z"/>
</g>
</g>
  <g id="id9:id9" transform="matrix(1.25,0,0,1.25,0.0,0.0)"><g transform="translate(0.000000,38.400000) scale(0.040000,-0.040000)" fill="#cccfd1" stroke="none">
<path d="M120 945 c0 -13 210 -15 1774 -15 993 0 1785 -4 1798 -9 29 -11 70 -51 88 -88 47 -91 101 -140 145 -131 17 3 16 6 -10 19 -18 8 -53 48 -88 99 -31 47 -71 97 -87 113 l-29 27 -1795 0 c-1584 0 -1796 -2 -1796 -15z"/>
<path d="M37 900 c-27 -29 -37 -48 -37 -72 l1 -33 22 45 c12 25 36 54 54 65 36 23 42 35 15 35 -11 0 -35 -18 -55 -40z"/>
<path d="M3648 913 c7 -3 16 -2 19 1 4 3 -2 6 -13 5 -11 0 -14 -3 -6 -6z"/>
<path d="M35 839 c-4 -6 -5 -12 -2 -15 2 -3 7 2 10 11 7 17 1 20 -8 4z"/>
<path d="M5670 693 c0 -5 14 -16 30 -25 16 -9 39 -32 50 -50 19 -31 20 -48 20 -303 -1 -148 -1 -280 0 -292 0 -14 6 -23 15 -23 13 0 15 39 15 289 0 282 -1 291 -22 328 -28 46 -67 82 -90 83 -10 0 -18 -3 -18 -7z"/>
<path d="M3898 683 c7 -3 16 -2 19 1 4 3 -2 6 -13 5 -11 0 -14 -3 -6 -6z"/>
<path d="M4373 673 c236 -2 618 -2 850 0 232 1 40 2 -428 2 -467 0 -657 -1 -422 -2z"/>
<path d="M2384 628 l-29 -33 30 27 31 28 464 3 465 2 -466 3 -465 2 -30 -32z"/>
<path d="M3398 598 c43 -47 52 -63 52 -95 1 -30 3 -34 11 -21 16 29 0 63 -59 119 l-56 54 52 -57z"/>
<path d="M3 570 c0 -30 2 -43 4 -27 2 15 2 39 0 55 -2 15 -4 2 -4 -28z"/>
<path d="M2323 578 c-48 -54 -56 -110 -22 -164 25 -42 35 -45 14 -4 -25 48 -20 123 11 159 30 36 28 42 -3 9z"/>
<path d="M2420 590 c0 -5 5 -10 11 -10 5 0 7 5 4 10 -3 6 -8 10 -11 10 -2 0 -4 -4 -4 -10z"/>
<path d="M5753 510 c0 -30 2 -43 4 -27 2 15 2 39 0 55 -2 15 -4 2 -4 -28z"/>
<path d="M3412 428 c-10 -30 -10 -31 3 -14 13 17 21 46 12 46 -1 0 -8 -15 -15 -32z"/>
<path d="M3379 373 c-13 -16 -12 -17 4 -4 16 13 21 21 13 21 -2 0 -10 -8 -17 -17z"/>
<path d="M2330 366 c0 -2 8 -10 18 -17 15 -13 16 -12 3 4 -13 16 -21 21 -21 13z"/>
<path d="M3399 353 c-13 -16 -12 -17 4 -4 16 13 21 21 13 21 -2 0 -10 -8 -17 -17z"/>
<path d="M3340 350 c-9 -6 -10 -10 -3 -10 6 0 15 5 18 10 8 12 4 12 -15 0z"/>
<path d="M3 280 c0 -36 2 -50 4 -32 2 17 2 47 0 65 -2 17 -4 3 -4 -33z"/>
<path d="M5744 190 c0 -63 1 -89 3 -57 2 31 2 83 0 115 -2 31 -3 5 -3 -58z"/>
<path d="M2 80 c0 -52 2 -77 7 -65 5 11 5 49 1 85 l-7 65 -1 -85z"/>
<path d="M33 97 c4 -10 7 -23 7 -28 0 -5 1125 -8 2853 -7 l2852 3 -2848 2 c-1649 2 -2846 7 -2843 12 3 5 -2 15 -11 22 -15 12 -16 12 -10 -4z"/>
<path d="M36 24 c-10 -25 -7 -29 7 -11 11 16 196 17 2857 20 l2845 2 -2851 3 c-2593 2 -2852 1 -2858 -14z"/>
<path d="M385 10 c-165 -3 972 -6 2528 -8 1555 -1 2827 1 2827 6 0 8 -4885 10 -5355 2z"/>
</g>
</g>
  <g id="id10:id10" transform="matrix(1.25,0,0,1.25,0.0,0.0)"><g transform="translate(0.000000,38.400000) scale(0.040000,-0.040000)" fill="#bbbec1" stroke="none">
<path d="M120 945 c0 -8 6 -15 13 -15 6 0 808 0 1780 0 973 0 1766 -3 1763 -8 -3 -5 5 -8 17 -8 13 1 22 -5 22 -14 0 -9 8 -14 19 -12 13 3 17 -1 13 -12 -3 -8 -1 -18 5 -22 7 -5 8 -2 3 6 -6 9 -4 11 4 6 7 -5 10 -14 7 -22 -3 -7 0 -16 6 -20 7 -5 8 -2 3 6 -5 9 -4 11 4 6 6 -4 9 -16 6 -25 -3 -11 3 -28 15 -42 l21 -24 -17 30 -16 30 21 -25 c11 -14 19 -32 18 -40 -1 -9 5 -14 15 -12 9 1 20 -3 24 -9 5 -8 3 -9 -6 -4 -8 5 -11 4 -6 -3 4 -6 14 -8 23 -5 9 4 14 2 10 -3 -4 -6 6 -9 24 -6 32 5 32 9 -3 26 -13 6 -49 50 -81 96 -31 47 -71 97 -87 113 l-29 27 -1795 0 c-1590 0 -1796 -2 -1796 -15z"/>
<path d="M37 900 c-28 -29 -37 -47 -36 -72 0 -20 3 -27 7 -18 4 8 9 -147 12 -345 l6 -360 -1 372 c0 204 3 369 7 367 4 -2 10 1 14 7 5 8 3 9 -6 4 -8 -5 -11 -3 -8 6 3 8 10 14 16 14 6 0 17 7 24 15 11 12 10 12 -7 0 -19 -14 -19 -14 -6 3 8 10 20 16 28 13 8 -4 11 -1 7 5 -4 8 1 9 17 4 21 -7 22 -6 7 9 -25 24 -41 20 -81 -24z"/>
<path d="M5670 690 c0 -5 5 -10 11 -10 5 0 7 -4 4 -10 -3 -5 0 -7 8 -4 8 3 20 -3 28 -13 13 -17 13 -17 -6 -3 -19 14 -19 14 -6 -2 7 -10 17 -15 22 -13 4 3 15 -8 24 -25 13 -26 16 -72 15 -298 -1 -147 -1 -277 0 -289 0 -14 6 -23 15 -23 13 0 15 39 15 289 0 282 -1 291 -22 328 -13 21 -34 48 -48 60 -26 23 -60 30 -60 13z"/>
<path d="M4343 683 c236 -2 618 -2 850 0 232 1 40 2 -428 2 -467 0 -657 -1 -422 -2z"/>
<path d="M2358 597 c-57 -52 -58 -54 -58 -108 0 -30 5 -61 11 -69 8 -11 9 -8 5 17 -8 45 8 89 49 134 19 21 35 44 35 49 0 6 10 15 23 20 12 5 16 9 7 9 -8 1 -41 -23 -72 -52z"/>
<path d="M2663 643 c119 -2 315 -2 435 0 119 1 21 2 -218 2 -239 0 -337 -1 -217 -2z"/>
<path d="M3336 638 c5 -7 27 -37 51 -66 42 -51 49 -67 56 -127 2 -16 5 -2 6 33 1 63 1 63 -50 118 -47 49 -81 72 -63 42z"/>
<path d="M3 570 c0 -30 2 -43 4 -27 2 15 2 39 0 55 -2 15 -4 2 -4 -28z"/>
<path d="M5736 607 c3 -10 9 -15 12 -12 3 3 0 11 -7 18 -10 9 -11 8 -5 -6z"/>
<path d="M2420 590 c0 -5 5 -10 11 -10 5 0 7 5 4 10 -3 6 -8 10 -11 10 -2 0 -4 -4 -4 -10z"/>
<path d="M3412 428 c-10 -30 -10 -31 3 -14 13 17 21 46 12 46 -1 0 -8 -15 -15 -32z"/>
<path d="M5752 278 c-1 -102 -5 -193 -8 -202 -6 -15 -266 -16 -2854 -16 -2704 0 -2849 1 -2853 18 -3 9 -5 -1 -5 -23 0 -22 2 -34 5 -28 4 10 584 13 2854 13 l2849 0 0 -22 c0 -18 2 -20 9 -9 6 9 6 22 1 31 -6 10 -5 21 1 27 6 6 8 87 6 204 l-2 194 -3 -187z"/>
<path d="M3406 372 c-22 -27 -24 -32 -7 -17 20 17 47 55 39 55 -2 0 -16 -17 -32 -38z"/>
<path d="M2329 384 c14 -30 38 -48 38 -29 0 7 -4 13 -8 12 -4 -1 -15 7 -24 18 -16 20 -16 20 -6 -1z"/>
<path d="M3379 373 c-13 -16 -12 -17 4 -4 16 13 21 21 13 21 -2 0 -10 -8 -17 -17z"/>
<path d="M3340 350 c-13 -9 -13 -10 0 -10 13 0 13 -1 0 -10 -8 -5 -10 -10 -5 -10 6 0 17 5 25 10 11 7 11 10 2 10 -7 0 -10 5 -7 10 8 12 4 12 -15 0z"/>
<path d="M3 280 c0 -36 2 -50 4 -32 2 17 2 47 0 65 -2 17 -4 3 -4 -33z"/>
<path d="M2390 330 c8 -5 20 -10 25 -10 6 0 3 5 -5 10 -8 5 -19 10 -25 10 -5 0 -3 -5 5 -10z"/>
<path d="M2653 313 c126 -2 328 -2 450 0 122 1 20 2 -228 2 -247 0 -347 -1 -222 -2z"/>
<path d="M2 80 c0 -52 2 -77 7 -65 5 11 5 49 1 85 l-7 65 -1 -85z"/>
</g>
</g>
  <g id="id11:id11" transform="matrix(1.25,0,0,1.25,0.0,0.0)"><g transform="translate(0.000000,38.400000) scale(0.040000,-0.040000)" fill="#9c9b9b" stroke="none">
<path d="M120 945 c0 -13 210 -15 1774 -15 993 0 1785 -4 1798 -9 29 -11 70 -51 88 -88 47 -91 101 -140 145 -131 17 3 16 6 -10 19 -18 8 -53 48 -88 99 -31 47 -71 97 -87 113 l-29 27 -1795 0 c-1584 0 -1796 -2 -1796 -15z"/>
<path d="M37 900 c-27 -29 -37 -48 -37 -72 l1 -33 22 45 c12 25 36 54 54 65 36 23 42 35 15 35 -11 0 -35 -18 -55 -40z"/>
<path d="M5670 693 c0 -5 14 -16 30 -25 16 -9 39 -32 50 -50 19 -31 20 -48 20 -303 -1 -148 -1 -280 0 -292 0 -14 6 -23 15 -23 13 0 15 39 15 289 0 282 -1 291 -22 328 -28 46 -67 82 -90 83 -10 0 -18 -3 -18 -7z"/>
<path d="M3 570 c0 -30 2 -43 4 -27 2 15 2 39 0 55 -2 15 -4 2 -4 -28z"/>
<path d="M2420 590 c0 -5 5 -10 11 -10 5 0 7 5 4 10 -3 6 -8 10 -11 10 -2 0 -4 -4 -4 -10z"/>
<path d="M3412 428 c-10 -30 -10 -31 3 -14 13 17 21 46 12 46 -1 0 -8 -15 -15 -32z"/>
<path d="M3379 373 c-13 -16 -12 -17 4 -4 16 13 21 21 13 21 -2 0 -10 -8 -17 -17z"/>
<path d="M3340 350 c-9 -6 -10 -10 -3 -10 6 0 15 5 18 10 8 12 4 12 -15 0z"/>
<path d="M3 280 c0 -36 2 -50 4 -32 2 17 2 47 0 65 -2 17 -4 3 -4 -33z"/>
<path d="M2 80 c0 -52 2 -77 7 -65 5 11 5 49 1 85 l-7 65 -1 -85z"/>
</g>
</g>
  <g id="id12:id12" transform="matrix(1.25,0,0,1.25,0.0,0.0)"><g transform="translate(0.000000,38.400000) scale(0.040000,-0.040000)" fill="#a4a4a3" stroke="none">
<path d="M120 945 c0 -13 210 -15 1774 -15 993 0 1785 -4 1798 -9 29 -11 70 -51 88 -88 47 -91 101 -140 145 -131 17 3 16 6 -10 19 -18 8 -53 48 -88 99 -31 47 -71 97 -87 113 l-29 27 -1795 0 c-1584 0 -1796 -2 -1796 -15z"/>
<path d="M37 900 c-27 -29 -37 -48 -37 -72 l1 -33 22 45 c12 25 36 54 54 65 36 23 42 35 15 35 -11 0 -35 -18 -55 -40z"/>
<path d="M5670 693 c0 -5 14 -16 30 -25 16 -9 39 -32 50 -50 19 -31 20 -48 20 -303 -1 -148 -1 -280 0 -292 0 -14 6 -23 15 -23 13 0 15 39 15 289 0 282 -1 291 -22 328 -28 46 -67 82 -90 83 -10 0 -18 -3 -18 -7z"/>
<path d="M3 570 c0 -30 2 -43 4 -27 2 15 2 39 0 55 -2 15 -4 2 -4 -28z"/>
<path d="M2420 590 c0 -5 5 -10 11 -10 5 0 7 5 4 10 -3 6 -8 10 -11 10 -2 0 -4 -4 -4 -10z"/>
<path d="M3412 428 c-10 -30 -10 -31 3 -14 13 17 21 46 12 46 -1 0 -8 -15 -15 -32z"/>
<path d="M3379 373 c-13 -16 -12 -17 4 -4 16 13 21 21 13 21 -2 0 -10 -8 -17 -17z"/>
<path d="M3340 350 c-9 -6 -10 -10 -3 -10 6 0 15 5 18 10 8 12 4 12 -15 0z"/>
<path d="M3 280 c0 -36 2 -50 4 -32 2 17 2 47 0 65 -2 17 -4 3 -4 -33z"/>
<path d="M2 80 c0 -52 2 -77 7 -65 5 11 5 49 1 85 l-7 65 -1 -85z"/>
</g>
</g>
  <g id="id13:id13" transform="matrix(1.25,0,0,1.25,0.0,0.0)"><g transform="translate(0.000000,38.400000) scale(0.040000,-0.040000)" fill="#5e5c5c" stroke="none">
<path d="M120 945 c0 -13 210 -15 1774 -15 993 0 1785 -4 1798 -9 29 -11 70 -51 88 -88 47 -91 101 -140 145 -131 17 3 16 6 -10 19 -18 8 -53 48 -88 99 -31 47 -71 97 -87 113 l-29 27 -1795 0 c-1584 0 -1796 -2 -1796 -15z"/>
<path d="M37 900 c-27 -29 -37 -48 -37 -72 l1 -33 22 45 c12 25 36 54 54 65 36 23 42 35 15 35 -11 0 -35 -18 -55 -40z"/>
<path d="M5670 693 c0 -5 14 -16 30 -25 16 -9 39 -32 50 -50 19 -31 20 -48 20 -303 -1 -148 -1 -280 0 -292 0 -14 6 -23 15 -23 13 0 15 39 15 289 0 282 -1 291 -22 328 -28 46 -67 82 -90 83 -10 0 -18 -3 -18 -7z"/>
<path d="M3 570 c0 -30 2 -43 4 -27 2 15 2 39 0 55 -2 15 -4 2 -4 -28z"/>
<path d="M2420 590 c0 -5 5 -10 11 -10 5 0 7 5 4 10 -3 6 -8 10 -11 10 -2 0 -4 -4 -4 -10z"/>
<path d="M3412 428 c-10 -30 -10 -31 3 -14 13 17 21 46 12 46 -1 0 -8 -15 -15 -32z"/>
<path d="M3379 373 c-13 -16 -12 -17 4 -4 16 13 21 21 13 21 -2 0 -10 -8 -17 -17z"/>
<path d="M3340 350 c-9 -6 -10 -10 -3 -10 6 0 15 5 18 10 8 12 4 12 -15 0z"/>
<path d="M3 280 c0 -36 2 -50 4 -32 2 17 2 47 0 65 -2 17 -4 3 -4 -33z"/>
<path d="M2 80 c0 -52 2 -77 7 -65 5 11 5 49 1 85 l-7 65 -1 -85z"/>
</g>
</g>
  <g id="id14:id14" transform="matrix(1.25,0,0,1.25,0.0,0.0)"><g transform="translate(0.000000,38.400000) scale(0.040000,-0.040000)" fill="#7c7b7b" stroke="none">
<path d="M120 945 c0 -13 210 -15 1774 -15 993 0 1785 -4 1798 -9 29 -11 70 -51 88 -88 47 -91 101 -140 145 -131 17 3 16 6 -10 19 -18 8 -53 48 -88 99 -31 47 -71 97 -87 113 l-29 27 -1795 0 c-1584 0 -1796 -2 -1796 -15z"/>
<path d="M37 900 c-27 -29 -37 -48 -37 -72 l1 -33 22 45 c12 25 36 54 54 65 36 23 42 35 15 35 -11 0 -35 -18 -55 -40z"/>
<path d="M5670 693 c0 -5 14 -16 30 -25 16 -9 39 -32 50 -50 19 -31 20 -48 20 -303 -1 -148 -1 -280 0 -292 0 -14 6 -23 15 -23 13 0 15 39 15 289 0 282 -1 291 -22 328 -28 46 -67 82 -90 83 -10 0 -18 -3 -18 -7z"/>
<path d="M3 570 c0 -30 2 -43 4 -27 2 15 2 39 0 55 -2 15 -4 2 -4 -28z"/>
<path d="M2420 590 c0 -5 5 -10 11 -10 5 0 7 5 4 10 -3 6 -8 10 -11 10 -2 0 -4 -4 -4 -10z"/>
<path d="M3412 428 c-10 -30 -10 -31 3 -14 13 17 21 46 12 46 -1 0 -8 -15 -15 -32z"/>
<path d="M3379 373 c-13 -16 -12 -17 4 -4 16 13 21 21 13 21 -2 0 -10 -8 -17 -17z"/>
<path d="M3340 350 c-9 -6 -10 -10 -3 -10 6 0 15 5 18 10 8 12 4 12 -15 0z"/>
<path d="M3 280 c0 -36 2 -50 4 -32 2 17 2 47 0 65 -2 17 -4 3 -4 -33z"/>
<path d="M2 80 c0 -52 2 -77 7 -65 5 11 5 49 1 85 l-7 65 -1 -85z"/>
</g>
</g>
  <g id="id15:id15" transform="matrix(1.25,0,0,1.25,0.0,0.0)"><g transform="translate(0.000000,38.400000) scale(0.040000,-0.040000)" fill="#585757" stroke="none">
<path d="M120 945 c0 -13 210 -15 1774 -15 993 0 1785 -4 1798 -9 29 -11 70 -51 88 -88 47 -91 101 -140 145 -131 17 3 16 6 -10 19 -18 8 -53 48 -88 99 -31 47 -71 97 -87 113 l-29 27 -1795 0 c-1584 0 -1796 -2 -1796 -15z"/>
<path d="M37 900 c-27 -29 -37 -48 -37 -72 l1 -33 22 45 c12 25 36 54 54 65 36 23 42 35 15 35 -11 0 -35 -18 -55 -40z"/>
<path d="M5670 693 c0 -5 14 -16 30 -25 16 -9 39 -32 50 -50 19 -31 20 -48 20 -303 -1 -148 -1 -280 0 -292 0 -14 6 -23 15 -23 13 0 15 39 15 289 0 282 -1 291 -22 328 -28 46 -67 82 -90 83 -10 0 -18 -3 -18 -7z"/>
<path d="M3 570 c0 -30 2 -43 4 -27 2 15 2 39 0 55 -2 15 -4 2 -4 -28z"/>
<path d="M2420 590 c0 -5 5 -10 11 -10 5 0 7 5 4 10 -3 6 -8 10 -11 10 -2 0 -4 -4 -4 -10z"/>
<path d="M3412 428 c-10 -30 -10 -31 3 -14 13 17 21 46 12 46 -1 0 -8 -15 -15 -32z"/>
<path d="M3379 373 c-13 -16 -12 -17 4 -4 16 13 21 21 13 21 -2 0 -10 -8 -17 -17z"/>
<path d="M3340 350 c-9 -6 -10 -10 -3 -10 6 0 15 5 18 10 8 12 4 12 -15 0z"/>
<path d="M3 280 c0 -36 2 -50 4 -32 2 17 2 47 0 65 -2 17 -4 3 -4 -33z"/>
<path d="M2 80 c0 -52 2 -77 7 -65 5 11 5 49 1 85 l-7 65 -1 -85z"/>
</g>
</g>
</svg>
