<svg version="1.1" viewBox="0 0 289 48" xmlns="http://www.w3.org/2000/svg" xmlns:bx="https://boxy-svg.com" preserveAspectRatio="none">
  <defs>
    <linearGradient id="Gradient1" x1="0" x2="0" y1="0" y2="1">
      <stop offset="0" stop-color="#FFFFFE"></stop>
      <stop offset="0.7" stop-color="#E2E6E9"></stop>
      <stop offset="1" stop-color="#BABFC2"></stop>
    </linearGradient>
  </defs>
  <path d="M 4.698 0 C 8.373 0 175.709 0.018 176.418 0.004 C 179.207 0 185.745 0.862 187.665 2.564 C 188.169 2.918 192.815 8.973 194.447 10.661 C 195.785 11.644 195.656 12.315 198.325 12.315 C 272.375 12.315 284.509 12.315 285.47 12.315 C 287.618 12.315 288.334 12.932 288.912 16.522 C 288.881 18.733 289.178 45.117 289.05 48.041 C 286.318 48.046 4.484 48.115 0 48.076 C 0 44.341 0 6.904 0 4.187 C 1.348 1.807 1.441 0 4.698 0 Z M 121.234 18.236 C 113.142 18.305 113.142 31.332 121.234 31.333 C 141.48 31.336 167.045 31.339 169.016 31.333 C 176.697 31.333 176.697 18.236 169.016 18.236 C 146.263 18.236 122.532 18.305 121.234 18.236 Z" fill="url(#Gradient1)"></path>
  <path d="M -8.242 0.154 C 126.726 0.162 167.724 0.168 168.433 0.154 C 172.185 0.216 174.539 1.016 176.276 3.066 C 177.377 4.548 181.246 9.423 182.467 10.715 C 183.022 11.302 184.723 12.469 186.321 12.469 C 260.138 12.474 272.572 12.469 273.425 12.469 C 275.041 12.469 276.85 12.469 276.751 15.191 C 276.802 16.656 276.906 45.641 276.887 48.184 C 275.04 48.212 -9.643 48.175 -12.199 48.154 C -12.199 47.122 -12.199 4.992 -12.199 4.061 C -12.199 1.97 -10.039 0.154 -8.242 0.154 Z M -11.355 5.184 C -11.355 7.988 -11.355 33.304 -11.355 47.308 C -6.031 47.308 273.753 47.308 276.135 47.308 C 276.135 46.807 276.135 17.098 276.135 15.416 C 276.135 13.086 274.315 13.086 272.765 13.086 C 271.548 13.086 186.271 13.086 185.202 13.086 C 182.609 12.469 180.941 10.33 180.303 9.562 C 179.584 8.698 175.948 4.173 175.948 4.173 C 175.948 4.173 174.449 2.445 173.19 1.78 C 172.004 0.815 165.811 1.097 164.743 1.097 C 163.446 1.097 -6.303 1.282 -7.369 1.282 C -9.114 1.282 -11.355 2.552 -11.355 5.184 Z" fill="#C3C6C7" transform="translate(12.198577880859375,-0.153900146484375)"></path>
  <path d="M 125.599 16.948 C 126.247 16.956 160.085 16.928 161.243 16.953 C 162.626 16.983 170.339 17.132 171.97 18.236 C 174.352 20.275 175.768 21.924 175.811 24.947 C 175.647 26.298 174.528 31.275 169.016 31.945 C 167.234 31.946 126.732 31.731 125.599 31.749 C 125.025 31.758 120.084 31.459 119.129 31.333 C 116.859 30.75 115.607 28.144 115.403 27.724 C 114.928 26.651 114.779 24.877 114.729 24.349 C 114.652 23.545 115.861 20.46 115.861 20.46 C 117.352 16.801 125.021 16.941 125.599 16.948 Z M 118.326 18.714 C 116.203 19.554 114.434 23.202 115.111 26.373 C 115.442 27.923 116.756 30.96 119.733 31.333 C 122.562 31.455 124.115 31.596 126.939 31.578 C 154.11 31.585 166.196 31.776 167.228 31.777 C 167.48 31.777 171.462 31.809 172.769 30.136 C 177.793 24.586 173.425 19.657 172.653 19.259 C 171.845 18.241 170.323 18.236 169.699 17.933 C 168.609 17.875 124.554 17.964 125.599 17.962 C 126.568 17.96 119.141 17.861 118.326 18.714 Z" fill="#A2A2A1" style=""></path>
  <path d="M 168.613 17.485 C 168.867 17.377 170.409 17.551 171.081 18.236 C 170.171 17.971 169.524 17.855 168.546 17.769 C 169.157 17.727 169.921 17.803 170.266 17.883 C 169.61 17.55 168.94 17.581 168.613 17.485 Z" fill="#B2B1B2"></path>
  <path d="M 121.195 17.465 C 121.582 17.417 122.392 17.23 123.008 17.259 C 122.418 17.442 121.686 17.575 120.892 17.825 C 121.47 17.778 122.162 17.899 121.564 17.903 C 121.17 17.906 120.708 17.913 120.151 18.017 C 119.712 18.029 119.51 18.042 119.042 18.023 C 119.41 17.754 120.64 17.617 121.195 17.465 Z" fill="#B2B1B2" style=""></path>
  <path d="M 0.844 45.492 C 1.499 45.492 287.365 45.492 288.334 45.492 C 288.334 45.746 288.334 45.978 288.334 45.978 C 288.334 45.978 22.855 46 0.844 45.978 C 0.844 45.765 0.844 45.791 0.844 45.492 Z" fill="#A8A7A7" style=""></path>
</svg>