<svg width="44.2" height="64.401" viewBox="0 0 44.2 64.401" xmlns="http://www.w3.org/2000/svg"><g id="svgGroup" stroke-linecap="round" fill-rule="evenodd" font-size="9pt" stroke="#23a9f2" stroke-width="0.20mm" fill="#23a9f2" style="stroke:#23a9f2;stroke-width:0.20mm;fill:#23a9f2"><path d="M 2.8 64.401 L 0 64.401 L 0 0.001 L 25.6 0.001 A 30.599 30.599 0 0 1 30.677 0.392 Q 36.609 1.393 39.7 4.951 A 16.689 16.689 0 0 1 43.177 11.643 Q 43.846 14.112 43.971 17.03 A 31.93 31.93 0 0 1 44 18.401 A 26.495 26.495 0 0 1 43.529 23.548 Q 42.688 27.79 40.35 30.801 Q 36.786 35.39 29.645 36.547 A 26.817 26.817 0 0 1 29.3 36.601 A 10.748 10.748 0 0 1 30.923 37.403 Q 31.79 37.934 32.407 38.586 A 5.734 5.734 0 0 1 32.95 39.251 Q 34.1 40.901 35.3 43.601 L 44.2 64.401 L 41.4 64.401 L 32.6 44.201 Q 31.72 42.12 30.68 40.712 A 10.56 10.56 0 0 0 30.15 40.051 Q 28.8 38.501 26.35 37.801 Q 24.137 37.168 20.333 37.107 A 51.835 51.835 0 0 0 19.5 37.101 L 2.8 37.101 L 2.8 64.401 Z M 2.8 2.501 L 2.8 34.601 L 24.6 34.601 A 25.657 25.657 0 0 0 29.516 34.158 Q 32.46 33.583 34.767 32.261 A 14.155 14.155 0 0 0 36.8 30.851 A 11.271 11.271 0 0 0 40.104 26.056 Q 41.3 22.887 41.3 18.401 A 23.724 23.724 0 0 0 40.563 12.205 Q 38.641 5.116 31.703 3.206 A 21.883 21.883 0 0 0 25.9 2.501 L 2.8 2.501 Z" vector-effect="non-scaling-stroke"/></g></svg>