<svg width="50.601" height="65.401" viewBox="0 0 50.601 65.401" xmlns="http://www.w3.org/2000/svg"><g id="svgGroup" stroke-linecap="round" fill-rule="evenodd" font-size="9pt" stroke="#23a9f2" stroke-width="0.20mm" fill="#23a9f2" style="stroke:#23a9f2;stroke-width:0.20mm;fill:#23a9f2"><path d="M 0 41.3 L 0 0 L 2.8 0 L 2.8 42.5 A 28.251 28.251 0 0 0 3.367 48.352 Q 4.12 51.906 5.874 54.569 A 14.926 14.926 0 0 0 8.75 57.8 Q 14.7 62.8 25.3 62.8 A 36.81 36.81 0 0 0 31.805 62.262 Q 35.397 61.616 38.246 60.195 A 18.165 18.165 0 0 0 41.9 57.8 A 15.753 15.753 0 0 0 46.788 50.121 Q 47.579 47.499 47.752 44.322 A 33.544 33.544 0 0 0 47.8 42.5 L 47.8 0 L 50.6 0 L 50.6 41.3 A 36.31 36.31 0 0 1 49.999 48.123 Q 48.678 55.022 44.45 59.25 Q 39.693 64.007 30.836 65.085 A 45.921 45.921 0 0 1 25.3 65.4 A 43.562 43.562 0 0 1 18.271 64.872 Q 10.498 63.598 6.15 59.25 Q 0 53.1 0 41.3 Z" vector-effect="non-scaling-stroke"/></g></svg>