<svg width="15.47" height="22.54" viewBox="0 0 15.47 22.54" xmlns="http://www.w3.org/2000/svg"><g id="svgGroup" stroke-linecap="round" fill-rule="evenodd" font-size="9pt" stroke="#23a9f2" stroke-width="0.3mm" fill="#23a9f2" style="stroke:#23a9f2;stroke-width:0.3mm;fill:#23a9f2"><path d="M 0.98 22.54 L 0 22.54 L 0 0 L 8.96 0 A 10.709 10.709 0 0 1 10.737 0.137 Q 11.678 0.296 12.414 0.638 A 4.37 4.37 0 0 1 13.895 1.733 A 5.841 5.841 0 0 1 15.112 4.075 Q 15.346 4.939 15.39 5.96 A 11.175 11.175 0 0 1 15.4 6.44 A 9.273 9.273 0 0 1 15.235 8.242 Q 15.017 9.344 14.51 10.208 A 5.317 5.317 0 0 1 14.122 10.78 Q 12.875 12.387 10.376 12.791 A 9.384 9.384 0 0 1 10.255 12.81 A 3.762 3.762 0 0 1 10.823 13.091 Q 11.126 13.277 11.342 13.505 A 2.007 2.007 0 0 1 11.532 13.738 A 6.445 6.445 0 0 1 11.837 14.223 Q 11.989 14.488 12.143 14.804 A 14.108 14.108 0 0 1 12.355 15.26 L 15.47 22.54 L 14.49 22.54 L 11.41 15.47 A 7.266 7.266 0 0 0 11.096 14.815 Q 10.84 14.348 10.553 14.018 Q 10.083 13.479 9.234 13.233 A 4.067 4.067 0 0 0 9.222 13.23 Q 8.448 13.009 7.116 12.988 A 18.142 18.142 0 0 0 6.825 12.985 L 0.98 12.985 L 0.98 22.54 Z M 0.98 0.875 L 0.98 12.11 L 8.61 12.11 A 8.98 8.98 0 0 0 10.33 11.955 Q 11.846 11.659 12.88 10.798 Q 14.125 9.76 14.386 7.64 A 9.841 9.841 0 0 0 14.455 6.44 A 8.303 8.303 0 0 0 14.197 4.272 Q 13.276 0.875 9.065 0.875 L 0.98 0.875 Z" id="0" vector-effect="non-scaling-stroke"/></g></svg>