<svg width="29.601" height="65.4" viewBox="0 0 29.601 65.4" xmlns="http://www.w3.org/2000/svg"><g id="svgGroup" stroke-linecap="round" fill-rule="evenodd" font-size="9pt" stroke="#23a9f2" stroke-width="0.20mm" fill="#23a9f2" style="stroke:#23a9f2;stroke-width:0.20mm;fill:#23a9f2"><path d="M 0 63 L 0 60.4 Q 5 62.8 12.2 62.8 A 30.541 30.541 0 0 0 16.118 62.567 Q 21.077 61.923 23.5 59.5 Q 25.999 57.001 26.606 52.322 A 25.113 25.113 0 0 0 26.8 49.1 L 26.8 0 L 29.6 0 L 29.6 49.1 Q 29.6 57.2 25.55 61.3 Q 21.5 65.4 12.6 65.4 Q 8.6 65.4 5.4 64.7 A 35.595 35.595 0 0 1 2.965 64.082 Q 1.306 63.594 0 63 Z" vector-effect="non-scaling-stroke"/></g></svg>