<svg width="17.71" height="22.89" viewBox="0 0 17.71 22.89" xmlns="http://www.w3.org/2000/svg"><g id="svgGroup" stroke-linecap="round" fill-rule="evenodd" font-size="9pt" stroke="#23a9f2" stroke-width="0.3mm" fill="#23a9f2" style="stroke:#23a9f2;stroke-width:0.3mm;fill:#23a9f2"><path d="M 0 14.455 L 0 0 L 0.98 0 L 0.98 14.875 A 9.888 9.888 0 0 0 1.178 16.923 Q 1.623 19.02 3.063 20.23 A 6.952 6.952 0 0 0 5.597 21.556 Q 6.626 21.861 7.859 21.946 A 14.366 14.366 0 0 0 8.855 21.98 A 12.883 12.883 0 0 0 11.132 21.792 Q 12.389 21.566 13.386 21.068 A 6.358 6.358 0 0 0 14.665 20.23 Q 16.543 18.639 16.713 15.513 A 11.74 11.74 0 0 0 16.73 14.875 L 16.73 0 L 17.71 0 L 17.71 14.455 A 12.709 12.709 0 0 1 17.5 16.843 Q 17.232 18.239 16.625 19.323 A 6.449 6.449 0 0 1 15.558 20.737 A 6.567 6.567 0 0 1 13.115 22.246 Q 12.077 22.623 10.793 22.78 A 16.072 16.072 0 0 1 8.855 22.89 A 15.247 15.247 0 0 1 6.395 22.705 Q 5.12 22.496 4.108 22.051 A 6.346 6.346 0 0 1 2.153 20.737 Q 0.264 18.849 0.032 15.437 A 14.52 14.52 0 0 1 0 14.455 Z" id="0" vector-effect="non-scaling-stroke"/></g></svg>