<svg width="10.36" height="22.89" viewBox="0 0 10.36 22.89" xmlns="http://www.w3.org/2000/svg"><g id="svgGroup" stroke-linecap="round" fill-rule="evenodd" font-size="9pt" stroke="#23a9f2" stroke-width="0.3mm" fill="#23a9f2" style="stroke:#23a9f2;stroke-width:0.3mm;fill:#23a9f2"><path d="M 0 22.05 L 0 21.14 A 8.061 8.061 0 0 0 1.926 21.767 Q 2.799 21.94 3.801 21.973 A 14.48 14.48 0 0 0 4.27 21.98 A 10.689 10.689 0 0 0 5.641 21.899 Q 7.145 21.703 7.983 21.04 A 2.797 2.797 0 0 0 8.225 20.825 Q 9.38 19.67 9.38 17.185 L 9.38 0 L 10.36 0 L 10.36 17.185 A 9.027 9.027 0 0 1 10.223 18.811 Q 10.06 19.703 9.7 20.402 A 4.26 4.26 0 0 1 8.943 21.455 A 4.255 4.255 0 0 1 7.377 22.436 Q 6.699 22.69 5.852 22.802 A 11.021 11.021 0 0 1 4.41 22.89 A 13.761 13.761 0 0 1 3.08 22.829 A 10.182 10.182 0 0 1 1.89 22.645 Q 0.978 22.445 0.298 22.176 A 6.513 6.513 0 0 1 0 22.05 Z" id="0" vector-effect="non-scaling-stroke"/></g></svg>