<?xml version="1.0" encoding="UTF-8"?>
<svg xmlns="http://www.w3.org/2000/svg" id="Layer_1" data-name="Layer 1" viewBox="0 0 24 24" width="512" height="512" style="fill:#ffffff">
  <defs>
    <filter id="white-shadow">
      <feDropShadow dx="0" dy="0" stdDeviation="0.5" flood-color="#ffffff"/>
    </filter>
  </defs>
  <g filter="url(#white-shadow)">
    <path d="m21,17h-2v-2h-2v2h-4V7.873c1.724-.445,3-2.013,3-3.873,0-2.206-1.794-4-4-4s-4,1.794-4,4c0,1.86,1.276,3.428,3,3.873v9.127H3c-1.654,0-3,1.346-3,3v4h24v-4c0-1.654-1.346-3-3-3ZM10,4c0-1.103.897-2,2-2s2,.897,2,2-.897,2-2,2-2-.897-2-2Zm12,18H2v-2c0-.551.448-1,1-1h18c.552,0,1,.449,1,1v2Z"/>
  </g>
</svg>
