<svg width="13.839" height="19.343" viewBox="0 0 13.839 19.343" xmlns="http://www.w3.org/2000/svg"><g id="svgGroup" stroke-linecap="round" fill-rule="evenodd" font-size="9pt" stroke="#23a9f2" stroke-width=".5" fill="#23a9f2" style="stroke:#23a9f2;stroke-width:.5;fill:#23a9f2"><path d="M 1.65 19.343 L 0 19.343 L 0 0.023 L 8.07 0.023 Q 11.1 0.023 12.465 1.583 Q 13.83 3.143 13.83 5.783 Q 13.83 8.003 12.765 9.413 Q 11.7 10.823 9.57 11.243 Q 10.26 11.573 10.575 12.053 Q 10.89 12.533 11.25 13.313 L 13.83 19.343 L 12.15 19.343 L 9.6 13.523 Q 9.3 12.833 8.94 12.413 Q 8.58 11.993 7.95 11.798 Q 7.32 11.603 6.18 11.603 L 1.65 11.603 L 1.65 19.343 Z M 1.65 1.373 L 1.65 10.283 L 7.59 10.283 Q 9.72 10.283 10.95 9.218 Q 12.18 8.153 12.18 5.783 Q 12.18 1.373 7.95 1.373 L 1.65 1.373 Z" id="0" vector-effect="non-scaling-stroke"/></g></svg>