<svg width="594" height="198" viewBox="0 0 105 38" fill="none" xmlns="http://www.w3.org/2000/svg" preserveAspectRatio="xMidYMid meet">
    <path d="M19.6961 7.36426C13.93 7.36426 10.0605 10.7317 10.0605 17.2644V21.922C10.646 21.6334 11.2885 21.4802 11.9408 21.4737C12.5943 21.4739 13.2392 21.6234 13.8265 21.9111V17.2425C13.8265 13.0059 16.1591 10.8301 19.7125 10.8301C23.2659 10.8301 25.5658 13.0059 25.5658 17.2425V27.4215H29.3208V17.2425C29.3317 10.6716 25.4622 7.36426 19.6961 7.36426Z" fill="black"></path>
    <path d="M31.375 17.641C31.375 11.6987 35.735 7.3418 41.8771 7.3418C48.0193 7.3418 52.303 11.7151 52.303 17.641V19.0241H35.3208C35.8658 22.5118 38.4818 24.4525 41.8608 24.4525C44.3896 24.4525 46.1663 23.6598 47.3108 21.9597H51.4528C49.954 25.6005 46.4006 27.9402 41.8608 27.9402C35.7187 27.9402 31.375 23.5833 31.375 17.641ZM48.3517 15.6621C47.5996 12.5297 45.0381 10.8295 41.8771 10.8295C38.7161 10.8295 36.1928 12.5734 35.4407 15.6621H48.3517Z" fill="black"></path>
    <path d="M54.3086 17.6424C54.3086 11.7056 58.6686 7.34863 64.8107 7.34863C70.9529 7.34863 75.3129 11.722 75.3129 17.6424C75.3129 23.5628 70.9529 27.9416 64.8107 27.9416C58.6686 27.9416 54.3086 23.5846 54.3086 17.6424ZM71.5251 17.6424C71.5251 13.6845 68.8383 10.8309 64.8107 10.8309C60.7832 10.8309 58.1018 13.6845 58.1018 17.6424C58.1018 21.6002 60.7832 24.4538 64.8053 24.4538C68.8274 24.4538 71.5251 21.6057 71.5251 17.6424V17.6424Z" fill="black"></path>
    <path d="M96.7656 31.3188H97.2016C99.6105 31.3188 100.515 30.2255 100.515 27.4922V7.99805H104.27V27.2407C104.27 32.0733 102.374 34.5661 97.5559 34.5661H96.7656V31.3188Z" fill="black"></path>
    <path d="M94.8907 29.3071H91.1357V24.666H81.6254C80.7572 24.6963 79.8975 24.4851 79.1414 24.0558C78.3854 23.6265 77.7625 22.9957 77.3417 22.2333C76.9999 21.5167 76.8667 20.718 76.9573 19.9289C77.048 19.1398 77.3588 18.3923 77.854 17.7725L86.3887 6.53848C86.9786 5.73992 87.8044 5.1481 88.7487 4.84709C89.693 4.54608 90.7079 4.55117 91.6492 4.86165C92.5904 5.17213 93.4103 5.77221 93.9922 6.57665C94.5741 7.38109 94.8885 8.349 94.8907 9.34288V21.3258H97.7084V24.666H94.8907V29.3071ZM80.9769 19.8279C80.8647 19.9881 80.8038 20.1788 80.8025 20.3746C80.8018 20.499 80.8257 20.6223 80.8728 20.7374C80.9199 20.8525 80.9893 20.957 81.077 21.045C81.1647 21.1329 81.269 21.2026 81.3837 21.2498C81.4984 21.2971 81.6213 21.3211 81.7453 21.3203H91.1357V9.24995C91.1426 9.04679 91.0829 8.84696 90.9658 8.68108C90.8486 8.5152 90.6805 8.39242 90.4871 8.33155C90.3754 8.29968 90.2599 8.28313 90.1438 8.28235C89.997 8.28226 89.8524 8.31866 89.7231 8.3883C89.5938 8.45794 89.4836 8.55865 89.4026 8.68142L80.9769 19.8279Z" fill="black"></path>
    <path d="M102.41 4.63489e-06C101.774 -0.00107696 101.152 0.187166 100.622 0.540912C100.093 0.894658 99.68 1.39801 99.4358 1.98726C99.1916 2.57652 99.1271 3.2252 99.2506 3.85121C99.374 4.47722 99.6798 5.05243 100.129 5.50405C100.579 5.95567 101.152 6.2634 101.776 6.38829C102.4 6.51319 103.046 6.44963 103.634 6.20568C104.222 5.96172 104.725 5.54833 105.078 5.0178C105.432 4.48728 105.62 3.86348 105.62 3.22534C105.62 2.37087 105.282 1.55132 104.681 0.946613C104.079 0.341903 103.262 0.00145288 102.41 4.63489e-06V4.63489e-06Z" fill="#018BFF"></path>
    <path d="M11.7774 22.6714C11.0801 22.6721 10.4022 22.9026 9.84815 23.3274L6.31655 20.9057C6.39515 20.6226 6.43547 20.3303 6.43645 20.0365C6.44401 19.3983 6.26233 18.7722 5.91447 18.2379C5.56661 17.7035 5.06828 17.2848 4.48275 17.0351C3.89721 16.7853 3.25089 16.7158 2.62587 16.8352C2.00084 16.9547 1.42529 17.2577 0.972322 17.7059C0.51935 18.1541 0.209384 18.7272 0.0817852 19.3525C-0.0458137 19.9777 0.0147107 20.6269 0.255673 21.2176C0.496635 21.8083 0.907164 22.3138 1.43513 22.67C1.96309 23.0262 2.58468 23.2169 3.22095 23.2181C3.91853 23.2185 4.59674 22.9879 5.15025 22.5621L8.67095 25.0002C8.51103 25.5704 8.51103 26.1738 8.67095 26.7441L5.13935 29.1658C4.58881 28.7422 3.9148 28.5117 3.22095 28.5098C2.58452 28.5087 1.96208 28.6971 1.43246 29.0511C0.902842 29.4051 0.489859 29.9087 0.24581 30.4983C0.00176102 31.0879 -0.0623759 31.7368 0.0615211 32.363C0.185418 32.9892 0.491776 33.5644 0.9418 34.0158C1.39182 34.4672 1.96527 34.7745 2.58952 34.8987C3.21378 35.023 3.86076 34.9587 4.44854 34.7139C5.03631 34.4691 5.53845 34.0548 5.89136 33.5236C6.24427 32.9924 6.43207 32.368 6.431 31.7297C6.43083 31.4397 6.39234 31.1511 6.31655 30.8714L9.84815 28.4497C10.4022 28.8744 11.0801 29.1049 11.7774 29.1057C12.5885 29.0475 13.3475 28.6833 13.9016 28.0864C14.4557 27.4895 14.7638 26.7041 14.7638 25.8885C14.7638 25.0729 14.4557 24.2876 13.9016 23.6906C13.3475 23.0937 12.5885 22.7295 11.7774 22.6714V22.6714Z" fill="#018BFF"></path>
</svg>