<svg xmlns="http://www.w3.org/2000/svg" viewBox="0 0 500 500"><g id="freepik--background-simple--inject-64"><path d="M432.46,131.52c-16.68-19.91-46.16-28-70.64-19.26C344.74,118.32,330,131.64,311.93,133c-13.45,1-26.63-4.88-37.36-13.06s-19.53-18.55-29-28.14c-18-18.18-39.13-34-63.58-41.42s-52.54-5.63-73.55,8.91C81.89,77.69,71.28,112.69,73,144.91c1.35,25.86,9.77,51.8,26.47,71.6s42.15,32.78,68,31.62l130.22-1.8c25,3.12,54.67,1.39,79.51-2.89s49.43-17.09,61.88-39C451.9,181.86,449.15,151.42,432.46,131.52Z" style="fill:#f5f5f5"></path></g><g id="freepik--Road--inject-64"><path d="M18.63,364.38l3.18-29.17,181.43,11.87a15.59,15.59,0,0,0,16.47-13.42L231.54,248h41.13l17.79,87.61a15.58,15.58,0,0,0,16,12.47l170.44-7.8v30.62L327.25,396.4A26.08,26.08,0,0,0,304,426l7,49.9-105.49,0,4.27-45.69a33.4,33.4,0,0,0-27.95-36.09Z" style="fill:#e0e0e0"></path><polygon points="259.95 326.95 250 326.95 252.36 284.23 256.68 284.24 259.95 326.95" style="fill:#f5f5f5"></polygon><polygon points="263.53 425.55 250 425.55 252.41 372.65 259.81 372.67 263.53 425.55" style="fill:#f5f5f5"></polygon><polygon points="324.52 374.82 323.56 366.55 376.28 361.94 377.71 367.43 324.52 374.82" style="fill:#f5f5f5"></polygon><polygon points="431.38 363.45 430.43 355.18 476.89 351.11 476.89 357.12 431.38 363.45" style="fill:#f5f5f5"></polygon><polygon points="188.63 369.89 189.59 361.62 136.87 357 135.44 362.5 188.63 369.89" style="fill:#f5f5f5"></polygon><polygon points="71.82 357 72.58 350.4 20.87 343.8 20.21 349.83 71.82 357" style="fill:#f5f5f5"></polygon></g><g id="freepik--Sign--inject-64"><path d="M320.72,329.19h-8.6V68.39a4.3,4.3,0,0,1,4.3-4.3h0a4.31,4.31,0,0,1,4.3,4.3Z" style="fill:#263238"></path><polygon points="275.64 173.9 299.47 171.69 358.38 203.4 354.44 210.71 347.01 210.68 351.96 215.33 346.57 225.34 288.04 193.84 275.64 173.9" style="fill:#23A9F2"></polygon><polygon points="275.64 173.9 299.47 171.69 358.38 203.4 354.44 210.71 347.01 210.68 351.96 215.33 346.57 225.34 288.04 193.84 275.64 173.9" style="opacity:0.30000000000000004"></polygon><path d="M274.91,170.87l16.82-1.56a9.64,9.64,0,0,1,5.47,1.11l56.34,30.32-3.94,7.32-7.43,0,4.95,4.65-5.39,10-56.26-30.28a9.69,9.69,0,0,1-3.62-3.4L273,174.75A2.54,2.54,0,0,1,274.91,170.87Z" style="fill:#23A9F2"></path><g style="opacity:0.2"><path d="M339.31,221.47a8.45,8.45,0,0,0-1-2.43,17.91,17.91,0,0,0-5.26-4.83,119.08,119.08,0,0,0-20.77-11.64c-4.27-1.87-8.47-3.33-12.25-4.77a93.1,93.1,0,0,1-9.89-4.25,40.35,40.35,0,0,1-6.16-3.84c-.69-.51-1.18-1-1.53-1.25a3.05,3.05,0,0,1-.5-.48s.76.58,2.15,1.56a43.49,43.49,0,0,0,6.21,3.68,98.14,98.14,0,0,0,9.89,4.13c3.78,1.41,8,2.86,12.29,4.74a112.44,112.44,0,0,1,20.78,11.82,17.36,17.36,0,0,1,5.22,5,5.94,5.94,0,0,1,.72,1.85,2.56,2.56,0,0,1,.08.51C339.31,221.41,339.32,221.47,339.31,221.47Z"></path><path d="M276.91,171a7.65,7.65,0,0,0-.08,3.26,9.26,9.26,0,0,0,1.52,3.5,18.06,18.06,0,0,0,3.56,3.63,107.9,107.9,0,0,0,11,7.59c4.31,2.62,9.2,5.24,14.39,7.89l26.58,13.58c3.35,1.75,6.09,3.16,8,4.17l2.17,1.16a7,7,0,0,1,.74.43,4.56,4.56,0,0,1-.79-.34l-2.21-1.07-8.11-4L307.08,197.3c-5.19-2.66-10.09-5.3-14.4-8a101.72,101.72,0,0,1-11-7.72,17.75,17.75,0,0,1-3.57-3.75,9.21,9.21,0,0,1-1.48-3.62,6.86,6.86,0,0,1,0-2.48A4.44,4.44,0,0,1,276.91,171Z"></path><path d="M300.07,181.89a4.92,4.92,0,0,1-.5-.71,21.76,21.76,0,0,0-1.49-2,20.9,20.9,0,0,0-7.14-5.41,14.23,14.23,0,0,0-2.8-1,5.35,5.35,0,0,0-3.09.14,3.27,3.27,0,0,0-2.12,2.31,4.57,4.57,0,0,0,1,3.29c2.88,4.15,7.45,7.53,12.51,10.4,1.27.72,2.54,1.43,3.8,2.07a9,9,0,0,0,3.9,1.12,4.19,4.19,0,0,0,3.4-1.47,4.77,4.77,0,0,0,.82-3.51,9.55,9.55,0,0,0-1.24-3.38c-.59-1-1.24-2-1.87-2.93a33.82,33.82,0,0,0-4-4.77,28.74,28.74,0,0,0-7.35-5.21c-1-.47-1.72-.8-2.25-1a7.21,7.21,0,0,1-.78-.35,5,5,0,0,1,.82.25,23.48,23.48,0,0,1,2.3.93,27.48,27.48,0,0,1,7.51,5.13,33.2,33.2,0,0,1,4.12,4.78c.64.93,1.3,1.9,1.91,3a10.05,10.05,0,0,1,1.32,3.53,5.27,5.27,0,0,1-.91,3.89,4.7,4.7,0,0,1-3.79,1.67A9.36,9.36,0,0,1,300,191.5c-1.29-.65-2.55-1.36-3.83-2.08-5.09-2.88-9.72-6.31-12.64-10.58a5,5,0,0,1-1-3.65,3.71,3.71,0,0,1,2.41-2.62,5.79,5.79,0,0,1,3.34-.13,14,14,0,0,1,2.86,1,19.74,19.74,0,0,1,8.57,7.64A7.52,7.52,0,0,1,300.07,181.89Z"></path><path d="M351.84,204.07c0,.05-.81-.34-2.34-.65a21,21,0,0,0-6.59,0c-2.77.31-6,1.17-9.81,1.21a16.87,16.87,0,0,1-5.81-1,21.72,21.72,0,0,1-5.56-3,32.88,32.88,0,0,1-8.1-9,81.74,81.74,0,0,1-4.64-8.74c-1.21-2.54-2.2-4.58-2.94-6l-.84-1.6a2.56,2.56,0,0,1-.27-.57,3.14,3.14,0,0,1,.36.52c.23.35.54.87.93,1.55.79,1.37,1.84,3.39,3.09,5.91a87.72,87.72,0,0,0,4.71,8.64,33.12,33.12,0,0,0,8,8.84,18.68,18.68,0,0,0,11.06,3.91c3.68,0,7-.82,9.77-1.09a19.77,19.77,0,0,1,6.67.22,10.83,10.83,0,0,1,1.73.55A2.42,2.42,0,0,1,351.84,204.07Z"></path><path d="M331.21,194a3.61,3.61,0,0,1-.6-.22c-.38-.16-.93-.41-1.64-.77s-1.54-.82-2.49-1.42q-.72-.44-1.5-1a4.43,4.43,0,0,1-1.5-1.41,1,1,0,0,1,.12-1.22,1.34,1.34,0,0,1,1.24-.22c.78.21,1.51.47,2.3.74,1.56.55,3.21,1.21,4.9,2a52.93,52.93,0,0,1,5.16,2.74,6.58,6.58,0,0,1,2.41,2.07,2,2,0,0,1-.95,3,7.32,7.32,0,0,1-3.25.36,19.48,19.48,0,0,1-3.09-.4,21.12,21.12,0,0,1-5.54-1.95,20.83,20.83,0,0,1-10.38-12.47,14.32,14.32,0,0,1-.43-1.76,2.67,2.67,0,0,1-.08-.63c.05,0,.21.85.71,2.33a22,22,0,0,0,3,5.84,20.74,20.74,0,0,0,7.37,6.26,21,21,0,0,0,5.42,1.88,19.94,19.94,0,0,0,3,.38,6.69,6.69,0,0,0,3-.32,1.6,1.6,0,0,0,.93-1,1.54,1.54,0,0,0-.21-1.29,6.16,6.16,0,0,0-2.22-1.91,56.85,56.85,0,0,0-5.1-2.74c-1.67-.79-3.3-1.46-4.84-2-.77-.28-1.54-.56-2.24-.75a1,1,0,0,0-.9.1.62.62,0,0,0-.06.77,4.13,4.13,0,0,0,1.38,1.31c.5.38,1,.71,1.45,1,.93.61,1.76,1.1,2.44,1.48s1.22.67,1.59.86A2.63,2.63,0,0,1,331.21,194Z"></path></g><path d="M369,149.5l-.13-.11-16.85-10-66.74-4.67-.58,8.28L291,147l-6.66,1.29-.8,11.34L346.06,164a14.11,14.11,0,0,0,7.12-1.37l12.37-6C368.15,155.38,369,152.48,369,149.5Z" style="fill:#23A9F2"></path><path d="M369,149.5l-.13-.11-16.85-10-66.74-4.67-.58,8.28L291,147l-6.66,1.29-.8,11.34L346.06,164a14.11,14.11,0,0,0,7.12-1.37l12.37-6A7.91,7.91,0,0,0,369,149.5Z" style="opacity:0.30000000000000004"></path><path d="M368,148.16l-13.38-10.31a9.64,9.64,0,0,0-5.22-2l-63.83-4.47-.58,8.29,6.3,3.94-6.66,1.29-.8,11.34,63.74,4.47a9.68,9.68,0,0,0,4.88-.94l15.11-7.31A2.55,2.55,0,0,0,368,148.16Z" style="fill:#23A9F2"></path><g style="opacity:0.2"><path d="M286.49,156.53s0-.06.1-.15a3,3,0,0,1,.34-.39,6.21,6.21,0,0,1,1.6-1.17,17.14,17.14,0,0,1,7.1-1.46,111.14,111.14,0,0,1,23.88,1.11c4.63.7,9,1.73,12.92,2.56A97.75,97.75,0,0,0,343,158.82a44.67,44.67,0,0,0,7.21.21c1.7-.09,2.64-.23,2.65-.17a3.45,3.45,0,0,1-.68.13,18.23,18.23,0,0,1-2,.24,39.91,39.91,0,0,1-7.26,0,93.43,93.43,0,0,1-10.63-1.69c-4-.81-8.3-1.82-12.9-2.52a119.93,119.93,0,0,0-23.78-1.25,17.88,17.88,0,0,0-7,1.27A8.35,8.35,0,0,0,286.49,156.53Z"></path><path d="M366.22,147.17a3.92,3.92,0,0,1-.22.83,6.81,6.81,0,0,1-1.3,2.11,9.52,9.52,0,0,1-3.19,2.27,17.9,17.9,0,0,1-5,1.26,100.26,100.26,0,0,1-13.43.64c-5.05-.06-10.6-.44-16.41-1l-29.71-2.87-9-.94-2.45-.28a5,5,0,0,1-.84-.13,4.54,4.54,0,0,1,.85,0l2.46.18,9,.77,29.73,2.72c5.8.53,11.33.92,16.37,1a104.56,104.56,0,0,0,13.37-.52,18.25,18.25,0,0,0,5-1.17,9.19,9.19,0,0,0,3.15-2.14A7.66,7.66,0,0,0,366.22,147.17Z"></path><path d="M340.81,144a6.69,6.69,0,0,1,.75-.43,21.33,21.33,0,0,1,2.29-.95,20.51,20.51,0,0,1,9-.93,14.57,14.57,0,0,1,3,.65,5.78,5.78,0,0,1,2.76,1.89,3.71,3.71,0,0,1,.63,3.51,5,5,0,0,1-2.82,2.53c-4.76,2-10.5,2.47-16.35,2.18-1.47-.07-2.91-.14-4.34-.28a9.44,9.44,0,0,1-4.12-1.22,4.68,4.68,0,0,1-2.31-3.44,5.28,5.28,0,0,1,1.31-3.77,9.92,9.92,0,0,1,3-2.28c1.07-.56,2.14-1,3.19-1.48a33.32,33.32,0,0,1,6-1.84,27.21,27.21,0,0,1,9.09-.32,21.69,21.69,0,0,1,2.44.44,5,5,0,0,1,.84.23,7.29,7.29,0,0,1-.86-.13c-.55-.1-1.38-.23-2.44-.34a28.6,28.6,0,0,0-9,.48,34.23,34.23,0,0,0-5.94,1.88c-1,.45-2.1.93-3.15,1.48a9.62,9.62,0,0,0-2.85,2.19,4.79,4.79,0,0,0-1.19,3.41,4.18,4.18,0,0,0,2.1,3.06,9,9,0,0,0,3.89,1.14c1.41.13,2.86.2,4.32.27,5.81.29,11.48-.13,16.12-2.1a4.55,4.55,0,0,0,2.59-2.25,3.25,3.25,0,0,0-.55-3.09,5.35,5.35,0,0,0-2.54-1.77,13.37,13.37,0,0,0-2.89-.66,20.87,20.87,0,0,0-8.93.75c-1,.32-1.78.65-2.3.86A5.18,5.18,0,0,1,340.81,144Z"></path><path d="M285.2,135.12a2.49,2.49,0,0,1,.63.06,10,10,0,0,1,1.76.46,19.71,19.71,0,0,1,5.75,3.37c2.23,1.73,4.57,4.17,7.68,6.15a18.67,18.67,0,0,0,11.44,2.6A33,33,0,0,0,324,144.57a87.89,87.89,0,0,0,8.6-4.79c2.4-1.46,4.37-2.61,5.76-3.34.7-.37,1.25-.64,1.62-.81a2.63,2.63,0,0,1,.59-.25,2.86,2.86,0,0,1-.54.34l-1.57.9c-1.36.78-3.29,2-5.66,3.48a82.21,82.21,0,0,1-8.59,4.9,32.86,32.86,0,0,1-11.67,3.28,21.47,21.47,0,0,1-6.29-.45,16.8,16.8,0,0,1-5.43-2.26c-3.17-2-5.48-4.52-7.66-6.27a20.64,20.64,0,0,0-5.59-3.47A22.49,22.49,0,0,0,285.2,135.12Z"></path><path d="M308,137.62a3.32,3.32,0,0,1,.63,0c.41,0,1,.09,1.8.13s1.74.07,2.85.05c.56,0,1.15,0,1.78-.08a4.33,4.33,0,0,0,1.86-.38.61.61,0,0,0,.36-.68c-.06-.26-.36-.45-.7-.57-.7-.21-1.5-.38-2.29-.56-1.61-.35-3.34-.65-5.18-.88s-3.77-.36-5.78-.4a6,6,0,0,0-2.89.42,1.58,1.58,0,0,0-.87,1,1.6,1.6,0,0,0,.27,1.31,6.75,6.75,0,0,0,2.37,1.87,19.14,19.14,0,0,0,2.76,1.29,21.31,21.31,0,0,0,5.58,1.32,20.86,20.86,0,0,0,9.58-1.36,21.79,21.79,0,0,0,5.68-3.32c1.22-1,1.81-1.62,1.84-1.59s-.12.18-.4.49A15.26,15.26,0,0,1,326,137a20.75,20.75,0,0,1-15.43,5,21.62,21.62,0,0,1-5.73-1.31,19.42,19.42,0,0,1-2.82-1.32,7,7,0,0,1-2.55-2,2.11,2.11,0,0,1-.34-1.73,2.07,2.07,0,0,1,1.14-1.31,6.5,6.5,0,0,1,3.13-.47,53.32,53.32,0,0,1,5.83.44c1.85.24,3.6.56,5.21.93.82.19,1.57.36,2.34.6a1.36,1.36,0,0,1,.93.85,1,1,0,0,1-.54,1.1,4.52,4.52,0,0,1-2,.39c-.64,0-1.24,0-1.8,0-1.12,0-2.08-.07-2.86-.14s-1.39-.15-1.8-.22A2.49,2.49,0,0,1,308,137.62Z"></path></g><polygon points="273.6 104.87 294 117.39 360.85 114.99 360.56 106.69 353.88 103.42 360.37 101.44 359.96 90.08 293.54 92.46 273.6 104.87" style="fill:#23A9F2"></polygon><polygon points="273.6 104.87 294 117.39 360.85 114.99 360.56 106.69 353.88 103.42 360.37 101.44 359.96 90.08 293.54 92.46 273.6 104.87" style="opacity:0.30000000000000004"></polygon><path d="M271.6,107.27,286,116.1a9.6,9.6,0,0,0,5.4,1.42l63.94-2.29-.3-8.3-6.68-3.26,6.49-2-.4-11.36L290.6,92.61a9.65,9.65,0,0,0-4.76,1.45l-14.25,8.87A2.55,2.55,0,0,0,271.6,107.27Z" style="fill:#23A9F2"></path><g style="opacity:0.2"><path d="M351.74,90.34a.53.53,0,0,1-.09.16,3,3,0,0,1-.29.42,6.46,6.46,0,0,1-1.47,1.34,17.38,17.38,0,0,1-6.9,2.2,111.7,111.7,0,0,1-23.87,1.42c-4.68-.21-9.1-.78-13.12-1.19A100.54,100.54,0,0,0,295.3,94a44.37,44.37,0,0,0-7.19.55c-1.68.27-2.6.51-2.62.45a6.27,6.27,0,0,1,.66-.2c.44-.11,1.08-.3,1.92-.45a40.55,40.55,0,0,1,7.23-.72,93.76,93.76,0,0,1,10.75.55c4,.39,8.44.94,13.09,1.15a119.32,119.32,0,0,0,23.79-1.27,18,18,0,0,0,6.85-2A8.82,8.82,0,0,0,351.74,90.34Z"></path><path d="M273.44,108.07a3.4,3.4,0,0,1,.13-.85,6.72,6.72,0,0,1,1.07-2.23,9.39,9.39,0,0,1,2.93-2.6,18.13,18.13,0,0,1,4.87-1.79,102.55,102.55,0,0,1,13.27-2c5-.47,10.6-.68,16.43-.77L342,97.5l9.05,0,2.46,0a5.25,5.25,0,0,1,.86,0,5.36,5.36,0,0,1-.86.07l-2.46.07-9,.19-29.85.43c-5.83.09-11.37.28-16.39.73A107.37,107.37,0,0,0,282.52,101a18.17,18.17,0,0,0-4.81,1.69,9.27,9.27,0,0,0-2.91,2.46A7.66,7.66,0,0,0,273.44,108.07Z"></path><path d="M299,108.5a4.75,4.75,0,0,1-.7.51,18.62,18.62,0,0,1-2.18,1.19,20.45,20.45,0,0,1-8.88,1.88,14.87,14.87,0,0,1-3-.33,5.74,5.74,0,0,1-2.93-1.59,3.72,3.72,0,0,1-1-3.43,5,5,0,0,1,2.54-2.81c4.51-2.53,10.18-3.56,16-3.9,1.47-.08,2.91-.16,4.35-.18a9.39,9.39,0,0,1,4.22.79,4.69,4.69,0,0,1,2.67,3.17,5.28,5.28,0,0,1-.91,3.89,10,10,0,0,1-2.75,2.58c-1,.68-2,1.26-3,1.81a33.36,33.36,0,0,1-5.8,2.47,27.56,27.56,0,0,1-9,1.28,22.77,22.77,0,0,1-2.47-.18,4.32,4.32,0,0,1-.85-.14,6.18,6.18,0,0,1,.86,0c.56,0,1.39.09,2.46.09a28.78,28.78,0,0,0,8.89-1.43,33,33,0,0,0,5.71-2.5c1-.55,2-1.14,3-1.81a9.43,9.43,0,0,0,2.61-2.47,4.83,4.83,0,0,0,.82-3.52,4.2,4.2,0,0,0-2.41-2.82,9,9,0,0,0-4-.72c-1.41,0-2.86.1-4.32.18-5.81.34-11.4,1.35-15.81,3.8a4.5,4.5,0,0,0-2.34,2.51,3.26,3.26,0,0,0,.88,3,5.38,5.38,0,0,0,2.71,1.5,13.71,13.71,0,0,0,2.94.35,21,21,0,0,0,8.8-1.69,23.19,23.19,0,0,0,2.2-1.1A6.31,6.31,0,0,1,299,108.5Z"></path><path d="M355.28,111.5a3.37,3.37,0,0,1-.63,0,10.17,10.17,0,0,1-1.8-.27,19.75,19.75,0,0,1-6.08-2.75c-2.4-1.48-5-3.66-8.28-5.3a18.68,18.68,0,0,0-11.65-1.38,33.1,33.1,0,0,0-11.09,4.39,88.49,88.49,0,0,0-8.05,5.67c-2.23,1.71-4.07,3.06-5.38,3.93-.65.44-1.17.77-1.52,1a3.28,3.28,0,0,1-.56.31,3.22,3.22,0,0,1,.5-.4l1.47-1.06c1.27-.92,3.06-2.31,5.26-4.05a82.43,82.43,0,0,1,8-5.79,33,33,0,0,1,11.25-4.49,21.32,21.32,0,0,1,6.31-.22,17.06,17.06,0,0,1,5.64,1.68c3.36,1.7,5.92,3.92,8.27,5.42A21,21,0,0,0,352.9,111C354.41,111.44,355.29,111.44,355.28,111.5Z"></path><path d="M332.32,111.42a5.19,5.19,0,0,1-.63,0c-.41,0-1,0-1.8.06s-1.74.12-2.84.26c-.55.07-1.14.16-1.76.27a4.19,4.19,0,0,0-1.81.57.61.61,0,0,0-.29.71,1,1,0,0,0,.76.49c.71.14,1.53.23,2.34.32,1.63.18,3.39.3,5.23.32a55,55,0,0,0,5.8-.2,6.16,6.16,0,0,0,2.83-.72,1.6,1.6,0,0,0,.76-1.08,1.63,1.63,0,0,0-.41-1.27,6.73,6.73,0,0,0-2.55-1.61,19.62,19.62,0,0,0-2.88-1,21.45,21.45,0,0,0-5.69-.72,20.68,20.68,0,0,0-9.38,2.37,21.62,21.62,0,0,0-5.3,3.89c-1.1,1.11-1.63,1.81-1.67,1.78a3.51,3.51,0,0,1,.36-.53,15.19,15.19,0,0,1,1.16-1.39,20.85,20.85,0,0,1,14.82-6.6,21.61,21.61,0,0,1,5.83.7,20.56,20.56,0,0,1,2.95,1,7.15,7.15,0,0,1,2.75,1.76,2.09,2.09,0,0,1,.52,1.68,2,2,0,0,1-1,1.43,6.66,6.66,0,0,1-3.07.8,52.88,52.88,0,0,1-5.84.17c-1.87,0-3.64-.17-5.28-.37-.83-.11-1.6-.2-2.39-.36a1.35,1.35,0,0,1-1-.74,1,1,0,0,1,.43-1.15,4.42,4.42,0,0,1,2-.6c.62-.1,1.22-.17,1.78-.23,1.11-.11,2.07-.16,2.86-.17s1.4,0,1.81,0A2.2,2.2,0,0,1,332.32,111.42Z"></path></g></g><g id="freepik--Character--inject-64"><polygon points="145.63 441.88 144.26 474.35 126.72 473.95 128.04 441.42 145.63 441.88" style="fill:#23A9F2"></polygon><path d="M135.65,472.93c-.15,0,.12-7.12.6-15.88s1-15.86,1.14-15.85-.12,7.12-.61,15.88S135.79,472.94,135.65,472.93Z" style="fill:#263238"></path><polygon points="144.35 472.11 126.82 471.66 126.72 473.95 144.26 474.35 144.35 472.11" style="fill:#263238"></polygon><path d="M127.14,463.56a2.47,2.47,0,0,1,.49-.69,11.82,11.82,0,0,1,1.63-1.6,12.26,12.26,0,0,1,2.92-1.76A9.32,9.32,0,0,1,143,462a7.7,7.7,0,0,1,1.19,2,2.29,2.29,0,0,1,.24.81,16.28,16.28,0,0,0-1.72-2.53,9.32,9.32,0,0,0-6.43-3,10.74,10.74,0,0,0-6.79,2.29C128,462.7,127.21,463.62,127.14,463.56Z" style="fill:#263238"></path><g style="opacity:0.30000000000000004"><polygon points="127.66 450.68 127.52 454.26 145.09 454.57 145.21 451.88 127.66 450.68"></polygon></g><path d="M186.9,443.82l-.85,19.77s19.8,7.5,20,11.17l-38.37-.28.07-30.85Z" style="fill:#23A9F2"></path><path d="M174.45,461.91a1.57,1.57,0,0,0-1.11,1.79,1.52,1.52,0,0,0,1.77,1.11,1.66,1.66,0,0,0,1.16-1.9,1.56,1.56,0,0,0-2-1" style="fill:#e0e0e0"></path><path d="M167.67,474.47v-3.08l37.14,1.4s1.71.76,1.51,2Z" style="fill:#263238"></path><path d="M186.39,463.71c0,.19-.95.27-1.88.87s-1.43,1.39-1.61,1.31.12-1.16,1.26-1.87S186.44,463.54,186.39,463.71Z" style="fill:#263238"></path><path d="M190.44,465.42c0,.18-.78.5-1.43,1.29s-.84,1.64-1,1.63-.3-1.08.53-2S190.43,465.24,190.44,465.42Z" style="fill:#263238"></path><path d="M192.7,470.29c-.17,0-.43-.91.07-1.94s1.37-1.43,1.45-1.27-.47.7-.86,1.55S192.89,470.27,192.7,470.29Z" style="fill:#263238"></path><path d="M186.09,459.16c-.08.17-1-.1-2,0s-1.91.39-2,.23.7-.83,2-.89S186.18,459,186.09,459.16Z" style="fill:#263238"></path><path d="M186.81,454.9a3.64,3.64,0,0,1-1.94,0,8.93,8.93,0,0,1-2-.64,8.09,8.09,0,0,1-1.11-.6,2.41,2.41,0,0,1-.58-.46.82.82,0,0,1-.08-1,1,1,0,0,1,.83-.43,3,3,0,0,1,.73.11,7.06,7.06,0,0,1,1.2.42,6.89,6.89,0,0,1,1.78,1.19c.89.83,1.19,1.54,1.12,1.58s-.52-.54-1.42-1.23a8.11,8.11,0,0,0-1.72-1,7.59,7.59,0,0,0-1.11-.36c-.41-.11-.76-.11-.86.07s0,.1,0,.22a1.7,1.7,0,0,0,.42.33,9.86,9.86,0,0,0,1,.59,10.92,10.92,0,0,0,1.87.74A13.63,13.63,0,0,1,186.81,454.9Z" style="fill:#263238"></path><path d="M186.56,455.17a3,3,0,0,1-.5-1.87,6.23,6.23,0,0,1,.28-2.12,6.53,6.53,0,0,1,.5-1.17,1.61,1.61,0,0,1,1.25-1,.91.91,0,0,1,.8.55,2.28,2.28,0,0,1,.19.71,4.33,4.33,0,0,1-.85,3.29c-.76,1-1.55,1.22-1.56,1.16s.59-.46,1.18-1.42a4.4,4.4,0,0,0,.63-1.81,4.23,4.23,0,0,0,0-1.12c-.06-.41-.21-.74-.37-.7s-.52.3-.68.63a5.71,5.71,0,0,0-.48,1,6.88,6.88,0,0,0-.39,1.93C186.47,454.44,186.66,455.14,186.56,455.17Z" style="fill:#263238"></path><g style="opacity:0.30000000000000004"><polygon points="167.66 455.48 167.7 459.87 186.21 459.87 186.21 455.89 167.66 455.48"></polygon></g><polyline points="157.02 318.03 151.35 372.69 147.28 455 125.56 455 124.97 279.82 187.16 284.25 200.05 376.16 188.89 456.61 165.06 456.61 170.63 380.12 157.02 318.03" style="fill:#263238"></polyline><path d="M157,318a32.39,32.39,0,0,0,4.23,4.17,33.08,33.08,0,0,0,4.58,3.77,31.94,31.94,0,0,0-4.22-4.17A32.8,32.8,0,0,0,157,318Z" style="fill:#455a64"></path><path d="M157.09,316.94a63.76,63.76,0,0,0-.12-7,64.51,64.51,0,0,0-.4-7,36.14,36.14,0,0,0-.14,7A36.54,36.54,0,0,0,157.09,316.94Z" style="fill:#455a64"></path><path d="M149.9,296.54a1.62,1.62,0,0,0-.35,0l-1.07-.06-4.12-.2-14.72-.62h-.26v.25c0,4.6,0,9.8,0,15.29v.48l.17.07,9.58,3.83.09,0,.09,0,8.47-2.94.13-.05v-.14c.62-4.77,1.14-8.74,1.51-11.59.16-1.33.29-2.4.39-3.19a9.42,9.42,0,0,0,.1-1.09,1.61,1.61,0,0,0-.06.31c0,.24-.09.52-.15.86-.13.8-.3,1.88-.51,3.23-.42,2.8-1,6.72-1.72,11.41l.15-.18-8.49,2.88h.18l-9.57-3.86.17.25v-.3c0-5.49,0-10.69,0-15.29l-.25.25,14.56.36,4.19.07h1.53Z" style="fill:#455a64"></path><path d="M181.26,296.8l-.32,0-1,0-3.73-.11-13.43-.32h-.25v.25c.15,4.54.31,9.76.49,15.33V312l.11.08,1.56,1,7.87,5.13.14.09.14-.08,8.87-5.41.11-.07v-.13c-.17-4.76-.31-8.73-.41-11.58-.05-1.32-.1-2.39-.13-3.18s-.07-1.1-.08-1.09a1.27,1.27,0,0,0,0,.32V298c0,.81,0,1.89,0,3.24,0,2.81.1,6.74.17,11.44l.11-.19-8.91,5.34h.28L165,312.66l-1.55-1,.12.22c-.2-5.57-.39-10.8-.56-15.34l-.24.25,13.29.07h4.79Z" style="fill:#455a64"></path><path d="M131.68,321.56a13.94,13.94,0,0,0,2.95-.09c1.81-.13,4.31-.38,7.06-.74s5.23-.75,7-1.08a14.91,14.91,0,0,0,2.87-.67,17.17,17.17,0,0,0-2.93.29l-7,.93-7,.89A17.76,17.76,0,0,0,131.68,321.56Z" style="fill:#455a64"></path><path d="M132.19,382.49s.09.31.51.69a3.47,3.47,0,0,0,2.22.75,5.21,5.21,0,0,0,3.25-1.24,23.28,23.28,0,0,0,3-3,41,41,0,0,0,4.39-6.19,13.16,13.16,0,0,0,1.38-2.83,29.82,29.82,0,0,0-1.7,2.63,55.7,55.7,0,0,1-4.48,6,25.26,25.26,0,0,1-2.86,2.95,5,5,0,0,1-2.94,1.25,3.44,3.44,0,0,1-2.09-.54C132.4,382.72,132.23,382.46,132.19,382.49Z" style="fill:#455a64"></path><path d="M175.09,384.41s0,.28.29.7a4.49,4.49,0,0,0,1.5,1.42,5.72,5.72,0,0,0,3,.79,7.18,7.18,0,0,0,3.59-1.14,12.74,12.74,0,0,0,4.32-5.15,11,11,0,0,0,1.07-2.56,19.37,19.37,0,0,0-1.41,2.38,13.64,13.64,0,0,1-4.27,4.87,6.82,6.82,0,0,1-3.31,1.1,5.6,5.6,0,0,1-2.78-.62A6.07,6.07,0,0,1,175.09,384.41Z" style="fill:#455a64"></path><path d="M173.7,376.16a5.4,5.4,0,0,0,1.79,1,13.94,13.94,0,0,0,4.86,1.08,14.12,14.12,0,0,0,5-.67,5.57,5.57,0,0,0,1.86-.89,22.76,22.76,0,0,1-6.78,1A22.44,22.44,0,0,1,173.7,376.16Z" style="fill:#455a64"></path><path d="M156.22,185.17l-23.43-.29,2.62-19.26s-1.6-.33-1.71-8.71-.51-22.62-.51-22.62h0A31,31,0,0,1,163.5,138l1.29,1Z" style="fill:#ffbe9d"></path><path d="M162.07,149.23c.15-.06,6-1.7,5.77,4s-6.11,4.36-6.11,4.19S162.07,149.23,162.07,149.23Z" style="fill:#ffbe9d"></path><path d="M134.2,148c-.15-.06-5.43-1.43-5.25,4.29s6.11,4.37,6.12,4.2S134.2,148,134.2,148Z" style="fill:#ffbe9d"></path><path d="M164,148.59c-.88,4.8-.71,7.32-1.53,10.53-1.3,5.07-3.91,9-8.64,11.5s-11.14,2.49-15.2-1c-2.83-2.4-4.83-5.1-5.25-8.71s-.83-10-.86-13.61c0-6.54-.5-12.79-.5-12.79l19.35-3.38,11,6.32Z" style="fill:#263238"></path><path d="M144,173.51a6.46,6.46,0,0,0,3.39.29,6.32,6.32,0,0,0,3.24-1c0-.14-1.48.29-3.3.48S144.05,173.36,144,173.51Z" style="fill:#263238"></path><path d="M163.06,156.75c.56-4.92.93-10.54,1.73-15.73.3-2,1-4.75.84-6.71a15.69,15.69,0,0,0-1.28-5.76,8.46,8.46,0,0,0-5.88-4.39,8.79,8.79,0,0,0-7.18,1.85,6.56,6.56,0,0,0-6.64-2.54,6.31,6.31,0,0,0-4.81,5.1,4.64,4.64,0,0,0-5.28-.55,4.27,4.27,0,0,0-1.92,4.77,4.33,4.33,0,0,0-3.2,2.4,4.09,4.09,0,0,0,.32,3.91c.9,1.33,2.52,2.06,3.5,3.33a4.63,4.63,0,0,1,.3,5.17" style="fill:#263238"></path><path d="M136.18,139a1.24,1.24,0,0,0,.22.53,3.74,3.74,0,0,0,1.12,1.23,4.15,4.15,0,0,0,2.52.77,4.42,4.42,0,0,0,3.1-1.41l-.41-.11a3.94,3.94,0,0,0,2.59,2.87,4.77,4.77,0,0,0,4.36-.53,6.36,6.36,0,0,0,2.46-3.11l-.47.06a5.47,5.47,0,0,0,4.38,2.31,5.13,5.13,0,0,0,3.69-1.45,4.88,4.88,0,0,0,1.33-2.19,2.11,2.11,0,0,0,.12-.91s-.09.32-.29.86a5.27,5.27,0,0,1-1.39,2,4.9,4.9,0,0,1-3.44,1.25,5.11,5.11,0,0,1-4-2.16l-.28-.43-.19.48a6,6,0,0,1-2.26,2.85,4.25,4.25,0,0,1-3.87.49,3.51,3.51,0,0,1-2.32-2.47l-.08-.48-.33.37a4,4,0,0,1-5.1.71A5.45,5.45,0,0,1,136.18,139Z" style="fill:#455a64"></path><path d="M136.22,136.71a5,5,0,0,1,.82-2.09,3.54,3.54,0,0,1,2-1.32,3.81,3.81,0,0,1,2.95.54l.47.33-.05-.56a4.12,4.12,0,0,1,.2-1.65,4.52,4.52,0,0,1,2.38-2.67,4.74,4.74,0,0,1,3-.26,6.47,6.47,0,0,1,2.51,1.37s-.11-.27-.48-.64a4.78,4.78,0,0,0-1.93-1.08,4.82,4.82,0,0,0-6,3.12,4.57,4.57,0,0,0-.21,1.86l.42-.24a4.24,4.24,0,0,0-3.38-.56,3.76,3.76,0,0,0-2.2,1.57,3.55,3.55,0,0,0-.6,1.65C136.13,136.49,136.19,136.71,136.22,136.71Z" style="fill:#455a64"></path><path d="M148.56,136.87c.07,0,0-.32,0-.78a3.67,3.67,0,0,1,.61-1.7c.39-.59.85-1.19,1.12-1.52s.57-.08.62-.11,0-.13-.13-.23a.68.68,0,0,0-.73.05,4.17,4.17,0,0,0-.67.66,7.48,7.48,0,0,0-.68.88,3.13,3.13,0,0,0-.52,2C148.26,136.64,148.5,136.9,148.56,136.87Z" style="fill:#455a64"></path><path d="M160,129.67c.06,0,0-.45-.36-1a2.71,2.71,0,0,0-.89-.9,2.35,2.35,0,0,0-1.57-.33,3.76,3.76,0,0,0-2.35,1.42c-.43.53-.63.89-.58.93s.38-.24.86-.68a4.15,4.15,0,0,1,2.14-1.16,2.28,2.28,0,0,1,2.07.93C159.77,129.33,160,129.7,160,129.67Z" style="fill:#455a64"></path><path d="M157,154a12.41,12.41,0,0,0,2.77-7.75c-.16,0-.47,1.8-1.23,3.93S156.89,153.88,157,154Z" style="fill:#455a64"></path><path d="M154.43,155.34a6.92,6.92,0,0,0,1.43-2.61,6.78,6.78,0,0,0,.71-2.87,10.81,10.81,0,0,0-1.21,2.69A10.09,10.09,0,0,0,154.43,155.34Z" style="fill:#455a64"></path><path d="M138.12,155.73a8.72,8.72,0,0,0,.67,5,9,9,0,0,0,3,4.2,30.7,30.7,0,0,1-2.44-4.38A30.75,30.75,0,0,1,138.12,155.73Z" style="fill:#455a64"></path><path d="M135.52,151.55a7.08,7.08,0,0,0-.38,4.53,7.22,7.22,0,0,0,2,4.12,25.92,25.92,0,0,1-1.47-4.21A24.64,24.64,0,0,1,135.52,151.55Z" style="fill:#455a64"></path><path d="M104.19,231.73v24s18,39.78,18,39.17,6.43-25.11,6.43-25.11l-7.24-19.11-.68-12.48-14.86-29.72s-3.69,20-3.09,21.2A8,8,0,0,0,104.19,231.73Z" style="fill:#23A9F2"></path><path d="M126.61,184.07s-16.36,8.49-18.38,11.11-2.42,13.33-2.42,13.33l20.8,41.6,1,16.76s-6.26,13.05-6.26,22.17v1l-1,12.52,25,2.22s1.42-6.87,1.42-6.26,1.82,6.26,1.82,6.26H190l-1.53-27.57-7.05-42.56s3-24.41,3.15-25.3c.26-1.58,26.48-13.21,26.48-13.21l12.35-6.67a10,10,0,0,0,5.22-8.76h0a10,10,0,0,0-5.54-8.92l-34.85-17.25-8.11,13.64,10.62,6.82,7.61,5.27-21.11,2s-3.75-4.9-5.36-4.9-14.54,3-14.54,3l.2-3.23s-3.43-3.84-7.27-3.64-20,4.85-20,4.85Z" style="fill:#23A9F2"></path><path d="M185.32,159.43h0l-9.09-5.29-13.83-7.5s-4.56-3.46-6.36-3.36a5.52,5.52,0,0,0-3.72,2.55c-.08.41.67,1.17,1.83.85.38-.1,1.44-.87,2-.75a4.16,4.16,0,0,1,2.58,1.86.62.62,0,0,1-.5,1s-7.83-2-10.75-.4a1.56,1.56,0,0,0-.79,1.92c.21.51.77,1,2.14.7,2.75-.53,7.29,1.58,7.29,1.58s-10.16-.33-11.9.54c-.69.34-1.44,2.56.63,2.79,2.44.26,7.25.16,7.25.16s4.54.63,3.81,1.48-7.7.92-8.23,1-2.89,0-2.76,1.92c.07,1.09,2.11,1.78,4.75,1.69,2.24-.07,9.19-.21,10,1.06s.26,2.19-.38,2.51a38.8,38.8,0,0,1-6.19,1c-.92,0-2.13,1.7.11,2.24,2.44.6,4.5.11,6.61.11s4.81.17,10.73-2.15c0,0,4-1.81,9.44,1.31Z" style="fill:#ffbe9d"></path><path d="M156.32,180.57c0,.15-6.37,1-14.27,2s-14.33,1.62-14.34,1.47,6.37-1,14.28-2S156.31,180.43,156.32,180.57Z" style="fill:#263238"></path><path d="M154.9,269a4.6,4.6,0,0,1,.35-.57l1.1-1.59c1-1.37,2.33-3.38,4-5.9s3.52-5.54,5.51-9,4-7.27,6.07-11.38,3.76-8.1,5.27-11.77,2.73-7,3.7-9.86,1.73-5.14,2.22-6.75c.24-.75.43-1.36.58-1.84a4.13,4.13,0,0,1,.24-.63,3.29,3.29,0,0,1-.13.66c-.13.48-.29,1.1-.5,1.87-.43,1.63-1.12,4-2.06,6.81s-2.14,6.23-3.61,9.92-3.23,7.7-5.24,11.82-4.12,8-6.12,11.39-3.93,6.45-5.62,8.94-3.1,4.47-4.12,5.8l-1.17,1.54A3,3,0,0,1,154.9,269Z" style="fill:#263238"></path><path d="M121,294.94a3.92,3.92,0,0,1,0-.56c0-.4.09-.94.15-1.6.15-1.39.44-3.42.89-5.95a137.88,137.88,0,0,1,5.35-20.05v.1c-.22-3.48-.45-7.23-.68-11.12-.12-1.93-.23-3.83-.34-5.64l0,.1c-4.45-8.67-8.13-16.44-10.64-22.08-1.26-2.81-2.22-5.1-2.86-6.68-.29-.76-.53-1.37-.71-1.83A3.41,3.41,0,0,1,112,219a3.54,3.54,0,0,1,.3.61l.79,1.79c.7,1.55,1.7,3.82,3,6.61,2.59,5.59,6.33,13.34,10.78,22l0,0v.05c.11,1.81.23,3.71.34,5.64.24,3.89.46,7.64.66,11.12v0l0,.05a149.11,149.11,0,0,0-5.51,19.93c-.5,2.52-.83,4.54-1,5.92l-.24,1.59A1.85,1.85,0,0,1,121,294.94Z" style="fill:#263238"></path><path d="M148.16,286.78a84.54,84.54,0,0,1-1.11,9.19,82,82,0,0,1-1.62,9.1,81.62,81.62,0,0,1,1.11-9.18A82.51,82.51,0,0,1,148.16,286.78Z" style="fill:#263238"></path><path d="M177.79,201.89a3.27,3.27,0,0,1-.53-.72c-.31-.48-.73-1.2-1.21-2.11a38.47,38.47,0,0,1-2.93-7.49,39,39,0,0,1-1.34-7.93c-.06-1-.07-1.86-.05-2.43a3.31,3.31,0,0,1,.08-.89c.09,0,.12,1.26.34,3.29a47.26,47.26,0,0,0,4.23,15.28A32.08,32.08,0,0,1,177.79,201.89Z" style="fill:#263238"></path><g style="opacity:0.30000000000000004"><path d="M156,267.09a7.18,7.18,0,0,0,6.42-.42,17.56,17.56,0,0,0,4.94-4.44A64.83,64.83,0,0,0,182,216.73,187.48,187.48,0,0,1,156.83,266"></path></g><g style="opacity:0.30000000000000004"><path d="M112.82,221.08a8.2,8.2,0,0,0-3.26-2.36,2.44,2.44,0,0,0-3.13,1.3,3.55,3.55,0,0,0,.26,2c1.93,5.69,3.92,11.51,7.7,16.18a9.27,9.27,0,0,0,2.37,1.89c.9.57,3.35,1.07,3.69.1a6,6,0,0,0,0-2.5s-5.39-11-8-16.65"></path></g><g style="opacity:0.30000000000000004"><path d="M198.13,180.26a14.79,14.79,0,0,0,7.3-.13c-3.75-2.84-8.64-3.46-13.3-4.09l6,4.22"></path></g><path d="M213.57,180.68a11.76,11.76,0,0,1-2.33,0l-5.58-.16-5.58-.09a11.76,11.76,0,0,1-2.32-.13,9.54,9.54,0,0,1,2.31-.24c1.43-.07,3.41-.11,5.6-.06s4.17.18,5.6.31A9.94,9.94,0,0,1,213.57,180.68Z" style="fill:#263238"></path><path d="M110,248c0-.06.53.3,1.29.88a14.62,14.62,0,0,0,3.1,1.95,6.45,6.45,0,0,0,3.53.46c.91-.17,1.41-.51,1.46-.43s-.41.51-1.38.79a5.93,5.93,0,0,1-3.81-.34,11.3,11.3,0,0,1-3.14-2.15C110.37,248.45,110,248,110,248Z" style="fill:#263238"></path><polygon points="148.16 288.67 153.08 304.83 148.62 304.83 146.55 297.56 148.16 288.67" style="opacity:0.30000000000000004"></polygon></g></svg>